<?xml version="1.0" encoding="UTF-8"?>
<svg xmlns="http://www.w3.org/2000/svg" viewBox="0 0 600 600" width="600" height="600">
<rect width="600" height="600" fill="#080808"/><defs>
  <filter id="g" x="-50%" y="-50%" width="200%" height="200%"
    ><feGaussianBlur stdDeviation="2" result="b"
    /><feMerge><feMergeNode in="b"/><feMergeNode in="SourceGraphic"/></feMerge></filter
  >
  <filter id="G" x="-50%" y="-50%" width="200%" height="200%"
    ><feGaussianBlur stdDeviation="5" result="b"
    /><feMerge><feMergeNode in="b"/><feMergeNode in="SourceGraphic"/></feMerge></filter
  >
</defs><line x1="0" y1="0.0" x2="600" y2="2.0" stroke="#303038" stroke-width="0.2" opacity="0.005"/><line x1="0" y1="6.0" x2="600" y2="8.0" stroke="#303038" stroke-width="0.2" opacity="0.005"/><line x1="0" y1="12.0" x2="600" y2="14.0" stroke="#303038" stroke-width="0.2" opacity="0.005"/><line x1="0" y1="18.0" x2="600" y2="20.0" stroke="#303038" stroke-width="0.2" opacity="0.005"/><line x1="0" y1="23.9" x2="600" y2="25.9" stroke="#303038" stroke-width="0.2" opacity="0.005"/><line x1="0" y1="29.8" x2="600" y2="31.8" stroke="#303038" stroke-width="0.2" opacity="0.005"/><line x1="0" y1="35.6" x2="600" y2="37.6" stroke="#303038" stroke-width="0.2" opacity="0.005"/><line x1="0" y1="41.4" x2="600" y2="43.4" stroke="#303038" stroke-width="0.2" opacity="0.005"/><line x1="0" y1="47.2" x2="600" y2="49.2" stroke="#303038" stroke-width="0.2" opacity="0.005"/><line x1="0" y1="52.8" x2="600" y2="54.8" stroke="#303038" stroke-width="0.2" opacity="0.005"/><line x1="0" y1="58.4" x2="600" y2="60.4" stroke="#303038" stroke-width="0.2" opacity="0.005"/><line x1="0" y1="63.9" x2="600" y2="65.9" stroke="#303038" stroke-width="0.2" opacity="0.005"/><line x1="0" y1="69.3" x2="600" y2="71.3" stroke="#303038" stroke-width="0.2" opacity="0.005"/><line x1="0" y1="74.6" x2="600" y2="76.6" stroke="#303038" stroke-width="0.2" opacity="0.005"/><line x1="0" y1="79.9" x2="600" y2="81.9" stroke="#303038" stroke-width="0.2" opacity="0.005"/><line x1="0" y1="85.0" x2="600" y2="87.0" stroke="#303038" stroke-width="0.2" opacity="0.005"/><line x1="0" y1="90.0" x2="600" y2="92.0" stroke="#303038" stroke-width="0.2" opacity="0.005"/><line x1="0" y1="94.9" x2="600" y2="96.9" stroke="#303038" stroke-width="0.2" opacity="0.005"/><line x1="0" y1="99.7" x2="600" y2="101.7" stroke="#303038" stroke-width="0.2" opacity="0.005"/><line x1="0" y1="104.5" x2="600" y2="106.5" stroke="#303038" stroke-width="0.2" opacity="0.005"/><line x1="0" y1="109.1" x2="600" y2="111.1" stroke="#303038" stroke-width="0.2" opacity="0.005"/><line x1="0" y1="113.6" x2="600" y2="115.6" stroke="#303038" stroke-width="0.2" opacity="0.005"/><line x1="0" y1="118.1" x2="600" y2="120.1" stroke="#303038" stroke-width="0.2" opacity="0.005"/><line x1="0" y1="122.5" x2="600" y2="124.5" stroke="#303038" stroke-width="0.2" opacity="0.005"/><line x1="0" y1="126.8" x2="600" y2="128.8" stroke="#303038" stroke-width="0.2" opacity="0.005"/><line x1="0" y1="131.0" x2="600" y2="133.0" stroke="#303038" stroke-width="0.2" opacity="0.005"/><line x1="0" y1="135.2" x2="600" y2="137.2" stroke="#303038" stroke-width="0.2" opacity="0.005"/><line x1="0" y1="139.3" x2="600" y2="141.3" stroke="#303038" stroke-width="0.2" opacity="0.005"/><line x1="0" y1="143.3" x2="600" y2="145.3" stroke="#303038" stroke-width="0.2" opacity="0.005"/><line x1="0" y1="147.4" x2="600" y2="149.4" stroke="#303038" stroke-width="0.2" opacity="0.005"/><line x1="0" y1="151.4" x2="600" y2="153.4" stroke="#303038" stroke-width="0.2" opacity="0.005"/><line x1="0" y1="155.4" x2="600" y2="157.4" stroke="#303038" stroke-width="0.2" opacity="0.005"/><line x1="0" y1="159.4" x2="600" y2="161.4" stroke="#303038" stroke-width="0.2" opacity="0.005"/><line x1="0" y1="163.4" x2="600" y2="165.4" stroke="#303038" stroke-width="0.2" opacity="0.005"/><line x1="0" y1="167.4" x2="600" y2="169.4" stroke="#303038" stroke-width="0.2" opacity="0.005"/><line x1="0" y1="171.5" x2="600" y2="173.5" stroke="#303038" stroke-width="0.2" opacity="0.005"/><line x1="0" y1="175.6" x2="600" y2="177.6" stroke="#303038" stroke-width="0.2" opacity="0.005"/><line x1="0" y1="179.7" x2="600" y2="181.7" stroke="#303038" stroke-width="0.2" opacity="0.005"/><line x1="0" y1="183.9" x2="600" y2="185.9" stroke="#303038" stroke-width="0.2" opacity="0.005"/><line x1="0" y1="188.1" x2="600" y2="190.1" stroke="#303038" stroke-width="0.2" opacity="0.005"/><line x1="0" y1="192.4" x2="600" y2="194.4" stroke="#303038" stroke-width="0.2" opacity="0.005"/><line x1="0" y1="196.8" x2="600" y2="198.8" stroke="#303038" stroke-width="0.2" opacity="0.005"/><line x1="0" y1="201.3" x2="600" y2="203.3" stroke="#303038" stroke-width="0.2" opacity="0.005"/><line x1="0" y1="205.8" x2="600" y2="207.8" stroke="#303038" stroke-width="0.2" opacity="0.005"/><line x1="0" y1="210.5" x2="600" y2="212.5" stroke="#303038" stroke-width="0.2" opacity="0.005"/><line x1="0" y1="215.2" x2="600" y2="217.2" stroke="#303038" stroke-width="0.2" opacity="0.005"/><line x1="0" y1="220.1" x2="600" y2="222.1" stroke="#303038" stroke-width="0.2" opacity="0.005"/><line x1="0" y1="225.0" x2="600" y2="227.0" stroke="#303038" stroke-width="0.2" opacity="0.005"/><line x1="0" y1="230.0" x2="600" y2="232.0" stroke="#303038" stroke-width="0.2" opacity="0.005"/><line x1="0" y1="235.2" x2="600" y2="237.2" stroke="#303038" stroke-width="0.2" opacity="0.005"/><line x1="0" y1="240.4" x2="600" y2="242.4" stroke="#303038" stroke-width="0.2" opacity="0.005"/><line x1="0" y1="245.7" x2="600" y2="247.7" stroke="#303038" stroke-width="0.2" opacity="0.005"/><line x1="0" y1="251.2" x2="600" y2="253.2" stroke="#303038" stroke-width="0.2" opacity="0.005"/><line x1="0" y1="256.7" x2="600" y2="258.7" stroke="#303038" stroke-width="0.2" opacity="0.005"/><line x1="0" y1="262.3" x2="600" y2="264.3" stroke="#303038" stroke-width="0.2" opacity="0.005"/><line x1="0" y1="267.9" x2="600" y2="269.9" stroke="#303038" stroke-width="0.2" opacity="0.005"/><line x1="0" y1="273.7" x2="600" y2="275.7" stroke="#303038" stroke-width="0.2" opacity="0.005"/><line x1="0" y1="279.5" x2="600" y2="281.5" stroke="#303038" stroke-width="0.2" opacity="0.005"/><line x1="0" y1="285.4" x2="600" y2="287.4" stroke="#303038" stroke-width="0.2" opacity="0.005"/><line x1="0" y1="291.3" x2="600" y2="293.3" stroke="#303038" stroke-width="0.2" opacity="0.005"/><line x1="0" y1="297.2" x2="600" y2="299.2" stroke="#303038" stroke-width="0.2" opacity="0.005"/><line x1="0" y1="303.2" x2="600" y2="305.2" stroke="#303038" stroke-width="0.2" opacity="0.005"/><line x1="0" y1="309.2" x2="600" y2="311.2" stroke="#303038" stroke-width="0.2" opacity="0.005"/><line x1="0" y1="315.2" x2="600" y2="317.2" stroke="#303038" stroke-width="0.2" opacity="0.005"/><line x1="0" y1="321.2" x2="600" y2="323.2" stroke="#303038" stroke-width="0.2" opacity="0.005"/><line x1="0" y1="327.2" x2="600" y2="329.2" stroke="#303038" stroke-width="0.2" opacity="0.005"/><line x1="0" y1="333.1" x2="600" y2="335.1" stroke="#303038" stroke-width="0.2" opacity="0.005"/><line x1="0" y1="339.0" x2="600" y2="341.0" stroke="#303038" stroke-width="0.2" opacity="0.005"/><line x1="0" y1="344.9" x2="600" y2="346.9" stroke="#303038" stroke-width="0.2" opacity="0.005"/><line x1="0" y1="350.8" x2="600" y2="352.8" stroke="#303038" stroke-width="0.2" opacity="0.005"/><line x1="0" y1="356.6" x2="600" y2="358.6" stroke="#303038" stroke-width="0.2" opacity="0.005"/><line x1="0" y1="362.3" x2="600" y2="364.3" stroke="#303038" stroke-width="0.2" opacity="0.005"/><line x1="0" y1="367.9" x2="600" y2="369.9" stroke="#303038" stroke-width="0.2" opacity="0.005"/><line x1="0" y1="373.5" x2="600" y2="375.5" stroke="#303038" stroke-width="0.2" opacity="0.005"/><line x1="0" y1="379.0" x2="600" y2="381.0" stroke="#303038" stroke-width="0.2" opacity="0.005"/><line x1="0" y1="384.4" x2="600" y2="386.4" stroke="#303038" stroke-width="0.2" opacity="0.005"/><line x1="0" y1="389.7" x2="600" y2="391.7" stroke="#303038" stroke-width="0.2" opacity="0.005"/><line x1="0" y1="394.9" x2="600" y2="396.9" stroke="#303038" stroke-width="0.2" opacity="0.005"/><line x1="0" y1="400.0" x2="600" y2="402.0" stroke="#303038" stroke-width="0.2" opacity="0.005"/><line x1="0" y1="405.0" x2="600" y2="407.0" stroke="#303038" stroke-width="0.2" opacity="0.005"/><line x1="0" y1="409.9" x2="600" y2="411.9" stroke="#303038" stroke-width="0.2" opacity="0.005"/><line x1="0" y1="414.7" x2="600" y2="416.7" stroke="#303038" stroke-width="0.2" opacity="0.005"/><line x1="0" y1="419.4" x2="600" y2="421.4" stroke="#303038" stroke-width="0.2" opacity="0.005"/><line x1="0" y1="424.0" x2="600" y2="426.0" stroke="#303038" stroke-width="0.2" opacity="0.005"/><line x1="0" y1="428.5" x2="600" y2="430.5" stroke="#303038" stroke-width="0.2" opacity="0.005"/><line x1="0" y1="433.0" x2="600" y2="435.0" stroke="#303038" stroke-width="0.2" opacity="0.005"/><line x1="0" y1="437.3" x2="600" y2="439.3" stroke="#303038" stroke-width="0.2" opacity="0.005"/><line x1="0" y1="441.6" x2="600" y2="443.6" stroke="#303038" stroke-width="0.2" opacity="0.005"/><line x1="0" y1="445.8" x2="600" y2="447.8" stroke="#303038" stroke-width="0.2" opacity="0.005"/><line x1="0" y1="450.0" x2="600" y2="452.0" stroke="#303038" stroke-width="0.2" opacity="0.005"/><line x1="0" y1="454.1" x2="600" y2="456.1" stroke="#303038" stroke-width="0.2" opacity="0.005"/><line x1="0" y1="458.2" x2="600" y2="460.2" stroke="#303038" stroke-width="0.2" opacity="0.005"/><line x1="0" y1="462.2" x2="600" y2="464.2" stroke="#303038" stroke-width="0.2" opacity="0.005"/><line x1="0" y1="466.2" x2="600" y2="468.2" stroke="#303038" stroke-width="0.2" opacity="0.005"/><line x1="0" y1="470.2" x2="600" y2="472.2" stroke="#303038" stroke-width="0.2" opacity="0.005"/><line x1="0" y1="474.2" x2="600" y2="476.2" stroke="#303038" stroke-width="0.2" opacity="0.005"/><line x1="0" y1="478.3" x2="600" y2="480.3" stroke="#303038" stroke-width="0.2" opacity="0.005"/><line x1="0" y1="482.3" x2="600" y2="484.3" stroke="#303038" stroke-width="0.2" opacity="0.005"/><line x1="0" y1="486.3" x2="600" y2="488.3" stroke="#303038" stroke-width="0.2" opacity="0.005"/><line x1="0" y1="490.4" x2="600" y2="492.4" stroke="#303038" stroke-width="0.2" opacity="0.005"/><line x1="0" y1="494.6" x2="600" y2="496.6" stroke="#303038" stroke-width="0.2" opacity="0.005"/><line x1="0" y1="498.7" x2="600" y2="500.7" stroke="#303038" stroke-width="0.2" opacity="0.005"/><line x1="0" y1="503.0" x2="600" y2="505.0" stroke="#303038" stroke-width="0.2" opacity="0.005"/><line x1="0" y1="507.3" x2="600" y2="509.3" stroke="#303038" stroke-width="0.2" opacity="0.005"/><line x1="0" y1="511.7" x2="600" y2="513.7" stroke="#303038" stroke-width="0.2" opacity="0.005"/><line x1="0" y1="516.2" x2="600" y2="518.2" stroke="#303038" stroke-width="0.2" opacity="0.005"/><line x1="0" y1="520.8" x2="600" y2="522.8" stroke="#303038" stroke-width="0.2" opacity="0.005"/><line x1="0" y1="525.4" x2="600" y2="527.4" stroke="#303038" stroke-width="0.2" opacity="0.005"/><line x1="0" y1="530.2" x2="600" y2="532.2" stroke="#303038" stroke-width="0.2" opacity="0.005"/><line x1="0" y1="535.0" x2="600" y2="537.0" stroke="#303038" stroke-width="0.2" opacity="0.005"/><line x1="0" y1="540.0" x2="600" y2="542.0" stroke="#303038" stroke-width="0.2" opacity="0.005"/><line x1="0" y1="545.1" x2="600" y2="547.1" stroke="#303038" stroke-width="0.2" opacity="0.005"/><line x1="0" y1="550.2" x2="600" y2="552.2" stroke="#303038" stroke-width="0.2" opacity="0.005"/><line x1="0" y1="555.5" x2="600" y2="557.5" stroke="#303038" stroke-width="0.2" opacity="0.005"/><line x1="0" y1="560.8" x2="600" y2="562.8" stroke="#303038" stroke-width="0.2" opacity="0.005"/><line x1="0" y1="566.2" x2="600" y2="568.2" stroke="#303038" stroke-width="0.2" opacity="0.005"/><line x1="0" y1="571.8" x2="600" y2="573.8" stroke="#303038" stroke-width="0.2" opacity="0.005"/><line x1="0" y1="577.4" x2="600" y2="579.4" stroke="#303038" stroke-width="0.2" opacity="0.005"/><line x1="0" y1="583.1" x2="600" y2="585.1" stroke="#303038" stroke-width="0.2" opacity="0.005"/><line x1="0" y1="588.8" x2="600" y2="590.8" stroke="#303038" stroke-width="0.2" opacity="0.005"/><line x1="0.0" y1="0" x2="2.0" y2="600" stroke="#303038" stroke-width="0.2" opacity="0.005"/><line x1="6.0" y1="0" x2="8.0" y2="600" stroke="#303038" stroke-width="0.2" opacity="0.005"/><line x1="12.0" y1="0" x2="14.0" y2="600" stroke="#303038" stroke-width="0.2" opacity="0.005"/><line x1="18.0" y1="0" x2="20.0" y2="600" stroke="#303038" stroke-width="0.2" opacity="0.005"/><line x1="23.9" y1="0" x2="25.9" y2="600" stroke="#303038" stroke-width="0.2" opacity="0.005"/><line x1="29.8" y1="0" x2="31.8" y2="600" stroke="#303038" stroke-width="0.2" opacity="0.005"/><line x1="35.6" y1="0" x2="37.6" y2="600" stroke="#303038" stroke-width="0.2" opacity="0.005"/><line x1="41.4" y1="0" x2="43.4" y2="600" stroke="#303038" stroke-width="0.2" opacity="0.005"/><line x1="47.2" y1="0" x2="49.2" y2="600" stroke="#303038" stroke-width="0.2" opacity="0.005"/><line x1="52.8" y1="0" x2="54.8" y2="600" stroke="#303038" stroke-width="0.2" opacity="0.005"/><line x1="58.4" y1="0" x2="60.4" y2="600" stroke="#303038" stroke-width="0.2" opacity="0.005"/><line x1="63.9" y1="0" x2="65.9" y2="600" stroke="#303038" stroke-width="0.2" opacity="0.005"/><line x1="69.3" y1="0" x2="71.3" y2="600" stroke="#303038" stroke-width="0.2" opacity="0.005"/><line x1="74.6" y1="0" x2="76.6" y2="600" stroke="#303038" stroke-width="0.2" opacity="0.005"/><line x1="79.9" y1="0" x2="81.9" y2="600" stroke="#303038" stroke-width="0.2" opacity="0.005"/><line x1="85.0" y1="0" x2="87.0" y2="600" stroke="#303038" stroke-width="0.2" opacity="0.005"/><line x1="90.0" y1="0" x2="92.0" y2="600" stroke="#303038" stroke-width="0.2" opacity="0.005"/><line x1="94.9" y1="0" x2="96.9" y2="600" stroke="#303038" stroke-width="0.2" opacity="0.005"/><line x1="99.7" y1="0" x2="101.7" y2="600" stroke="#303038" stroke-width="0.2" opacity="0.005"/><line x1="104.5" y1="0" x2="106.5" y2="600" stroke="#303038" stroke-width="0.2" opacity="0.005"/><line x1="109.1" y1="0" x2="111.1" y2="600" stroke="#303038" stroke-width="0.2" opacity="0.005"/><line x1="113.6" y1="0" x2="115.6" y2="600" stroke="#303038" stroke-width="0.2" opacity="0.005"/><line x1="118.1" y1="0" x2="120.1" y2="600" stroke="#303038" stroke-width="0.2" opacity="0.005"/><line x1="122.5" y1="0" x2="124.5" y2="600" stroke="#303038" stroke-width="0.2" opacity="0.005"/><line x1="126.8" y1="0" x2="128.8" y2="600" stroke="#303038" stroke-width="0.2" opacity="0.005"/><line x1="131.0" y1="0" x2="133.0" y2="600" stroke="#303038" stroke-width="0.2" opacity="0.005"/><line x1="135.2" y1="0" x2="137.2" y2="600" stroke="#303038" stroke-width="0.2" opacity="0.005"/><line x1="139.3" y1="0" x2="141.3" y2="600" stroke="#303038" stroke-width="0.2" opacity="0.005"/><line x1="143.3" y1="0" x2="145.3" y2="600" stroke="#303038" stroke-width="0.2" opacity="0.005"/><line x1="147.4" y1="0" x2="149.4" y2="600" stroke="#303038" stroke-width="0.2" opacity="0.005"/><line x1="151.4" y1="0" x2="153.4" y2="600" stroke="#303038" stroke-width="0.2" opacity="0.005"/><line x1="155.4" y1="0" x2="157.4" y2="600" stroke="#303038" stroke-width="0.2" opacity="0.005"/><line x1="159.4" y1="0" x2="161.4" y2="600" stroke="#303038" stroke-width="0.2" opacity="0.005"/><line x1="163.4" y1="0" x2="165.4" y2="600" stroke="#303038" stroke-width="0.2" opacity="0.005"/><line x1="167.4" y1="0" x2="169.4" y2="600" stroke="#303038" stroke-width="0.2" opacity="0.005"/><line x1="171.5" y1="0" x2="173.5" y2="600" stroke="#303038" stroke-width="0.2" opacity="0.005"/><line x1="175.6" y1="0" x2="177.6" y2="600" stroke="#303038" stroke-width="0.2" opacity="0.005"/><line x1="179.7" y1="0" x2="181.7" y2="600" stroke="#303038" stroke-width="0.2" opacity="0.005"/><line x1="183.9" y1="0" x2="185.9" y2="600" stroke="#303038" stroke-width="0.2" opacity="0.005"/><line x1="188.1" y1="0" x2="190.1" y2="600" stroke="#303038" stroke-width="0.2" opacity="0.005"/><line x1="192.4" y1="0" x2="194.4" y2="600" stroke="#303038" stroke-width="0.2" opacity="0.005"/><line x1="196.8" y1="0" x2="198.8" y2="600" stroke="#303038" stroke-width="0.2" opacity="0.005"/><line x1="201.3" y1="0" x2="203.3" y2="600" stroke="#303038" stroke-width="0.2" opacity="0.005"/><line x1="205.8" y1="0" x2="207.8" y2="600" stroke="#303038" stroke-width="0.2" opacity="0.005"/><line x1="210.5" y1="0" x2="212.5" y2="600" stroke="#303038" stroke-width="0.2" opacity="0.005"/><line x1="215.2" y1="0" x2="217.2" y2="600" stroke="#303038" stroke-width="0.2" opacity="0.005"/><line x1="220.1" y1="0" x2="222.1" y2="600" stroke="#303038" stroke-width="0.2" opacity="0.005"/><line x1="225.0" y1="0" x2="227.0" y2="600" stroke="#303038" stroke-width="0.2" opacity="0.005"/><line x1="230.0" y1="0" x2="232.0" y2="600" stroke="#303038" stroke-width="0.2" opacity="0.005"/><line x1="235.2" y1="0" x2="237.2" y2="600" stroke="#303038" stroke-width="0.2" opacity="0.005"/><line x1="240.4" y1="0" x2="242.4" y2="600" stroke="#303038" stroke-width="0.2" opacity="0.005"/><line x1="245.7" y1="0" x2="247.7" y2="600" stroke="#303038" stroke-width="0.2" opacity="0.005"/><line x1="251.2" y1="0" x2="253.2" y2="600" stroke="#303038" stroke-width="0.2" opacity="0.005"/><line x1="256.7" y1="0" x2="258.7" y2="600" stroke="#303038" stroke-width="0.2" opacity="0.005"/><line x1="262.3" y1="0" x2="264.3" y2="600" stroke="#303038" stroke-width="0.2" opacity="0.005"/><line x1="267.9" y1="0" x2="269.9" y2="600" stroke="#303038" stroke-width="0.2" opacity="0.005"/><line x1="273.7" y1="0" x2="275.7" y2="600" stroke="#303038" stroke-width="0.2" opacity="0.005"/><line x1="279.5" y1="0" x2="281.5" y2="600" stroke="#303038" stroke-width="0.2" opacity="0.005"/><line x1="285.4" y1="0" x2="287.4" y2="600" stroke="#303038" stroke-width="0.2" opacity="0.005"/><line x1="291.3" y1="0" x2="293.3" y2="600" stroke="#303038" stroke-width="0.2" opacity="0.005"/><line x1="297.2" y1="0" x2="299.2" y2="600" stroke="#303038" stroke-width="0.2" opacity="0.005"/><line x1="303.2" y1="0" x2="305.2" y2="600" stroke="#303038" stroke-width="0.2" opacity="0.005"/><line x1="309.2" y1="0" x2="311.2" y2="600" stroke="#303038" stroke-width="0.2" opacity="0.005"/><line x1="315.2" y1="0" x2="317.2" y2="600" stroke="#303038" stroke-width="0.2" opacity="0.005"/><line x1="321.2" y1="0" x2="323.2" y2="600" stroke="#303038" stroke-width="0.2" opacity="0.005"/><line x1="327.2" y1="0" x2="329.2" y2="600" stroke="#303038" stroke-width="0.2" opacity="0.005"/><line x1="333.1" y1="0" x2="335.1" y2="600" stroke="#303038" stroke-width="0.2" opacity="0.005"/><line x1="339.0" y1="0" x2="341.0" y2="600" stroke="#303038" stroke-width="0.2" opacity="0.005"/><line x1="344.9" y1="0" x2="346.9" y2="600" stroke="#303038" stroke-width="0.2" opacity="0.005"/><line x1="350.8" y1="0" x2="352.8" y2="600" stroke="#303038" stroke-width="0.2" opacity="0.005"/><line x1="356.6" y1="0" x2="358.6" y2="600" stroke="#303038" stroke-width="0.2" opacity="0.005"/><line x1="362.3" y1="0" x2="364.3" y2="600" stroke="#303038" stroke-width="0.2" opacity="0.005"/><line x1="367.9" y1="0" x2="369.9" y2="600" stroke="#303038" stroke-width="0.2" opacity="0.005"/><line x1="373.5" y1="0" x2="375.5" y2="600" stroke="#303038" stroke-width="0.2" opacity="0.005"/><line x1="379.0" y1="0" x2="381.0" y2="600" stroke="#303038" stroke-width="0.2" opacity="0.005"/><line x1="384.4" y1="0" x2="386.4" y2="600" stroke="#303038" stroke-width="0.2" opacity="0.005"/><line x1="389.7" y1="0" x2="391.7" y2="600" stroke="#303038" stroke-width="0.2" opacity="0.005"/><line x1="394.9" y1="0" x2="396.9" y2="600" stroke="#303038" stroke-width="0.2" opacity="0.005"/><line x1="400.0" y1="0" x2="402.0" y2="600" stroke="#303038" stroke-width="0.2" opacity="0.005"/><line x1="405.0" y1="0" x2="407.0" y2="600" stroke="#303038" stroke-width="0.2" opacity="0.005"/><line x1="409.9" y1="0" x2="411.9" y2="600" stroke="#303038" stroke-width="0.2" opacity="0.005"/><line x1="414.7" y1="0" x2="416.7" y2="600" stroke="#303038" stroke-width="0.2" opacity="0.005"/><line x1="419.4" y1="0" x2="421.4" y2="600" stroke="#303038" stroke-width="0.2" opacity="0.005"/><line x1="424.0" y1="0" x2="426.0" y2="600" stroke="#303038" stroke-width="0.2" opacity="0.005"/><line x1="428.5" y1="0" x2="430.5" y2="600" stroke="#303038" stroke-width="0.2" opacity="0.005"/><line x1="433.0" y1="0" x2="435.0" y2="600" stroke="#303038" stroke-width="0.2" opacity="0.005"/><line x1="437.3" y1="0" x2="439.3" y2="600" stroke="#303038" stroke-width="0.2" opacity="0.005"/><line x1="441.6" y1="0" x2="443.6" y2="600" stroke="#303038" stroke-width="0.2" opacity="0.005"/><line x1="445.8" y1="0" x2="447.8" y2="600" stroke="#303038" stroke-width="0.2" opacity="0.005"/><line x1="450.0" y1="0" x2="452.0" y2="600" stroke="#303038" stroke-width="0.2" opacity="0.005"/><line x1="454.1" y1="0" x2="456.1" y2="600" stroke="#303038" stroke-width="0.2" opacity="0.005"/><line x1="458.2" y1="0" x2="460.2" y2="600" stroke="#303038" stroke-width="0.2" opacity="0.005"/><line x1="462.2" y1="0" x2="464.2" y2="600" stroke="#303038" stroke-width="0.2" opacity="0.005"/><line x1="466.2" y1="0" x2="468.2" y2="600" stroke="#303038" stroke-width="0.2" opacity="0.005"/><line x1="470.2" y1="0" x2="472.2" y2="600" stroke="#303038" stroke-width="0.2" opacity="0.005"/><line x1="474.2" y1="0" x2="476.2" y2="600" stroke="#303038" stroke-width="0.2" opacity="0.005"/><line x1="478.3" y1="0" x2="480.3" y2="600" stroke="#303038" stroke-width="0.2" opacity="0.005"/><line x1="482.3" y1="0" x2="484.3" y2="600" stroke="#303038" stroke-width="0.2" opacity="0.005"/><line x1="486.3" y1="0" x2="488.3" y2="600" stroke="#303038" stroke-width="0.2" opacity="0.005"/><line x1="490.4" y1="0" x2="492.4" y2="600" stroke="#303038" stroke-width="0.2" opacity="0.005"/><line x1="494.6" y1="0" x2="496.6" y2="600" stroke="#303038" stroke-width="0.2" opacity="0.005"/><line x1="498.7" y1="0" x2="500.7" y2="600" stroke="#303038" stroke-width="0.2" opacity="0.005"/><line x1="503.0" y1="0" x2="505.0" y2="600" stroke="#303038" stroke-width="0.2" opacity="0.005"/><line x1="507.3" y1="0" x2="509.3" y2="600" stroke="#303038" stroke-width="0.2" opacity="0.005"/><line x1="511.7" y1="0" x2="513.7" y2="600" stroke="#303038" stroke-width="0.2" opacity="0.005"/><line x1="516.2" y1="0" x2="518.2" y2="600" stroke="#303038" stroke-width="0.2" opacity="0.005"/><line x1="520.8" y1="0" x2="522.8" y2="600" stroke="#303038" stroke-width="0.2" opacity="0.005"/><line x1="525.4" y1="0" x2="527.4" y2="600" stroke="#303038" stroke-width="0.2" opacity="0.005"/><line x1="530.2" y1="0" x2="532.2" y2="600" stroke="#303038" stroke-width="0.2" opacity="0.005"/><line x1="535.0" y1="0" x2="537.0" y2="600" stroke="#303038" stroke-width="0.2" opacity="0.005"/><line x1="540.0" y1="0" x2="542.0" y2="600" stroke="#303038" stroke-width="0.2" opacity="0.005"/><line x1="545.1" y1="0" x2="547.1" y2="600" stroke="#303038" stroke-width="0.2" opacity="0.005"/><line x1="550.2" y1="0" x2="552.2" y2="600" stroke="#303038" stroke-width="0.2" opacity="0.005"/><line x1="555.5" y1="0" x2="557.5" y2="600" stroke="#303038" stroke-width="0.2" opacity="0.005"/><line x1="560.8" y1="0" x2="562.8" y2="600" stroke="#303038" stroke-width="0.2" opacity="0.005"/><line x1="566.2" y1="0" x2="568.2" y2="600" stroke="#303038" stroke-width="0.2" opacity="0.005"/><line x1="571.8" y1="0" x2="573.8" y2="600" stroke="#303038" stroke-width="0.2" opacity="0.005"/><line x1="577.4" y1="0" x2="579.4" y2="600" stroke="#303038" stroke-width="0.2" opacity="0.005"/><line x1="583.1" y1="0" x2="585.1" y2="600" stroke="#303038" stroke-width="0.2" opacity="0.005"/><line x1="588.8" y1="0" x2="590.8" y2="600" stroke="#303038" stroke-width="0.2" opacity="0.005"/><polygon points="300.0,25.0 561.5,215.0 461.6,522.5 138.4,522.5 38.5,215.0" fill="none" stroke="#303038" stroke-width="0.5" opacity="0.12"/><polygon points="300.0,50.0 355.8,223.1 537.8,222.7 390.4,329.4 446.9,502.3 300.0,395.0 153.1,502.3 209.6,329.4 62.2,222.7 244.2,223.1" fill="none" stroke="#888098" stroke-width="0.3" opacity="0.180"/><polygon points="326.3,91.7 354.6,241.8 506.3,260.6 372.2,334.0 401.2,484.0 290.0,379.2 156.2,453.1 221.6,315.0 110.0,210.6 261.6,230.1" fill="none" stroke="#888098" stroke-width="0.4" opacity="0.150"/><polygon points="342.3,135.3 349.8,258.8 469.7,289.3 354.5,334.6 362.6,458.1 283.9,362.6 169.0,408.4 235.5,304.1 156.5,208.9 276.2,239.9" fill="none" stroke="#888098" stroke-width="0.5" opacity="0.120"/><polygon points="347.9,179.1 341.7,273.5 429.7,308.2 338.1,331.5 332.3,425.9 281.8,345.9 190.2,369.7 250.7,296.9 199.8,217.1 287.7,252.2" fill="none" stroke="#888098" stroke-width="0.6000000000000001" opacity="0.090"/><polygon points="343.4,221.1 330.9,285.4 388.4,316.9 323.4,324.9 311.3,389.3 283.5,330.0 218.6,338.3 266.4,293.6 238.4,234.4 295.7,266.1" fill="none" stroke="#888098" stroke-width="0.7" opacity="0.060"/><line x1="300" y1="300" x2="30.0" y2="300.00000000000006" stroke="#888098" stroke-width="1.2" opacity="0.25" filter="url(#g)"/><line x1="300" y1="300" x2="442.658477444273" y2="253.6474508437579" stroke="#303038" stroke-width="0.4" opacity="0.06" /><line x1="300" y1="300" x2="399.9234928897204" y2="437.5328890437411" stroke="#303038" stroke-width="0.4" opacity="0.06" /><line x1="300" y1="300" x2="188.32080206443013" y2="453.71322893124" stroke="#303038" stroke-width="0.4" opacity="0.06" /><line x1="300" y1="300" x2="100.27813157801776" y2="235.10643118126097" stroke="#303038" stroke-width="0.4" opacity="0.06" /><circle cx="221.2" cy="313.9" r="0.5" fill="#A8A0B0" opacity="0.0200"/><circle cx="217.2" cy="313.9" r="0.5" fill="#A8A0B0" opacity="0.0230"/><circle cx="213.1" cy="313.8" r="0.5" fill="#A8A0B0" opacity="0.0260"/><circle cx="209.0" cy="313.6" r="0.5" fill="#A8A0B0" opacity="0.0290"/><circle cx="204.9" cy="313.4" r="0.5" fill="#A8A0B0" opacity="0.0320"/><circle cx="200.9" cy="313.1" r="0.5" fill="#A8A0B0" opacity="0.0350"/><circle cx="196.8" cy="312.7" r="0.5" fill="#A8A0B0" opacity="0.0380"/><circle cx="192.7" cy="312.2" r="0.5" fill="#A8A0B0" opacity="0.0410"/><circle cx="188.6" cy="311.7" r="0.5" fill="#A8A0B0" opacity="0.0440"/><circle cx="184.5" cy="311.1" r="0.5" fill="#A8A0B0" opacity="0.0470"/><circle cx="180.5" cy="310.5" r="0.5" fill="#A8A0B0" opacity="0.0500"/><circle cx="176.4" cy="309.7" r="0.5" fill="#A8A0B0" opacity="0.0530"/><circle cx="172.3" cy="308.9" r="0.5" fill="#A8A0B0" opacity="0.0560"/><circle cx="168.2" cy="308.1" r="0.5" fill="#A8A0B0" opacity="0.0590"/><circle cx="164.2" cy="307.1" r="0.5" fill="#A8A0B0" opacity="0.0620"/><circle cx="160.1" cy="306.1" r="0.5" fill="#A8A0B0" opacity="0.0650"/><circle cx="156.1" cy="305.0" r="0.5" fill="#A8A0B0" opacity="0.0680"/><circle cx="152.1" cy="303.9" r="0.5" fill="#A8A0B0" opacity="0.0710"/><circle cx="148.0" cy="302.7" r="0.5" fill="#A8A0B0" opacity="0.0740"/><circle cx="144.0" cy="301.4" r="0.5" fill="#A8A0B0" opacity="0.0770"/><circle cx="292" cy="300" r="7" fill="none" stroke="#B0A8C0" stroke-width="0.3" opacity="0.3" filter="url(#g)"/><text x="292" y="304" fill="#888098" font-size="14" font-family="monospace" text-anchor="middle" font-weight="bold" opacity="0.65">ma</text><text x="300" y="572" fill="#303038" font-size="10" font-family="monospace" text-anchor="middle" letter-spacing="4" opacity="0.5">ZONE 5 · SPECTRAL</text><text x="300" y="26" fill="#303038" font-size="9" font-family="monospace" text-anchor="middle" letter-spacing="6" opacity="0.3">0184</text></svg>
