<?xml version="1.0" encoding="UTF-8"?>
<svg xmlns="http://www.w3.org/2000/svg" viewBox="0 0 600 600" width="600" height="600">
<rect width="600" height="600" fill="#0a0606"/><defs>
  <filter id="g" x="-50%" y="-50%" width="200%" height="200%"
    ><feGaussianBlur stdDeviation="2" result="b"
    /><feMerge><feMergeNode in="b"/><feMergeNode in="SourceGraphic"/></feMerge></filter
  >
  <filter id="G" x="-50%" y="-50%" width="200%" height="200%"
    ><feGaussianBlur stdDeviation="5" result="b"
    /><feMerge><feMergeNode in="b"/><feMergeNode in="SourceGraphic"/></feMerge></filter
  >
</defs><circle cx="300" cy="300" r="280" fill="none" stroke="#3a1008" stroke-width="1.5" opacity="0.12" stroke_dasharray="3 7 1 5 2 9 4 6"/><line x1="40.0" y1="260.0" x2="40.0" y2="340.0" stroke="#3a1008" stroke-width="0.5" opacity="0.0030"/><line x1="46.5" y1="212.1" x2="46.5" y2="387.9" stroke="#3a1008" stroke-width="0.5" opacity="0.0060"/><line x1="53.0" y1="175.9" x2="53.0" y2="424.1" stroke="#3a1008" stroke-width="0.5" opacity="0.0086"/><line x1="59.5" y1="160.3" x2="59.5" y2="439.7" stroke="#3a1008" stroke-width="0.5" opacity="0.0108"/><line x1="66.0" y1="169.1" x2="66.0" y2="430.9" stroke="#3a1008" stroke-width="0.5" opacity="0.0123"/><line x1="72.5" y1="200.2" x2="72.5" y2="399.8" stroke="#3a1008" stroke-width="0.5" opacity="0.0130"/><line x1="79.0" y1="245.9" x2="79.0" y2="354.1" stroke="#3a1008" stroke-width="0.5" opacity="0.0127"/><line x1="85.5" y1="224.9" x2="85.5" y2="375.1" stroke="#3a1008" stroke-width="0.5" opacity="0.0116"/><line x1="92.0" y1="184.3" x2="92.0" y2="415.7" stroke="#3a1008" stroke-width="0.5" opacity="0.0098"/><line x1="98.5" y1="162.2" x2="98.5" y2="437.8" stroke="#3a1008" stroke-width="0.5" opacity="0.0073"/><line x1="105.0" y1="164.1" x2="105.0" y2="435.9" stroke="#3a1008" stroke-width="0.5" opacity="0.0044"/><line x1="111.5" y1="189.4" x2="111.5" y2="410.6" stroke="#3a1008" stroke-width="0.5" opacity="0.0046"/><line x1="118.0" y1="232.1" x2="118.0" y2="367.9" stroke="#3a1008" stroke-width="0.5" opacity="0.0074"/><line x1="124.5" y1="238.5" x2="124.5" y2="361.5" stroke="#3a1008" stroke-width="0.5" opacity="0.0099"/><line x1="131.0" y1="194.3" x2="131.0" y2="405.7" stroke="#3a1008" stroke-width="0.5" opacity="0.0117"/><line x1="137.5" y1="166.2" x2="137.5" y2="433.8" stroke="#3a1008" stroke-width="0.5" opacity="0.0128"/><line x1="144.0" y1="161.1" x2="144.0" y2="438.9" stroke="#3a1008" stroke-width="0.5" opacity="0.0130"/><line x1="150.5" y1="180.2" x2="150.5" y2="419.8" stroke="#3a1008" stroke-width="0.5" opacity="0.0123"/><line x1="157.0" y1="218.8" x2="157.0" y2="381.2" stroke="#3a1008" stroke-width="0.5" opacity="0.0107"/><line x1="163.5" y1="252.5" x2="163.5" y2="347.5" stroke="#3a1008" stroke-width="0.5" opacity="0.0085"/><line x1="170.0" y1="205.6" x2="170.0" y2="394.4" stroke="#3a1008" stroke-width="0.5" opacity="0.0058"/><line x1="176.5" y1="172.0" x2="176.5" y2="428.0" stroke="#3a1008" stroke-width="0.5" opacity="0.0032"/><line x1="183.0" y1="160.0" x2="183.0" y2="440.0" stroke="#3a1008" stroke-width="0.5" opacity="0.0061"/><line x1="189.5" y1="172.5" x2="189.5" y2="427.5" stroke="#3a1008" stroke-width="0.5" opacity="0.0088"/><line x1="196.0" y1="206.3" x2="196.0" y2="393.7" stroke="#3a1008" stroke-width="0.5" opacity="0.0109"/><line x1="202.5" y1="253.4" x2="202.5" y2="346.6" stroke="#3a1008" stroke-width="0.5" opacity="0.0124"/><line x1="209.0" y1="218.0" x2="209.0" y2="382.0" stroke="#3a1008" stroke-width="0.5" opacity="0.0130"/><line x1="215.5" y1="179.6" x2="215.5" y2="420.4" stroke="#3a1008" stroke-width="0.5" opacity="0.0127"/><line x1="222.0" y1="160.9" x2="222.0" y2="439.1" stroke="#3a1008" stroke-width="0.5" opacity="0.0115"/><line x1="228.5" y1="166.5" x2="228.5" y2="433.5" stroke="#3a1008" stroke-width="0.5" opacity="0.0096"/><line x1="235.0" y1="195.0" x2="235.0" y2="405.0" stroke="#3a1008" stroke-width="0.5" opacity="0.0071"/><line x1="241.5" y1="239.4" x2="241.5" y2="360.6" stroke="#3a1008" stroke-width="0.5" opacity="0.0042"/><line x1="248.0" y1="231.2" x2="248.0" y2="368.8" stroke="#3a1008" stroke-width="0.5" opacity="0.0047"/><line x1="254.5" y1="188.8" x2="254.5" y2="411.2" stroke="#3a1008" stroke-width="0.5" opacity="0.0076"/><line x1="261.0" y1="163.9" x2="261.0" y2="436.1" stroke="#3a1008" stroke-width="0.5" opacity="0.0100"/><line x1="267.5" y1="162.4" x2="267.5" y2="437.6" stroke="#3a1008" stroke-width="0.5" opacity="0.0118"/><line x1="274.0" y1="184.9" x2="274.0" y2="415.1" stroke="#3a1008" stroke-width="0.5" opacity="0.0128"/><line x1="280.5" y1="225.8" x2="280.5" y2="374.2" stroke="#3a1008" stroke-width="0.5" opacity="0.0129"/><line x1="287.0" y1="245.0" x2="287.0" y2="355.0" stroke="#3a1008" stroke-width="0.5" opacity="0.0122"/><line x1="293.5" y1="199.4" x2="293.5" y2="400.6" stroke="#3a1008" stroke-width="0.5" opacity="0.0106"/><line x1="300.0" y1="168.7" x2="300.0" y2="431.3" stroke="#3a1008" stroke-width="0.5" opacity="0.0084"/><line x1="306.5" y1="160.3" x2="306.5" y2="439.7" stroke="#3a1008" stroke-width="0.5" opacity="0.0056"/><line x1="313.0" y1="176.3" x2="313.0" y2="423.7" stroke="#3a1008" stroke-width="0.5" opacity="0.0033"/><line x1="319.5" y1="212.8" x2="319.5" y2="387.2" stroke="#3a1008" stroke-width="0.5" opacity="0.0063"/><line x1="326.0" y1="259.1" x2="326.0" y2="340.9" stroke="#3a1008" stroke-width="0.5" opacity="0.0089"/><line x1="332.5" y1="211.3" x2="332.5" y2="388.7" stroke="#3a1008" stroke-width="0.5" opacity="0.0110"/><line x1="339.0" y1="175.4" x2="339.0" y2="424.6" stroke="#3a1008" stroke-width="0.5" opacity="0.0124"/><line x1="345.5" y1="160.2" x2="345.5" y2="439.8" stroke="#3a1008" stroke-width="0.5" opacity="0.0130"/><line x1="352.0" y1="169.4" x2="352.0" y2="430.6" stroke="#3a1008" stroke-width="0.5" opacity="0.0127"/><line x1="358.5" y1="200.9" x2="358.5" y2="399.1" stroke="#3a1008" stroke-width="0.5" opacity="0.0115"/><line x1="365.0" y1="246.8" x2="365.0" y2="353.2" stroke="#3a1008" stroke-width="0.5" opacity="0.0095"/><line x1="371.5" y1="224.1" x2="371.5" y2="375.9" stroke="#3a1008" stroke-width="0.5" opacity="0.0070"/><line x1="378.0" y1="183.7" x2="378.0" y2="416.3" stroke="#3a1008" stroke-width="0.5" opacity="0.0041"/><line x1="384.5" y1="162.1" x2="384.5" y2="437.9" stroke="#3a1008" stroke-width="0.5" opacity="0.0049"/><line x1="391.0" y1="164.4" x2="391.0" y2="435.6" stroke="#3a1008" stroke-width="0.5" opacity="0.0077"/><line x1="397.5" y1="190.1" x2="397.5" y2="409.9" stroke="#3a1008" stroke-width="0.5" opacity="0.0101"/><line x1="404.0" y1="232.9" x2="404.0" y2="367.1" stroke="#3a1008" stroke-width="0.5" opacity="0.0119"/><line x1="410.5" y1="237.6" x2="410.5" y2="362.4" stroke="#3a1008" stroke-width="0.5" opacity="0.0128"/><line x1="417.0" y1="193.6" x2="417.0" y2="406.4" stroke="#3a1008" stroke-width="0.5" opacity="0.0129"/><line x1="423.5" y1="165.9" x2="423.5" y2="434.1" stroke="#3a1008" stroke-width="0.5" opacity="0.0121"/><line x1="430.0" y1="161.2" x2="430.0" y2="438.8" stroke="#3a1008" stroke-width="0.5" opacity="0.0105"/><line x1="436.5" y1="180.7" x2="436.5" y2="419.3" stroke="#3a1008" stroke-width="0.5" opacity="0.0082"/><line x1="443.0" y1="219.6" x2="443.0" y2="380.4" stroke="#3a1008" stroke-width="0.5" opacity="0.0055"/><line x1="449.5" y1="251.6" x2="449.5" y2="348.4" stroke="#3a1008" stroke-width="0.5" opacity="0.0035"/><line x1="456.0" y1="204.9" x2="456.0" y2="395.1" stroke="#3a1008" stroke-width="0.5" opacity="0.0064"/><line x1="462.5" y1="171.6" x2="462.5" y2="428.4" stroke="#3a1008" stroke-width="0.5" opacity="0.0091"/><line x1="469.0" y1="160.0" x2="469.0" y2="440.0" stroke="#3a1008" stroke-width="0.5" opacity="0.0111"/><line x1="475.5" y1="172.9" x2="475.5" y2="427.1" stroke="#3a1008" stroke-width="0.5" opacity="0.0125"/><line x1="482.0" y1="207.1" x2="482.0" y2="392.9" stroke="#3a1008" stroke-width="0.5" opacity="0.0130"/><line x1="488.5" y1="254.3" x2="488.5" y2="345.7" stroke="#3a1008" stroke-width="0.5" opacity="0.0126"/><line x1="495.0" y1="217.2" x2="495.0" y2="382.8" stroke="#3a1008" stroke-width="0.5" opacity="0.0114"/><line x1="501.5" y1="179.1" x2="501.5" y2="420.9" stroke="#3a1008" stroke-width="0.5" opacity="0.0094"/><line x1="508.0" y1="160.8" x2="508.0" y2="439.2" stroke="#3a1008" stroke-width="0.5" opacity="0.0068"/><line x1="514.5" y1="166.8" x2="514.5" y2="433.2" stroke="#3a1008" stroke-width="0.5" opacity="0.0039"/><line x1="521.0" y1="195.6" x2="521.0" y2="404.4" stroke="#3a1008" stroke-width="0.5" opacity="0.0051"/><line x1="527.5" y1="240.2" x2="527.5" y2="359.8" stroke="#3a1008" stroke-width="0.5" opacity="0.0079"/><line x1="534.0" y1="230.4" x2="534.0" y2="369.6" stroke="#3a1008" stroke-width="0.5" opacity="0.0102"/><line x1="540.5" y1="188.2" x2="540.5" y2="411.8" stroke="#3a1008" stroke-width="0.5" opacity="0.0120"/><line x1="547.0" y1="163.6" x2="547.0" y2="436.4" stroke="#3a1008" stroke-width="0.5" opacity="0.0129"/><line x1="553.5" y1="162.6" x2="553.5" y2="437.4" stroke="#3a1008" stroke-width="0.5" opacity="0.0129"/><polyline points="540.0,300.0 538.6,316.7 536.1,333.2 532.5,349.4 527.7,365.3 521.9,380.7 515.0,395.7 507.1,410.1 498.2,423.9 488.5,436.9 477.9,449.2 466.5,460.7 454.3,471.4 441.5,481.1 428.1,489.9 414.1,497.7 399.7,504.5 384.9,510.2 369.8,514.9 354.5,518.5 339.0,520.9 323.4,522.3 307.8,522.7 292.3,521.9 276.9,520.0 261.7,517.1 246.9,513.1 232.4,508.2 218.3,502.2 204.7,495.3 191.7,487.5 179.4,478.9 167.7,469.4 156.7,459.2 146.5,448.2 137.1,436.7 128.6,424.5 121.0,411.8 114.3,398.7 108.6,385.2 103.9,371.4 100.1,357.3 97.4,343.1 95.6,328.7 94.9,314.3 95.2,300.0 96.5,285.8 98.7,271.7 102.0,257.9 106.1,244.4 111.2,231.3 117.2,218.6 124.0,206.4 131.6,194.8 140.0,183.8 149.1,173.4 158.9,163.7 169.2,154.8 180.2,146.6 191.6,139.3 203.5,132.8 215.7,127.2 228.3,122.4 241.1,118.6 254.0,115.7 267.2,113.7 280.3,112.7 293.5,112.5 306.5,113.3 319.4,115.0 332.2,117.6 344.6,121.0 356.8,125.3 368.5,130.4 379.8,136.3 390.7,143.0 401.0,150.3 410.7,158.3 419.8,167.0 428.2,176.2 435.9,186.0 442.9,196.2 449.1,206.8 454.6,217.8 459.2,229.1 463.0,240.7 466.0,252.4 468.2,264.3 469.5,276.2 470.0,288.1 469.6,300.0 468.4,311.8 466.4,323.4 463.6,334.8 460.0,345.9 455.7,356.7 450.6,367.1 444.9,377.1 438.5,386.6 431.5,395.6 423.9,404.0 415.8,411.8 407.2,419.1 398.2,425.6 388.7,431.5 378.9,436.7 368.9,441.2 358.6,444.9 348.1,447.9 337.4,450.1 326.7,451.6 316.0,452.3 305.3,452.3 294.7,451.5 284.2,450.0 273.9,447.8 263.9,444.8 254.1,441.2 244.7,436.9 235.6,432.0 226.9,426.6 218.7,420.5 211.0,413.9 203.8,406.9 197.1,399.3 191.1,391.4 185.6,383.1 180.7,374.5 176.5,365.7 172.9,356.6 170.0,347.3 167.8,337.9 166.2,328.4 165.4,318.9 165.1,309.4 165.6,300.0 166.7,290.7 168.5,281.5 170.8,272.5 173.8,263.8 177.4,255.4 181.5,247.2 186.2,239.5 191.3,232.1 197.0,225.1 203.0,218.6 209.5,212.6 216.3,207.1 223.5,202.1 231.0,197.7 238.7,193.8 246.6,190.5 254.6,187.7 262.8,185.6 271.1,184.0 279.4,183.0 287.7,182.7 295.9,182.9 304.1,183.7 312.1,185.0 319.9,186.9 327.6,189.3 335.0,192.3 342.1,195.7 349.0,199.6 355.5,203.9 361.6,208.7 367.3,213.8 372.7,219.3 377.5,225.1 382.0,231.2 385.9,237.6 389.4,244.1 392.4,250.9 394.9,257.7" fill="none" stroke="#FF4500" stroke-width="1.2" opacity="0.2" filter="url(#g)"/><circle cx="396.9" cy="264.7" r="1" fill="#FF7040" opacity="0.150"/><circle cx="399.8" cy="286.0" r="1" fill="#FF7040" opacity="0.145"/><circle cx="398.2" cy="306.9" r="1" fill="#FF7040" opacity="0.141"/><circle cx="392.3" cy="326.5" r="1" fill="#FF7040" opacity="0.136"/><circle cx="382.8" cy="344.0" r="1" fill="#FF7040" opacity="0.131"/><circle cx="370.0" cy="358.7" r="1" fill="#FF7040" opacity="0.126"/><circle cx="354.8" cy="370.2" r="1" fill="#FF7040" opacity="0.122"/><circle cx="338.0" cy="377.9" r="1" fill="#FF7040" opacity="0.117"/><circle cx="320.4" cy="381.8" r="1" fill="#FF7040" opacity="0.112"/><circle cx="302.9" cy="381.9" r="1" fill="#FF7040" opacity="0.107"/><circle cx="286.2" cy="378.4" r="1" fill="#FF7040" opacity="0.103"/><circle cx="271.0" cy="371.7" r="1" fill="#FF7040" opacity="0.098"/><circle cx="258.1" cy="362.1" r="1" fill="#FF7040" opacity="0.093"/><circle cx="247.8" cy="350.4" r="1" fill="#FF7040" opacity="0.088"/><circle cx="240.4" cy="337.2" r="1" fill="#FF7040" opacity="0.084"/><circle cx="236.2" cy="323.2" r="1" fill="#FF7040" opacity="0.079"/><circle cx="235.1" cy="309.1" r="1" fill="#FF7040" opacity="0.074"/><circle cx="236.9" cy="295.6" r="1" fill="#FF7040" opacity="0.069"/><circle cx="241.5" cy="283.2" r="1" fill="#FF7040" opacity="0.065"/><circle cx="248.3" cy="272.5" r="1" fill="#FF7040" opacity="0.060"/><circle cx="257.0" cy="263.9" r="1" fill="#FF7040" opacity="0.055"/><circle cx="266.9" cy="257.6" r="1" fill="#FF7040" opacity="0.051"/><circle cx="277.4" cy="253.7" r="1" fill="#FF7040" opacity="0.046"/><circle cx="288.1" cy="252.3" r="1" fill="#FF7040" opacity="0.041"/><circle cx="298.4" cy="253.2" r="1" fill="#FF7040" opacity="0.036"/><circle cx="307.7" cy="256.2" r="1" fill="#FF7040" opacity="0.032"/><circle cx="315.8" cy="261.0" r="1" fill="#FF7040" opacity="0.027"/><circle cx="322.2" cy="267.0" r="1" fill="#FF7040" opacity="0.022"/><circle cx="326.9" cy="274.0" r="1" fill="#FF7040" opacity="0.017"/><circle cx="329.7" cy="281.4" r="1" fill="#FF7040" opacity="0.013"/><circle cx="330.7" cy="288.8" r="1" fill="#FF7040" opacity="0.008"/><circle cx="330.1" cy="295.8" r="1" fill="#FF7040" opacity="0.003"/><polygon points="300.0,560.0 74.8,170.0 525.2,170.0" fill="none" stroke="#FF4500" stroke-width="0.3" opacity="0.180"/><polygon points="272.0,528.3 116.3,161.6 511.7,210.1" fill="none" stroke="#FF4500" stroke-width="0.5" opacity="0.160"/><polygon points="251.6,494.1 156.1,161.1 492.3,244.9" fill="none" stroke="#FF4500" stroke-width="0.7" opacity="0.140"/><polygon points="239.1,458.7 193.0,167.9 467.9,273.4" fill="none" stroke="#FF4500" stroke-width="0.9000000000000001" opacity="0.120"/><polygon points="234.3,423.6 225.8,181.3 439.9,295.1" fill="none" stroke="#FF4500" stroke-width="1.1" opacity="0.100"/><polygon points="236.9,390.1 253.5,200.3 409.6,309.6" fill="none" stroke="#FF4500" stroke-width="1.3" opacity="0.080"/><polygon points="246.5,359.5 275.3,223.9 378.3,316.6" fill="none" stroke="#FF4500" stroke-width="1.5000000000000002" opacity="0.060"/><polygon points="262.3,332.8 290.5,250.9 347.3,316.3" fill="none" stroke="#FF4500" stroke-width="1.7000000000000002" opacity="0.040"/><circle cx="300" cy="300" r="12" fill="none" stroke="#FF4500" stroke-width="1.0" opacity="0.3" filter="url(#g)"/><text x="300" y="304" fill="#FF4500" font-size="16" font-family="monospace" text-anchor="middle" font-weight="bold" opacity="0.7">un</text><circle cx="310.7" cy="280.3" r="0.7141163695963881" fill="#FF7040" opacity="0.240"/><circle cx="299.8" cy="320.4" r="0.32114447710532734" fill="#FF7040" opacity="0.232"/><circle cx="291.4" cy="318.8" r="0.740116049852601" fill="#FF7040" opacity="0.162"/><circle cx="308.1" cy="280.6" r="0.4015810456522057" fill="#FF7040" opacity="0.229"/><circle cx="288.5" cy="321.4" r="0.5786560833791357" fill="#FF7040" opacity="0.223"/><circle cx="280.4" cy="297.9" r="0.4839102873890222" fill="#FF7040" opacity="0.172"/><circle cx="318.3" cy="318.3" r="0.7101021570120358" fill="#FF7040" opacity="0.179"/><circle cx="299.1" cy="320.5" r="0.7075982577159039" fill="#FF7040" opacity="0.102"/><circle cx="281.3" cy="288.2" r="0.3815060314701933" fill="#FF7040" opacity="0.180"/><circle cx="319.5" cy="321.9" r="0.7731417547243526" fill="#FF7040" opacity="0.156"/><circle cx="276.8" cy="308.2" r="0.5836895282901744" fill="#FF7040" opacity="0.164"/><circle cx="277.9" cy="312.5" r="0.691338875340035" fill="#FF7040" opacity="0.194"/><circle cx="314.0" cy="287.8" r="0.5410874885988102" fill="#FF7040" opacity="0.157"/><circle cx="321.7" cy="288.0" r="0.4363854759437991" fill="#FF7040" opacity="0.276"/><circle cx="292.0" cy="277.7" r="0.5578793890035143" fill="#FF7040" opacity="0.264"/><text x="300" y="572" fill="#3a1008" font-size="10" font-family="monospace" text-anchor="middle" letter-spacing="4" opacity="0.5">ZONE 3 · KALASUTRA</text><text x="300" y="26" fill="#3a1008" font-size="9" font-family="monospace" text-anchor="middle" letter-spacing="6" opacity="0.3">0122</text></svg>
