<?xml version="1.0" encoding="UTF-8"?>
<svg xmlns="http://www.w3.org/2000/svg" viewBox="0 0 600 600" width="600" height="600">
<rect width="600" height="600" fill="#0a0a08"/><defs>
  <filter id="g" x="-50%" y="-50%" width="200%" height="200%"
    ><feGaussianBlur stdDeviation="2" result="b"
    /><feMerge><feMergeNode in="b"/><feMergeNode in="SourceGraphic"/></feMerge></filter
  >
  <filter id="G" x="-50%" y="-50%" width="200%" height="200%"
    ><feGaussianBlur stdDeviation="5" result="b"
    /><feMerge><feMergeNode in="b"/><feMergeNode in="SourceGraphic"/></feMerge></filter
  >
</defs><line x1="0" y1="0" x2="600" y2="0" stroke="#FFB000" stroke-width="0.3" opacity="0.012"/><line x1="0" y1="3" x2="600" y2="3" stroke="#FFB000" stroke-width="0.3" opacity="0.012"/><line x1="0" y1="6" x2="600" y2="6" stroke="#FFB000" stroke-width="0.3" opacity="0.012"/><line x1="0" y1="9" x2="600" y2="9" stroke="#FFB000" stroke-width="0.3" opacity="0.012"/><line x1="0" y1="12" x2="600" y2="12" stroke="#FFB000" stroke-width="0.3" opacity="0.012"/><line x1="0" y1="15" x2="600" y2="15" stroke="#FFB000" stroke-width="0.3" opacity="0.012"/><line x1="0" y1="18" x2="600" y2="18" stroke="#FFB000" stroke-width="0.3" opacity="0.012"/><line x1="0" y1="21" x2="600" y2="21" stroke="#FFB000" stroke-width="0.3" opacity="0.012"/><line x1="0" y1="24" x2="600" y2="24" stroke="#FFB000" stroke-width="0.3" opacity="0.012"/><line x1="0" y1="27" x2="600" y2="27" stroke="#FFB000" stroke-width="0.3" opacity="0.012"/><line x1="0" y1="30" x2="600" y2="30" stroke="#FFB000" stroke-width="0.3" opacity="0.012"/><line x1="0" y1="33" x2="600" y2="33" stroke="#FFB000" stroke-width="0.3" opacity="0.012"/><line x1="0" y1="36" x2="600" y2="36" stroke="#FFB000" stroke-width="0.3" opacity="0.012"/><line x1="0" y1="39" x2="600" y2="39" stroke="#FFB000" stroke-width="0.3" opacity="0.012"/><line x1="0" y1="42" x2="600" y2="42" stroke="#FFB000" stroke-width="0.3" opacity="0.012"/><line x1="0" y1="45" x2="600" y2="45" stroke="#FFB000" stroke-width="0.3" opacity="0.012"/><line x1="0" y1="48" x2="600" y2="48" stroke="#FFB000" stroke-width="0.3" opacity="0.012"/><line x1="0" y1="51" x2="600" y2="51" stroke="#FFB000" stroke-width="0.3" opacity="0.012"/><line x1="0" y1="54" x2="600" y2="54" stroke="#FFB000" stroke-width="0.3" opacity="0.012"/><line x1="0" y1="57" x2="600" y2="57" stroke="#FFB000" stroke-width="0.3" opacity="0.012"/><line x1="0" y1="60" x2="600" y2="60" stroke="#FFB000" stroke-width="0.3" opacity="0.012"/><line x1="0" y1="63" x2="600" y2="63" stroke="#FFB000" stroke-width="0.3" opacity="0.012"/><line x1="0" y1="66" x2="600" y2="66" stroke="#FFB000" stroke-width="0.3" opacity="0.012"/><line x1="0" y1="69" x2="600" y2="69" stroke="#FFB000" stroke-width="0.3" opacity="0.012"/><line x1="0" y1="72" x2="600" y2="72" stroke="#FFB000" stroke-width="0.3" opacity="0.012"/><line x1="0" y1="75" x2="600" y2="75" stroke="#FFB000" stroke-width="0.3" opacity="0.012"/><line x1="0" y1="78" x2="600" y2="78" stroke="#FFB000" stroke-width="0.3" opacity="0.012"/><line x1="0" y1="81" x2="600" y2="81" stroke="#FFB000" stroke-width="0.3" opacity="0.012"/><line x1="0" y1="84" x2="600" y2="84" stroke="#FFB000" stroke-width="0.3" opacity="0.012"/><line x1="0" y1="87" x2="600" y2="87" stroke="#FFB000" stroke-width="0.3" opacity="0.012"/><line x1="0" y1="90" x2="600" y2="90" stroke="#FFB000" stroke-width="0.3" opacity="0.012"/><line x1="0" y1="93" x2="600" y2="93" stroke="#FFB000" stroke-width="0.3" opacity="0.012"/><line x1="0" y1="96" x2="600" y2="96" stroke="#FFB000" stroke-width="0.3" opacity="0.012"/><line x1="0" y1="99" x2="600" y2="99" stroke="#FFB000" stroke-width="0.3" opacity="0.012"/><line x1="0" y1="102" x2="600" y2="102" stroke="#FFB000" stroke-width="0.3" opacity="0.012"/><line x1="0" y1="105" x2="600" y2="105" stroke="#FFB000" stroke-width="0.3" opacity="0.012"/><line x1="0" y1="108" x2="600" y2="108" stroke="#FFB000" stroke-width="0.3" opacity="0.012"/><line x1="0" y1="111" x2="600" y2="111" stroke="#FFB000" stroke-width="0.3" opacity="0.012"/><line x1="0" y1="114" x2="600" y2="114" stroke="#FFB000" stroke-width="0.3" opacity="0.012"/><line x1="0" y1="117" x2="600" y2="117" stroke="#FFB000" stroke-width="0.3" opacity="0.012"/><line x1="0" y1="120" x2="600" y2="120" stroke="#FFB000" stroke-width="0.3" opacity="0.012"/><line x1="0" y1="123" x2="600" y2="123" stroke="#FFB000" stroke-width="0.3" opacity="0.012"/><line x1="0" y1="126" x2="600" y2="126" stroke="#FFB000" stroke-width="0.3" opacity="0.012"/><line x1="0" y1="129" x2="600" y2="129" stroke="#FFB000" stroke-width="0.3" opacity="0.012"/><line x1="0" y1="132" x2="600" y2="132" stroke="#FFB000" stroke-width="0.3" opacity="0.012"/><line x1="0" y1="135" x2="600" y2="135" stroke="#FFB000" stroke-width="0.3" opacity="0.012"/><line x1="0" y1="138" x2="600" y2="138" stroke="#FFB000" stroke-width="0.3" opacity="0.012"/><line x1="0" y1="141" x2="600" y2="141" stroke="#FFB000" stroke-width="0.3" opacity="0.012"/><line x1="0" y1="144" x2="600" y2="144" stroke="#FFB000" stroke-width="0.3" opacity="0.012"/><line x1="0" y1="147" x2="600" y2="147" stroke="#FFB000" stroke-width="0.3" opacity="0.012"/><line x1="0" y1="150" x2="600" y2="150" stroke="#FFB000" stroke-width="0.3" opacity="0.012"/><line x1="0" y1="153" x2="600" y2="153" stroke="#FFB000" stroke-width="0.3" opacity="0.012"/><line x1="0" y1="156" x2="600" y2="156" stroke="#FFB000" stroke-width="0.3" opacity="0.012"/><line x1="0" y1="159" x2="600" y2="159" stroke="#FFB000" stroke-width="0.3" opacity="0.012"/><line x1="0" y1="162" x2="600" y2="162" stroke="#FFB000" stroke-width="0.3" opacity="0.012"/><line x1="0" y1="165" x2="600" y2="165" stroke="#FFB000" stroke-width="0.3" opacity="0.012"/><line x1="0" y1="168" x2="600" y2="168" stroke="#FFB000" stroke-width="0.3" opacity="0.012"/><line x1="0" y1="171" x2="600" y2="171" stroke="#FFB000" stroke-width="0.3" opacity="0.012"/><line x1="0" y1="174" x2="600" y2="174" stroke="#FFB000" stroke-width="0.3" opacity="0.012"/><line x1="0" y1="177" x2="600" y2="177" stroke="#FFB000" stroke-width="0.3" opacity="0.012"/><line x1="0" y1="180" x2="600" y2="180" stroke="#FFB000" stroke-width="0.3" opacity="0.012"/><line x1="0" y1="183" x2="600" y2="183" stroke="#FFB000" stroke-width="0.3" opacity="0.012"/><line x1="0" y1="186" x2="600" y2="186" stroke="#FFB000" stroke-width="0.3" opacity="0.012"/><line x1="0" y1="189" x2="600" y2="189" stroke="#FFB000" stroke-width="0.3" opacity="0.012"/><line x1="0" y1="192" x2="600" y2="192" stroke="#FFB000" stroke-width="0.3" opacity="0.012"/><line x1="0" y1="195" x2="600" y2="195" stroke="#FFB000" stroke-width="0.3" opacity="0.012"/><line x1="0" y1="198" x2="600" y2="198" stroke="#FFB000" stroke-width="0.3" opacity="0.012"/><line x1="0" y1="201" x2="600" y2="201" stroke="#FFB000" stroke-width="0.3" opacity="0.012"/><line x1="0" y1="204" x2="600" y2="204" stroke="#FFB000" stroke-width="0.3" opacity="0.012"/><line x1="0" y1="207" x2="600" y2="207" stroke="#FFB000" stroke-width="0.3" opacity="0.012"/><line x1="0" y1="210" x2="600" y2="210" stroke="#FFB000" stroke-width="0.3" opacity="0.012"/><line x1="0" y1="213" x2="600" y2="213" stroke="#FFB000" stroke-width="0.3" opacity="0.012"/><line x1="0" y1="216" x2="600" y2="216" stroke="#FFB000" stroke-width="0.3" opacity="0.012"/><line x1="0" y1="219" x2="600" y2="219" stroke="#FFB000" stroke-width="0.3" opacity="0.012"/><line x1="0" y1="222" x2="600" y2="222" stroke="#FFB000" stroke-width="0.3" opacity="0.012"/><line x1="0" y1="225" x2="600" y2="225" stroke="#FFB000" stroke-width="0.3" opacity="0.012"/><line x1="0" y1="228" x2="600" y2="228" stroke="#FFB000" stroke-width="0.3" opacity="0.012"/><line x1="0" y1="231" x2="600" y2="231" stroke="#FFB000" stroke-width="0.3" opacity="0.012"/><line x1="0" y1="234" x2="600" y2="234" stroke="#FFB000" stroke-width="0.3" opacity="0.012"/><line x1="0" y1="237" x2="600" y2="237" stroke="#FFB000" stroke-width="0.3" opacity="0.012"/><line x1="0" y1="240" x2="600" y2="240" stroke="#FFB000" stroke-width="0.3" opacity="0.012"/><line x1="0" y1="243" x2="600" y2="243" stroke="#FFB000" stroke-width="0.3" opacity="0.012"/><line x1="0" y1="246" x2="600" y2="246" stroke="#FFB000" stroke-width="0.3" opacity="0.012"/><line x1="0" y1="249" x2="600" y2="249" stroke="#FFB000" stroke-width="0.3" opacity="0.012"/><line x1="0" y1="252" x2="600" y2="252" stroke="#FFB000" stroke-width="0.3" opacity="0.012"/><line x1="0" y1="255" x2="600" y2="255" stroke="#FFB000" stroke-width="0.3" opacity="0.012"/><line x1="0" y1="258" x2="600" y2="258" stroke="#FFB000" stroke-width="0.3" opacity="0.012"/><line x1="0" y1="261" x2="600" y2="261" stroke="#FFB000" stroke-width="0.3" opacity="0.012"/><line x1="0" y1="264" x2="600" y2="264" stroke="#FFB000" stroke-width="0.3" opacity="0.012"/><line x1="0" y1="267" x2="600" y2="267" stroke="#FFB000" stroke-width="0.3" opacity="0.012"/><line x1="0" y1="270" x2="600" y2="270" stroke="#FFB000" stroke-width="0.3" opacity="0.012"/><line x1="0" y1="273" x2="600" y2="273" stroke="#FFB000" stroke-width="0.3" opacity="0.012"/><line x1="0" y1="276" x2="600" y2="276" stroke="#FFB000" stroke-width="0.3" opacity="0.012"/><line x1="0" y1="279" x2="600" y2="279" stroke="#FFB000" stroke-width="0.3" opacity="0.012"/><line x1="0" y1="282" x2="600" y2="282" stroke="#FFB000" stroke-width="0.3" opacity="0.012"/><line x1="0" y1="285" x2="600" y2="285" stroke="#FFB000" stroke-width="0.3" opacity="0.012"/><line x1="0" y1="288" x2="600" y2="288" stroke="#FFB000" stroke-width="0.3" opacity="0.012"/><line x1="0" y1="291" x2="600" y2="291" stroke="#FFB000" stroke-width="0.3" opacity="0.012"/><line x1="0" y1="294" x2="600" y2="294" stroke="#FFB000" stroke-width="0.3" opacity="0.012"/><line x1="0" y1="297" x2="600" y2="297" stroke="#FFB000" stroke-width="0.3" opacity="0.012"/><line x1="0" y1="300" x2="600" y2="300" stroke="#FFB000" stroke-width="0.3" opacity="0.012"/><line x1="0" y1="303" x2="600" y2="303" stroke="#FFB000" stroke-width="0.3" opacity="0.012"/><line x1="0" y1="306" x2="600" y2="306" stroke="#FFB000" stroke-width="0.3" opacity="0.012"/><line x1="0" y1="309" x2="600" y2="309" stroke="#FFB000" stroke-width="0.3" opacity="0.012"/><line x1="0" y1="312" x2="600" y2="312" stroke="#FFB000" stroke-width="0.3" opacity="0.012"/><line x1="0" y1="315" x2="600" y2="315" stroke="#FFB000" stroke-width="0.3" opacity="0.012"/><line x1="0" y1="318" x2="600" y2="318" stroke="#FFB000" stroke-width="0.3" opacity="0.012"/><line x1="0" y1="321" x2="600" y2="321" stroke="#FFB000" stroke-width="0.3" opacity="0.012"/><line x1="0" y1="324" x2="600" y2="324" stroke="#FFB000" stroke-width="0.3" opacity="0.012"/><line x1="0" y1="327" x2="600" y2="327" stroke="#FFB000" stroke-width="0.3" opacity="0.012"/><line x1="0" y1="330" x2="600" y2="330" stroke="#FFB000" stroke-width="0.3" opacity="0.012"/><line x1="0" y1="333" x2="600" y2="333" stroke="#FFB000" stroke-width="0.3" opacity="0.012"/><line x1="0" y1="336" x2="600" y2="336" stroke="#FFB000" stroke-width="0.3" opacity="0.012"/><line x1="0" y1="339" x2="600" y2="339" stroke="#FFB000" stroke-width="0.3" opacity="0.012"/><line x1="0" y1="342" x2="600" y2="342" stroke="#FFB000" stroke-width="0.3" opacity="0.012"/><line x1="0" y1="345" x2="600" y2="345" stroke="#FFB000" stroke-width="0.3" opacity="0.012"/><line x1="0" y1="348" x2="600" y2="348" stroke="#FFB000" stroke-width="0.3" opacity="0.012"/><line x1="0" y1="351" x2="600" y2="351" stroke="#FFB000" stroke-width="0.3" opacity="0.012"/><line x1="0" y1="354" x2="600" y2="354" stroke="#FFB000" stroke-width="0.3" opacity="0.012"/><line x1="0" y1="357" x2="600" y2="357" stroke="#FFB000" stroke-width="0.3" opacity="0.012"/><line x1="0" y1="360" x2="600" y2="360" stroke="#FFB000" stroke-width="0.3" opacity="0.012"/><line x1="0" y1="363" x2="600" y2="363" stroke="#FFB000" stroke-width="0.3" opacity="0.012"/><line x1="0" y1="366" x2="600" y2="366" stroke="#FFB000" stroke-width="0.3" opacity="0.012"/><line x1="0" y1="369" x2="600" y2="369" stroke="#FFB000" stroke-width="0.3" opacity="0.012"/><line x1="0" y1="372" x2="600" y2="372" stroke="#FFB000" stroke-width="0.3" opacity="0.012"/><line x1="0" y1="375" x2="600" y2="375" stroke="#FFB000" stroke-width="0.3" opacity="0.012"/><line x1="0" y1="378" x2="600" y2="378" stroke="#FFB000" stroke-width="0.3" opacity="0.012"/><line x1="0" y1="381" x2="600" y2="381" stroke="#FFB000" stroke-width="0.3" opacity="0.012"/><line x1="0" y1="384" x2="600" y2="384" stroke="#FFB000" stroke-width="0.3" opacity="0.012"/><line x1="0" y1="387" x2="600" y2="387" stroke="#FFB000" stroke-width="0.3" opacity="0.012"/><line x1="0" y1="390" x2="600" y2="390" stroke="#FFB000" stroke-width="0.3" opacity="0.012"/><line x1="0" y1="393" x2="600" y2="393" stroke="#FFB000" stroke-width="0.3" opacity="0.012"/><line x1="0" y1="396" x2="600" y2="396" stroke="#FFB000" stroke-width="0.3" opacity="0.012"/><line x1="0" y1="399" x2="600" y2="399" stroke="#FFB000" stroke-width="0.3" opacity="0.012"/><line x1="0" y1="402" x2="600" y2="402" stroke="#FFB000" stroke-width="0.3" opacity="0.012"/><line x1="0" y1="405" x2="600" y2="405" stroke="#FFB000" stroke-width="0.3" opacity="0.012"/><line x1="0" y1="408" x2="600" y2="408" stroke="#FFB000" stroke-width="0.3" opacity="0.012"/><line x1="0" y1="411" x2="600" y2="411" stroke="#FFB000" stroke-width="0.3" opacity="0.012"/><line x1="0" y1="414" x2="600" y2="414" stroke="#FFB000" stroke-width="0.3" opacity="0.012"/><line x1="0" y1="417" x2="600" y2="417" stroke="#FFB000" stroke-width="0.3" opacity="0.012"/><line x1="0" y1="420" x2="600" y2="420" stroke="#FFB000" stroke-width="0.3" opacity="0.012"/><line x1="0" y1="423" x2="600" y2="423" stroke="#FFB000" stroke-width="0.3" opacity="0.012"/><line x1="0" y1="426" x2="600" y2="426" stroke="#FFB000" stroke-width="0.3" opacity="0.012"/><line x1="0" y1="429" x2="600" y2="429" stroke="#FFB000" stroke-width="0.3" opacity="0.012"/><line x1="0" y1="432" x2="600" y2="432" stroke="#FFB000" stroke-width="0.3" opacity="0.012"/><line x1="0" y1="435" x2="600" y2="435" stroke="#FFB000" stroke-width="0.3" opacity="0.012"/><line x1="0" y1="438" x2="600" y2="438" stroke="#FFB000" stroke-width="0.3" opacity="0.012"/><line x1="0" y1="441" x2="600" y2="441" stroke="#FFB000" stroke-width="0.3" opacity="0.012"/><line x1="0" y1="444" x2="600" y2="444" stroke="#FFB000" stroke-width="0.3" opacity="0.012"/><line x1="0" y1="447" x2="600" y2="447" stroke="#FFB000" stroke-width="0.3" opacity="0.012"/><line x1="0" y1="450" x2="600" y2="450" stroke="#FFB000" stroke-width="0.3" opacity="0.012"/><line x1="0" y1="453" x2="600" y2="453" stroke="#FFB000" stroke-width="0.3" opacity="0.012"/><line x1="0" y1="456" x2="600" y2="456" stroke="#FFB000" stroke-width="0.3" opacity="0.012"/><line x1="0" y1="459" x2="600" y2="459" stroke="#FFB000" stroke-width="0.3" opacity="0.012"/><line x1="0" y1="462" x2="600" y2="462" stroke="#FFB000" stroke-width="0.3" opacity="0.012"/><line x1="0" y1="465" x2="600" y2="465" stroke="#FFB000" stroke-width="0.3" opacity="0.012"/><line x1="0" y1="468" x2="600" y2="468" stroke="#FFB000" stroke-width="0.3" opacity="0.012"/><line x1="0" y1="471" x2="600" y2="471" stroke="#FFB000" stroke-width="0.3" opacity="0.012"/><line x1="0" y1="474" x2="600" y2="474" stroke="#FFB000" stroke-width="0.3" opacity="0.012"/><line x1="0" y1="477" x2="600" y2="477" stroke="#FFB000" stroke-width="0.3" opacity="0.012"/><line x1="0" y1="480" x2="600" y2="480" stroke="#FFB000" stroke-width="0.3" opacity="0.012"/><line x1="0" y1="483" x2="600" y2="483" stroke="#FFB000" stroke-width="0.3" opacity="0.012"/><line x1="0" y1="486" x2="600" y2="486" stroke="#FFB000" stroke-width="0.3" opacity="0.012"/><line x1="0" y1="489" x2="600" y2="489" stroke="#FFB000" stroke-width="0.3" opacity="0.012"/><line x1="0" y1="492" x2="600" y2="492" stroke="#FFB000" stroke-width="0.3" opacity="0.012"/><line x1="0" y1="495" x2="600" y2="495" stroke="#FFB000" stroke-width="0.3" opacity="0.012"/><line x1="0" y1="498" x2="600" y2="498" stroke="#FFB000" stroke-width="0.3" opacity="0.012"/><line x1="0" y1="501" x2="600" y2="501" stroke="#FFB000" stroke-width="0.3" opacity="0.012"/><line x1="0" y1="504" x2="600" y2="504" stroke="#FFB000" stroke-width="0.3" opacity="0.012"/><line x1="0" y1="507" x2="600" y2="507" stroke="#FFB000" stroke-width="0.3" opacity="0.012"/><line x1="0" y1="510" x2="600" y2="510" stroke="#FFB000" stroke-width="0.3" opacity="0.012"/><line x1="0" y1="513" x2="600" y2="513" stroke="#FFB000" stroke-width="0.3" opacity="0.012"/><line x1="0" y1="516" x2="600" y2="516" stroke="#FFB000" stroke-width="0.3" opacity="0.012"/><line x1="0" y1="519" x2="600" y2="519" stroke="#FFB000" stroke-width="0.3" opacity="0.012"/><line x1="0" y1="522" x2="600" y2="522" stroke="#FFB000" stroke-width="0.3" opacity="0.012"/><line x1="0" y1="525" x2="600" y2="525" stroke="#FFB000" stroke-width="0.3" opacity="0.012"/><line x1="0" y1="528" x2="600" y2="528" stroke="#FFB000" stroke-width="0.3" opacity="0.012"/><line x1="0" y1="531" x2="600" y2="531" stroke="#FFB000" stroke-width="0.3" opacity="0.012"/><line x1="0" y1="534" x2="600" y2="534" stroke="#FFB000" stroke-width="0.3" opacity="0.012"/><line x1="0" y1="537" x2="600" y2="537" stroke="#FFB000" stroke-width="0.3" opacity="0.012"/><line x1="0" y1="540" x2="600" y2="540" stroke="#FFB000" stroke-width="0.3" opacity="0.012"/><line x1="0" y1="543" x2="600" y2="543" stroke="#FFB000" stroke-width="0.3" opacity="0.012"/><line x1="0" y1="546" x2="600" y2="546" stroke="#FFB000" stroke-width="0.3" opacity="0.012"/><line x1="0" y1="549" x2="600" y2="549" stroke="#FFB000" stroke-width="0.3" opacity="0.012"/><line x1="0" y1="552" x2="600" y2="552" stroke="#FFB000" stroke-width="0.3" opacity="0.012"/><line x1="0" y1="555" x2="600" y2="555" stroke="#FFB000" stroke-width="0.3" opacity="0.012"/><line x1="0" y1="558" x2="600" y2="558" stroke="#FFB000" stroke-width="0.3" opacity="0.012"/><line x1="0" y1="561" x2="600" y2="561" stroke="#FFB000" stroke-width="0.3" opacity="0.012"/><line x1="0" y1="564" x2="600" y2="564" stroke="#FFB000" stroke-width="0.3" opacity="0.012"/><line x1="0" y1="567" x2="600" y2="567" stroke="#FFB000" stroke-width="0.3" opacity="0.012"/><line x1="0" y1="570" x2="600" y2="570" stroke="#FFB000" stroke-width="0.3" opacity="0.012"/><line x1="0" y1="573" x2="600" y2="573" stroke="#FFB000" stroke-width="0.3" opacity="0.012"/><line x1="0" y1="576" x2="600" y2="576" stroke="#FFB000" stroke-width="0.3" opacity="0.012"/><line x1="0" y1="579" x2="600" y2="579" stroke="#FFB000" stroke-width="0.3" opacity="0.012"/><line x1="0" y1="582" x2="600" y2="582" stroke="#FFB000" stroke-width="0.3" opacity="0.012"/><line x1="0" y1="585" x2="600" y2="585" stroke="#FFB000" stroke-width="0.3" opacity="0.012"/><line x1="0" y1="588" x2="600" y2="588" stroke="#FFB000" stroke-width="0.3" opacity="0.012"/><line x1="0" y1="591" x2="600" y2="591" stroke="#FFB000" stroke-width="0.3" opacity="0.012"/><line x1="0" y1="594" x2="600" y2="594" stroke="#FFB000" stroke-width="0.3" opacity="0.012"/><line x1="0" y1="597" x2="600" y2="597" stroke="#FFB000" stroke-width="0.3" opacity="0.012"/><circle cx="300" cy="300" r="265" fill="none" stroke="#4a3a10" stroke-width="0.4" opacity="0.25" /><line x1="456.6" y1="462.6" x2="143.4" y2="462.6" stroke="#FFB000" stroke-width="0.3" opacity="0.15"/><line x1="137.4" y1="456.6" x2="137.4" y2="143.4" stroke="#FFB000" stroke-width="0.3" opacity="0.145"/><line x1="143.4" y1="137.4" x2="456.6" y2="137.4" stroke="#FFB000" stroke-width="0.3" opacity="0.13999999999999999"/><line x1="462.6" y1="143.4" x2="462.6" y2="456.6" stroke="#FFB000" stroke-width="0.3" opacity="0.135"/><line x1="428.4" y1="434.4" x2="171.6" y2="434.4" stroke="#FFB000" stroke-width="0.6" opacity="0.125"/><line x1="165.6" y1="428.4" x2="165.6" y2="171.6" stroke="#FFB000" stroke-width="0.6" opacity="0.12"/><line x1="171.6" y1="165.6" x2="428.4" y2="165.6" stroke="#FFB000" stroke-width="0.6" opacity="0.115"/><line x1="434.4" y1="171.6" x2="434.4" y2="428.4" stroke="#FFB000" stroke-width="0.6" opacity="0.11"/><line x1="400.1" y1="406.1" x2="199.9" y2="406.1" stroke="#FFB000" stroke-width="0.8999999999999999" opacity="0.09999999999999999"/><line x1="193.9" y1="400.1" x2="193.9" y2="199.9" stroke="#FFB000" stroke-width="0.8999999999999999" opacity="0.09499999999999999"/><line x1="199.9" y1="193.9" x2="400.1" y2="193.9" stroke="#FFB000" stroke-width="0.8999999999999999" opacity="0.09"/><line x1="406.1" y1="199.9" x2="406.1" y2="400.1" stroke="#FFB000" stroke-width="0.8999999999999999" opacity="0.08499999999999999"/><line x1="371.8" y1="377.8" x2="228.2" y2="377.8" stroke="#FFB000" stroke-width="1.2" opacity="0.07499999999999998"/><line x1="222.2" y1="371.8" x2="222.2" y2="228.2" stroke="#FFB000" stroke-width="1.2" opacity="0.06999999999999998"/><line x1="228.2" y1="222.2" x2="371.8" y2="222.2" stroke="#FFB000" stroke-width="1.2" opacity="0.06499999999999999"/><line x1="377.8" y1="228.2" x2="377.8" y2="371.8" stroke="#FFB000" stroke-width="1.2" opacity="0.059999999999999984"/><line x1="343.5" y1="349.5" x2="256.5" y2="349.5" stroke="#FFB000" stroke-width="1.5" opacity="0.04999999999999999"/><line x1="250.5" y1="343.5" x2="250.5" y2="256.5" stroke="#FFB000" stroke-width="1.5" opacity="0.04499999999999999"/><line x1="256.5" y1="250.5" x2="343.5" y2="250.5" stroke="#FFB000" stroke-width="1.5" opacity="0.03999999999999999"/><line x1="349.5" y1="256.5" x2="349.5" y2="343.5" stroke="#FFB000" stroke-width="1.5" opacity="0.03499999999999999"/><line x1="298.0" y1="396.5" x2="215.4" y2="253.5" stroke="#4a3a10" stroke-width="0.5" opacity="0.04"/><line x1="217.4" y1="250.0" x2="382.6" y2="250.0" stroke="#4a3a10" stroke-width="0.5" opacity="0.04"/><line x1="384.6" y1="253.5" x2="302.0" y2="396.5" stroke="#4a3a10" stroke-width="0.5" opacity="0.04"/><circle cx="300" cy="300" r="5" fill="none" stroke="#FFB000" stroke-width="0.5" opacity="0.3" /><circle cx="300" cy="300" r="9" fill="none" stroke="#FFB000" stroke-width="0.3" opacity="0.15" filter="url(#g)"/><circle cx="300" cy="300" r="3" fill="#0a0a08"/><circle cx="300" cy="300" r="1" fill="#4a3a10" opacity="0.2"/><circle cx="300.0" cy="274.0" r="3" fill="none" stroke="#4a3a10" stroke-width="0.3" opacity="0.15"/><text x="300.0" y="275.0" fill="#4a3a10" font-size="6" font-family="monospace" text-anchor="middle" dominant-baseline="central" opacity="0.2">e</text><circle cx="320.3276185441688" cy="283.7892651516729" r="3" fill="none" stroke="#4a3a10" stroke-width="0.3" opacity="0.15"/><text x="320.3276185441688" y="284.7892651516729" fill="#4a3a10" font-size="6" font-family="monospace" text-anchor="middle" dominant-baseline="central" opacity="0.2">i</text><circle cx="325.3481257167274" cy="305.7855442828642" r="3" fill="none" stroke="#4a3a10" stroke-width="0.3" opacity="0.15"/><text x="325.3481257167274" y="306.7855442828642" fill="#4a3a10" font-size="6" font-family="monospace" text-anchor="middle" dominant-baseline="central" opacity="0.2">a</text><circle cx="311.2809772170565" cy="323.4251905654629" r="3" fill="none" stroke="#4a3a10" stroke-width="0.3" opacity="0.15"/><text x="311.2809772170565" y="324.4251905654629" fill="#4a3a10" font-size="6" font-family="monospace" text-anchor="middle" dominant-baseline="central" opacity="0.2">o</text><circle cx="288.71902278294345" cy="323.4251905654629" r="3" fill="none" stroke="#4a3a10" stroke-width="0.3" opacity="0.15"/><text x="288.71902278294345" y="324.4251905654629" fill="#4a3a10" font-size="6" font-family="monospace" text-anchor="middle" dominant-baseline="central" opacity="0.2">u</text><circle cx="274.6518742832726" cy="305.7855442828642" r="3" fill="none" stroke="#4a3a10" stroke-width="0.3" opacity="0.15"/><text x="274.6518742832726" y="306.7855442828642" fill="#4a3a10" font-size="6" font-family="monospace" text-anchor="middle" dominant-baseline="central" opacity="0.2">n</text><circle cx="279.6723814558312" cy="283.7892651516729" r="3" fill="none" stroke="#4a3a10" stroke-width="0.3" opacity="0.15"/><text x="279.6723814558312" y="284.7892651516729" fill="#4a3a10" font-size="6" font-family="monospace" text-anchor="middle" dominant-baseline="central" opacity="0.2">g</text><text x="300" y="572" fill="#4a3a10" font-size="10" font-family="monospace" text-anchor="middle" letter-spacing="4" opacity="0.5">ZONE 0 · MONO_AMBER</text><text x="300" y="26" fill="#4a3a10" font-size="9" font-family="monospace" text-anchor="middle" letter-spacing="6" opacity="0.3">0000</text></svg>
