<?xml version="1.0" encoding="UTF-8"?>
<svg xmlns="http://www.w3.org/2000/svg" viewBox="0 0 600 600" width="600" height="600">
<rect width="600" height="600" fill="#0a080a"/><defs>
  <filter id="g" x="-50%" y="-50%" width="200%" height="200%"
    ><feGaussianBlur stdDeviation="2" result="b"
    /><feMerge><feMergeNode in="b"/><feMergeNode in="SourceGraphic"/></feMerge></filter
  >
  <filter id="G" x="-50%" y="-50%" width="200%" height="200%"
    ><feGaussianBlur stdDeviation="5" result="b"
    /><feMerge><feMergeNode in="b"/><feMergeNode in="SourceGraphic"/></feMerge></filter
  >
</defs><line x1="0" y1="0.0" x2="600" y2="0.0" stroke="#3a1050" stroke-width="0.2" opacity="0.004"/><line x1="0" y1="0.0" x2="600" y2="300.0" stroke="#3a1050" stroke-width="0.2" opacity="0.003"/><line x1="0" y1="7.5" x2="600" y2="7.5" stroke="#3a1050" stroke-width="0.2" opacity="0.004"/><line x1="0" y1="7.5" x2="600" y2="307.5" stroke="#3a1050" stroke-width="0.2" opacity="0.003"/><line x1="0" y1="15.0" x2="600" y2="15.0" stroke="#3a1050" stroke-width="0.2" opacity="0.004"/><line x1="0" y1="15.0" x2="600" y2="315.0" stroke="#3a1050" stroke-width="0.2" opacity="0.003"/><line x1="0" y1="22.5" x2="600" y2="22.5" stroke="#3a1050" stroke-width="0.2" opacity="0.004"/><line x1="0" y1="22.5" x2="600" y2="322.5" stroke="#3a1050" stroke-width="0.2" opacity="0.003"/><line x1="0" y1="30.0" x2="600" y2="30.0" stroke="#3a1050" stroke-width="0.2" opacity="0.004"/><line x1="0" y1="30.0" x2="600" y2="330.0" stroke="#3a1050" stroke-width="0.2" opacity="0.003"/><line x1="0" y1="37.5" x2="600" y2="37.5" stroke="#3a1050" stroke-width="0.2" opacity="0.004"/><line x1="0" y1="37.5" x2="600" y2="337.5" stroke="#3a1050" stroke-width="0.2" opacity="0.003"/><line x1="0" y1="45.0" x2="600" y2="45.0" stroke="#3a1050" stroke-width="0.2" opacity="0.004"/><line x1="0" y1="45.0" x2="600" y2="345.0" stroke="#3a1050" stroke-width="0.2" opacity="0.003"/><line x1="0" y1="52.5" x2="600" y2="52.5" stroke="#3a1050" stroke-width="0.2" opacity="0.004"/><line x1="0" y1="52.5" x2="600" y2="352.5" stroke="#3a1050" stroke-width="0.2" opacity="0.003"/><line x1="0" y1="60.0" x2="600" y2="60.0" stroke="#3a1050" stroke-width="0.2" opacity="0.004"/><line x1="0" y1="60.0" x2="600" y2="360.0" stroke="#3a1050" stroke-width="0.2" opacity="0.003"/><line x1="0" y1="67.5" x2="600" y2="67.5" stroke="#3a1050" stroke-width="0.2" opacity="0.004"/><line x1="0" y1="67.5" x2="600" y2="367.5" stroke="#3a1050" stroke-width="0.2" opacity="0.003"/><line x1="0" y1="75.0" x2="600" y2="75.0" stroke="#3a1050" stroke-width="0.2" opacity="0.004"/><line x1="0" y1="75.0" x2="600" y2="375.0" stroke="#3a1050" stroke-width="0.2" opacity="0.003"/><line x1="0" y1="82.5" x2="600" y2="82.5" stroke="#3a1050" stroke-width="0.2" opacity="0.004"/><line x1="0" y1="82.5" x2="600" y2="382.5" stroke="#3a1050" stroke-width="0.2" opacity="0.003"/><line x1="0" y1="90.0" x2="600" y2="90.0" stroke="#3a1050" stroke-width="0.2" opacity="0.004"/><line x1="0" y1="90.0" x2="600" y2="390.0" stroke="#3a1050" stroke-width="0.2" opacity="0.003"/><line x1="0" y1="97.5" x2="600" y2="97.5" stroke="#3a1050" stroke-width="0.2" opacity="0.004"/><line x1="0" y1="97.5" x2="600" y2="397.5" stroke="#3a1050" stroke-width="0.2" opacity="0.003"/><line x1="0" y1="105.0" x2="600" y2="105.0" stroke="#3a1050" stroke-width="0.2" opacity="0.004"/><line x1="0" y1="105.0" x2="600" y2="405.0" stroke="#3a1050" stroke-width="0.2" opacity="0.003"/><line x1="0" y1="112.5" x2="600" y2="112.5" stroke="#3a1050" stroke-width="0.2" opacity="0.004"/><line x1="0" y1="112.5" x2="600" y2="412.5" stroke="#3a1050" stroke-width="0.2" opacity="0.003"/><line x1="0" y1="120.0" x2="600" y2="120.0" stroke="#3a1050" stroke-width="0.2" opacity="0.004"/><line x1="0" y1="120.0" x2="600" y2="420.0" stroke="#3a1050" stroke-width="0.2" opacity="0.003"/><line x1="0" y1="127.5" x2="600" y2="127.5" stroke="#3a1050" stroke-width="0.2" opacity="0.004"/><line x1="0" y1="127.5" x2="600" y2="427.5" stroke="#3a1050" stroke-width="0.2" opacity="0.003"/><line x1="0" y1="135.0" x2="600" y2="135.0" stroke="#3a1050" stroke-width="0.2" opacity="0.004"/><line x1="0" y1="135.0" x2="600" y2="435.0" stroke="#3a1050" stroke-width="0.2" opacity="0.003"/><line x1="0" y1="142.5" x2="600" y2="142.5" stroke="#3a1050" stroke-width="0.2" opacity="0.004"/><line x1="0" y1="142.5" x2="600" y2="442.5" stroke="#3a1050" stroke-width="0.2" opacity="0.003"/><line x1="0" y1="150.0" x2="600" y2="150.0" stroke="#3a1050" stroke-width="0.2" opacity="0.004"/><line x1="0" y1="150.0" x2="600" y2="450.0" stroke="#3a1050" stroke-width="0.2" opacity="0.003"/><line x1="0" y1="157.5" x2="600" y2="157.5" stroke="#3a1050" stroke-width="0.2" opacity="0.004"/><line x1="0" y1="157.5" x2="600" y2="457.5" stroke="#3a1050" stroke-width="0.2" opacity="0.003"/><line x1="0" y1="165.0" x2="600" y2="165.0" stroke="#3a1050" stroke-width="0.2" opacity="0.004"/><line x1="0" y1="165.0" x2="600" y2="465.0" stroke="#3a1050" stroke-width="0.2" opacity="0.003"/><line x1="0" y1="172.5" x2="600" y2="172.5" stroke="#3a1050" stroke-width="0.2" opacity="0.004"/><line x1="0" y1="172.5" x2="600" y2="472.5" stroke="#3a1050" stroke-width="0.2" opacity="0.003"/><line x1="0" y1="180.0" x2="600" y2="180.0" stroke="#3a1050" stroke-width="0.2" opacity="0.004"/><line x1="0" y1="180.0" x2="600" y2="480.0" stroke="#3a1050" stroke-width="0.2" opacity="0.003"/><line x1="0" y1="187.5" x2="600" y2="187.5" stroke="#3a1050" stroke-width="0.2" opacity="0.004"/><line x1="0" y1="187.5" x2="600" y2="487.5" stroke="#3a1050" stroke-width="0.2" opacity="0.003"/><line x1="0" y1="195.0" x2="600" y2="195.0" stroke="#3a1050" stroke-width="0.2" opacity="0.004"/><line x1="0" y1="195.0" x2="600" y2="495.0" stroke="#3a1050" stroke-width="0.2" opacity="0.003"/><line x1="0" y1="202.5" x2="600" y2="202.5" stroke="#3a1050" stroke-width="0.2" opacity="0.004"/><line x1="0" y1="202.5" x2="600" y2="502.5" stroke="#3a1050" stroke-width="0.2" opacity="0.003"/><line x1="0" y1="210.0" x2="600" y2="210.0" stroke="#3a1050" stroke-width="0.2" opacity="0.004"/><line x1="0" y1="210.0" x2="600" y2="510.0" stroke="#3a1050" stroke-width="0.2" opacity="0.003"/><line x1="0" y1="217.5" x2="600" y2="217.5" stroke="#3a1050" stroke-width="0.2" opacity="0.004"/><line x1="0" y1="217.5" x2="600" y2="517.5" stroke="#3a1050" stroke-width="0.2" opacity="0.003"/><line x1="0" y1="225.0" x2="600" y2="225.0" stroke="#3a1050" stroke-width="0.2" opacity="0.004"/><line x1="0" y1="225.0" x2="600" y2="525.0" stroke="#3a1050" stroke-width="0.2" opacity="0.003"/><line x1="0" y1="232.5" x2="600" y2="232.5" stroke="#3a1050" stroke-width="0.2" opacity="0.004"/><line x1="0" y1="232.5" x2="600" y2="532.5" stroke="#3a1050" stroke-width="0.2" opacity="0.003"/><line x1="0" y1="240.0" x2="600" y2="240.0" stroke="#3a1050" stroke-width="0.2" opacity="0.004"/><line x1="0" y1="240.0" x2="600" y2="540.0" stroke="#3a1050" stroke-width="0.2" opacity="0.003"/><line x1="0" y1="247.5" x2="600" y2="247.5" stroke="#3a1050" stroke-width="0.2" opacity="0.004"/><line x1="0" y1="247.5" x2="600" y2="547.5" stroke="#3a1050" stroke-width="0.2" opacity="0.003"/><line x1="0" y1="255.0" x2="600" y2="255.0" stroke="#3a1050" stroke-width="0.2" opacity="0.004"/><line x1="0" y1="255.0" x2="600" y2="555.0" stroke="#3a1050" stroke-width="0.2" opacity="0.003"/><line x1="0" y1="262.5" x2="600" y2="262.5" stroke="#3a1050" stroke-width="0.2" opacity="0.004"/><line x1="0" y1="262.5" x2="600" y2="562.5" stroke="#3a1050" stroke-width="0.2" opacity="0.003"/><line x1="0" y1="270.0" x2="600" y2="270.0" stroke="#3a1050" stroke-width="0.2" opacity="0.004"/><line x1="0" y1="270.0" x2="600" y2="570.0" stroke="#3a1050" stroke-width="0.2" opacity="0.003"/><line x1="0" y1="277.5" x2="600" y2="277.5" stroke="#3a1050" stroke-width="0.2" opacity="0.004"/><line x1="0" y1="277.5" x2="600" y2="577.5" stroke="#3a1050" stroke-width="0.2" opacity="0.003"/><line x1="0" y1="285.0" x2="600" y2="285.0" stroke="#3a1050" stroke-width="0.2" opacity="0.004"/><line x1="0" y1="285.0" x2="600" y2="585.0" stroke="#3a1050" stroke-width="0.2" opacity="0.003"/><line x1="0" y1="292.5" x2="600" y2="292.5" stroke="#3a1050" stroke-width="0.2" opacity="0.004"/><line x1="0" y1="292.5" x2="600" y2="592.5" stroke="#3a1050" stroke-width="0.2" opacity="0.003"/><line x1="0" y1="300.0" x2="600" y2="300.0" stroke="#3a1050" stroke-width="0.2" opacity="0.004"/><line x1="0" y1="300.0" x2="600" y2="600.0" stroke="#3a1050" stroke-width="0.2" opacity="0.003"/><line x1="0" y1="307.5" x2="600" y2="307.5" stroke="#3a1050" stroke-width="0.2" opacity="0.004"/><line x1="0" y1="307.5" x2="600" y2="607.5" stroke="#3a1050" stroke-width="0.2" opacity="0.003"/><line x1="0" y1="315.0" x2="600" y2="315.0" stroke="#3a1050" stroke-width="0.2" opacity="0.004"/><line x1="0" y1="315.0" x2="600" y2="615.0" stroke="#3a1050" stroke-width="0.2" opacity="0.003"/><line x1="0" y1="322.5" x2="600" y2="322.5" stroke="#3a1050" stroke-width="0.2" opacity="0.004"/><line x1="0" y1="322.5" x2="600" y2="622.5" stroke="#3a1050" stroke-width="0.2" opacity="0.003"/><line x1="0" y1="330.0" x2="600" y2="330.0" stroke="#3a1050" stroke-width="0.2" opacity="0.004"/><line x1="0" y1="330.0" x2="600" y2="630.0" stroke="#3a1050" stroke-width="0.2" opacity="0.003"/><line x1="0" y1="337.5" x2="600" y2="337.5" stroke="#3a1050" stroke-width="0.2" opacity="0.004"/><line x1="0" y1="337.5" x2="600" y2="637.5" stroke="#3a1050" stroke-width="0.2" opacity="0.003"/><line x1="0" y1="345.0" x2="600" y2="345.0" stroke="#3a1050" stroke-width="0.2" opacity="0.004"/><line x1="0" y1="345.0" x2="600" y2="645.0" stroke="#3a1050" stroke-width="0.2" opacity="0.003"/><line x1="0" y1="352.5" x2="600" y2="352.5" stroke="#3a1050" stroke-width="0.2" opacity="0.004"/><line x1="0" y1="352.5" x2="600" y2="652.5" stroke="#3a1050" stroke-width="0.2" opacity="0.003"/><line x1="0" y1="360.0" x2="600" y2="360.0" stroke="#3a1050" stroke-width="0.2" opacity="0.004"/><line x1="0" y1="360.0" x2="600" y2="660.0" stroke="#3a1050" stroke-width="0.2" opacity="0.003"/><line x1="0" y1="367.5" x2="600" y2="367.5" stroke="#3a1050" stroke-width="0.2" opacity="0.004"/><line x1="0" y1="367.5" x2="600" y2="667.5" stroke="#3a1050" stroke-width="0.2" opacity="0.003"/><line x1="0" y1="375.0" x2="600" y2="375.0" stroke="#3a1050" stroke-width="0.2" opacity="0.004"/><line x1="0" y1="375.0" x2="600" y2="675.0" stroke="#3a1050" stroke-width="0.2" opacity="0.003"/><line x1="0" y1="382.5" x2="600" y2="382.5" stroke="#3a1050" stroke-width="0.2" opacity="0.004"/><line x1="0" y1="382.5" x2="600" y2="682.5" stroke="#3a1050" stroke-width="0.2" opacity="0.003"/><line x1="0" y1="390.0" x2="600" y2="390.0" stroke="#3a1050" stroke-width="0.2" opacity="0.004"/><line x1="0" y1="390.0" x2="600" y2="690.0" stroke="#3a1050" stroke-width="0.2" opacity="0.003"/><line x1="0" y1="397.5" x2="600" y2="397.5" stroke="#3a1050" stroke-width="0.2" opacity="0.004"/><line x1="0" y1="397.5" x2="600" y2="697.5" stroke="#3a1050" stroke-width="0.2" opacity="0.003"/><line x1="0" y1="405.0" x2="600" y2="405.0" stroke="#3a1050" stroke-width="0.2" opacity="0.004"/><line x1="0" y1="405.0" x2="600" y2="705.0" stroke="#3a1050" stroke-width="0.2" opacity="0.003"/><line x1="0" y1="412.5" x2="600" y2="412.5" stroke="#3a1050" stroke-width="0.2" opacity="0.004"/><line x1="0" y1="412.5" x2="600" y2="712.5" stroke="#3a1050" stroke-width="0.2" opacity="0.003"/><line x1="0" y1="420.0" x2="600" y2="420.0" stroke="#3a1050" stroke-width="0.2" opacity="0.004"/><line x1="0" y1="420.0" x2="600" y2="720.0" stroke="#3a1050" stroke-width="0.2" opacity="0.003"/><line x1="0" y1="427.5" x2="600" y2="427.5" stroke="#3a1050" stroke-width="0.2" opacity="0.004"/><line x1="0" y1="427.5" x2="600" y2="727.5" stroke="#3a1050" stroke-width="0.2" opacity="0.003"/><line x1="0" y1="435.0" x2="600" y2="435.0" stroke="#3a1050" stroke-width="0.2" opacity="0.004"/><line x1="0" y1="435.0" x2="600" y2="735.0" stroke="#3a1050" stroke-width="0.2" opacity="0.003"/><line x1="0" y1="442.5" x2="600" y2="442.5" stroke="#3a1050" stroke-width="0.2" opacity="0.004"/><line x1="0" y1="442.5" x2="600" y2="742.5" stroke="#3a1050" stroke-width="0.2" opacity="0.003"/><line x1="0" y1="450.0" x2="600" y2="450.0" stroke="#3a1050" stroke-width="0.2" opacity="0.004"/><line x1="0" y1="450.0" x2="600" y2="750.0" stroke="#3a1050" stroke-width="0.2" opacity="0.003"/><line x1="0" y1="457.5" x2="600" y2="457.5" stroke="#3a1050" stroke-width="0.2" opacity="0.004"/><line x1="0" y1="457.5" x2="600" y2="757.5" stroke="#3a1050" stroke-width="0.2" opacity="0.003"/><line x1="0" y1="465.0" x2="600" y2="465.0" stroke="#3a1050" stroke-width="0.2" opacity="0.004"/><line x1="0" y1="465.0" x2="600" y2="765.0" stroke="#3a1050" stroke-width="0.2" opacity="0.003"/><line x1="0" y1="472.5" x2="600" y2="472.5" stroke="#3a1050" stroke-width="0.2" opacity="0.004"/><line x1="0" y1="472.5" x2="600" y2="772.5" stroke="#3a1050" stroke-width="0.2" opacity="0.003"/><line x1="0" y1="480.0" x2="600" y2="480.0" stroke="#3a1050" stroke-width="0.2" opacity="0.004"/><line x1="0" y1="480.0" x2="600" y2="780.0" stroke="#3a1050" stroke-width="0.2" opacity="0.003"/><line x1="0" y1="487.5" x2="600" y2="487.5" stroke="#3a1050" stroke-width="0.2" opacity="0.004"/><line x1="0" y1="487.5" x2="600" y2="787.5" stroke="#3a1050" stroke-width="0.2" opacity="0.003"/><line x1="0" y1="495.0" x2="600" y2="495.0" stroke="#3a1050" stroke-width="0.2" opacity="0.004"/><line x1="0" y1="495.0" x2="600" y2="795.0" stroke="#3a1050" stroke-width="0.2" opacity="0.003"/><line x1="0" y1="502.5" x2="600" y2="502.5" stroke="#3a1050" stroke-width="0.2" opacity="0.004"/><line x1="0" y1="502.5" x2="600" y2="802.5" stroke="#3a1050" stroke-width="0.2" opacity="0.003"/><line x1="0" y1="510.0" x2="600" y2="510.0" stroke="#3a1050" stroke-width="0.2" opacity="0.004"/><line x1="0" y1="510.0" x2="600" y2="810.0" stroke="#3a1050" stroke-width="0.2" opacity="0.003"/><line x1="0" y1="517.5" x2="600" y2="517.5" stroke="#3a1050" stroke-width="0.2" opacity="0.004"/><line x1="0" y1="517.5" x2="600" y2="817.5" stroke="#3a1050" stroke-width="0.2" opacity="0.003"/><line x1="0" y1="525.0" x2="600" y2="525.0" stroke="#3a1050" stroke-width="0.2" opacity="0.004"/><line x1="0" y1="525.0" x2="600" y2="825.0" stroke="#3a1050" stroke-width="0.2" opacity="0.003"/><line x1="0" y1="532.5" x2="600" y2="532.5" stroke="#3a1050" stroke-width="0.2" opacity="0.004"/><line x1="0" y1="532.5" x2="600" y2="832.5" stroke="#3a1050" stroke-width="0.2" opacity="0.003"/><line x1="0" y1="540.0" x2="600" y2="540.0" stroke="#3a1050" stroke-width="0.2" opacity="0.004"/><line x1="0" y1="540.0" x2="600" y2="840.0" stroke="#3a1050" stroke-width="0.2" opacity="0.003"/><line x1="0" y1="547.5" x2="600" y2="547.5" stroke="#3a1050" stroke-width="0.2" opacity="0.004"/><line x1="0" y1="547.5" x2="600" y2="847.5" stroke="#3a1050" stroke-width="0.2" opacity="0.003"/><line x1="0" y1="555.0" x2="600" y2="555.0" stroke="#3a1050" stroke-width="0.2" opacity="0.004"/><line x1="0" y1="555.0" x2="600" y2="855.0" stroke="#3a1050" stroke-width="0.2" opacity="0.003"/><line x1="0" y1="562.5" x2="600" y2="562.5" stroke="#3a1050" stroke-width="0.2" opacity="0.004"/><line x1="0" y1="562.5" x2="600" y2="862.5" stroke="#3a1050" stroke-width="0.2" opacity="0.003"/><line x1="0" y1="570.0" x2="600" y2="570.0" stroke="#3a1050" stroke-width="0.2" opacity="0.004"/><line x1="0" y1="570.0" x2="600" y2="870.0" stroke="#3a1050" stroke-width="0.2" opacity="0.003"/><line x1="0" y1="577.5" x2="600" y2="577.5" stroke="#3a1050" stroke-width="0.2" opacity="0.004"/><line x1="0" y1="577.5" x2="600" y2="877.5" stroke="#3a1050" stroke-width="0.2" opacity="0.003"/><line x1="0" y1="585.0" x2="600" y2="585.0" stroke="#3a1050" stroke-width="0.2" opacity="0.004"/><line x1="0" y1="585.0" x2="600" y2="885.0" stroke="#3a1050" stroke-width="0.2" opacity="0.003"/><line x1="0" y1="592.5" x2="600" y2="592.5" stroke="#3a1050" stroke-width="0.2" opacity="0.004"/><line x1="0" y1="592.5" x2="600" y2="892.5" stroke="#3a1050" stroke-width="0.2" opacity="0.003"/><polygon points="535.0,300.0 569.3,318.8 532.7,332.7" fill="#3a1050" stroke="#9900FF" stroke-width="0.3" opacity="0.10"/><polygon points="532.7,332.7 564.1,356.1 525.9,364.8" fill="#3a1050" stroke="#9900FF" stroke-width="0.3" opacity="0.18"/><polygon points="525.9,364.8 553.7,392.3 514.7,395.6" fill="#3a1050" stroke="#9900FF" stroke-width="0.3" opacity="0.10"/><polygon points="514.7,395.6 538.4,426.8 499.3,424.5" fill="#3a1050" stroke="#9900FF" stroke-width="0.3" opacity="0.18"/><polygon points="499.3,424.5 518.4,458.7 480.0,451.1" fill="#3a1050" stroke="#9900FF" stroke-width="0.3" opacity="0.10"/><polygon points="480.0,451.1 494.2,487.6 457.2,474.6" fill="#3a1050" stroke="#9900FF" stroke-width="0.3" opacity="0.18"/><polygon points="457.2,474.6 466.2,512.8 431.4,494.8" fill="#3a1050" stroke="#9900FF" stroke-width="0.3" opacity="0.10"/><polygon points="431.4,494.8 435.0,533.8 403.0,511.2" fill="#3a1050" stroke="#9900FF" stroke-width="0.3" opacity="0.18"/><polygon points="403.0,511.2 401.1,550.3 372.6,523.5" fill="#3a1050" stroke="#9900FF" stroke-width="0.3" opacity="0.10"/><polygon points="372.6,523.5 365.3,562.0 340.8,531.4" fill="#3a1050" stroke="#9900FF" stroke-width="0.3" opacity="0.18"/><polygon points="340.8,531.4 328.2,568.5 308.2,534.9" fill="#3a1050" stroke="#9900FF" stroke-width="0.3" opacity="0.10"/><polygon points="308.2,534.9 290.6,569.8 275.4,533.7" fill="#3a1050" stroke="#9900FF" stroke-width="0.3" opacity="0.18"/><polygon points="275.4,533.7 253.1,565.9 243.1,528.0" fill="#3a1050" stroke="#9900FF" stroke-width="0.3" opacity="0.10"/><polygon points="243.1,528.0 216.6,556.8 212.0,517.9" fill="#3a1050" stroke="#9900FF" stroke-width="0.3" opacity="0.18"/><polygon points="212.0,517.9 181.6,542.7 182.5,503.5" fill="#3a1050" stroke="#9900FF" stroke-width="0.3" opacity="0.10"/><polygon points="182.5,503.5 149.0,523.8 155.3,485.2" fill="#3a1050" stroke="#9900FF" stroke-width="0.3" opacity="0.18"/><polygon points="155.3,485.2 119.3,500.6 131.0,463.2" fill="#3a1050" stroke="#9900FF" stroke-width="0.3" opacity="0.10"/><polygon points="131.0,463.2 93.2,473.6 109.9,438.1" fill="#3a1050" stroke="#9900FF" stroke-width="0.3" opacity="0.18"/><polygon points="109.9,438.1 71.0,443.1 92.5,410.3" fill="#3a1050" stroke="#9900FF" stroke-width="0.3" opacity="0.10"/><polygon points="92.5,410.3 53.3,409.8 79.2,380.4" fill="#3a1050" stroke="#9900FF" stroke-width="0.3" opacity="0.18"/><polygon points="79.2,380.4 40.5,374.4 70.1,348.9" fill="#3a1050" stroke="#9900FF" stroke-width="0.3" opacity="0.10"/><polygon points="70.1,348.9 32.6,337.6 65.6,316.4" fill="#3a1050" stroke="#9900FF" stroke-width="0.3" opacity="0.18"/><polygon points="65.6,316.4 30.0,300.0 65.6,283.6" fill="#3a1050" stroke="#9900FF" stroke-width="0.3" opacity="0.10"/><polygon points="65.6,283.6 32.6,262.4 70.1,251.1" fill="#3a1050" stroke="#9900FF" stroke-width="0.3" opacity="0.18"/><polygon points="70.1,251.1 40.5,225.6 79.2,219.6" fill="#3a1050" stroke="#9900FF" stroke-width="0.3" opacity="0.10"/><polygon points="79.2,219.6 53.3,190.2 92.5,189.7" fill="#3a1050" stroke="#9900FF" stroke-width="0.3" opacity="0.18"/><polygon points="92.5,189.7 71.0,156.9 109.9,161.9" fill="#3a1050" stroke="#9900FF" stroke-width="0.3" opacity="0.10"/><polygon points="109.9,161.9 93.2,126.4 131.0,136.8" fill="#3a1050" stroke="#9900FF" stroke-width="0.3" opacity="0.18"/><polygon points="131.0,136.8 119.3,99.4 155.3,114.8" fill="#3a1050" stroke="#9900FF" stroke-width="0.3" opacity="0.10"/><polygon points="155.3,114.8 149.0,76.2 182.5,96.5" fill="#3a1050" stroke="#9900FF" stroke-width="0.3" opacity="0.18"/><polygon points="182.5,96.5 181.6,57.3 212.0,82.1" fill="#3a1050" stroke="#9900FF" stroke-width="0.3" opacity="0.10"/><polygon points="212.0,82.1 216.6,43.2 243.1,72.0" fill="#3a1050" stroke="#9900FF" stroke-width="0.3" opacity="0.18"/><polygon points="243.1,72.0 253.1,34.1 275.4,66.3" fill="#3a1050" stroke="#9900FF" stroke-width="0.3" opacity="0.10"/><polygon points="275.4,66.3 290.6,30.2 308.2,65.1" fill="#3a1050" stroke="#9900FF" stroke-width="0.3" opacity="0.18"/><polygon points="308.2,65.1 328.2,31.5 340.8,68.6" fill="#3a1050" stroke="#9900FF" stroke-width="0.3" opacity="0.10"/><polygon points="340.8,68.6 365.3,38.0 372.6,76.5" fill="#3a1050" stroke="#9900FF" stroke-width="0.3" opacity="0.18"/><polygon points="372.6,76.5 401.1,49.7 403.0,88.8" fill="#3a1050" stroke="#9900FF" stroke-width="0.3" opacity="0.10"/><polygon points="403.0,88.8 435.0,66.2 431.4,105.2" fill="#3a1050" stroke="#9900FF" stroke-width="0.3" opacity="0.18"/><polygon points="431.4,105.2 466.2,87.2 457.2,125.4" fill="#3a1050" stroke="#9900FF" stroke-width="0.3" opacity="0.10"/><polygon points="457.2,125.4 494.2,112.4 480.0,148.9" fill="#3a1050" stroke="#9900FF" stroke-width="0.3" opacity="0.18"/><polygon points="480.0,148.9 518.4,141.3 499.3,175.5" fill="#3a1050" stroke="#9900FF" stroke-width="0.3" opacity="0.10"/><polygon points="499.3,175.5 538.4,173.2 514.7,204.4" fill="#3a1050" stroke="#9900FF" stroke-width="0.3" opacity="0.18"/><polygon points="514.7,204.4 553.7,207.7 525.9,235.2" fill="#3a1050" stroke="#9900FF" stroke-width="0.3" opacity="0.10"/><polygon points="525.9,235.2 564.1,243.9 532.7,267.3" fill="#3a1050" stroke="#9900FF" stroke-width="0.3" opacity="0.18"/><polygon points="532.7,267.3 569.3,281.2 535.0,300.0" fill="#3a1050" stroke="#9900FF" stroke-width="0.3" opacity="0.10"/><circle cx="300" cy="300" r="225" fill="none" stroke="#6600aa" stroke-width="0.3" opacity="0.25" /><circle cx="300" cy="300" r="216" fill="none" stroke="#6b05ad" stroke-width="0.38" opacity="0.24" /><circle cx="300" cy="300" r="207" fill="none" stroke="#710bb1" stroke-width="0.45999999999999996" opacity="0.23" /><circle cx="300" cy="300" r="198" fill="none" stroke="#7711b4" stroke-width="0.54" opacity="0.22" /><circle cx="300" cy="300" r="189" fill="none" stroke="#7c16b8" stroke-width="0.62" opacity="0.21" /><circle cx="300" cy="300" r="180" fill="none" stroke="#821cbb" stroke-width="0.7" opacity="0.2" /><circle cx="300" cy="300" r="171" fill="none" stroke="#8822bf" stroke-width="0.78" opacity="0.19" /><circle cx="300" cy="300" r="162" fill="none" stroke="#8d27c2" stroke-width="0.8600000000000001" opacity="0.18" /><circle cx="300" cy="300" r="153" fill="none" stroke="#932dc6" stroke-width="0.94" opacity="0.16999999999999998" /><circle cx="300" cy="300" r="144" fill="none" stroke="#9933c9" stroke-width="1.02" opacity="0.16" /><circle cx="300" cy="300" r="135" fill="none" stroke="#9e38cd" stroke-width="1.1" opacity="0.15" /><circle cx="300" cy="300" r="126" fill="none" stroke="#a43ed0" stroke-width="1.18" opacity="0.14" /><circle cx="300" cy="300" r="117" fill="none" stroke="#aa44d4" stroke-width="1.26" opacity="0.13" /><circle cx="300" cy="300" r="108" fill="none" stroke="#af49d8" stroke-width="1.34" opacity="0.12" /><circle cx="300" cy="300" r="99" fill="none" stroke="#b54fdb" stroke-width="1.4200000000000002" opacity="0.10999999999999999" /><circle cx="300" cy="300" r="90" fill="none" stroke="#bb55df" stroke-width="1.5" opacity="0.1" /><circle cx="300" cy="300" r="81" fill="none" stroke="#c05ae2" stroke-width="1.58" opacity="0.09" /><circle cx="300" cy="300" r="72" fill="none" stroke="#c660e6" stroke-width="1.6600000000000001" opacity="0.07999999999999999" /><circle cx="300" cy="300" r="63" fill="none" stroke="#cc66e9" stroke-width="1.74" opacity="0.07" /><circle cx="300" cy="300" r="54" fill="none" stroke="#d16bed" stroke-width="1.82" opacity="0.06" /><circle cx="300" cy="300" r="45" fill="none" stroke="#d771f0" stroke-width="1.9000000000000001" opacity="0.04999999999999999" /><circle cx="300" cy="300" r="36" fill="none" stroke="#dd77f4" stroke-width="1.98" opacity="0.04000000000000001" /><circle cx="300" cy="300" r="27" fill="none" stroke="#e27cf7" stroke-width="2.06" opacity="0.03" /><circle cx="300" cy="300" r="18" fill="none" stroke="#e882fb" stroke-width="2.14" opacity="0.01999999999999999" /><polygon points="485.5,239.7 520.0,300.0 485.5,360.3" fill="none" stroke="#9900FF" stroke-width="0.8" opacity="0.2"/><polygon points="480.8,373.0 468.5,441.4 403.3,465.4" fill="none" stroke="#9900FF" stroke-width="0.8" opacity="0.2"/><polygon points="391.5,472.2 338.2,516.7 272.9,493.1" fill="none" stroke="#9900FF" stroke-width="0.8" opacity="0.2"/><polygon points="259.5,490.7 190.0,490.5 155.1,430.5" fill="none" stroke="#9900FF" stroke-width="0.8" opacity="0.2"/><polygon points="146.3,420.1 93.3,375.2 105.1,306.8" fill="none" stroke="#9900FF" stroke-width="0.8" opacity="0.2"/><polygon points="105.1,293.2 93.3,224.8 146.3,179.9" fill="none" stroke="#9900FF" stroke-width="0.8" opacity="0.2"/><polygon points="155.1,169.5 190.0,109.5 259.5,109.3" fill="none" stroke="#9900FF" stroke-width="0.8" opacity="0.2"/><polygon points="272.9,106.9 338.2,83.3 391.5,127.8" fill="none" stroke="#9900FF" stroke-width="0.8" opacity="0.2"/><polygon points="403.3,134.6 468.5,158.6 480.8,227.0" fill="none" stroke="#9900FF" stroke-width="0.8" opacity="0.2"/><polygon points="300.0,21.0 297.0,28.0 303.0,28.0" fill="none" stroke="#CC66FF" stroke-width="0.4" opacity="0.25"/><polygon points="473.8,86.3 479.8,86.3 479.8,92.3 473.8,92.3" fill="none" stroke="#CC66FF" stroke-width="0.4" opacity="0.25"/><polygon points="570.8,248.2 573.8,252.2 570.8,256.2 567.8,252.2" fill="none" stroke="#CC66FF" stroke-width="0.4" opacity="0.25"/><polygon points="535.2,434.5 538.2,433.5 541.2,434.5 540.2,439.5 536.2,439.5" fill="none" stroke="#CC66FF" stroke-width="0.4" opacity="0.25"/><polygon points="391.1,556.4 394.1,554.4 397.1,556.4 397.1,560.4 394.1,562.4 391.1,560.4" fill="none" stroke="#CC66FF" stroke-width="0.4" opacity="0.25"/><polygon points="202.9,558.4 208.9,558.4" fill="none" stroke="#CC66FF" stroke-width="0.4" opacity="0.25"/><polygon points="59.8,435.5 63.8,439.5 61.8,435.5 61.8,439.5" fill="none" stroke="#CC66FF" stroke-width="0.4" opacity="0.25"/><polygon points="29.2,252.2" fill="none" stroke="#CC66FF" stroke-width="0.4" opacity="0.25"/><polygon points="123.2,85.3 124.2,88.3 127.2,88.3 125.2,90.3 126.2,93.3 123.2,91.3 120.2,93.3 121.2,90.3 119.2,88.3 122.2,88.3" fill="none" stroke="#CC66FF" stroke-width="0.4" opacity="0.25"/><circle cx="582.0" cy="300.0" r="1.2" fill="#9900FF" opacity="0.3"/><circle cx="579.3" cy="339.2" r="0.6" fill="#3a1050" opacity="0.1"/><circle cx="571.1" cy="377.7" r="1.2" fill="#9900FF" opacity="0.3"/><circle cx="557.6" cy="414.7" r="0.6" fill="#3a1050" opacity="0.1"/><circle cx="539.1" cy="449.4" r="1.2" fill="#9900FF" opacity="0.3"/><circle cx="516.0" cy="481.3" r="1.2" fill="#9900FF" opacity="0.3"/><circle cx="488.7" cy="509.6" r="0.6" fill="#3a1050" opacity="0.1"/><circle cx="457.7" cy="533.8" r="0.6" fill="#3a1050" opacity="0.1"/><circle cx="423.6" cy="553.5" r="1.2" fill="#9900FF" opacity="0.3"/><circle cx="387.1" cy="568.2" r="0.6" fill="#3a1050" opacity="0.1"/><circle cx="349.0" cy="577.7" r="1.2" fill="#9900FF" opacity="0.3"/><circle cx="309.8" cy="581.8" r="1.2" fill="#9900FF" opacity="0.3"/><circle cx="270.5" cy="580.5" r="1.2" fill="#9900FF" opacity="0.3"/><circle cx="231.8" cy="573.6" r="0.6" fill="#3a1050" opacity="0.1"/><circle cx="194.4" cy="561.5" r="0.6" fill="#3a1050" opacity="0.1"/><circle cx="159.0" cy="544.2" r="1.2" fill="#9900FF" opacity="0.3"/><circle cx="126.4" cy="522.2" r="0.6" fill="#3a1050" opacity="0.1"/><circle cx="97.1" cy="495.9" r="1.2" fill="#9900FF" opacity="0.3"/><circle cx="71.9" cy="465.8" r="1.2" fill="#9900FF" opacity="0.3"/><circle cx="51.0" cy="432.4" r="0.6" fill="#3a1050" opacity="0.1"/><circle cx="35.0" cy="396.4" r="0.6" fill="#3a1050" opacity="0.1"/><circle cx="24.2" cy="358.6" r="1.2" fill="#9900FF" opacity="0.3"/><circle cx="18.7" cy="319.7" r="1.2" fill="#9900FF" opacity="0.3"/><circle cx="18.7" cy="280.3" r="0.6" fill="#3a1050" opacity="0.1"/><circle cx="24.2" cy="241.4" r="1.2" fill="#9900FF" opacity="0.3"/><circle cx="35.0" cy="203.6" r="0.6" fill="#3a1050" opacity="0.1"/><circle cx="51.0" cy="167.6" r="0.6" fill="#3a1050" opacity="0.1"/><circle cx="71.9" cy="134.2" r="1.2" fill="#9900FF" opacity="0.3"/><circle cx="97.1" cy="104.1" r="1.2" fill="#9900FF" opacity="0.3"/><circle cx="126.4" cy="77.8" r="0.6" fill="#3a1050" opacity="0.1"/><circle cx="159.0" cy="55.8" r="0.6" fill="#3a1050" opacity="0.1"/><circle cx="194.4" cy="38.5" r="1.2" fill="#9900FF" opacity="0.3"/><circle cx="231.8" cy="26.4" r="0.6" fill="#3a1050" opacity="0.1"/><circle cx="270.5" cy="19.5" r="1.2" fill="#9900FF" opacity="0.3"/><circle cx="309.8" cy="18.2" r="1.2" fill="#9900FF" opacity="0.3"/><circle cx="349.0" cy="22.3" r="0.6" fill="#3a1050" opacity="0.1"/><circle cx="387.1" cy="31.8" r="1.2" fill="#9900FF" opacity="0.3"/><circle cx="423.6" cy="46.5" r="0.6" fill="#3a1050" opacity="0.1"/><circle cx="457.7" cy="66.2" r="1.2" fill="#9900FF" opacity="0.3"/><circle cx="488.7" cy="90.4" r="1.2" fill="#9900FF" opacity="0.3"/><circle cx="516.0" cy="118.7" r="0.6" fill="#3a1050" opacity="0.1"/><circle cx="539.1" cy="150.6" r="0.6" fill="#3a1050" opacity="0.1"/><circle cx="557.6" cy="185.3" r="1.2" fill="#9900FF" opacity="0.3"/><circle cx="571.1" cy="222.3" r="0.6" fill="#3a1050" opacity="0.1"/><circle cx="579.3" cy="260.8" r="0.6" fill="#3a1050" opacity="0.1"/><polygon points="300.0,455.0 434.2,222.5 165.8,222.5" fill="none" stroke="#9900FF" stroke-width="2.0" opacity="0.3"/><polygon points="300.0,245.0 347.6,327.5 252.4,327.5" fill="none" stroke="#9900FF" stroke-width="0.7" opacity="0.15"/><circle cx="300" cy="300" r="16" fill="none" stroke="#CC66FF" stroke-width="0.8" opacity="0.5" filter="url(#G)"/><circle cx="300" cy="300" r="7" fill="#9900FF" opacity="0.6"/><circle cx="300" cy="300" r="3" fill="#ffffff" opacity="0.8"/><circle cx="300" cy="300" r="1" fill="#ffffff" opacity="1.0"/><text x="300" y="276" fill="#9900FF" font-size="14" font-family="monospace" text-anchor="middle" font-weight="bold" opacity="0.6">tn</text><text x="300" y="572" fill="#3a1050" font-size="10" font-family="monospace" text-anchor="middle" letter-spacing="4" opacity="0.5">ZONE 9 · PICO_8</text><text x="300" y="26" fill="#3a1050" font-size="9" font-family="monospace" text-anchor="middle" letter-spacing="6" opacity="0.3">0511</text></svg>
