<?xml version="1.0" encoding="UTF-8"?>
<svg xmlns="http://www.w3.org/2000/svg" viewBox="0 0 600 600" width="600" height="600">
<rect width="600" height="600" fill="#08060a"/><defs>
  <filter id="g" x="-50%" y="-50%" width="200%" height="200%"
    ><feGaussianBlur stdDeviation="2" result="b"
    /><feMerge><feMergeNode in="b"/><feMergeNode in="SourceGraphic"/></feMerge></filter
  >
  <filter id="G" x="-50%" y="-50%" width="200%" height="200%"
    ><feGaussianBlur stdDeviation="5" result="b"
    /><feMerge><feMergeNode in="b"/><feMergeNode in="SourceGraphic"/></feMerge></filter
  >
</defs><line x1="0" y1="0.0" x2="600" y2="0.0" stroke="#281848" stroke-width="0.2" opacity="0.005"/><line x1="0" y1="7.5" x2="600" y2="7.5" stroke="#281848" stroke-width="0.2" opacity="0.005"/><line x1="0" y1="15.0" x2="600" y2="15.0" stroke="#281848" stroke-width="0.2" opacity="0.005"/><line x1="0" y1="22.5" x2="600" y2="22.5" stroke="#281848" stroke-width="0.2" opacity="0.005"/><line x1="0" y1="30.0" x2="600" y2="30.0" stroke="#281848" stroke-width="0.2" opacity="0.005"/><line x1="0" y1="37.5" x2="600" y2="37.5" stroke="#281848" stroke-width="0.2" opacity="0.005"/><line x1="0" y1="45.0" x2="600" y2="45.0" stroke="#281848" stroke-width="0.2" opacity="0.005"/><line x1="0" y1="52.5" x2="600" y2="52.5" stroke="#281848" stroke-width="0.2" opacity="0.005"/><line x1="0" y1="60.0" x2="600" y2="60.0" stroke="#281848" stroke-width="0.2" opacity="0.005"/><line x1="0" y1="67.5" x2="600" y2="67.5" stroke="#281848" stroke-width="0.2" opacity="0.005"/><line x1="0" y1="75.0" x2="600" y2="75.0" stroke="#281848" stroke-width="0.2" opacity="0.005"/><line x1="0" y1="82.5" x2="600" y2="82.5" stroke="#281848" stroke-width="0.2" opacity="0.005"/><line x1="0" y1="90.0" x2="600" y2="90.0" stroke="#281848" stroke-width="0.2" opacity="0.005"/><line x1="0" y1="97.5" x2="600" y2="97.5" stroke="#281848" stroke-width="0.2" opacity="0.005"/><line x1="0" y1="105.0" x2="600" y2="105.0" stroke="#281848" stroke-width="0.2" opacity="0.005"/><line x1="0" y1="112.5" x2="600" y2="112.5" stroke="#281848" stroke-width="0.2" opacity="0.005"/><line x1="0" y1="120.0" x2="600" y2="120.0" stroke="#281848" stroke-width="0.2" opacity="0.005"/><line x1="0" y1="127.5" x2="600" y2="127.5" stroke="#281848" stroke-width="0.2" opacity="0.005"/><line x1="0" y1="135.0" x2="600" y2="135.0" stroke="#281848" stroke-width="0.2" opacity="0.005"/><line x1="0" y1="142.5" x2="600" y2="142.5" stroke="#281848" stroke-width="0.2" opacity="0.005"/><line x1="0" y1="150.0" x2="600" y2="150.0" stroke="#281848" stroke-width="0.2" opacity="0.005"/><line x1="0" y1="157.5" x2="600" y2="157.5" stroke="#281848" stroke-width="0.2" opacity="0.005"/><line x1="0" y1="165.0" x2="600" y2="165.0" stroke="#281848" stroke-width="0.2" opacity="0.005"/><line x1="0" y1="172.5" x2="600" y2="172.5" stroke="#281848" stroke-width="0.2" opacity="0.005"/><line x1="0" y1="180.0" x2="600" y2="180.0" stroke="#281848" stroke-width="0.2" opacity="0.005"/><line x1="0" y1="187.5" x2="600" y2="187.5" stroke="#281848" stroke-width="0.2" opacity="0.005"/><line x1="0" y1="195.0" x2="600" y2="195.0" stroke="#281848" stroke-width="0.2" opacity="0.005"/><line x1="0" y1="202.5" x2="600" y2="202.5" stroke="#281848" stroke-width="0.2" opacity="0.005"/><line x1="0" y1="210.0" x2="600" y2="210.0" stroke="#281848" stroke-width="0.2" opacity="0.005"/><line x1="0" y1="217.5" x2="600" y2="217.5" stroke="#281848" stroke-width="0.2" opacity="0.005"/><line x1="0" y1="225.0" x2="600" y2="225.0" stroke="#281848" stroke-width="0.2" opacity="0.005"/><line x1="0" y1="232.5" x2="600" y2="232.5" stroke="#281848" stroke-width="0.2" opacity="0.005"/><line x1="0" y1="240.0" x2="600" y2="240.0" stroke="#281848" stroke-width="0.2" opacity="0.005"/><line x1="0" y1="247.5" x2="600" y2="247.5" stroke="#281848" stroke-width="0.2" opacity="0.005"/><line x1="0" y1="255.0" x2="600" y2="255.0" stroke="#281848" stroke-width="0.2" opacity="0.005"/><line x1="0" y1="262.5" x2="600" y2="262.5" stroke="#281848" stroke-width="0.2" opacity="0.005"/><line x1="0" y1="270.0" x2="600" y2="270.0" stroke="#281848" stroke-width="0.2" opacity="0.005"/><line x1="0" y1="277.5" x2="600" y2="277.5" stroke="#281848" stroke-width="0.2" opacity="0.005"/><line x1="0" y1="285.0" x2="600" y2="285.0" stroke="#281848" stroke-width="0.2" opacity="0.005"/><line x1="0" y1="292.5" x2="600" y2="292.5" stroke="#281848" stroke-width="0.2" opacity="0.005"/><line x1="0" y1="300.0" x2="600" y2="300.0" stroke="#281848" stroke-width="0.2" opacity="0.005"/><line x1="0" y1="307.5" x2="600" y2="307.5" stroke="#281848" stroke-width="0.2" opacity="0.005"/><line x1="0" y1="315.0" x2="600" y2="315.0" stroke="#281848" stroke-width="0.2" opacity="0.005"/><line x1="0" y1="322.5" x2="600" y2="322.5" stroke="#281848" stroke-width="0.2" opacity="0.005"/><line x1="0" y1="330.0" x2="600" y2="330.0" stroke="#281848" stroke-width="0.2" opacity="0.005"/><line x1="0" y1="337.5" x2="600" y2="337.5" stroke="#281848" stroke-width="0.2" opacity="0.005"/><line x1="0" y1="345.0" x2="600" y2="345.0" stroke="#281848" stroke-width="0.2" opacity="0.005"/><line x1="0" y1="352.5" x2="600" y2="352.5" stroke="#281848" stroke-width="0.2" opacity="0.005"/><line x1="0" y1="360.0" x2="600" y2="360.0" stroke="#281848" stroke-width="0.2" opacity="0.005"/><line x1="0" y1="367.5" x2="600" y2="367.5" stroke="#281848" stroke-width="0.2" opacity="0.005"/><line x1="0" y1="375.0" x2="600" y2="375.0" stroke="#281848" stroke-width="0.2" opacity="0.005"/><line x1="0" y1="382.5" x2="600" y2="382.5" stroke="#281848" stroke-width="0.2" opacity="0.005"/><line x1="0" y1="390.0" x2="600" y2="390.0" stroke="#281848" stroke-width="0.2" opacity="0.005"/><line x1="0" y1="397.5" x2="600" y2="397.5" stroke="#281848" stroke-width="0.2" opacity="0.005"/><line x1="0" y1="405.0" x2="600" y2="405.0" stroke="#281848" stroke-width="0.2" opacity="0.005"/><line x1="0" y1="412.5" x2="600" y2="412.5" stroke="#281848" stroke-width="0.2" opacity="0.005"/><line x1="0" y1="420.0" x2="600" y2="420.0" stroke="#281848" stroke-width="0.2" opacity="0.005"/><line x1="0" y1="427.5" x2="600" y2="427.5" stroke="#281848" stroke-width="0.2" opacity="0.005"/><line x1="0" y1="435.0" x2="600" y2="435.0" stroke="#281848" stroke-width="0.2" opacity="0.005"/><line x1="0" y1="442.5" x2="600" y2="442.5" stroke="#281848" stroke-width="0.2" opacity="0.005"/><line x1="0" y1="450.0" x2="600" y2="450.0" stroke="#281848" stroke-width="0.2" opacity="0.005"/><line x1="0" y1="457.5" x2="600" y2="457.5" stroke="#281848" stroke-width="0.2" opacity="0.005"/><line x1="0" y1="465.0" x2="600" y2="465.0" stroke="#281848" stroke-width="0.2" opacity="0.005"/><line x1="0" y1="472.5" x2="600" y2="472.5" stroke="#281848" stroke-width="0.2" opacity="0.005"/><line x1="0" y1="480.0" x2="600" y2="480.0" stroke="#281848" stroke-width="0.2" opacity="0.005"/><line x1="0" y1="487.5" x2="600" y2="487.5" stroke="#281848" stroke-width="0.2" opacity="0.005"/><line x1="0" y1="495.0" x2="600" y2="495.0" stroke="#281848" stroke-width="0.2" opacity="0.005"/><line x1="0" y1="502.5" x2="600" y2="502.5" stroke="#281848" stroke-width="0.2" opacity="0.005"/><line x1="0" y1="510.0" x2="600" y2="510.0" stroke="#281848" stroke-width="0.2" opacity="0.005"/><line x1="0" y1="517.5" x2="600" y2="517.5" stroke="#281848" stroke-width="0.2" opacity="0.005"/><line x1="0" y1="525.0" x2="600" y2="525.0" stroke="#281848" stroke-width="0.2" opacity="0.005"/><line x1="0" y1="532.5" x2="600" y2="532.5" stroke="#281848" stroke-width="0.2" opacity="0.005"/><line x1="0" y1="540.0" x2="600" y2="540.0" stroke="#281848" stroke-width="0.2" opacity="0.005"/><line x1="0" y1="547.5" x2="600" y2="547.5" stroke="#281848" stroke-width="0.2" opacity="0.005"/><line x1="0" y1="555.0" x2="600" y2="555.0" stroke="#281848" stroke-width="0.2" opacity="0.005"/><line x1="0" y1="562.5" x2="600" y2="562.5" stroke="#281848" stroke-width="0.2" opacity="0.005"/><line x1="0" y1="570.0" x2="600" y2="570.0" stroke="#281848" stroke-width="0.2" opacity="0.005"/><line x1="0" y1="577.5" x2="600" y2="577.5" stroke="#281848" stroke-width="0.2" opacity="0.005"/><line x1="0" y1="585.0" x2="600" y2="585.0" stroke="#281848" stroke-width="0.2" opacity="0.005"/><line x1="0" y1="592.5" x2="600" y2="592.5" stroke="#281848" stroke-width="0.2" opacity="0.005"/><line x1="0.0" y1="0" x2="-300.0" y2="600" stroke="#281848" stroke-width="0.2" opacity="0.005"/><line x1="7.5" y1="0" x2="-292.5" y2="600" stroke="#281848" stroke-width="0.2" opacity="0.005"/><line x1="15.0" y1="0" x2="-285.0" y2="600" stroke="#281848" stroke-width="0.2" opacity="0.005"/><line x1="22.5" y1="0" x2="-277.5" y2="600" stroke="#281848" stroke-width="0.2" opacity="0.005"/><line x1="30.0" y1="0" x2="-270.0" y2="600" stroke="#281848" stroke-width="0.2" opacity="0.005"/><line x1="37.5" y1="0" x2="-262.5" y2="600" stroke="#281848" stroke-width="0.2" opacity="0.005"/><line x1="45.0" y1="0" x2="-255.0" y2="600" stroke="#281848" stroke-width="0.2" opacity="0.005"/><line x1="52.5" y1="0" x2="-247.5" y2="600" stroke="#281848" stroke-width="0.2" opacity="0.005"/><line x1="60.0" y1="0" x2="-240.0" y2="600" stroke="#281848" stroke-width="0.2" opacity="0.005"/><line x1="67.5" y1="0" x2="-232.5" y2="600" stroke="#281848" stroke-width="0.2" opacity="0.005"/><line x1="75.0" y1="0" x2="-225.0" y2="600" stroke="#281848" stroke-width="0.2" opacity="0.005"/><line x1="82.5" y1="0" x2="-217.5" y2="600" stroke="#281848" stroke-width="0.2" opacity="0.005"/><line x1="90.0" y1="0" x2="-210.0" y2="600" stroke="#281848" stroke-width="0.2" opacity="0.005"/><line x1="97.5" y1="0" x2="-202.5" y2="600" stroke="#281848" stroke-width="0.2" opacity="0.005"/><line x1="105.0" y1="0" x2="-195.0" y2="600" stroke="#281848" stroke-width="0.2" opacity="0.005"/><line x1="112.5" y1="0" x2="-187.5" y2="600" stroke="#281848" stroke-width="0.2" opacity="0.005"/><line x1="120.0" y1="0" x2="-180.0" y2="600" stroke="#281848" stroke-width="0.2" opacity="0.005"/><line x1="127.5" y1="0" x2="-172.5" y2="600" stroke="#281848" stroke-width="0.2" opacity="0.005"/><line x1="135.0" y1="0" x2="-165.0" y2="600" stroke="#281848" stroke-width="0.2" opacity="0.005"/><line x1="142.5" y1="0" x2="-157.5" y2="600" stroke="#281848" stroke-width="0.2" opacity="0.005"/><line x1="150.0" y1="0" x2="-150.0" y2="600" stroke="#281848" stroke-width="0.2" opacity="0.005"/><line x1="157.5" y1="0" x2="-142.5" y2="600" stroke="#281848" stroke-width="0.2" opacity="0.005"/><line x1="165.0" y1="0" x2="-135.0" y2="600" stroke="#281848" stroke-width="0.2" opacity="0.005"/><line x1="172.5" y1="0" x2="-127.5" y2="600" stroke="#281848" stroke-width="0.2" opacity="0.005"/><line x1="180.0" y1="0" x2="-120.0" y2="600" stroke="#281848" stroke-width="0.2" opacity="0.005"/><line x1="187.5" y1="0" x2="-112.5" y2="600" stroke="#281848" stroke-width="0.2" opacity="0.005"/><line x1="195.0" y1="0" x2="-105.0" y2="600" stroke="#281848" stroke-width="0.2" opacity="0.005"/><line x1="202.5" y1="0" x2="-97.5" y2="600" stroke="#281848" stroke-width="0.2" opacity="0.005"/><line x1="210.0" y1="0" x2="-90.0" y2="600" stroke="#281848" stroke-width="0.2" opacity="0.005"/><line x1="217.5" y1="0" x2="-82.5" y2="600" stroke="#281848" stroke-width="0.2" opacity="0.005"/><line x1="225.0" y1="0" x2="-75.0" y2="600" stroke="#281848" stroke-width="0.2" opacity="0.005"/><line x1="232.5" y1="0" x2="-67.5" y2="600" stroke="#281848" stroke-width="0.2" opacity="0.005"/><line x1="240.0" y1="0" x2="-60.0" y2="600" stroke="#281848" stroke-width="0.2" opacity="0.005"/><line x1="247.5" y1="0" x2="-52.5" y2="600" stroke="#281848" stroke-width="0.2" opacity="0.005"/><line x1="255.0" y1="0" x2="-45.0" y2="600" stroke="#281848" stroke-width="0.2" opacity="0.005"/><line x1="262.5" y1="0" x2="-37.5" y2="600" stroke="#281848" stroke-width="0.2" opacity="0.005"/><line x1="270.0" y1="0" x2="-30.0" y2="600" stroke="#281848" stroke-width="0.2" opacity="0.005"/><line x1="277.5" y1="0" x2="-22.5" y2="600" stroke="#281848" stroke-width="0.2" opacity="0.005"/><line x1="285.0" y1="0" x2="-15.0" y2="600" stroke="#281848" stroke-width="0.2" opacity="0.005"/><line x1="292.5" y1="0" x2="-7.5" y2="600" stroke="#281848" stroke-width="0.2" opacity="0.005"/><line x1="300.0" y1="0" x2="0.0" y2="600" stroke="#281848" stroke-width="0.2" opacity="0.005"/><line x1="307.5" y1="0" x2="7.5" y2="600" stroke="#281848" stroke-width="0.2" opacity="0.005"/><line x1="315.0" y1="0" x2="15.0" y2="600" stroke="#281848" stroke-width="0.2" opacity="0.005"/><line x1="322.5" y1="0" x2="22.5" y2="600" stroke="#281848" stroke-width="0.2" opacity="0.005"/><line x1="330.0" y1="0" x2="30.0" y2="600" stroke="#281848" stroke-width="0.2" opacity="0.005"/><line x1="337.5" y1="0" x2="37.5" y2="600" stroke="#281848" stroke-width="0.2" opacity="0.005"/><line x1="345.0" y1="0" x2="45.0" y2="600" stroke="#281848" stroke-width="0.2" opacity="0.005"/><line x1="352.5" y1="0" x2="52.5" y2="600" stroke="#281848" stroke-width="0.2" opacity="0.005"/><line x1="360.0" y1="0" x2="60.0" y2="600" stroke="#281848" stroke-width="0.2" opacity="0.005"/><line x1="367.5" y1="0" x2="67.5" y2="600" stroke="#281848" stroke-width="0.2" opacity="0.005"/><line x1="375.0" y1="0" x2="75.0" y2="600" stroke="#281848" stroke-width="0.2" opacity="0.005"/><line x1="382.5" y1="0" x2="82.5" y2="600" stroke="#281848" stroke-width="0.2" opacity="0.005"/><line x1="390.0" y1="0" x2="90.0" y2="600" stroke="#281848" stroke-width="0.2" opacity="0.005"/><line x1="397.5" y1="0" x2="97.5" y2="600" stroke="#281848" stroke-width="0.2" opacity="0.005"/><line x1="405.0" y1="0" x2="105.0" y2="600" stroke="#281848" stroke-width="0.2" opacity="0.005"/><line x1="412.5" y1="0" x2="112.5" y2="600" stroke="#281848" stroke-width="0.2" opacity="0.005"/><line x1="420.0" y1="0" x2="120.0" y2="600" stroke="#281848" stroke-width="0.2" opacity="0.005"/><line x1="427.5" y1="0" x2="127.5" y2="600" stroke="#281848" stroke-width="0.2" opacity="0.005"/><line x1="435.0" y1="0" x2="135.0" y2="600" stroke="#281848" stroke-width="0.2" opacity="0.005"/><line x1="442.5" y1="0" x2="142.5" y2="600" stroke="#281848" stroke-width="0.2" opacity="0.005"/><line x1="450.0" y1="0" x2="150.0" y2="600" stroke="#281848" stroke-width="0.2" opacity="0.005"/><line x1="457.5" y1="0" x2="157.5" y2="600" stroke="#281848" stroke-width="0.2" opacity="0.005"/><line x1="465.0" y1="0" x2="165.0" y2="600" stroke="#281848" stroke-width="0.2" opacity="0.005"/><line x1="472.5" y1="0" x2="172.5" y2="600" stroke="#281848" stroke-width="0.2" opacity="0.005"/><line x1="480.0" y1="0" x2="180.0" y2="600" stroke="#281848" stroke-width="0.2" opacity="0.005"/><line x1="487.5" y1="0" x2="187.5" y2="600" stroke="#281848" stroke-width="0.2" opacity="0.005"/><line x1="495.0" y1="0" x2="195.0" y2="600" stroke="#281848" stroke-width="0.2" opacity="0.005"/><line x1="502.5" y1="0" x2="202.5" y2="600" stroke="#281848" stroke-width="0.2" opacity="0.005"/><line x1="510.0" y1="0" x2="210.0" y2="600" stroke="#281848" stroke-width="0.2" opacity="0.005"/><line x1="517.5" y1="0" x2="217.5" y2="600" stroke="#281848" stroke-width="0.2" opacity="0.005"/><line x1="525.0" y1="0" x2="225.0" y2="600" stroke="#281848" stroke-width="0.2" opacity="0.005"/><line x1="532.5" y1="0" x2="232.5" y2="600" stroke="#281848" stroke-width="0.2" opacity="0.005"/><line x1="540.0" y1="0" x2="240.0" y2="600" stroke="#281848" stroke-width="0.2" opacity="0.005"/><line x1="547.5" y1="0" x2="247.5" y2="600" stroke="#281848" stroke-width="0.2" opacity="0.005"/><line x1="555.0" y1="0" x2="255.0" y2="600" stroke="#281848" stroke-width="0.2" opacity="0.005"/><line x1="562.5" y1="0" x2="262.5" y2="600" stroke="#281848" stroke-width="0.2" opacity="0.005"/><line x1="570.0" y1="0" x2="270.0" y2="600" stroke="#281848" stroke-width="0.2" opacity="0.005"/><line x1="577.5" y1="0" x2="277.5" y2="600" stroke="#281848" stroke-width="0.2" opacity="0.005"/><line x1="585.0" y1="0" x2="285.0" y2="600" stroke="#281848" stroke-width="0.2" opacity="0.005"/><line x1="592.5" y1="0" x2="292.5" y2="600" stroke="#281848" stroke-width="0.2" opacity="0.005"/><polygon points="538.2,162.5 538.2,437.5 300.0,575.0 61.8,437.5 61.8,162.5 300.0,25.0" fill="none" stroke="#281848" stroke-width="0.5" opacity="0.15"/><polyline points="300.0,300.0 310.2,305.5 320.2,310.9 330.0,316.2 339.5,321.3 348.6,326.3 357.1,330.9 365.0,335.3 372.2,339.2 378.6,342.8 384.2,346.0 388.8,348.7 392.4,350.9 395.1,352.5 396.7,353.7 397.2,354.3 396.7,354.4 395.1,354.0 392.4,353.0 388.8,351.6 384.2,349.6 378.6,347.2 372.2,344.3 365.0,341.0 357.1,337.4 348.6,333.4 339.5,329.2 330.0,324.8 320.2,320.1 310.2,315.4 300.0,310.6 289.8,316.0 279.8,321.3 270.0,326.4 260.5,331.4 251.4,336.2 242.9,340.7 235.0,344.9 227.8,348.7 221.4,352.1 215.8,355.1 211.2,357.6 207.6,359.6 204.9,361.1 203.3,362.0 202.8,362.5 203.3,362.3 204.9,361.7 207.6,360.5 211.2,358.8 215.8,356.6 221.4,353.9 227.8,350.8 235.0,347.3 242.9,343.4 251.4,339.2 260.5,334.7 270.0,330.0 279.8,325.1 289.8,320.1 300.0,315.0 308.7,319.3 317.2,323.6 325.6,327.7 333.7,331.8 341.4,335.6 348.7,339.1 355.4,342.5 361.5,345.4 367.0,348.1 371.7,350.3 375.6,352.2 378.7,353.6 381.0,354.6 382.3,355.2 382.8,355.3 382.3,354.9 381.0,354.0 378.7,352.7 375.6,351.0 371.7,348.8 367.0,346.3 361.5,343.3 355.4,340.1 348.7,336.5 341.4,332.6 333.7,328.5 325.6,324.2 317.2,319.8 308.7,315.2 300.0,310.6 291.3,314.7 282.8,318.6 274.4,322.5 266.3,326.3 258.6,329.8 251.3,333.2 244.6,336.2 238.5,338.9 233.0,341.3 228.3,343.4 224.4,345.0 221.3,346.2 219.0,347.0 217.7,347.3 217.2,347.1 217.7,346.5 219.0,345.5 221.3,344.0 224.4,342.1 228.3,339.7 233.0,337.0 238.5,333.9 244.6,330.4 251.3,326.7 258.6,322.7 266.3,318.4 274.4,314.0 282.8,309.4 291.3,304.7 300.0,300.0" fill="none" stroke="#8855CC" stroke-width="1.5" opacity="0.25" filter="url(#g)"/><path d="M440.0,300.0 Q300,300 215.1,349.0" fill="none" stroke="#281848" stroke-width="0.4" opacity="0.08"/><path d="M423.7,371.4 Q300,300 211.1,254.2" fill="none" stroke="#281848" stroke-width="0.4" opacity="0.08"/><path d="M367.2,416.4 Q300,300 206.7,288.1" fill="none" stroke="#281848" stroke-width="0.4" opacity="0.08"/><path d="M300.0,448.2 Q300,300 235.6,218.7" fill="none" stroke="#281848" stroke-width="0.4" opacity="0.08"/><path d="M235.4,411.9 Q300,300 344.8,221.4" fill="none" stroke="#281848" stroke-width="0.4" opacity="0.08"/><path d="M167.5,376.5 Q300,300 325.3,195.9" fill="none" stroke="#281848" stroke-width="0.4" opacity="0.08"/><path d="M175.0,300.0 Q300,300 360.7,237.0" fill="none" stroke="#281848" stroke-width="0.4" opacity="0.08"/><path d="M164.3,221.6 Q300,300 395.3,354.4" fill="none" stroke="#281848" stroke-width="0.4" opacity="0.08"/><path d="M239.1,194.4 Q300,300 379.5,331.1" fill="none" stroke="#281848" stroke-width="0.4" opacity="0.08"/><path d="M300.0,140.9 Q300,300 388.4,367.8" fill="none" stroke="#281848" stroke-width="0.4" opacity="0.08"/><path d="M360.1,195.9 Q300,300 261.3,374.7" fill="none" stroke="#281848" stroke-width="0.4" opacity="0.08"/><path d="M438.6,220.0 Q300,300 244.5,397.3" fill="none" stroke="#281848" stroke-width="0.4" opacity="0.08"/><line x1="297.0" y1="297.0" x2="303.0" y2="303.0" stroke="#281848" stroke-width="0.3" opacity="0.06" /><line x1="297.0" y1="303.0" x2="303.0" y2="297.0" stroke="#281848" stroke-width="0.3" opacity="0.06" /><line x1="336.53480170696776" y1="318.3353278024987" x2="342.53480170696776" y2="324.3353278024987" stroke="#281848" stroke-width="0.3" opacity="0.06" /><line x1="336.53480170696776" y1="324.3353278024987" x2="342.53480170696776" y2="318.3353278024987" stroke="#281848" stroke-width="0.3" opacity="0.06" /><line x1="369.2336770364027" y1="336.23551388046775" x2="375.2336770364027" y2="342.23551388046775" stroke="#281848" stroke-width="0.3" opacity="0.06" /><line x1="369.2336770364027" y1="342.23551388046775" x2="375.2336770364027" y2="336.23551388046775" stroke="#281848" stroke-width="0.3" opacity="0.06" /><line x1="389.4426933838889" y1="347.8566016075687" x2="395.4426933838889" y2="353.8566016075687" stroke="#281848" stroke-width="0.3" opacity="0.06" /><line x1="389.4426933838889" y1="353.8566016075687" x2="395.4426933838889" y2="347.8566016075687" stroke="#281848" stroke-width="0.3" opacity="0.06" /><line x1="393.6675282297962" y1="351.4348137610351" x2="399.6675282297962" y2="357.4348137610351" stroke="#281848" stroke-width="0.3" opacity="0.06" /><line x1="393.6675282297962" y1="357.4348137610351" x2="399.6675282297962" y2="351.4348137610351" stroke="#281848" stroke-width="0.3" opacity="0.06" /><line x1="381.17766924784746" y1="346.58883462392373" x2="387.17766924784746" y2="352.58883462392373" stroke="#281848" stroke-width="0.3" opacity="0.06" /><line x1="381.17766924784746" y1="352.58883462392373" x2="387.17766924784746" y2="346.58883462392373" stroke="#281848" stroke-width="0.3" opacity="0.06" /><line x1="354.1327265228284" y1="334.3831420458013" x2="360.1327265228284" y2="340.3831420458013" stroke="#281848" stroke-width="0.3" opacity="0.06" /><line x1="354.1327265228284" y1="340.3831420458013" x2="360.1327265228284" y2="334.3831420458013" stroke="#281848" stroke-width="0.3" opacity="0.06" /><line x1="317.2090163474862" y1="317.141467269126" x2="323.2090163474862" y2="323.141467269126" stroke="#281848" stroke-width="0.3" opacity="0.06" /><line x1="317.2090163474862" y1="323.141467269126" x2="323.2090163474862" y2="317.141467269126" stroke="#281848" stroke-width="0.3" opacity="0.06" /><line x1="276.79098365251383" y1="318.25168055590404" x2="282.79098365251383" y2="324.25168055590404" stroke="#281848" stroke-width="0.3" opacity="0.06" /><line x1="276.79098365251383" y1="324.25168055590404" x2="282.79098365251383" y2="318.25168055590404" stroke="#281848" stroke-width="0.3" opacity="0.06" /><line x1="239.86727347717164" y1="337.7016181770384" x2="245.86727347717164" y2="343.7016181770384" stroke="#281848" stroke-width="0.3" opacity="0.06" /><line x1="239.86727347717164" y1="343.7016181770384" x2="245.86727347717164" y2="337.7016181770384" stroke="#281848" stroke-width="0.3" opacity="0.06" /><line x1="212.8223307521526" y1="352.0792156806903" x2="218.8223307521526" y2="358.0792156806903" stroke="#281848" stroke-width="0.3" opacity="0.06" /><line x1="212.8223307521526" y1="358.0792156806903" x2="218.8223307521526" y2="352.0792156806903" stroke="#281848" stroke-width="0.3" opacity="0.06" /><line x1="200.33247177020382" y1="359.0369459795371" x2="206.33247177020382" y2="365.0369459795371" stroke="#281848" stroke-width="0.3" opacity="0.06" /><line x1="200.33247177020382" y1="365.0369459795371" x2="206.33247177020382" y2="359.0369459795371" stroke="#281848" stroke-width="0.3" opacity="0.06" /><line x1="204.55730661611108" y1="357.48719443637174" x2="210.55730661611108" y2="363.48719443637174" stroke="#281848" stroke-width="0.3" opacity="0.06" /><line x1="204.55730661611108" y1="363.48719443637174" x2="210.55730661611108" y2="357.48719443637174" stroke="#281848" stroke-width="0.3" opacity="0.06" /><line x1="224.76632296359725" y1="347.78905252920845" x2="230.76632296359725" y2="353.78905252920845" stroke="#281848" stroke-width="0.3" opacity="0.06" /><line x1="224.76632296359725" y1="353.78905252920845" x2="230.76632296359725" y2="347.78905252920845" stroke="#281848" stroke-width="0.3" opacity="0.06" /><line x1="257.46519829303224" y1="331.68522928400796" x2="263.46519829303224" y2="337.68522928400796" stroke="#281848" stroke-width="0.3" opacity="0.06" /><line x1="257.46519829303224" y1="337.68522928400796" x2="263.46519829303224" y2="331.68522928400796" stroke="#281848" stroke-width="0.3" opacity="0.06" /><line x1="297.0" y1="312.0" x2="303.0" y2="318.0" stroke="#281848" stroke-width="0.3" opacity="0.06" /><line x1="297.0" y1="318.0" x2="303.0" y2="312.0" stroke="#281848" stroke-width="0.3" opacity="0.06" /><line x1="330.67779404667624" y1="328.7567254538622" x2="336.67779404667624" y2="334.7567254538622" stroke="#281848" stroke-width="0.3" opacity="0.06" /><line x1="330.67779404667624" y1="334.7567254538622" x2="336.67779404667624" y2="328.7567254538622" stroke="#281848" stroke-width="0.3" opacity="0.06" /><line x1="358.5323915495282" y1="342.4384097857712" x2="364.5323915495282" y2="348.4384097857712" stroke="#281848" stroke-width="0.3" opacity="0.06" /><line x1="358.5323915495282" y1="348.4384097857712" x2="364.5323915495282" y2="342.4384097857712" stroke="#281848" stroke-width="0.3" opacity="0.06" /><line x1="375.74747954923873" y1="350.6395875190467" x2="381.74747954923873" y2="356.6395875190467" stroke="#281848" stroke-width="0.3" opacity="0.06" /><line x1="375.74747954923873" y1="356.6395875190467" x2="381.74747954923873" y2="350.6395875190467" stroke="#281848" stroke-width="0.3" opacity="0.06" /><line x1="379.34641293649304" y1="351.87638833288554" x2="385.34641293649304" y2="357.87638833288554" stroke="#281848" stroke-width="0.3" opacity="0.06" /><line x1="379.34641293649304" y1="357.87638833288554" x2="385.34641293649304" y2="351.87638833288554" stroke="#281848" stroke-width="0.3" opacity="0.06" /><line x1="368.70690343335156" y1="345.84383277344233" x2="374.70690343335156" y2="351.84383277344233" stroke="#281848" stroke-width="0.3" opacity="0.06" /><line x1="368.70690343335156" y1="351.84383277344233" x2="374.70690343335156" y2="345.84383277344233" stroke="#281848" stroke-width="0.3" opacity="0.06" /><line x1="345.6686188898168" y1="333.4695643605326" x2="351.6686188898168" y2="339.4695643605326" stroke="#281848" stroke-width="0.3" opacity="0.06" /><line x1="345.6686188898168" y1="339.4695643605326" x2="351.6686188898168" y2="333.4695643605326" stroke="#281848" stroke-width="0.3" opacity="0.06" /><line x1="314.2150879997105" y1="316.75471638201617" x2="320.2150879997105" y2="322.75471638201617" stroke="#281848" stroke-width="0.3" opacity="0.06" /><line x1="314.2150879997105" y1="322.75471638201617" x2="320.2150879997105" y2="316.75471638201617" stroke="#281848" stroke-width="0.3" opacity="0.06" /><line x1="279.7849120002896" y1="315.64450309523806" x2="285.7849120002896" y2="321.64450309523806" stroke="#281848" stroke-width="0.3" opacity="0.06" /><line x1="279.7849120002896" y1="321.64450309523806" x2="285.7849120002896" y2="315.64450309523806" stroke="#281848" stroke-width="0.3" opacity="0.06" /><line x1="248.33138111018326" y1="330.1510882292955" x2="254.33138111018326" y2="336.1510882292955" stroke="#281848" stroke-width="0.3" opacity="0.06" /><line x1="248.33138111018326" y1="336.1510882292955" x2="254.33138111018326" y2="330.1510882292955" stroke="#281848" stroke-width="0.3" opacity="0.06" /><line x1="225.29309656664847" y1="340.35345171667575" x2="231.29309656664847" y2="346.35345171667575" stroke="#281848" stroke-width="0.3" opacity="0.06" /><line x1="225.29309656664847" y1="346.35345171667575" x2="231.29309656664847" y2="340.35345171667575" stroke="#281848" stroke-width="0.3" opacity="0.06" /><line x1="214.65358706350696" y1="344.27425611438355" x2="220.65358706350696" y2="350.27425611438355" stroke="#281848" stroke-width="0.3" opacity="0.06" /><line x1="214.65358706350696" y1="350.27425611438355" x2="220.65358706350696" y2="344.27425611438355" stroke="#281848" stroke-width="0.3" opacity="0.06" /><line x1="218.25252045076127" y1="341.0089946902436" x2="224.25252045076127" y2="347.0089946902436" stroke="#281848" stroke-width="0.3" opacity="0.06" /><line x1="218.25252045076127" y1="347.0089946902436" x2="224.25252045076127" y2="341.0089946902436" stroke="#281848" stroke-width="0.3" opacity="0.06" /><line x1="235.46760845047174" y1="330.88487113703053" x2="241.46760845047174" y2="336.88487113703053" stroke="#281848" stroke-width="0.3" opacity="0.06" /><line x1="235.46760845047174" y1="336.88487113703053" x2="241.46760845047174" y2="330.88487113703053" stroke="#281848" stroke-width="0.3" opacity="0.06" /><line x1="263.32220595332365" y1="315.406823972353" x2="269.32220595332365" y2="321.406823972353" stroke="#281848" stroke-width="0.3" opacity="0.06" /><line x1="263.32220595332365" y1="321.406823972353" x2="269.32220595332365" y2="315.406823972353" stroke="#281848" stroke-width="0.3" opacity="0.06" /><circle cx="300" cy="300" r="10" fill="none" stroke="#CC55AA" stroke-width="0.5" opacity="0.3" filter="url(#g)"/><text x="300" y="304" fill="#8855CC" font-size="16" font-family="monospace" text-anchor="middle" font-weight="bold" opacity="0.7">ku</text><text x="300" y="572" fill="#281848" font-size="10" font-family="monospace" text-anchor="middle" letter-spacing="4" opacity="0.5">ZONE 6 · BINDING</text><text x="300" y="26" fill="#281848" font-size="9" font-family="monospace" text-anchor="middle" letter-spacing="6" opacity="0.3">0243</text></svg>
