<?xml version="1.0" encoding="UTF-8"?>
<svg xmlns="http://www.w3.org/2000/svg" viewBox="0 0 600 600" width="600" height="600">
<rect width="600" height="600" fill="#060a0c"/><defs>
  <filter id="g" x="-50%" y="-50%" width="200%" height="200%"
    ><feGaussianBlur stdDeviation="2" result="b"
    /><feMerge><feMergeNode in="b"/><feMergeNode in="SourceGraphic"/></feMerge></filter
  >
  <filter id="G" x="-50%" y="-50%" width="200%" height="200%"
    ><feGaussianBlur stdDeviation="5" result="b"
    /><feMerge><feMergeNode in="b"/><feMergeNode in="SourceGraphic"/></feMerge></filter
  >
</defs><polyline points="570.0,300.0 573.2,323.9 570.3,347.7 561.1,370.0 549.9,391.0 540.5,412.2 533.2,434.6 524.3,457.1 510.4,476.6 491.7,491.7 471.2,504.1 452.1,517.2 434.3,532.6 415.5,547.8 394.0,558.3 370.3,562.5 346.3,562.8 323.1,564.0 300.0,567.9 276.2,571.8 252.2,570.8 229.5,563.1 208.5,551.3 188.0,540.2 166.3,531.5 143.9,523.0 123.2,510.6 107.0,493.0 94.6,472.3 82.9,452.0 69.0,433.4 53.9,414.8 41.7,394.0 35.8,370.8 35.3,346.7 35.8,323.1 33.8,300.0 30.2,276.4 29.5,252.3 35.4,229.1 46.8,207.8 59.4,187.8 69.8,167.1 78.7,145.0 89.8,123.6 106.0,106.0 126.3,93.0 147.5,82.2 167.3,70.1 186.1,55.8 206.3,42.6 228.9,34.7 253.0,33.2 276.8,34.7 300.0,34.8 323.4,32.3 347.5,30.7 371.1,34.5 392.9,44.8 412.7,58.2 432.5,70.5 453.8,80.4 475.4,90.9 494.4,105.6 508.5,125.0 519.0,146.7 529.5,167.5 542.4,187.0" fill="none" stroke="#0a2030" stroke-width="0.5" opacity="0.2"/><polyline points="550.0,300.0 552.6,317.7 553.5,335.6 552.0,353.6 548.0,371.1 541.4,387.9 532.7,403.6 522.2,418.1 510.6,431.6 498.5,444.2 486.2,456.2 474.1,468.1 462.2,480.1 450.3,492.3 438.0,504.6 425.0,516.5 411.0,527.6 395.9,537.3 379.6,545.0 362.4,550.3 344.6,553.0 326.6,553.3 308.8,551.5 291.3,548.2 274.4,544.0 257.8,539.4 241.4,534.9 225.1,530.5 208.6,526.3 191.8,521.8 175.0,516.5 158.4,510.0 142.4,501.7 127.6,491.4 114.4,479.2 103.2,465.2 93.9,449.7 86.6,433.4 80.7,416.6 75.9,399.8 71.6,383.1 67.3,366.7 62.9,350.4 58.3,334.0 53.9,317.2 50.0,300.0 47.4,282.3 46.5,264.4 48.0,246.4 52.0,228.9 58.6,212.1 67.3,196.4 77.8,181.9 89.4,168.4 101.5,155.8 113.8,143.8 125.9,131.9 137.8,119.9 149.7,107.7 162.0,95.4 175.0,83.5 189.0,72.4 204.1,62.7 220.4,55.0 237.6,49.7 255.4,47.0 273.4,46.7 291.2,48.5 308.7,51.8 325.6,56.0 342.2,60.6 358.6,65.1 374.9,69.5 391.4,73.7 408.2,78.2 425.0,83.5 441.6,90.0 457.6,98.3 472.4,108.6 485.6,120.8 496.8,134.8 506.1,150.3 513.4,166.6 519.3,183.4 524.1,200.2 528.4,216.9 532.7,233.3 537.1,249.6 541.7,266.0 546.1,282.8" fill="none" stroke="#3399FF" stroke-width="0.30" opacity="0.150"/><polyline points="543.5,300.0 544.6,317.1 543.2,334.2 539.4,350.9 533.3,366.9 525.4,382.0 516.2,396.3 506.4,409.7 496.4,422.7 486.4,435.4 476.7,448.3 467.0,461.3 457.0,474.4 446.3,487.3 434.7,499.7 421.7,510.9 407.5,520.4 392.0,527.7 375.6,532.8 358.7,535.5 341.7,536.2 324.7,535.4 308.2,533.6 291.9,531.4 275.9,529.2 259.9,527.1 243.8,525.2 227.5,523.1 211.0,520.4 194.4,516.5 178.3,510.9 162.9,503.3 148.8,493.6 136.2,481.9 125.4,468.6 116.3,454.2 108.5,439.1 101.8,423.9 95.6,408.7 89.5,393.7 83.3,378.9 76.9,364.0 70.5,348.8 64.6,333.1 59.7,316.8 56.5,300.0 55.4,282.9 56.8,265.8 60.6,249.1 66.7,233.1 74.6,218.0 83.8,203.7 93.6,190.3 103.6,177.3 113.6,164.6 123.3,151.7 133.0,138.7 143.0,125.6 153.7,112.7 165.3,100.3 178.3,89.1 192.5,79.6 208.0,72.3 224.4,67.2 241.3,64.5 258.3,63.8 275.3,64.6 291.8,66.4 308.1,68.6 324.1,70.8 340.1,72.9 356.2,74.8 372.5,76.9 389.0,79.6 405.6,83.5 421.7,89.1 437.1,96.7 451.2,106.4 463.8,118.1 474.6,131.4 483.7,145.8 491.5,160.9 498.2,176.1 504.4,191.3 510.5,206.3 516.7,221.1 523.1,236.0 529.5,251.2 535.4,266.9 540.3,283.2" fill="none" stroke="#3399FF" stroke-width="0.33" opacity="0.143"/><polyline points="533.3,300.0 532.0,316.2 528.5,332.1 523.1,347.4 516.3,362.0 508.8,376.0 501.0,389.5 493.2,402.7 485.7,416.0 478.2,429.5 470.5,443.1 462.2,456.6 452.9,469.8 442.2,482.0 430.1,492.9 416.6,502.0 401.9,509.0 386.4,513.9 370.5,516.9 354.4,518.3 338.6,518.8 323.0,518.8 307.6,518.7 292.4,518.8 277.0,519.0 261.4,519.2 245.5,518.8 229.4,517.3 213.5,514.2 198.0,509.2 183.4,502.0 170.0,492.8 158.0,481.8 147.4,469.5 138.1,456.3 129.8,442.8 122.0,429.3 114.4,416.0 106.7,402.8 98.8,389.6 90.9,376.1 83.3,362.1 76.5,347.5 71.2,332.2 67.8,316.2 66.7,300.0 68.0,283.8 71.5,267.9 76.9,252.6 83.7,238.0 91.2,224.0 99.0,210.5 106.8,197.3 114.3,184.0 121.8,170.5 129.5,156.9 137.8,143.4 147.1,130.2 157.8,118.0 169.9,107.1 183.4,98.0 198.1,91.0 213.6,86.1 229.5,83.1 245.6,81.7 261.4,81.2 277.0,81.2 292.4,81.3 307.6,81.2 323.0,81.0 338.6,80.8 354.5,81.2 370.6,82.7 386.5,85.8 402.0,90.8 416.6,98.0 430.0,107.2 442.0,118.2 452.6,130.5 461.9,143.7 470.2,157.2 478.0,170.7 485.6,184.0 493.3,197.2 501.2,210.4 509.1,223.9 516.7,237.9 523.5,252.5 528.8,267.8 532.2,283.8" fill="none" stroke="#3399FF" stroke-width="0.36" opacity="0.136"/><polyline points="518.7,300.0 515.7,315.1 511.3,329.7 506.0,343.8 500.4,357.5 494.8,370.9 489.3,384.3 484.0,397.8 478.5,411.5 472.5,425.3 465.5,438.9 457.2,451.8 447.4,463.7 436.0,474.1 423.2,482.7 409.3,489.4 394.8,494.3 379.9,497.8 365.1,500.3 350.4,502.3 336.0,504.1 321.7,506.1 307.3,508.2 292.7,510.4 277.7,512.1 262.5,512.8 247.1,512.1 231.9,509.5 217.2,504.8 203.4,498.0 190.7,489.4 179.1,479.2 168.7,468.1 159.1,456.5 150.1,444.8 141.2,433.2 132.3,421.8 123.3,410.4 114.1,398.8 105.2,386.7 97.0,373.9 89.9,360.2 84.5,345.8 81.2,330.7 80.2,315.4 81.3,300.0 84.3,284.9 88.7,270.3 94.0,256.2 99.6,242.5 105.2,229.1 110.7,215.7 116.0,202.2 121.5,188.5 127.5,174.7 134.5,161.1 142.8,148.2 152.6,136.3 164.0,125.9 176.8,117.3 190.7,110.6 205.2,105.7 220.1,102.2 234.9,99.7 249.6,97.7 264.0,95.9 278.3,93.9 292.7,91.8 307.3,89.6 322.3,87.9 337.5,87.2 352.9,87.9 368.1,90.5 382.8,95.2 396.6,102.0 409.3,110.6 420.9,120.8 431.3,131.9 440.9,143.5 449.9,155.2 458.8,166.8 467.7,178.2 476.7,189.6 485.9,201.2 494.8,213.3 503.0,226.1 510.1,239.8 515.5,254.2 518.8,269.3 519.8,284.6" fill="none" stroke="#3399FF" stroke-width="0.39" opacity="0.129"/><polyline points="501.6,300.0 498.5,313.9 495.0,327.4 491.4,340.7 488.0,353.9 484.7,367.2 481.3,380.7 477.5,394.4 472.8,408.0 466.8,421.2 459.2,433.6 450.0,444.9 439.2,454.6 427.2,462.8 414.2,469.4 400.8,474.6 387.2,478.9 373.8,482.6 360.5,486.1 347.3,489.7 334.1,493.5 320.7,497.4 307.0,500.9 292.9,503.6 278.5,505.0 263.9,504.7 249.5,502.3 235.7,497.9 222.6,491.6 210.4,483.6 199.2,474.6 188.7,465.0 178.8,455.2 169.1,445.4 159.3,435.8 149.4,426.3 139.4,416.7 129.5,406.5 120.1,395.6 111.7,383.8 104.7,371.1 99.5,357.5 96.5,343.3 95.4,328.8 96.2,314.3 98.4,300.0 101.5,286.1 105.0,272.6 108.6,259.3 112.0,246.1 115.3,232.8 118.7,219.3 122.5,205.6 127.2,192.0 133.2,178.8 140.8,166.4 150.0,155.1 160.8,145.4 172.8,137.2 185.8,130.6 199.2,125.4 212.8,121.1 226.2,117.4 239.5,113.9 252.7,110.3 265.9,106.5 279.3,102.6 293.0,99.1 307.1,96.4 321.5,95.0 336.1,95.3 350.5,97.7 364.3,102.1 377.4,108.4 389.6,116.4 400.8,125.4 411.3,135.0 421.2,144.8 430.9,154.6 440.7,164.2 450.6,173.7 460.6,183.3 470.5,193.5 479.9,204.4 488.3,216.2 495.3,228.9 500.5,242.5 503.5,256.7 504.6,271.2 503.8,285.7" fill="none" stroke="#3399FF" stroke-width="0.42" opacity="0.122"/><polyline points="485.3,300.0 483.6,312.8 482.1,325.6 480.7,338.4 479.2,351.4 477.5,364.6 474.9,377.9 471.1,391.0 465.7,403.6 458.7,415.3 450.0,425.9 439.9,435.1 428.7,443.0 416.9,449.6 404.8,455.3 392.7,460.5 380.7,465.5 368.9,470.5 357.1,475.7 345.1,480.9 332.8,486.0 320.0,490.4 306.8,493.6 293.2,495.3 279.5,495.1 266.0,492.9 252.9,488.7 240.5,483.0 228.9,476.0 217.9,468.4 207.3,460.5 197.1,452.6 186.8,444.9 176.4,437.3 165.9,429.5 155.3,421.4 145.1,412.5 135.7,402.7 127.5,391.7 120.8,379.8 116.0,367.0 113.0,353.6 111.8,340.0 112.0,326.4 113.1,313.1 114.7,300.0 116.4,287.2 117.9,274.4 119.3,261.6 120.8,248.6 122.5,235.4 125.1,222.1 128.9,209.0 134.3,196.4 141.3,184.7 150.0,174.1 160.1,164.9 171.3,157.0 183.1,150.4 195.2,144.7 207.3,139.5 219.3,134.5 231.1,129.5 242.9,124.3 254.9,119.1 267.2,114.0 280.0,109.6 293.2,106.4 306.8,104.7 320.5,104.9 334.0,107.1 347.1,111.3 359.5,117.0 371.1,124.0 382.1,131.6 392.7,139.5 402.9,147.4 413.2,155.1 423.6,162.7 434.1,170.5 444.7,178.6 454.9,187.5 464.3,197.3 472.5,208.3 479.2,220.2 484.0,233.0 487.0,246.4 488.2,260.0 488.0,273.6 486.9,286.9" fill="none" stroke="#3399FF" stroke-width="0.45" opacity="0.115"/><polyline points="472.2,300.0 472.5,312.1 472.8,324.3 472.8,336.7 472.2,349.4 470.4,362.0 467.2,374.4 462.3,386.3 455.7,397.3 447.6,407.2 438.2,416.0 428.1,423.7 417.6,430.6 407.0,436.9 396.5,443.0 386.1,449.1 375.8,455.4 365.4,461.8 354.6,468.0 343.3,473.8 331.5,478.6 319.1,482.0 306.4,483.7 293.6,483.5 280.9,481.4 268.7,477.7 256.9,472.8 245.7,467.1 234.9,461.1 224.4,455.0 213.9,449.1 203.3,443.4 192.6,437.5 181.8,431.3 171.2,424.4 161.1,416.6 152.0,407.6 144.1,397.4 137.9,386.2 133.4,374.2 130.4,361.7 128.8,349.1 128.1,336.5 127.9,324.2 127.9,312.0 127.8,300.0 127.5,287.9 127.2,275.7 127.2,263.3 127.8,250.6 129.6,238.0 132.8,225.6 137.7,213.7 144.3,202.7 152.4,192.8 161.8,184.0 171.9,176.3 182.4,169.4 193.0,163.1 203.5,157.0 213.9,150.9 224.2,144.6 234.6,138.2 245.4,132.0 256.7,126.2 268.5,121.4 280.9,118.0 293.6,116.3 306.4,116.5 319.1,118.6 331.3,122.3 343.1,127.2 354.3,132.9 365.1,138.9 375.6,145.0 386.1,150.9 396.7,156.6 407.4,162.5 418.2,168.7 428.8,175.6 438.9,183.4 448.0,192.4 455.9,202.6 462.1,213.8 466.6,225.8 469.6,238.3 471.2,250.9 471.9,263.5 472.1,275.8 472.1,288.0" fill="none" stroke="#3399FF" stroke-width="0.48" opacity="0.108"/><polyline points="462.6,300.0 464.2,311.5 465.2,323.2 465.3,335.1 464.0,347.0 461.0,358.6 456.5,369.7 450.3,379.9 442.9,389.3 434.5,397.7 425.7,405.5 416.6,412.6 407.7,419.6 398.8,426.5 390.1,433.6 381.3,440.8 372.1,447.9 362.5,454.7 352.2,460.7 341.3,465.5 329.8,468.8 317.9,470.3 305.9,470.1 294.1,468.4 282.6,465.4 271.5,461.6 260.8,457.3 250.3,453.0 239.9,448.9 229.4,444.8 218.7,440.8 208.0,436.4 197.3,431.5 186.9,425.6 177.3,418.5 168.7,410.2 161.4,400.7 155.6,390.2 151.2,379.1 148.1,367.6 145.8,356.1 144.1,344.7 142.6,333.5 141.0,322.3 139.3,311.2 137.4,300.0 135.8,288.5 134.8,276.8 134.7,264.9 136.0,253.0 139.0,241.4 143.5,230.3 149.7,220.1 157.1,210.7 165.5,202.3 174.3,194.5 183.4,187.4 192.3,180.4 201.2,173.5 209.9,166.4 218.7,159.2 227.9,152.1 237.5,145.3 247.8,139.3 258.7,134.5 270.2,131.2 282.1,129.7 294.1,129.9 305.9,131.6 317.4,134.6 328.5,138.4 339.2,142.7 349.7,147.0 360.1,151.1 370.6,155.2 381.3,159.2 392.0,163.6 402.7,168.5 413.1,174.4 422.7,181.5 431.3,189.8 438.6,199.3 444.4,209.8 448.8,220.9 451.9,232.4 454.2,243.9 455.9,255.3 457.4,266.5 459.0,277.7 460.7,288.8" fill="none" stroke="#3399FF" stroke-width="0.51" opacity="0.101"/><polyline points="454.6,300.0 456.2,310.9 456.6,322.0 455.5,333.1 452.8,343.8 448.5,354.1 443.0,363.7 436.4,372.5 429.2,380.7 421.8,388.5 414.4,396.0 407.1,403.4 400.0,411.0 392.7,418.7 385.3,426.4 377.3,433.9 368.6,440.7 359.2,446.6 349.1,451.2 338.5,454.2 327.5,455.7 316.4,455.6 305.4,454.4 294.7,452.3 284.3,449.7 274.1,447.1 264.0,444.5 253.8,442.1 243.6,439.7 233.2,437.1 222.7,433.9 212.4,429.8 202.6,424.6 193.6,418.2 185.6,410.4 178.9,401.6 173.4,392.0 169.0,381.9 165.5,371.5 162.5,361.2 159.7,351.1 156.9,341.0 153.9,331.1 150.8,321.0 147.9,310.6 145.4,300.0 143.8,289.1 143.4,278.0 144.5,266.9 147.2,256.2 151.5,245.9 157.0,236.3 163.6,227.5 170.8,219.3 178.2,211.5 185.6,204.0 192.9,196.6 200.0,189.0 207.3,181.3 214.7,173.6 222.7,166.1 231.4,159.3 240.8,153.4 250.9,148.8 261.5,145.8 272.5,144.3 283.6,144.4 294.6,145.6 305.3,147.7 315.7,150.3 325.9,152.9 336.0,155.5 346.2,157.9 356.4,160.3 366.8,162.9 377.3,166.1 387.6,170.2 397.4,175.4 406.4,181.8 414.4,189.6 421.1,198.4 426.6,208.0 431.0,218.1 434.5,228.5 437.5,238.8 440.3,248.9 443.1,259.0 446.1,268.9 449.2,279.0 452.1,289.4" fill="none" stroke="#3399FF" stroke-width="0.54" opacity="0.094"/><polyline points="445.8,300.0 446.2,310.2 445.2,320.4 442.7,330.3 438.9,339.8 434.0,348.8 428.5,357.2 422.7,365.2 416.8,373.0 411.1,380.7 405.4,388.5 399.8,396.4 394.0,404.4 387.7,412.2 380.7,419.6 372.9,426.2 364.3,431.8 354.9,436.0 345.1,438.8 334.9,440.2 324.8,440.4 314.7,439.9 304.8,438.8 295.2,437.6 285.7,436.5 276.1,435.5 266.4,434.6 256.6,433.6 246.7,432.0 236.8,429.7 227.1,426.2 218.0,421.5 209.7,415.6 202.4,408.4 196.1,400.4 190.8,391.7 186.2,382.7 182.2,373.6 178.4,364.7 174.6,355.8 170.7,347.1 166.6,338.2 162.6,329.2 159.0,319.8 156.1,310.1 154.2,300.0 153.8,289.8 154.8,279.6 157.3,269.7 161.1,260.2 166.0,251.2 171.5,242.8 177.3,234.8 183.2,227.0 188.9,219.3 194.6,211.5 200.2,203.6 206.0,195.6 212.3,187.8 219.3,180.4 227.1,173.8 235.7,168.2 245.1,164.0 254.9,161.2 265.1,159.8 275.2,159.6 285.3,160.1 295.2,161.2 304.8,162.4 314.3,163.5 323.9,164.5 333.6,165.4 343.4,166.4 353.3,168.0 363.2,170.3 372.9,173.8 382.0,178.5 390.3,184.4 397.6,191.6 403.9,199.6 409.2,208.3 413.8,217.3 417.8,226.4 421.6,235.3 425.4,244.2 429.3,252.9 433.4,261.8 437.4,270.8 441.0,280.2 443.9,289.9" fill="none" stroke="#3399FF" stroke-width="0.57" opacity="0.087"/><polyline points="434.3,300.0 433.4,309.3 431.1,318.4 427.9,327.2 423.9,335.5 419.6,343.5 415.2,351.3 410.9,359.0 406.8,366.7 402.6,374.6 398.4,382.5 393.6,390.4 388.3,398.0 382.1,405.1 375.0,411.3 367.2,416.3 358.6,420.2 349.6,422.8 340.4,424.3 331.2,425.1 322.1,425.4 313.2,425.4 304.4,425.6 295.6,425.8 286.7,426.2 277.7,426.4 268.5,426.3 259.2,425.5 250.0,423.6 241.2,420.6 232.8,416.3 225.2,410.8 218.5,404.3 212.5,397.2 207.3,389.6 202.5,381.8 198.0,374.1 193.4,366.6 188.8,359.1 184.1,351.6 179.4,343.9 174.9,335.9 170.9,327.4 167.9,318.6 166.1,309.4 165.7,300.0 166.6,290.7 168.9,281.6 172.1,272.8 176.1,264.5 180.4,256.5 184.8,248.7 189.1,241.0 193.2,233.3 197.4,225.4 201.6,217.5 206.4,209.6 211.7,202.0 217.9,194.9 225.0,188.7 232.8,183.7 241.4,179.8 250.4,177.2 259.6,175.7 268.8,174.9 277.9,174.6 286.8,174.6 295.6,174.4 304.4,174.2 313.3,173.8 322.3,173.6 331.5,173.7 340.8,174.5 350.0,176.4 358.8,179.4 367.2,183.7 374.8,189.2 381.5,195.7 387.5,202.8 392.7,210.4 397.5,218.2 402.0,225.9 406.6,233.4 411.2,240.9 415.9,248.4 420.6,256.1 425.1,264.1 429.1,272.6 432.1,281.4 433.9,290.6" fill="none" stroke="#3399FF" stroke-width="0.60" opacity="0.080"/><polyline points="420.3,300.0 418.5,308.3 416.0,316.3 413.1,324.0 410.1,331.6 407.1,339.0 404.3,346.4 401.6,354.0 398.7,361.7 395.5,369.4 391.6,376.9 387.0,384.0 381.5,390.5 375.1,396.1 367.9,400.7 360.2,404.2 352.1,406.8 343.9,408.6 335.7,410.0 327.7,411.1 319.8,412.3 311.9,413.6 304.0,415.0 295.9,416.3 287.7,417.4 279.2,417.8 270.7,417.4 262.4,415.8 254.3,413.1 246.8,409.2 239.8,404.2 233.6,398.5 227.9,392.3 222.6,385.9 217.6,379.6 212.7,373.3 207.6,367.1 202.4,361.0 197.2,354.6 192.2,348.0 187.6,340.9 183.7,333.3 180.9,325.3 179.2,317.0 178.8,308.5 179.7,300.0 181.5,291.7 184.0,283.7 186.9,276.0 189.9,268.4 192.9,261.0 195.7,253.6 198.4,246.0 201.3,238.3 204.5,230.6 208.4,223.1 213.0,216.0 218.5,209.5 224.9,203.9 232.1,199.3 239.8,195.8 247.9,193.2 256.1,191.4 264.3,190.0 272.3,188.9 280.2,187.7 288.1,186.4 296.0,185.0 304.1,183.7 312.3,182.6 320.8,182.2 329.3,182.6 337.6,184.2 345.7,186.9 353.2,190.8 360.2,195.8 366.4,201.5 372.1,207.7 377.4,214.1 382.4,220.4 387.3,226.7 392.4,232.9 397.6,239.0 402.8,245.4 407.8,252.0 412.4,259.1 416.3,266.7 419.1,274.7 420.8,283.0 421.2,291.5" fill="none" stroke="#3399FF" stroke-width="0.63" opacity="0.073"/><polyline points="405.4,300.0 403.7,307.3 401.9,314.3 400.2,321.3 398.5,328.3 397.0,335.3 395.4,342.5 393.5,349.7 391.1,356.9 387.9,363.8 383.8,370.3 378.9,376.2 373.1,381.2 366.6,385.3 359.8,388.6 352.7,391.2 345.6,393.4 338.6,395.4 331.6,397.4 324.8,399.5 317.9,401.6 310.9,403.8 303.7,405.8 296.3,407.3 288.6,408.0 281.0,407.8 273.5,406.4 266.3,403.9 259.5,400.4 253.1,396.1 247.3,391.2 241.9,386.2 236.6,381.1 231.5,376.1 226.3,371.2 220.9,366.3 215.5,361.4 210.2,356.1 205.2,350.4 200.8,344.2 197.2,337.4 194.6,330.2 193.2,322.7 192.8,315.1 193.4,307.5 194.6,300.0 196.3,292.7 198.1,285.7 199.8,278.7 201.5,271.7 203.0,264.7 204.6,257.5 206.5,250.3 208.9,243.1 212.1,236.2 216.2,229.7 221.1,223.8 226.9,218.8 233.4,214.7 240.2,211.4 247.3,208.8 254.4,206.6 261.4,204.6 268.4,202.6 275.2,200.5 282.1,198.4 289.1,196.2 296.3,194.2 303.7,192.7 311.4,192.0 319.0,192.2 326.5,193.6 333.7,196.1 340.5,199.6 346.9,203.9 352.7,208.8 358.1,213.8 363.4,218.9 368.5,223.9 373.7,228.8 379.1,233.7 384.5,238.6 389.8,243.9 394.8,249.6 399.2,255.8 402.8,262.6 405.4,269.8 406.8,277.3 407.2,284.9 406.6,292.5" fill="none" stroke="#3399FF" stroke-width="0.66" opacity="0.066"/><polyline points="391.3,300.0 390.6,306.3 389.9,312.6 389.4,319.0 388.9,325.5 388.1,332.1 386.9,338.7 385.0,345.2 382.3,351.4 378.7,357.2 374.3,362.3 369.1,366.8 363.5,370.5 357.6,373.7 351.6,376.5 345.6,379.1 339.8,381.6 334.0,384.2 328.2,386.9 322.4,389.7 316.3,392.3 309.9,394.6 303.4,396.2 296.6,397.0 289.8,396.7 283.2,395.5 276.7,393.3 270.7,390.3 265.0,386.7 259.6,382.9 254.4,379.1 249.2,375.3 244.1,371.6 238.8,367.9 233.5,364.2 228.2,360.3 223.1,355.9 218.4,351.0 214.3,345.6 211.1,339.6 208.9,333.2 207.6,326.5 207.2,319.7 207.4,313.0 208.0,306.4 208.7,300.0 209.4,293.7 210.1,287.4 210.6,281.0 211.1,274.5 211.9,267.9 213.1,261.3 215.0,254.8 217.7,248.6 221.3,242.8 225.7,237.7 230.9,233.2 236.5,229.5 242.4,226.3 248.4,223.5 254.4,220.9 260.2,218.4 266.0,215.8 271.8,213.1 277.6,210.3 283.7,207.7 290.1,205.4 296.6,203.8 303.4,203.0 310.2,203.3 316.8,204.5 323.3,206.7 329.3,209.7 335.0,213.3 340.4,217.1 345.6,220.9 350.8,224.7 355.9,228.4 361.2,232.1 366.5,235.8 371.8,239.7 376.9,244.1 381.6,249.0 385.7,254.4 388.9,260.4 391.1,266.8 392.4,273.5 392.8,280.3 392.6,287.0 392.0,293.6" fill="none" stroke="#3399FF" stroke-width="0.69" opacity="0.059"/><polyline points="379.2,300.0 379.4,305.6 379.7,311.2 379.9,317.0 379.7,322.8 378.9,328.7 377.3,334.4 375.0,339.9 371.8,344.9 367.9,349.3 363.5,353.3 358.8,356.8 353.9,359.9 349.0,362.8 344.3,365.6 339.6,368.5 334.9,371.6 330.2,374.7 325.2,377.7 320.1,380.4 314.6,382.7 308.8,384.2 303.0,384.9 297.0,384.6 291.2,383.5 285.6,381.7 280.2,379.3 275.1,376.6 270.2,373.9 265.3,371.1 260.4,368.5 255.5,366.0 250.4,363.5 245.3,360.7 240.4,357.6 235.7,354.0 231.5,349.8 228.0,345.0 225.2,339.7 223.3,334.1 222.1,328.4 221.5,322.5 221.2,316.7 221.1,311.1 221.0,305.5 220.8,300.0 220.6,294.4 220.3,288.8 220.1,283.0 220.3,277.2 221.1,271.3 222.7,265.6 225.0,260.1 228.2,255.1 232.1,250.7 236.5,246.7 241.2,243.2 246.1,240.1 251.0,237.2 255.7,234.4 260.4,231.5 265.1,228.4 269.8,225.3 274.8,222.3 279.9,219.6 285.4,217.3 291.2,215.8 297.0,215.1 303.0,215.4 308.8,216.5 314.4,218.3 319.8,220.7 324.9,223.4 329.8,226.1 334.7,228.9 339.6,231.5 344.5,234.0 349.6,236.5 354.7,239.3 359.6,242.4 364.3,246.0 368.5,250.2 372.0,255.0 374.8,260.3 376.7,265.9 377.9,271.6 378.5,277.5 378.8,283.3 378.9,288.9 379.0,294.5" fill="none" stroke="#3399FF" stroke-width="0.72" opacity="0.052"/><polyline points="368.6,300.0 369.5,304.9 370.0,309.8 370.1,314.9 369.5,319.9 368.2,324.8 366.1,329.4 363.4,333.7 360.1,337.6 356.5,341.1 352.7,344.2 348.9,347.2 345.2,350.2 341.6,353.2 338.0,356.3 334.3,359.4 330.5,362.6 326.5,365.5 322.1,368.1 317.5,370.1 312.6,371.4 307.6,372.0 302.5,371.7 297.5,370.8 292.7,369.5 288.0,367.8 283.5,366.0 279.1,364.2 274.7,362.6 270.2,361.0 265.7,359.4 261.1,357.7 256.5,355.7 252.1,353.2 248.0,350.2 244.4,346.6 241.5,342.5 239.1,338.0 237.4,333.3 236.2,328.4 235.3,323.5 234.6,318.7 233.9,314.0 233.2,309.4 232.3,304.7 231.4,300.0 230.5,295.1 230.0,290.2 229.9,285.1 230.5,280.1 231.8,275.2 233.9,270.6 236.6,266.3 239.9,262.4 243.5,258.9 247.3,255.8 251.1,252.8 254.8,249.8 258.4,246.8 262.0,243.7 265.7,240.6 269.5,237.4 273.5,234.5 277.9,231.9 282.5,229.9 287.4,228.6 292.4,228.0 297.5,228.3 302.5,229.2 307.3,230.5 312.0,232.2 316.5,234.0 320.9,235.8 325.3,237.4 329.8,239.0 334.3,240.6 338.9,242.3 343.5,244.3 347.9,246.8 352.0,249.8 355.6,253.4 358.5,257.5 360.9,262.0 362.6,266.7 363.8,271.6 364.7,276.5 365.4,281.3 366.1,286.0 366.8,290.6 367.7,295.3" fill="none" stroke="#3399FF" stroke-width="0.75" opacity="0.045"/><polyline points="358.5,300.0 359.2,304.1 359.3,308.3 358.9,312.5 357.7,316.6 356.0,320.4 353.8,323.9 351.2,327.2 348.4,330.2 345.6,333.1 342.8,335.9 340.2,338.8 337.6,341.7 334.9,344.7 332.2,347.8 329.3,350.7 326.0,353.3 322.4,355.6 318.6,357.2 314.5,358.3 310.3,358.7 306.2,358.5 302.0,357.9 298.0,357.0 294.1,356.0 290.3,355.1 286.5,354.2 282.7,353.4 278.7,352.6 274.8,351.8 270.7,350.7 266.8,349.2 263.1,347.2 259.7,344.7 256.8,341.7 254.4,338.3 252.4,334.6 250.9,330.7 249.6,326.8 248.5,322.9 247.5,319.1 246.3,315.4 245.1,311.7 243.8,307.9 242.5,304.0 241.5,300.0 240.8,295.9 240.7,291.7 241.1,287.5 242.3,283.4 244.0,279.6 246.2,276.1 248.8,272.8 251.6,269.8 254.4,266.9 257.2,264.1 259.8,261.2 262.4,258.3 265.1,255.3 267.8,252.2 270.7,249.3 274.0,246.7 277.6,244.4 281.4,242.8 285.5,241.7 289.7,241.3 293.8,241.5 298.0,242.1 302.0,243.0 305.9,244.0 309.7,244.9 313.5,245.8 317.3,246.6 321.3,247.4 325.2,248.2 329.3,249.3 333.2,250.8 336.9,252.8 340.3,255.3 343.2,258.3 345.6,261.7 347.6,265.4 349.1,269.3 350.4,273.2 351.5,277.1 352.5,280.9 353.7,284.6 354.9,288.3 356.2,292.1 357.5,296.0" fill="none" stroke="#3399FF" stroke-width="0.78" opacity="0.038"/><polyline points="347.6,300.0 347.7,303.3 347.3,306.6 346.3,309.8 345.0,312.9 343.2,315.7 341.4,318.4 339.4,321.0 337.6,323.5 335.7,326.0 334.0,328.5 332.3,331.2 330.5,333.9 328.5,336.5 326.3,339.0 323.8,341.2 321.0,343.0 317.9,344.3 314.6,345.0 311.3,345.4 308.0,345.3 304.7,345.0 301.6,344.6 298.5,344.3 295.4,343.9 292.3,343.7 289.1,343.6 285.9,343.4 282.6,343.0 279.4,342.3 276.2,341.2 273.3,339.6 270.6,337.6 268.3,335.2 266.4,332.5 264.7,329.6 263.4,326.6 262.1,323.7 260.9,320.8 259.6,318.0 258.3,315.2 256.8,312.4 255.4,309.5 254.1,306.5 253.1,303.3 252.4,300.0 252.3,296.7 252.7,293.4 253.7,290.2 255.0,287.1 256.8,284.3 258.6,281.6 260.6,279.0 262.4,276.5 264.3,274.0 266.0,271.5 267.7,268.8 269.5,266.1 271.5,263.5 273.7,261.0 276.2,258.8 279.0,257.0 282.1,255.7 285.4,255.0 288.7,254.6 292.0,254.7 295.3,255.0 298.4,255.4 301.5,255.7 304.6,256.1 307.7,256.3 310.9,256.4 314.1,256.6 317.4,257.0 320.6,257.7 323.8,258.8 326.7,260.4 329.4,262.4 331.7,264.8 333.6,267.5 335.3,270.4 336.6,273.4 337.9,276.3 339.1,279.2 340.4,282.0 341.7,284.8 343.2,287.6 344.6,290.5 345.9,293.5 346.9,296.7" fill="none" stroke="#3399FF" stroke-width="0.81" opacity="0.031"/><polyline points="335.4,300.0 335.0,302.5 334.3,304.8 333.3,307.1 332.2,309.2 331.0,311.3 329.8,313.3 328.7,315.3 327.7,317.3 326.8,319.4 325.8,321.6 324.6,323.8 323.3,325.9 321.7,327.8 319.8,329.4 317.7,330.7 315.4,331.6 313.0,332.1 310.5,332.4 308.1,332.5 305.7,332.5 303.4,332.5 301.1,332.5 298.9,332.7 296.5,332.9 294.2,333.1 291.7,333.2 289.2,333.1 286.8,332.7 284.5,331.9 282.3,330.7 280.4,329.1 278.7,327.3 277.2,325.3 275.9,323.3 274.7,321.2 273.6,319.2 272.4,317.2 271.1,315.4 269.8,313.5 268.4,311.5 267.1,309.4 266.0,307.2 265.1,304.9 264.6,302.5 264.6,300.0 265.0,297.5 265.7,295.2 266.7,292.9 267.8,290.8 269.0,288.7 270.2,286.7 271.3,284.7 272.3,282.7 273.2,280.6 274.2,278.4 275.4,276.2 276.7,274.1 278.3,272.2 280.2,270.6 282.3,269.3 284.6,268.4 287.0,267.9 289.5,267.6 291.9,267.5 294.3,267.5 296.6,267.5 298.9,267.5 301.1,267.3 303.5,267.1 305.8,266.9 308.3,266.8 310.8,266.9 313.2,267.3 315.5,268.1 317.7,269.3 319.6,270.9 321.3,272.7 322.8,274.7 324.1,276.7 325.3,278.8 326.4,280.8 327.6,282.8 328.9,284.6 330.2,286.5 331.6,288.5 332.9,290.6 334.0,292.8 334.9,295.1 335.4,297.5" fill="none" stroke="#3399FF" stroke-width="0.84" opacity="0.024"/><polyline points="322.5,300.0 322.0,301.5 321.4,303.0 320.8,304.4 320.2,305.8 319.6,307.2 319.2,308.5 318.8,310.0 318.4,311.5 317.9,313.0 317.3,314.5 316.5,315.9 315.4,317.1 314.2,318.2 312.8,319.0 311.3,319.5 309.7,319.9 308.1,320.1 306.6,320.2 305.1,320.4 303.6,320.6 302.2,320.9 300.7,321.3 299.2,321.7 297.7,322.0 296.1,322.2 294.5,322.2 292.9,321.9 291.4,321.4 290.0,320.6 288.7,319.5 287.6,318.3 286.7,317.1 285.8,315.8 284.9,314.6 284.0,313.4 283.0,312.3 282.0,311.3 280.9,310.2 279.8,309.0 278.8,307.7 278.0,306.3 277.4,304.8 277.2,303.2 277.2,301.6 277.5,300.0 278.0,298.5 278.6,297.0 279.2,295.6 279.8,294.2 280.4,292.8 280.8,291.5 281.2,290.0 281.6,288.5 282.1,287.0 282.7,285.5 283.5,284.1 284.6,282.9 285.8,281.8 287.2,281.0 288.7,280.5 290.3,280.1 291.9,279.9 293.4,279.8 294.9,279.6 296.4,279.4 297.8,279.1 299.3,278.7 300.8,278.3 302.3,278.0 303.9,277.8 305.5,277.8 307.1,278.1 308.6,278.6 310.0,279.4 311.3,280.5 312.4,281.7 313.3,282.9 314.2,284.2 315.1,285.4 316.0,286.6 317.0,287.7 318.0,288.7 319.1,289.8 320.2,291.0 321.2,292.3 322.0,293.7 322.6,295.2 322.8,296.8 322.8,298.4" fill="none" stroke="#3399FF" stroke-width="0.87" opacity="0.017"/><line x1="488.0" y1="300.0" x2="492.0" y2="300.0" stroke="#0a2030" stroke-width="0.3" opacity="0.06" /><line x1="489.8727929882366" y1="316.61171689847527" x2="493.8575717806036" y2="316.9603398694659" stroke="#0a2030" stroke-width="0.3" opacity="0.06" /><line x1="487.7024631621524" y1="333.0970086009242" x2="491.64169417420123" y2="333.79160131159193" stroke="#0a2030" stroke-width="0.3" opacity="0.06" /><line x1="481.59405534234486" y1="348.6579804792739" x2="485.4577586475011" y2="349.693256659684" stroke="#0a2030" stroke-width="0.3" opacity="0.06" /><line x1="474.2208196637026" y1="363.4111925470477" x2="477.9795901468463" y2="364.77927312035035" stroke="#0a2030" stroke-width="0.3" opacity="0.06" /><line x1="468.031207261226" y1="378.3542387549395" x2="471.65643840937264" y2="380.0447118019023" stroke="#0a2030" stroke-width="0.3" opacity="0.06" /><line x1="462.8127759114745" y1="394.0" x2="466.2768775266122" y2="396.0" stroke="#0a2030" stroke-width="0.3" opacity="0.06" /><line x1="456.12880376607916" y1="409.32256532867314" x2="459.4054119432351" y2="411.6168710740773" stroke="#0a2030" stroke-width="0.3" opacity="0.06" /><line x1="446.00659715087465" y1="422.51408181874865" x2="449.0707749233506" y2="425.0852322574948" stroke="#0a2030" stroke-width="0.3" opacity="0.06" /><line x1="432.936074863071" y1="432.9360748630709" x2="435.76450198781714" y2="435.7645019878171" stroke="#0a2030" stroke-width="0.3" opacity="0.06" /><line x1="419.17405942339013" y1="442.0261134618611" x2="421.74520986213633" y2="445.090291234337" stroke="#0a2030" stroke-width="0.3" opacity="0.06" /><line x1="406.3421747393202" y1="451.87236488658175" x2="408.6364804847244" y2="455.1489730637378" stroke="#0a2030" stroke-width="0.3" opacity="0.06" /><line x1="394.0" y1="462.81277591147443" x2="396.0" y2="466.2768775266122" stroke="#0a2030" stroke-width="0.3" opacity="0.06" /><line x1="380.55022765956346" y1="472.74052066455437" x2="382.2407007065263" y2="476.365751812701" stroke="#0a2030" stroke-width="0.3" opacity="0.06" /><line x1="365.1883813434038" y1="479.1036057517989" x2="366.5564619167065" y2="482.86237623494253" stroke="#0a2030" stroke-width="0.3" opacity="0.06" /><line x1="348.6579804792739" y1="481.59405534234486" x2="349.693256659684" y2="485.4577586475011" stroke="#0a2030" stroke-width="0.3" opacity="0.06" /><line x1="332.1947062018416" y1="482.58525197043775" x2="332.88929891250933" y2="486.5244829824866" stroke="#0a2030" stroke-width="0.3" opacity="0.06" /><line x1="316.1588423746442" y1="484.6964134942597" x2="316.50746534563484" y2="488.6811922866267" stroke="#0a2030" stroke-width="0.3" opacity="0.06" /><line x1="300.0" y1="488.0" x2="300.0" y2="492.0" stroke="#0a2030" stroke-width="0.3" opacity="0.06" /><line x1="283.38828310152473" y1="489.8727929882366" x2="283.0396601305341" y2="493.8575717806036" stroke="#0a2030" stroke-width="0.3" opacity="0.06" /><line x1="266.9029913990758" y1="487.7024631621524" x2="266.20839868840807" y2="491.64169417420123" stroke="#0a2030" stroke-width="0.3" opacity="0.06" /><line x1="251.34201952072607" y1="481.59405534234486" x2="250.306743340316" y2="485.4577586475011" stroke="#0a2030" stroke-width="0.3" opacity="0.06" /><line x1="236.58880745295235" y1="474.2208196637026" x2="235.22072687964967" y2="477.9795901468463" stroke="#0a2030" stroke-width="0.3" opacity="0.06" /><line x1="221.64576124506053" y1="468.03120726122603" x2="219.95528819809772" y2="471.65643840937264" stroke="#0a2030" stroke-width="0.3" opacity="0.06" /><line x1="206.00000000000006" y1="462.8127759114745" x2="204.00000000000006" y2="466.2768775266122" stroke="#0a2030" stroke-width="0.3" opacity="0.06" /><line x1="190.67743467132692" y1="456.12880376607916" x2="188.38312892592273" y2="459.4054119432351" stroke="#0a2030" stroke-width="0.3" opacity="0.06" /><line x1="177.48591818125135" y1="446.00659715087465" x2="174.9147677425052" y2="449.0707749233506" stroke="#0a2030" stroke-width="0.3" opacity="0.06" /><line x1="167.06392513692907" y1="432.936074863071" x2="164.2354980121829" y2="435.76450198781714" stroke="#0a2030" stroke-width="0.3" opacity="0.06" /><line x1="157.97388653813897" y1="419.1740594233902" x2="154.90970876566305" y2="421.74520986213633" stroke="#0a2030" stroke-width="0.3" opacity="0.06" /><line x1="148.12763511341825" y1="406.3421747393203" x2="144.8510269362623" y2="408.6364804847244" stroke="#0a2030" stroke-width="0.3" opacity="0.06" /><line x1="137.1872240885255" y1="394.0" x2="133.72312247338778" y2="396.0" stroke="#0a2030" stroke-width="0.3" opacity="0.06" /><line x1="127.25947933544563" y1="380.5502276595635" x2="123.63424818729902" y2="382.2407007065263" stroke="#0a2030" stroke-width="0.3" opacity="0.06" /><line x1="120.89639424820112" y1="365.1883813434038" x2="117.13762376505747" y2="366.5564619167065" stroke="#0a2030" stroke-width="0.3" opacity="0.06" /><line x1="118.40594465765514" y1="348.657980479274" x2="114.54224135249888" y2="349.69325665968404" stroke="#0a2030" stroke-width="0.3" opacity="0.06" /><line x1="117.41474802956222" y1="332.1947062018416" x2="113.4755170175134" y2="332.8892989125093" stroke="#0a2030" stroke-width="0.3" opacity="0.06" /><line x1="115.3035865057403" y1="316.1588423746443" x2="111.31880771337333" y2="316.50746534563496" stroke="#0a2030" stroke-width="0.3" opacity="0.06" /><line x1="112.0" y1="300.0" x2="108.0" y2="300.0" stroke="#0a2030" stroke-width="0.3" opacity="0.06" /><line x1="110.12720701176337" y1="283.3882831015248" x2="106.14242821939638" y2="283.0396601305342" stroke="#0a2030" stroke-width="0.3" opacity="0.06" /><line x1="112.29753683784756" y1="266.90299139907574" x2="108.35830582579874" y2="266.20839868840807" stroke="#0a2030" stroke-width="0.3" opacity="0.06" /><line x1="118.40594465765511" y1="251.34201952072618" x2="114.54224135249885" y2="250.30674334031607" stroke="#0a2030" stroke-width="0.3" opacity="0.06" /><line x1="125.77918033629734" y1="236.58880745295238" x2="122.0204098531537" y2="235.2207268796497" stroke="#0a2030" stroke-width="0.3" opacity="0.06" /><line x1="131.96879273877397" y1="221.64576124506056" x2="128.3435615906274" y2="219.95528819809772" stroke="#0a2030" stroke-width="0.3" opacity="0.06" /><line x1="137.1872240885255" y1="205.99999999999997" x2="133.72312247338778" y2="203.99999999999994" stroke="#0a2030" stroke-width="0.3" opacity="0.06" /><line x1="143.87119623392084" y1="190.67743467132692" x2="140.59458805676488" y2="188.38312892592273" stroke="#0a2030" stroke-width="0.3" opacity="0.06" /><line x1="153.99340284912532" y1="177.48591818125135" x2="150.9292250766494" y2="174.9147677425052" stroke="#0a2030" stroke-width="0.3" opacity="0.06" /><line x1="167.06392513692902" y1="167.06392513692904" x2="164.23549801218283" y2="164.23549801218286" stroke="#0a2030" stroke-width="0.3" opacity="0.06" /><line x1="180.82594057660984" y1="157.97388653813897" x2="178.25479013786367" y2="154.90970876566305" stroke="#0a2030" stroke-width="0.3" opacity="0.06" /><line x1="193.65782526067974" y1="148.12763511341825" x2="191.36351951527556" y2="144.8510269362623" stroke="#0a2030" stroke-width="0.3" opacity="0.06" /><line x1="205.99999999999991" y1="137.1872240885256" x2="203.99999999999991" y2="133.72312247338783" stroke="#0a2030" stroke-width="0.3" opacity="0.06" /><line x1="219.44977234043643" y1="127.25947933544569" x2="217.75929929347362" y2="123.63424818729911" stroke="#0a2030" stroke-width="0.3" opacity="0.06" /><line x1="234.81161865659607" y1="120.89639424820115" x2="233.4435380832934" y2="117.1376237650575" stroke="#0a2030" stroke-width="0.3" opacity="0.06" /><line x1="251.34201952072613" y1="118.40594465765517" x2="250.30674334031605" y2="114.54224135249888" stroke="#0a2030" stroke-width="0.3" opacity="0.06" /><line x1="267.8052937981584" y1="117.41474802956222" x2="267.11070108749067" y2="113.4755170175134" stroke="#0a2030" stroke-width="0.3" opacity="0.06" /><line x1="283.8411576253558" y1="115.3035865057403" x2="283.49253465436516" y2="111.31880771337333" stroke="#0a2030" stroke-width="0.3" opacity="0.06" /><line x1="299.99999999999994" y1="112.0" x2="299.99999999999994" y2="108.0" stroke="#0a2030" stroke-width="0.3" opacity="0.06" /><line x1="316.6117168984752" y1="110.12720701176337" x2="316.9603398694658" y2="106.14242821939638" stroke="#0a2030" stroke-width="0.3" opacity="0.06" /><line x1="333.09700860092414" y1="112.29753683784753" x2="333.7916013115919" y2="108.35830582579871" stroke="#0a2030" stroke-width="0.3" opacity="0.06" /><line x1="348.657980479274" y1="118.4059446576552" x2="349.69325665968404" y2="114.54224135249893" stroke="#0a2030" stroke-width="0.3" opacity="0.06" /><line x1="363.41119254704756" y1="125.77918033629732" x2="364.77927312035024" y2="122.0204098531537" stroke="#0a2030" stroke-width="0.3" opacity="0.06" /><line x1="378.3542387549395" y1="131.968792738774" x2="380.04471180190234" y2="128.3435615906274" stroke="#0a2030" stroke-width="0.3" opacity="0.06" /><line x1="394.0" y1="137.18722408852554" x2="396.0" y2="133.72312247338778" stroke="#0a2030" stroke-width="0.3" opacity="0.06" /><line x1="409.32256532867314" y1="143.87119623392087" x2="411.6168710740773" y2="140.5945880567649" stroke="#0a2030" stroke-width="0.3" opacity="0.06" /><line x1="422.51408181874865" y1="153.9934028491253" x2="425.0852322574948" y2="150.92922507664937" stroke="#0a2030" stroke-width="0.3" opacity="0.06" /><line x1="432.93607486307087" y1="167.06392513692904" x2="435.7645019878171" y2="164.23549801218286" stroke="#0a2030" stroke-width="0.3" opacity="0.06" /><line x1="442.026113461861" y1="180.8259405766098" x2="445.0902912343369" y2="178.25479013786367" stroke="#0a2030" stroke-width="0.3" opacity="0.06" /><line x1="451.87236488658175" y1="193.65782526067972" x2="455.1489730637377" y2="191.36351951527553" stroke="#0a2030" stroke-width="0.3" opacity="0.06" /><line x1="462.81277591147443" y1="205.99999999999994" x2="466.2768775266121" y2="203.99999999999994" stroke="#0a2030" stroke-width="0.3" opacity="0.06" /><line x1="472.7405206645543" y1="219.4497723404364" x2="476.3657518127009" y2="217.7592992934736" stroke="#0a2030" stroke-width="0.3" opacity="0.06" /><line x1="479.1036057517989" y1="234.81161865659624" x2="482.86237623494253" y2="233.44353808329356" stroke="#0a2030" stroke-width="0.3" opacity="0.06" /><line x1="481.5940553423448" y1="251.34201952072613" x2="485.4577586475011" y2="250.30674334031605" stroke="#0a2030" stroke-width="0.3" opacity="0.06" /><line x1="482.58525197043775" y1="267.80529379815823" x2="486.5244829824866" y2="267.1107010874905" stroke="#0a2030" stroke-width="0.3" opacity="0.06" /><line x1="484.6964134942597" y1="283.8411576253558" x2="488.6811922866267" y2="283.4925346543651" stroke="#0a2030" stroke-width="0.3" opacity="0.06" /><polygon points="300.0,430.0 412.6,235.0 187.4,235.0" fill="none" stroke="#3399FF" stroke-width="1.2" opacity="0.25"/><polygon points="412.6,365.0 300.0,170.0 187.4,365.0" fill="none" stroke="#3399FF" stroke-width="1.2" opacity="0.25"/><polygon points="300.0,380.0 369.3,260.0 230.7,260.0" fill="none" stroke="#0a2030" stroke-width="0.5" opacity="0.12"/><polygon points="369.3,340.0 300.0,220.0 230.7,340.0" fill="none" stroke="#0a2030" stroke-width="0.5" opacity="0.12"/><circle cx="300" cy="300" r="10" fill="none" stroke="#87CEEB" stroke-width="0.4" opacity="0.3" filter="url(#g)"/><text x="300" y="304" fill="#3399FF" font-size="14" font-family="monospace" text-anchor="middle" font-weight="bold" opacity="0.65">tu</text><line x1="315.75692404819534" y1="297.2216291573291" x2="315.75692404819534" y2="302.7783708426709" stroke="#0a2030" stroke-width="0.3" opacity="0.1" /><line x1="302.7783708426709" y1="315.75692404819534" x2="297.2216291573291" y2="315.75692404819534" stroke="#0a2030" stroke-width="0.3" opacity="0.1" /><line x1="284.24307595180466" y1="302.7783708426709" x2="284.24307595180466" y2="297.2216291573291" stroke="#0a2030" stroke-width="0.3" opacity="0.1" /><line x1="297.2216291573291" y1="284.24307595180466" x2="302.7783708426709" y2="284.24307595180466" stroke="#0a2030" stroke-width="0.3" opacity="0.1" /><line x1="0" y1="40.0" x2="600" y2="44.54648713412841" stroke="#3399FF" stroke-width="0.2" opacity="0.008"/><line x1="0" y1="61.22108843618845" x2="600" y2="60.136899401169146" stroke="#3399FF" stroke-width="0.2" opacity="0.008"/><line x1="0" y1="80.9272486499423" x2="600" y2="74.72229448986585" stroke="#3399FF" stroke-width="0.2" opacity="0.008"/><line x1="0" y1="98.31604683324437" x2="600" y2="89.90861444467795" stroke="#3399FF" stroke-width="0.2" opacity="0.008"/><line x1="0" y1="113.67494075077953" x2="600" y2="107.0191769558208" stroke="#3399FF" stroke-width="0.2" opacity="0.008"/><line x1="0" y1="128.2460838615519" x2="600" y2="126.47229837214805" stroke="#3399FF" stroke-width="0.2" opacity="0.008"/><line x1="0" y1="143.64212113793207" x2="600" y2="147.58455298591252" stroke="#3399FF" stroke-width="0.2" opacity="0.008"/><line x1="0" y1="161.08773693687834" x2="600" y2="168.892198821941" stroke="#3399FF" stroke-width="0.2" opacity="0.008"/><line x1="0" y1="180.84366681063838" x2="600" y2="188.83959836015742" stroke="#3399FF" stroke-width="0.2" opacity="0.008"/><line x1="0" y1="202.08406950242176" x2="600" y2="206.51085916878148" stroke="#3399FF" stroke-width="0.2" opacity="0.008"/><line x1="0" y1="223.28493299359394" x2="600" y2="222.06059242620879" stroke="#3399FF" stroke-width="0.2" opacity="0.008"/><line x1="0" y1="242.940841169385" x2="600" y2="236.6411968679453" stroke="#3399FF" stroke-width="0.2" opacity="0.008"/><line x1="0" y1="260.2729945404414" x2="600" y2="251.86086765457173" stroke="#3399FF" stroke-width="0.2" opacity="0.008"/><line x1="0" y1="275.59549181174674" x2="600" y2="269.02723705898006" stroke="#3399FF" stroke-width="0.2" opacity="0.008"/><line x1="0" y1="290.1676043537404" x2="600" y2="288.53237457611436" stroke="#3399FF" stroke-width="0.2" opacity="0.008"/><line x1="0" y1="305.60152120014163" x2="600" y2="309.668390513244" stroke="#3399FF" stroke-width="0.2" opacity="0.008"/><line x1="0" y1="323.1041113542434" x2="600" y2="330.96036757353613" stroke="#3399FF" stroke-width="0.2" opacity="0.008"/><line x1="0" y1="342.9093144388148" x2="600" y2="350.8600375069749" stroke="#3399FF" stroke-width="0.2" opacity="0.008"/><line x1="0" y1="364.1681152361057" x2="600" y2="368.4739558607025" stroke="#3399FF" stroke-width="0.2" opacity="0.008"/><line x1="0" y1="385.347848810983" x2="600" y2="383.9837028656531" stroke="#3399FF" stroke-width="0.2" opacity="0.008"/><line x1="0" y1="404.95303677847437" x2="600" y2="398.5604834166747" stroke="#3399FF" stroke-width="0.2" opacity="0.008"/><line x1="0" y1="422.2287341557147" x2="600" y2="413.81429110990126" stroke="#3399FF" stroke-width="0.2" opacity="0.008"/><line x1="0" y1="437.5155917837285" x2="600" y2="431.0367030976468" stroke="#3399FF" stroke-width="0.2" opacity="0.008"/><line x1="0" y1="452.08964291407995" x2="600" y2="450.5934311722225" stroke="#3399FF" stroke-width="0.2" opacity="0.008"/><line x1="0" y1="467.5621648320925" x2="600" y2="471.75232179560817" stroke="#3399FF" stroke-width="0.2" opacity="0.008"/><line x1="0" y1="485.1218699726592" x2="600" y2="493.027699348598" stroke="#3399FF" stroke-width="0.2" opacity="0.008"/><line x1="0" y1="504.97583588796857" x2="600" y2="512.8791025888348" stroke="#3399FF" stroke-width="0.2" opacity="0.008"/><line x1="0" y1="526.252113439034" x2="600" y2="530.4357876434617" stroke="#3399FF" stroke-width="0.2" opacity="0.008"/><line x1="0" y1="547.4098181003407" x2="600" y2="545.9062524582747" stroke="#3399FF" stroke-width="0.2" opacity="0.008"/><line x1="0" y1="566.9638320291796" x2="600" y2="560.4801769559448" stroke="#3399FF" stroke-width="0.2" opacity="0.008"/><text x="300" y="572" fill="#0a2030" font-size="10" font-family="monospace" text-anchor="middle" letter-spacing="4" opacity="0.5">ZONE 2 · DEEP_WATER</text><text x="300" y="26" fill="#0a2030" font-size="9" font-family="monospace" text-anchor="middle" letter-spacing="6" opacity="0.3">0046</text></svg>
