<?xml version="1.0" encoding="UTF-8"?>
<svg xmlns="http://www.w3.org/2000/svg" viewBox="0 0 600 600" width="600" height="600">
<rect width="600" height="600" fill="#080a0c"/><defs>
  <filter id="g" x="-50%" y="-50%" width="200%" height="200%"
    ><feGaussianBlur stdDeviation="2" result="b"
    /><feMerge><feMergeNode in="b"/><feMergeNode in="SourceGraphic"/></feMerge></filter
  >
  <filter id="G" x="-50%" y="-50%" width="200%" height="200%"
    ><feGaussianBlur stdDeviation="5" result="b"
    /><feMerge><feMergeNode in="b"/><feMergeNode in="SourceGraphic"/></feMerge></filter
  >
</defs><line x1="259.3" y1="251.2" x2="239.5" y2="227.4" stroke="#C8E4F0" stroke-width="0.3" opacity="0.08"/><line x1="239.5" y1="227.4" x2="198.7" y2="199.5" stroke="#C8E4F0" stroke-width="0.3" opacity="0.08"/><line x1="198.7" y1="199.5" x2="158.9" y2="160.5" stroke="#C8E4F0" stroke-width="0.3" opacity="0.08"/><line x1="198.7" y1="199.5" x2="170.2" y2="203.9" stroke="#C8E4F0" stroke-width="0.3" opacity="0.08"/><line x1="239.5" y1="227.4" x2="197.0" y2="209.7" stroke="#C8E4F0" stroke-width="0.3" opacity="0.08"/><line x1="197.0" y1="209.7" x2="170.9" y2="197.5" stroke="#C8E4F0" stroke-width="0.3" opacity="0.08"/><line x1="197.0" y1="209.7" x2="148.8" y2="229.9" stroke="#C8E4F0" stroke-width="0.3" opacity="0.08"/><line x1="408.6" y1="460.8" x2="427.3" y2="488.5" stroke="#C8E4F0" stroke-width="0.3" opacity="0.08"/><line x1="427.3" y1="488.5" x2="447.4" y2="501.4" stroke="#C8E4F0" stroke-width="0.3" opacity="0.08"/><line x1="447.4" y1="501.4" x2="474.2" y2="536.4" stroke="#C8E4F0" stroke-width="0.3" opacity="0.08"/><line x1="447.4" y1="501.4" x2="495.1" y2="536.0" stroke="#C8E4F0" stroke-width="0.3" opacity="0.08"/><line x1="427.3" y1="488.5" x2="430.3" y2="533.2" stroke="#C8E4F0" stroke-width="0.3" opacity="0.08"/><line x1="430.3" y1="533.2" x2="417.8" y2="574.4" stroke="#C8E4F0" stroke-width="0.3" opacity="0.08"/><line x1="430.3" y1="533.2" x2="445.5" y2="560.8" stroke="#C8E4F0" stroke-width="0.3" opacity="0.08"/><line x1="379.7" y1="358.6" x2="416.2" y2="385.6" stroke="#C8E4F0" stroke-width="0.3" opacity="0.08"/><line x1="416.2" y1="385.6" x2="446.8" y2="402.2" stroke="#C8E4F0" stroke-width="0.3" opacity="0.08"/><line x1="446.8" y1="402.2" x2="476.8" y2="408.6" stroke="#C8E4F0" stroke-width="0.3" opacity="0.08"/><line x1="446.8" y1="402.2" x2="467.8" y2="419.0" stroke="#C8E4F0" stroke-width="0.3" opacity="0.08"/><line x1="416.2" y1="385.6" x2="470.1" y2="411.0" stroke="#C8E4F0" stroke-width="0.3" opacity="0.08"/><line x1="470.1" y1="411.0" x2="505.4" y2="434.3" stroke="#C8E4F0" stroke-width="0.3" opacity="0.08"/><line x1="470.1" y1="411.0" x2="488.6" y2="433.6" stroke="#C8E4F0" stroke-width="0.3" opacity="0.08"/><line x1="290.0" y1="389.0" x2="283.6" y2="446.3" stroke="#C8E4F0" stroke-width="0.3" opacity="0.08"/><line x1="283.6" y1="446.3" x2="268.3" y2="475.1" stroke="#C8E4F0" stroke-width="0.3" opacity="0.08"/><line x1="268.3" y1="475.1" x2="246.9" y2="503.8" stroke="#C8E4F0" stroke-width="0.3" opacity="0.08"/><line x1="268.3" y1="475.1" x2="265.0" y2="504.8" stroke="#C8E4F0" stroke-width="0.3" opacity="0.08"/><line x1="283.6" y1="446.3" x2="270.0" y2="500.6" stroke="#C8E4F0" stroke-width="0.3" opacity="0.08"/><line x1="270.0" y1="500.6" x2="265.8" y2="529.0" stroke="#C8E4F0" stroke-width="0.3" opacity="0.08"/><line x1="270.0" y1="500.6" x2="278.6" y2="520.6" stroke="#C8E4F0" stroke-width="0.3" opacity="0.08"/><line x1="331.1" y1="185.0" x2="337.0" y2="163.3" stroke="#C8E4F0" stroke-width="0.3" opacity="0.08"/><line x1="337.0" y1="163.3" x2="345.7" y2="104.1" stroke="#C8E4F0" stroke-width="0.3" opacity="0.08"/><line x1="345.7" y1="104.1" x2="356.0" y2="46.1" stroke="#C8E4F0" stroke-width="0.3" opacity="0.08"/><line x1="345.7" y1="104.1" x2="368.3" y2="62.6" stroke="#C8E4F0" stroke-width="0.3" opacity="0.08"/><line x1="337.0" y1="163.3" x2="348.5" y2="141.7" stroke="#C8E4F0" stroke-width="0.3" opacity="0.08"/><line x1="348.5" y1="141.7" x2="364.2" y2="106.9" stroke="#C8E4F0" stroke-width="0.3" opacity="0.08"/><line x1="348.5" y1="141.7" x2="353.0" y2="101.9" stroke="#C8E4F0" stroke-width="0.3" opacity="0.08"/><line x1="369.9" y1="226.0" x2="401.2" y2="192.9" stroke="#C8E4F0" stroke-width="0.3" opacity="0.08"/><line x1="401.2" y1="192.9" x2="421.1" y2="176.0" stroke="#C8E4F0" stroke-width="0.3" opacity="0.08"/><line x1="421.1" y1="176.0" x2="458.7" y2="158.2" stroke="#C8E4F0" stroke-width="0.3" opacity="0.08"/><line x1="421.1" y1="176.0" x2="423.3" y2="143.1" stroke="#C8E4F0" stroke-width="0.3" opacity="0.08"/><line x1="401.2" y1="192.9" x2="453.3" y2="181.9" stroke="#C8E4F0" stroke-width="0.3" opacity="0.08"/><line x1="453.3" y1="181.9" x2="473.9" y2="173.3" stroke="#C8E4F0" stroke-width="0.3" opacity="0.08"/><line x1="453.3" y1="181.9" x2="478.7" y2="151.8" stroke="#C8E4F0" stroke-width="0.3" opacity="0.08"/><line x1="307.7" y1="222.4" x2="311.6" y2="183.6" stroke="#C8E4F0" stroke-width="0.3" opacity="0.08"/><line x1="311.6" y1="183.6" x2="316.2" y2="153.3" stroke="#C8E4F0" stroke-width="0.3" opacity="0.08"/><line x1="316.2" y1="153.3" x2="334.6" y2="121.3" stroke="#C8E4F0" stroke-width="0.3" opacity="0.08"/><line x1="316.2" y1="153.3" x2="330.0" y2="129.0" stroke="#C8E4F0" stroke-width="0.3" opacity="0.08"/><line x1="311.6" y1="183.6" x2="324.1" y2="148.2" stroke="#C8E4F0" stroke-width="0.3" opacity="0.08"/><line x1="324.1" y1="148.2" x2="332.8" y2="124.9" stroke="#C8E4F0" stroke-width="0.3" opacity="0.08"/><line x1="324.1" y1="148.2" x2="337.6" y2="122.3" stroke="#C8E4F0" stroke-width="0.3" opacity="0.08"/><line x1="237.5" y1="232.5" x2="199.3" y2="191.2" stroke="#C8E4F0" stroke-width="0.3" opacity="0.08"/><line x1="199.3" y1="191.2" x2="190.6" y2="170.1" stroke="#C8E4F0" stroke-width="0.3" opacity="0.08"/><line x1="190.6" y1="170.1" x2="162.4" y2="132.8" stroke="#C8E4F0" stroke-width="0.3" opacity="0.08"/><line x1="190.6" y1="170.1" x2="203.7" y2="129.3" stroke="#C8E4F0" stroke-width="0.3" opacity="0.08"/><line x1="199.3" y1="191.2" x2="192.3" y2="164.5" stroke="#C8E4F0" stroke-width="0.3" opacity="0.08"/><line x1="192.3" y1="164.5" x2="169.5" y2="135.0" stroke="#C8E4F0" stroke-width="0.3" opacity="0.08"/><line x1="192.3" y1="164.5" x2="197.5" y2="117.8" stroke="#C8E4F0" stroke-width="0.3" opacity="0.08"/><line x1="212.0" y1="361.7" x2="167.4" y2="393.0" stroke="#C8E4F0" stroke-width="0.3" opacity="0.08"/><line x1="167.4" y1="393.0" x2="149.5" y2="414.0" stroke="#C8E4F0" stroke-width="0.3" opacity="0.08"/><line x1="149.5" y1="414.0" x2="127.0" y2="443.2" stroke="#C8E4F0" stroke-width="0.3" opacity="0.08"/><line x1="149.5" y1="414.0" x2="112.4" y2="421.0" stroke="#C8E4F0" stroke-width="0.3" opacity="0.08"/><line x1="167.4" y1="393.0" x2="153.2" y2="451.3" stroke="#C8E4F0" stroke-width="0.3" opacity="0.08"/><line x1="153.2" y1="451.3" x2="121.2" y2="500.6" stroke="#C8E4F0" stroke-width="0.3" opacity="0.08"/><line x1="153.2" y1="451.3" x2="164.6" y2="489.0" stroke="#C8E4F0" stroke-width="0.3" opacity="0.08"/><line x1="405.5" y1="340.7" x2="460.9" y2="362.1" stroke="#C8E4F0" stroke-width="0.3" opacity="0.08"/><line x1="460.9" y1="362.1" x2="511.8" y2="369.0" stroke="#C8E4F0" stroke-width="0.3" opacity="0.08"/><line x1="511.8" y1="369.0" x2="548.6" y2="372.2" stroke="#C8E4F0" stroke-width="0.3" opacity="0.08"/><line x1="511.8" y1="369.0" x2="559.3" y2="379.7" stroke="#C8E4F0" stroke-width="0.3" opacity="0.08"/><line x1="460.9" y1="362.1" x2="479.8" y2="400.9" stroke="#C8E4F0" stroke-width="0.3" opacity="0.08"/><line x1="479.8" y1="400.9" x2="499.7" y2="446.7" stroke="#C8E4F0" stroke-width="0.3" opacity="0.08"/><line x1="479.8" y1="400.9" x2="503.2" y2="449.7" stroke="#C8E4F0" stroke-width="0.3" opacity="0.08"/><polyline points="320.6,35.0 334.5,35.6 348.3,37.0 362.0,39.0 375.6,41.8 389.0,45.3 402.3,49.4 415.3,54.3 428.0,59.8 440.4,66.0 452.5,72.9 464.2,80.3 475.5,88.4 486.3,97.0 496.7,106.2 506.6,115.9 516.0,126.1 524.8,136.8 533.1,148.0 540.7,159.6 547.8,171.5 554.2,183.8 559.9,196.5 565.0,209.4 569.4,222.5 573.1,235.9 576.1,249.4 578.4,263.1 580.0,276.9 580.8,290.8 581.0,304.6 580.4,318.5 579.0,332.3 577.0,346.0 574.2,359.6 570.7,373.0 566.6,386.3 561.7,399.3 556.2,412.0 550.0,424.4 543.1,436.5 535.7,448.2 527.6,459.5 519.0,470.3 509.8,480.7 500.1,490.6 489.9,500.0 479.2,508.8 468.0,517.1 456.4,524.7 444.5,531.8 432.2,538.2 419.5,543.9 406.6,549.0 393.5,553.4 380.1,557.1 366.6,560.1 352.9,562.4 339.1,564.0 325.2,564.8 581.0,300.0 580.6,313.9 579.5,327.7 577.7,341.5 575.2,355.1 572.0,368.6 568.0,381.9 563.4,395.0 558.1,407.8 552.1,420.3 545.5,432.5 538.2,444.3 530.4,455.8 521.9,466.8 512.9,477.3 503.4,487.4 493.3,496.9 482.8,505.9 471.8,514.4 460.3,522.2 448.5,529.5 436.3,536.1 423.8,542.1 411.0,547.4 397.9,552.0 384.6,556.0 371.1,559.2 357.5,561.7 343.7,563.5 329.9,564.6 316.0,565.0" fill="none" stroke="#C8E4F0" stroke-width="1.0" opacity="0.3"/><polyline points="288.6,565.0 274.8,564.8 260.9,564.0 247.1,562.4 233.4,560.1 219.9,557.1 206.5,553.4 193.4,549.0 180.5,543.9 167.8,538.2 155.5,531.8 143.6,524.7 132.0,517.1 120.8,508.8 110.1,500.0 99.9,490.6 90.2,480.7 81.0,470.3 72.4,459.5 64.3,448.2 56.9,436.5 50.0,424.4 43.8,412.0 38.3,399.3 33.4,386.3 29.3,373.0 25.8,359.6 23.0,346.0 21.0,332.3 19.6,318.5 19.0,304.6 19.2,290.8 20.0,276.9 21.6,263.1 23.9,249.4 26.9,235.9 30.6,222.5 35.0,209.4 40.1,196.5 45.8,183.8 52.2,171.5 59.3,159.6 66.9,148.0 75.2,136.8 84.0,126.1 93.4,115.9 103.3,106.2 113.7,97.0 124.5,88.4 135.8,80.3 147.5,72.9 159.6,66.0 172.0,59.8 184.7,54.3 197.7,49.4 211.0,45.3 224.4,41.8 238.0,39.0 251.7,37.0 265.5,35.6" fill="none" stroke="#203848" stroke-width="1.0" opacity="0.2"/><line x1="292" y1="40" x2="292" y2="560" stroke="#C8E4F0" stroke-width="0.5" opacity="0.06" stroke_dasharray="2 4"/><line x1="300" y1="300" x2="418.2" y2="320.8" stroke="#C8E4F0" stroke-width="0.5" opacity="0.120"/><line x1="300" y1="300" x2="363.0" y2="413.7" stroke="#C8E4F0" stroke-width="0.5" opacity="0.160"/><line x1="300" y1="300" x2="247.6" y2="429.8" stroke="#C8E4F0" stroke-width="0.5" opacity="0.200"/><line x1="300" y1="300" x2="156.6" y2="343.9" stroke="#C8E4F0" stroke-width="0.5" opacity="0.240"/><line x1="300" y1="300" x2="167.4" y2="210.5" stroke="#C8E4F0" stroke-width="0.5" opacity="0.280"/><line x1="300" y1="300" x2="285.2" y2="130.6" stroke="#C8E4F0" stroke-width="0.5" opacity="0.320"/><line x1="300" y1="300" x2="429.5" y2="175.0" stroke="#C8E4F0" stroke-width="0.5" opacity="0.360"/><line x1="158.6" y1="441.4" x2="158.6" y2="158.6" stroke="#C8E4F0" stroke-width="0.4" opacity="0.08"/><line x1="441.4" y1="158.6" x2="441.4" y2="441.4" stroke="#C8E4F0" stroke-width="0.4" opacity="0.08"/><line x1="201.0" y1="399.0" x2="201.0" y2="201.0" stroke="#C8E4F0" stroke-width="0.4" opacity="0.08"/><line x1="399.0" y1="201.0" x2="399.0" y2="399.0" stroke="#C8E4F0" stroke-width="0.4" opacity="0.08"/><circle cx="292" cy="300" r="5" fill="none" stroke="#E0F0FF" stroke-width="0.3" opacity="0.2" filter="url(#g)"/><text x="284" y="304" fill="#C8E4F0" font-size="12" font-family="monospace" text-anchor="middle" font-weight="bold" opacity="0.5">i</text><text x="316" y="304" fill="#203848" font-size="12" font-family="monospace" text-anchor="middle" font-weight="bold" opacity="0.3">x</text><text x="300" y="572" fill="#203848" font-size="10" font-family="monospace" text-anchor="middle" letter-spacing="4" opacity="0.5">ZONE 4 · CLEAVING</text><text x="300" y="26" fill="#203848" font-size="9" font-family="monospace" text-anchor="middle" letter-spacing="6" opacity="0.3">0161</text></svg>
