<svg xmlns="http://www.w3.org/2000/svg" viewBox="0 0 900 600" width="900" height="600">
  <style>
    @import url("https://fonts.googleapis.com/css2?family=JetBrains+Mono:wght@400;500;600;700&display=swap");
    text { font-family: "JetBrains Mono", monospace; fill: #e2e8f0; }
    .zone-arc { fill: none; stroke: #60a5fa; stroke-width: 1.5; opacity: 0.4; }
    .center-circle { fill: #1e293b; stroke: #fbbf24; stroke-width: 2; }
    .zone-label { font-size: 10px; fill: #f8fafc; text-anchor: middle; }
  </style>
  
  <!-- Background -->
  <rect width="100%" height="100%" fill="#0f172a"/>
  
  <!-- Title -->
  <text x="450" y="35" text-anchor="middle" font-size="18" font-weight="700" fill="#f8fafc">BARKER SPIRAL v2 (Skeleton)</text>
  
  <!-- Central 5⊕5 node -->
  <circle cx="450" cy="320" r="12" class="center-circle"/>
  <text x="450" y="324" text-anchor="middle" class="label" style="fill:#fbbf24; font-size:8px;">5⊕5</text>
  
  <!-- Skeleton arms (angular framework only) -->
  <path d="M 450.00 280.00 A 40.00 40.00 0 0 1 450.00 276.80" class="zone-arc" transform="rotate(-90.0, 450, 320)" fill="none" stroke="#60a5fa" stroke-width="1"/><path d="M 456.01 277.22 A 43.20 43.20 0 0 1 456.49 273.80" class="zone-arc" transform="rotate(-82.0, 450, 320)" fill="none" stroke="#60a5fa" stroke-width="1"/><path d="M 462.86 275.15 A 46.66 46.66 0 0 1 463.89 271.56" class="zone-arc" transform="rotate(-74.0, 450, 320)" fill="none" stroke="#60a5fa" stroke-width="1"/><path d="M 470.49 273.97 A 50.39 50.39 0 0 1 472.13 270.29" class="zone-arc" transform="rotate(-66.0, 450, 320)" fill="none" stroke="#60a5fa" stroke-width="1"/><path d="M 478.84 273.85 A 54.42 54.42 0 0 1 481.15 270.16" class="zone-arc" transform="rotate(-58.00000000000001, 450, 320)" fill="none" stroke="#60a5fa" stroke-width="1"/><path d="M 487.78 274.98 A 58.77 58.77 0 0 1 490.80 271.38" class="zone-arc" transform="rotate(-50.0, 450, 320)" fill="none" stroke="#60a5fa" stroke-width="1"/><path d="M 497.17 277.53 A 63.47 63.47 0 0 1 500.94 274.13" class="zone-arc" transform="rotate(-42.0, 450, 320)" fill="none" stroke="#60a5fa" stroke-width="1"/><path d="M 506.83 281.67 A 68.55 68.55 0 0 1 511.38 278.60" class="zone-arc" transform="rotate(-34.0, 450, 320)" fill="none" stroke="#60a5fa" stroke-width="1"/><path d="M 516.54 287.54 A 74.04 74.04 0 0 1 521.87 284.95" class="zone-arc" transform="rotate(-26.0, 450, 320)" fill="none" stroke="#60a5fa" stroke-width="1"/><path d="M 526.05 295.29 A 79.96 79.96 0 0 1 532.13 293.31" class="zone-arc" transform="rotate(-18.0, 450, 320)" fill="none" stroke="#60a5fa" stroke-width="1"/><path d="M 535.05 305.00 A 86.36 86.36 0 0 1 541.85 303.80" class="zone-arc" transform="rotate(-10.000000000000002, 450, 320)" fill="none" stroke="#60a5fa" stroke-width="1"/><path d="M 543.21 316.75 A 93.27 93.27 0 0 1 550.67 316.48" class="zone-arc" transform="rotate(-2.0000000000000027, 450, 320)" fill="none" stroke="#60a5fa" stroke-width="1"/><path d="M 550.18 330.53 A 100.73 100.73 0 0 1 558.19 331.37" class="zone-arc" transform="rotate(5.999999999999996, 450, 320)" fill="none" stroke="#60a5fa" stroke-width="1"/><path d="M 555.55 346.32 A 108.78 108.78 0 0 1 564.00 348.42" class="zone-arc" transform="rotate(14.000000000000007, 450, 320)" fill="none" stroke="#60a5fa" stroke-width="1"/><path d="M 558.93 364.01 A 117.49 117.49 0 0 1 567.65 367.53" class="zone-arc" transform="rotate(22.000000000000007, 450, 320)" fill="none" stroke="#60a5fa" stroke-width="1"/><path d="M 559.89 383.44 A 126.89 126.89 0 0 1 568.68 388.52" class="zone-arc" transform="rotate(29.999999999999993, 450, 320)" fill="none" stroke="#60a5fa" stroke-width="1"/><path d="M 557.99 404.37 A 137.04 137.04 0 0 1 566.63 411.12" class="zone-arc" transform="rotate(38.0, 450, 320)" fill="none" stroke="#60a5fa" stroke-width="1"/><path d="M 552.81 426.46 A 148.00 148.00 0 0 1 561.03 434.98" class="zone-arc" transform="rotate(46.000000000000014, 450, 320)" fill="none" stroke="#60a5fa" stroke-width="1"/><path d="M 543.95 449.31 A 159.84 159.84 0 0 1 551.47 459.66" class="zone-arc" transform="rotate(54.0, 450, 320)" fill="none" stroke="#60a5fa" stroke-width="1"/><path d="M 531.04 472.42 A 172.63 172.63 0 0 1 537.53 484.62" class="zone-arc" transform="rotate(61.999999999999986, 450, 320)" fill="none" stroke="#60a5fa" stroke-width="1"/><path d="M 513.77 495.19 A 186.44 186.44 0 0 1 518.87 509.21" class="zone-arc" transform="rotate(70.0, 450, 320)" fill="none" stroke="#60a5fa" stroke-width="1"/><path d="M 491.86 516.95 A 201.35 201.35 0 0 1 495.21 532.71" class="zone-arc" transform="rotate(78.00000000000001, 450, 320)" fill="none" stroke="#60a5fa" stroke-width="1"/><path d="M 465.17 536.93 A 217.46 217.46 0 0 1 466.38 554.29" class="zone-arc" transform="rotate(86.0, 450, 320)" fill="none" stroke="#60a5fa" stroke-width="1"/><path d="M 433.62 554.29 A 234.86 234.86 0 0 1 432.31 573.03" class="zone-arc" transform="rotate(93.99999999999999, 450, 320)" fill="none" stroke="#60a5fa" stroke-width="1"/><path d="M 397.26 568.10 A 253.65 253.65 0 0 1 393.04 587.95" class="zone-arc" transform="rotate(101.99999999999999, 450, 320)" fill="none" stroke="#60a5fa" stroke-width="1"/><path d="M 356.31 577.42 A 273.94 273.94 0 0 1 348.81 598.01" class="zone-arc" transform="rotate(110.0, 450, 320)" fill="none" stroke="#60a5fa" stroke-width="1"/><path d="M 311.10 581.22 A 295.85 295.85 0 0 1 299.99 602.12" class="zone-arc" transform="rotate(118.00000000000001, 450, 320)" fill="none" stroke="#60a5fa" stroke-width="1"/><path d="M 262.19 578.50 A 319.52 319.52 0 0 1 247.16 599.18" class="zone-arc" transform="rotate(126.0, 450, 320)" fill="none" stroke="#60a5fa" stroke-width="1"/><path d="M 210.28 568.23 A 345.08 345.08 0 0 1 191.11 588.09" class="zone-arc" transform="rotate(134.0, 450, 320)" fill="none" stroke="#60a5fa" stroke-width="1"/><path d="M 156.32 549.45 A 372.69 372.69 0 0 1 132.82 567.81" class="zone-arc" transform="rotate(142.00000000000003, 450, 320)" fill="none" stroke="#60a5fa" stroke-width="1"/><path d="M 101.42 521.25 A 402.51 402.51 0 0 1 73.53 537.35" class="zone-arc" transform="rotate(149.99999999999997, 450, 320)" fill="none" stroke="#60a5fa" stroke-width="1"/><path d="M 46.95 482.84 A 434.71 434.71 0 0 1 14.70 495.87" class="zone-arc" transform="rotate(158.0, 450, 320)" fill="none" stroke="#60a5fa" stroke-width="1"/><path d="M -5.54 433.58 A 469.48 469.48 0 0 1 -41.98 442.66" class="zone-arc" transform="rotate(166.0, 450, 320)" fill="none" stroke="#60a5fa" stroke-width="1"/><path d="M -54.26 373.00 A 507.04 507.04 0 0 1 -94.61 377.24" class="zone-arc" transform="rotate(174.00000000000003, 450, 320)" fill="none" stroke="#60a5fa" stroke-width="1"/><path d="M -97.27 300.89 A 547.61 547.61 0 0 1 -141.05 299.36" class="zone-arc" transform="rotate(182.00000000000003, 450, 320)" fill="none" stroke="#60a5fa" stroke-width="1"/><path d="M -132.43 217.30 A 591.41 591.41 0 0 1 -179.02 209.09" class="zone-arc" transform="rotate(190.0, 450, 320)" fill="none" stroke="#60a5fa" stroke-width="1"/><path d="M -157.47 122.62 A 638.73 638.73 0 0 1 -206.06 106.83" class="zone-arc" transform="rotate(198.0, 450, 320)" fill="none" stroke="#60a5fa" stroke-width="1"/><path d="M -170.01 17.60 A 689.83 689.83 0 0 1 -219.61 -6.59" class="zone-arc" transform="rotate(206.0, 450, 320)" fill="none" stroke="#60a5fa" stroke-width="1"/><path d="M -167.64 -96.60 A 745.01 745.01 0 0 1 -217.05 -129.93" class="zone-arc" transform="rotate(213.99999999999997, 450, 320)" fill="none" stroke="#60a5fa" stroke-width="1"/><path d="M -147.94 -218.39 A 804.61 804.61 0 0 1 -195.78 -261.46" class="zone-arc" transform="rotate(221.99999999999997, 450, 320)" fill="none" stroke="#60a5fa" stroke-width="1"/><path d="M -108.57 -345.68 A 868.98 868.98 0 0 1 -153.26 -398.93" class="zone-arc" transform="rotate(230.0, 450, 320)" fill="none" stroke="#60a5fa" stroke-width="1"/><path d="M -47.33 -475.89 A 938.50 938.50 0 0 1 -87.12 -539.56" class="zone-arc" transform="rotate(237.99999999999994, 450, 320)" fill="none" stroke="#60a5fa" stroke-width="1"/><path d="M 37.74 -605.95 A 1013.58 1013.58 0 0 1 4.76 -680.03" class="zone-arc" transform="rotate(246.00000000000003, 450, 320)" fill="none" stroke="#60a5fa" stroke-width="1"/><path d="M 148.27 -732.26 A 1094.67 1094.67 0 0 1 124.13 -816.44" class="zone-arc" transform="rotate(253.99999999999997, 450, 320)" fill="none" stroke="#60a5fa" stroke-width="1"/><path d="M 285.46 -850.73 A 1182.24 1182.24 0 0 1 272.30 -944.39" class="zone-arc" transform="rotate(262.0, 450, 320)" fill="none" stroke="#60a5fa" stroke-width="1"/>
  
  <!-- Concentric circles -->
  <circle cx="450" cy="320" r="60" fill="none" stroke="#334155" stroke-width="0.5" stroke-dasharray="3 3"/>
  <circle cx="450" cy="320" r="110" fill="none" stroke="#334155" stroke-width="0.5" stroke-dasharray="3 3"/>
  <circle cx="450" cy="320" r="170" fill="none" stroke="#334155" stroke-width="0.5" stroke-dasharray="3 3"/>
  <circle cx="450" cy="320" r="240" fill="none" stroke="#334155" stroke-width="0.5" stroke-dasharray="3 3"/>
  <circle cx="450" cy="320" r="320" fill="none" stroke="#334155" stroke-width="0.5" stroke-dasharray="3 3"/>
  
  <!-- Zone labels -->
  <text x="450.00" y="-10.00" class="zone-label">Z0</text><text x="495.93" y="-6.79" class="zone-label">Z1</text><text x="540.96" y="2.78" class="zone-label">Z2</text><text x="624.87" y="40.14" class="zone-label">Z4</text><text x="662.12" y="67.21" class="zone-label">Z5</text><text x="695.24" y="99.19" class="zone-label">Z6</text><text x="763.85" y="218.02" class="zone-label">Z9</text>
</svg>