<svg xmlns="http://www.w3.org/2000/svg" viewBox="0 0 800 680">
  <style>
    @import url('https://fonts.googleapis.com/css2?family=JetBrains+Mono:wght@400;500;600;700&amp;display=swap');
    text { font-family: 'JetBrains Mono', monospace; }
  </style>
  <defs>
    <pattern id="grid" width="40" height="40" patternUnits="userSpaceOnUse">
      <path d="M 40 0 L 0 0 0 40" fill="none" stroke="#1e293b" stroke-width="0.5"/>
    </pattern>
  </defs>

  <rect width="100%" height="100%" fill="#0f172a"/>
  <rect width="100%" height="100%" fill="url(#grid)"/>

  <text x="30" y="30" fill="#94a3b8" font-size="10" font-weight="400">CHORD DIAGRAM · C(10) = 45 · PENTAGRAM STRUCTURE</text>
  <text x="30" y="50" fill="white" font-size="16" font-weight="700">THE NUMOGRAM STAR</text>
  <text x="30" y="67" fill="#64748b" font-size="9">Syzygy pentagram (cyan) · Decadence cross (amber) · 5 outer zones at star points · 5 inner zones at valleys</text>

  <!-- ═══
       Center: (400, 330)
       Outer R=240 at angles -90,-18,54,126,198
         Z0:(400,90) Z1:(628,256) Z2:(541,524) Z3:(259,524) Z4:(172,256)
       Inner R=150 at angles -54,18,90,162,234
         Z9:(488,209) Z8:(543,376) Z7:(400,480) Z6:(257,376) Z5:(312,209)
  ═══ -->

  <!-- ═══ OTHER CHORDS (35) ═══ -->
  <g stroke="#475569" stroke-width="0.4" stroke-opacity="0.08" fill="none">
    <line x1="400" y1="90" x2="628" y2="256"/>
    <line x1="400" y1="90" x2="541" y2="524"/>
    <line x1="400" y1="90" x2="259" y2="524"/>
    <line x1="400" y1="90" x2="172" y2="256"/>
    <line x1="400" y1="90" x2="543" y2="376"/>
    <line x1="400" y1="90" x2="400" y2="480"/>
    <line x1="400" y1="90" x2="257" y2="376"/>
    <line x1="628" y1="256" x2="541" y2="524"/>
    <line x1="628" y1="256" x2="259" y2="524"/>
    <line x1="628" y1="256" x2="172" y2="256"/>
    <line x1="628" y1="256" x2="312" y2="209"/>
    <line x1="628" y1="256" x2="257" y2="376"/>
    <line x1="628" y1="256" x2="400" y2="480"/>
    <line x1="541" y1="524" x2="259" y2="524"/>
    <line x1="541" y1="524" x2="172" y2="256"/>
    <line x1="541" y1="524" x2="312" y2="209"/>
    <line x1="541" y1="524" x2="257" y2="376"/>
    <line x1="259" y1="524" x2="172" y2="256"/>
    <line x1="259" y1="524" x2="312" y2="209"/>
    <line x1="259" y1="524" x2="543" y2="376"/>
    <line x1="259" y1="524" x2="488" y2="209"/>
    <line x1="172" y1="256" x2="400" y2="480"/>
    <line x1="172" y1="256" x2="543" y2="376"/>
    <line x1="172" y1="256" x2="488" y2="209"/>
    <line x1="312" y1="209" x2="257" y2="376"/>
    <line x1="312" y1="209" x2="400" y2="480"/>
    <line x1="312" y1="209" x2="543" y2="376"/>
    <line x1="312" y1="209" x2="488" y2="209"/>
    <line x1="257" y1="376" x2="400" y2="480"/>
    <line x1="257" y1="376" x2="543" y2="376"/>
    <line x1="257" y1="376" x2="488" y2="209"/>
    <line x1="400" y1="480" x2="543" y2="376"/>
    <line x1="400" y1="480" x2="488" y2="209"/>
  </g>

  <!-- ═══ DECADENCE CHORDS (4 lines + 1 self-point) ═══ -->
  <!-- 1↔9: (628,256)→(488,209) -->
  <line x1="628" y1="256" x2="488" y2="209" stroke="#fbbf24" stroke-width="2" stroke-opacity="0.5"/>
  <!-- 2↔8: (541,524)→(543,376) -->
  <line x1="541" y1="524" x2="543" y2="376" stroke="#fbbf24" stroke-width="2" stroke-opacity="0.5"/>
  <!-- 3↔7: (259,524)→(400,480) -->
  <line x1="259" y1="524" x2="400" y2="480" stroke="#fbbf24" stroke-width="2" stroke-opacity="0.5"/>
  <!-- 4↔6: (172,256)→(257,376) -->
  <line x1="172" y1="256" x2="257" y2="376" stroke="#fbbf24" stroke-width="2" stroke-opacity="0.5"/>
  <!-- 5::5 self-decadence (just the node) -->

  <!-- ═══ INNER PENTAGON ═══ -->
  <!-- Z9→Z8→Z7→Z6→Z5→Z9 -->
  <line x1="488" y1="209" x2="543" y2="376" stroke="#22d3ee" stroke-width="1" stroke-opacity="0.3"/>
  <line x1="543" y1="376" x2="400" y2="480" stroke="#22d3ee" stroke-width="1" stroke-opacity="0.3"/>
  <line x1="400" y1="480" x2="257" y2="376" stroke="#22d3ee" stroke-width="1" stroke-opacity="0.3"/>
  <line x1="257" y1="376" x2="312" y2="209" stroke="#22d3ee" stroke-width="1" stroke-opacity="0.3"/>
  <line x1="312" y1="209" x2="488" y2="209" stroke="#22d3ee" stroke-width="1" stroke-opacity="0.3"/>

  <!-- ═══ PENTAGRAM EDGES ═══ -->
  <!-- Z0→Z2→Z4→Z1→Z3→Z0 -->
  <line x1="400" y1="90" x2="541" y2="524" stroke="#22d3ee" stroke-width="2.5" stroke-opacity="0.8"/>
  <line x1="541" y1="524" x2="172" y2="256" stroke="#22d3ee" stroke-width="2.5" stroke-opacity="0.8"/>
  <line x1="172" y1="256" x2="628" y2="256" stroke="#22d3ee" stroke-width="2.5" stroke-opacity="0.8"/>
  <line x1="628" y1="256" x2="259" y2="524" stroke="#22d3ee" stroke-width="2.5" stroke-opacity="0.8"/>
  <line x1="259" y1="524" x2="400" y2="90" stroke="#22d3ee" stroke-width="2.5" stroke-opacity="0.8"/>

  <!-- ═══ SYZYGY SPOKES ═══ -->
  <!-- Z0(400,90)↔Z9(488,209) -->
  <line x1="400" y1="90" x2="488" y2="209" stroke="#22d3ee" stroke-width="3" stroke-opacity="0.9"/>
  <!-- Z1(628,256)↔Z8(543,376) -->
  <line x1="628" y1="256" x2="543" y2="376" stroke="#22d3ee" stroke-width="3" stroke-opacity="0.9"/>
  <!-- Z2(541,524)↔Z7(400,480) -->
  <line x1="541" y1="524" x2="400" y2="480" stroke="#22d3ee" stroke-width="3" stroke-opacity="0.9"/>
  <!-- Z3(259,524)↔Z6(257,376) -->
  <line x1="259" y1="524" x2="257" y2="376" stroke="#22d3ee" stroke-width="3" stroke-opacity="0.9"/>
  <!-- Z4(172,256)↔Z5(312,209) -->
  <line x1="172" y1="256" x2="312" y2="209" stroke="#22d3ee" stroke-width="3" stroke-opacity="0.9"/>

  <!-- ═══ SYZYGY LABELS (at midpoints of spokes) ═══ -->
  <text x="448" y="152" fill="#22d3ee" font-size="8" font-weight="600">0::9</text>
  <text x="582" y="318" fill="#22d3ee" font-size="8" font-weight="600">1::8</text>
  <text x="470" y="504" fill="#22d3ee" font-size="8" font-weight="600">2::7</text>
  <text x="254" y="452" fill="#22d3ee" font-size="8" font-weight="600">3::6</text>
  <text x="238" y="234" fill="#22d3ee" font-size="8" font-weight="600">4::5</text>

  <!-- ═══ DECADENCE LABELS (at midpoints of lines) ═══ -->
  <text x="556" y="230" fill="#fbbf24" font-size="7">1↔9</text>
  <text x="546" y="450" fill="#fbbf24" font-size="7">2↔8</text>
  <text x="330" y="500" fill="#fbbf24" font-size="7">3↔7</text>
  <text x="214" y="318" fill="#fbbf24" font-size="7">4↔6</text>

  <!-- ═══ OUTER ZONE NODES ═══ -->

  <!-- Z0 (400,90) -->
  <circle cx="400" cy="90" r="24" fill="#0f172a" stroke="#94a3b8" stroke-width="2"/>
  <circle cx="400" cy="90" r="21" fill="rgba(30,41,59,0.4)"/>
  <text x="400" y="96" fill="#94a3b8" font-size="16" font-weight="700" text-anchor="middle">0</text>
  <text x="400" y="68" fill="#94a3b8" font-size="9" font-weight="600" text-anchor="middle">VOID</text>

  <!-- Z1 (628,256) -->
  <circle cx="628" cy="256" r="24" fill="#0f172a" stroke="#fbbf24" stroke-width="2"/>
  <circle cx="628" cy="256" r="21" fill="rgba(120,53,15,0.2)"/>
  <text x="628" y="262" fill="#fbbf24" font-size="16" font-weight="700" text-anchor="middle">1</text>
  <text x="658" y="248" fill="#fbbf24" font-size="9" font-weight="600">SURGE</text>

  <!-- Z2 (541,524) -->
  <circle cx="541" cy="524" r="24" fill="#0f172a" stroke="#34d399" stroke-width="2"/>
  <circle cx="541" cy="524" r="21" fill="rgba(6,78,59,0.2)"/>
  <text x="541" y="530" fill="#34d399" font-size="16" font-weight="700" text-anchor="middle">2</text>
  <text x="570" y="552" fill="#34d399" font-size="9" font-weight="600">SEPARATION</text>

  <!-- Z3 (259,524) -->
  <circle cx="259" cy="524" r="24" fill="#0f172a" stroke="#e879f9" stroke-width="2"/>
  <circle cx="259" cy="524" r="21" fill="rgba(76,29,149,0.2)"/>
  <text x="259" y="530" fill="#e879f9" font-size="16" font-weight="700" text-anchor="middle">3</text>
  <text x="230" y="552" fill="#e879f9" font-size="9" font-weight="600">RELEASE</text>

  <!-- Z4 (172,256) -->
  <circle cx="172" cy="256" r="24" fill="#0f172a" stroke="#00ffff" stroke-width="2"/>
  <circle cx="172" cy="256" r="21" fill="rgba(8,51,68,0.2)"/>
  <text x="172" y="262" fill="#00ffff" font-size="16" font-weight="700" text-anchor="middle">4</text>
  <text x="142" y="248" fill="#00ffff" font-size="9" font-weight="600">GATE</text>

  <!-- ═══ INNER ZONE NODES ═══ -->

  <!-- Z9 (488,209) -->
  <circle cx="488" cy="209" r="18" fill="#0f172a" stroke="#a855f7" stroke-width="1.5"/>
  <circle cx="488" cy="209" r="15" fill="rgba(76,29,149,0.2)"/>
  <text x="488" y="214" fill="#a855f7" font-size="13" font-weight="700" text-anchor="middle">9</text>
  <text x="508" y="202" fill="#a855f7" font-size="8">PLEX</text>

  <!-- Z8 (543,376) -->
  <circle cx="543" cy="376" r="18" fill="#0f172a" stroke="#c084fc" stroke-width="1.5"/>
  <circle cx="543" cy="376" r="15" fill="rgba(76,29,149,0.2)"/>
  <text x="543" y="381" fill="#c084fc" font-size="13" font-weight="700" text-anchor="middle">8</text>
  <text x="563" y="370" fill="#c084fc" font-size="8">MULTIPLICITY</text>

  <!-- Z7 (400,480) -->
  <circle cx="400" cy="480" r="18" fill="#0f172a" stroke="#fb7185" stroke-width="1.5"/>
  <circle cx="400" cy="480" r="15" fill="rgba(136,19,55,0.2)"/>
  <text x="400" y="485" fill="#fb7185" font-size="13" font-weight="700" text-anchor="middle">7</text>
  <text x="400" y="506" fill="#fb7185" font-size="8" text-anchor="middle">BLOOD</text>

  <!-- Z6 (257,376) -->
  <circle cx="257" cy="376" r="18" fill="#0f172a" stroke="#60a5fa" stroke-width="1.5"/>
  <circle cx="257" cy="376" r="15" fill="rgba(59,130,246,0.2)"/>
  <text x="257" y="381" fill="#60a5fa" font-size="13" font-weight="700" text-anchor="middle">6</text>
  <text x="237" y="370" fill="#60a5fa" font-size="8">ABSTRACTION</text>

  <!-- Z5 (312,209) -->
  <circle cx="312" cy="209" r="18" fill="#0f172a" stroke="#34d399" stroke-width="1.5"/>
  <circle cx="312" cy="209" r="15" fill="rgba(6,78,59,0.2)"/>
  <text x="312" y="214" fill="#34d399" font-size="13" font-weight="700" text-anchor="middle">5</text>
  <text x="292" y="202" fill="#34d399" font-size="8">PRESSURE</text>

  <!-- ═══ CENTER ═══ -->
  <text x="400" y="325" fill="#475569" font-size="10" font-weight="600" text-anchor="middle">C(10,2)</text>
  <text x="400" y="342" fill="#475569" font-size="18" font-weight="700" text-anchor="middle">= 45</text>

  <!-- ═══ LEGEND ═══ -->
  <rect x="60" y="590" width="680" height="55" rx="6" fill="rgba(15,23,42,0.95)" stroke="#1e293b" stroke-width="1"/>
  <text x="75" y="608" fill="#94a3b8" font-size="9" font-weight="600">LEGEND</text>

  <circle cx="140" cy="605" r="6" fill="rgba(30,41,59,0.4)" stroke="#22d3ee" stroke-width="2"/>
  <text x="155" y="609" fill="#22d3ee" font-size="8">Outer (star point)</text>

  <circle cx="265" cy="605" r="5" fill="rgba(30,41,59,0.4)" stroke="#22d3ee" stroke-width="1.5"/>
  <text x="280" y="609" fill="#22d3ee" font-size="8">Inner (valley)</text>

  <line x1="360" y1="605" x2="385" y2="605" stroke="#22d3ee" stroke-width="2.5" stroke-opacity="0.8"/>
  <text x="395" y="609" fill="#22d3ee" font-size="8">Pentagram</text>

  <line x1="460" y1="605" x2="485" y2="605" stroke="#22d3ee" stroke-width="3" stroke-opacity="0.9"/>
  <text x="495" y="609" fill="#22d3ee" font-size="8">Syzygy (9)</text>

  <line x1="565" y1="605" x2="590" y2="605" stroke="#fbbf24" stroke-width="2" stroke-opacity="0.5"/>
  <text x="600" y="609" fill="#fbbf24" font-size="8">Decadence (10)</text>

  <text x="75" y="632" fill="#475569" font-size="7">Outer: 0,1,2,3,4 · Inner: 5,6,7,8,9 · Star: 0→2→4→1→3→0 · Syzygy spokes connect pairs · Decadence chords cross interior · 45 total connections</text>

</svg>
