<?xml version="1.0" encoding="UTF-8" standalone="no"?>
<!DOCTYPE svg PUBLIC "-//W3C//DTD SVG 1.1//EN"
 "http://www.w3.org/Graphics/SVG/1.1/DTD/svg11.dtd">
<!-- Generated by graphviz version 14.1.5 (0)
 -->
<!-- Title: Numogram Pages: 1 -->
<svg width="1267pt" height="459pt"
 viewBox="0.00 0.00 1267.00 459.00" xmlns="http://www.w3.org/2000/svg" xmlns:xlink="http://www.w3.org/1999/xlink">
<g id="graph0" class="graph" transform="scale(1 1) rotate(0) translate(4 455.25)">
<title>Numogram</title>
<polygon fill="white" stroke="none" points="-4,4 -4,-455.25 1262.79,-455.25 1262.79,4 -4,4"/>
<!-- 0 -->
<g id="node1" class="node">
<title>0</title>
<ellipse fill="#bf3f3f" stroke="black" cx="30.05" cy="-84" rx="30.05" ry="30.05"/>
<text xml:space="preserve" text-anchor="middle" x="30.05" y="-87.95" font-family="Times,serif" font-size="14.00" fill="white">0</text>
<text xml:space="preserve" text-anchor="middle" x="30.05" y="-70.7" font-family="Times,serif" font-size="14.00" fill="white">0</text>
</g>
<!-- B -->
<g id="node12" class="node">
<title>B</title>
<ellipse fill="#7428e7" stroke="black" cx="166.66" cy="-124" rx="30.05" ry="30.05"/>
<text xml:space="preserve" text-anchor="middle" x="166.66" y="-127.95" font-family="Times,serif" font-size="14.00" fill="white">B</text>
<text xml:space="preserve" text-anchor="middle" x="166.66" y="-110.7" font-family="Times,serif" font-size="14.00" fill="white">11</text>
</g>
<!-- 0&#45;&gt;B -->
<g id="edge1" class="edge">
<title>0&#45;&gt;B</title>
<path fill="none" stroke="red" stroke-dasharray="5,2" d="M59.92,-79.45C77.42,-77.85 99.91,-77.89 118.6,-84.75 125,-87.1 131.14,-90.73 136.76,-94.85"/>
<polygon fill="red" stroke="red" points="134.53,-97.55 144.49,-101.17 138.95,-92.13 134.53,-97.55"/>
<text xml:space="preserve" text-anchor="middle" x="98.35" y="-88.7" font-family="Times,serif" font-size="14.00">Σ=11</text>
</g>
<!-- 0&#45;&gt;B -->
<g id="edge7" class="edge">
<title>0&#45;&gt;B</title>
<path fill="none" stroke="blue" stroke-width="2" d="M58.23,-95.03C64.69,-97.47 71.6,-99.95 78.1,-102 93.59,-106.89 110.88,-111.42 125.97,-115.09"/>
<polygon fill="blue" stroke="blue" stroke-width="2" points="123.54,-118.11 134.08,-117.02 125.16,-111.3 123.54,-118.11"/>
<text xml:space="preserve" text-anchor="middle" x="98.35" y="-117.22" font-family="Times,serif" font-size="14.00">C=11</text>
</g>
<!-- 1 -->
<g id="node2" class="node">
<title>1</title>
<ellipse fill="#e77428" stroke="black" cx="430.11" cy="-343" rx="30.05" ry="30.05"/>
<text xml:space="preserve" text-anchor="middle" x="430.11" y="-346.95" font-family="Times,serif" font-size="14.00" fill="white">1</text>
<text xml:space="preserve" text-anchor="middle" x="430.11" y="-329.7" font-family="Times,serif" font-size="14.00" fill="white">1</text>
</g>
<!-- 9 -->
<g id="node10" class="node">
<title>9</title>
<ellipse fill="#4788ea" stroke="black" cx="565.97" cy="-278" rx="30.05" ry="30.05"/>
<text xml:space="preserve" text-anchor="middle" x="565.97" y="-281.95" font-family="Times,serif" font-size="14.00" fill="white">9</text>
<text xml:space="preserve" text-anchor="middle" x="565.97" y="-264.7" font-family="Times,serif" font-size="14.00" fill="white">9</text>
</g>
<!-- 1&#45;&gt;9 -->
<g id="edge8" class="edge">
<title>1&#45;&gt;9</title>
<path fill="none" stroke="blue" stroke-width="2" d="M454.93,-325.75C462.19,-320.88 470.33,-315.81 478.17,-311.75 493.41,-303.84 510.95,-296.69 526.25,-291.02"/>
<polygon fill="blue" stroke="blue" stroke-width="2" points="525.87,-294.88 534.09,-288.19 523.49,-288.29 525.87,-294.88"/>
<text xml:space="preserve" text-anchor="middle" x="498.04" y="-315.7" font-family="Times,serif" font-size="14.00">C=9</text>
</g>
<!-- A -->
<g id="node11" class="node">
<title>A</title>
<ellipse fill="#5959c7" stroke="black" cx="965.28" cy="-283" rx="30.05" ry="30.05"/>
<text xml:space="preserve" text-anchor="middle" x="965.28" y="-286.95" font-family="Times,serif" font-size="14.00" fill="white">A</text>
<text xml:space="preserve" text-anchor="middle" x="965.28" y="-269.7" font-family="Times,serif" font-size="14.00" fill="white">10</text>
</g>
<!-- 1&#45;&gt;A -->
<g id="edge2" class="edge">
<title>1&#45;&gt;A</title>
<path fill="none" stroke="red" stroke-dasharray="5,2" d="M460.62,-343C487.74,-343 529.06,-343 564.97,-343 564.97,-343 564.97,-343 830.43,-343 867.46,-343 905.61,-323.64 931.66,-306.91"/>
<polygon fill="red" stroke="red" points="933.38,-309.97 939.77,-301.52 929.5,-304.15 933.38,-309.97"/>
<text xml:space="preserve" text-anchor="middle" x="693.57" y="-346.95" font-family="Times,serif" font-size="14.00">Σ=11</text>
</g>
<!-- 2 -->
<g id="node3" class="node">
<title>2</title>
<ellipse fill="#c7b159" stroke="black" cx="430.11" cy="-212" rx="30.05" ry="30.05"/>
<text xml:space="preserve" text-anchor="middle" x="430.11" y="-215.95" font-family="Times,serif" font-size="14.00" fill="white">2</text>
<text xml:space="preserve" text-anchor="middle" x="430.11" y="-198.7" font-family="Times,serif" font-size="14.00" fill="white">2</text>
</g>
<!-- 3 -->
<g id="node4" class="node">
<title>3</title>
<ellipse fill="#c9ea47" stroke="black" cx="965.28" cy="-129" rx="30.05" ry="30.05"/>
<text xml:space="preserve" text-anchor="middle" x="965.28" y="-132.95" font-family="Times,serif" font-size="14.00" fill="white">3</text>
<text xml:space="preserve" text-anchor="middle" x="965.28" y="-115.7" font-family="Times,serif" font-size="14.00" fill="white">3</text>
</g>
<!-- 2&#45;&gt;3 -->
<g id="edge18" class="edge">
<title>2&#45;&gt;3</title>
<path fill="none" stroke="green" stroke-dasharray="1,5" d="M458.91,-203.14C519.82,-184.19 669.94,-140.1 799.37,-123 851.31,-116.14 865.03,-116.59 917.23,-121 919.55,-121.2 921.93,-121.45 924.33,-121.73"/>
<polygon fill="green" stroke="green" points="923.62,-125.17 934.02,-123.11 924.61,-118.24 923.62,-125.17"/>
<text xml:space="preserve" text-anchor="middle" x="693.57" y="-151.83" font-family="Times,serif" font-size="14.00">Gt&#45;3</text>
</g>
<!-- 7 -->
<g id="node8" class="node">
<title>7</title>
<ellipse fill="#66eed2" stroke="black" cx="693.57" cy="-216" rx="30.05" ry="30.05"/>
<text xml:space="preserve" text-anchor="middle" x="693.57" y="-219.95" font-family="Times,serif" font-size="14.00" fill="white">7</text>
<text xml:space="preserve" text-anchor="middle" x="693.57" y="-202.7" font-family="Times,serif" font-size="14.00" fill="white">7</text>
</g>
<!-- 2&#45;&gt;7 -->
<g id="edge9" class="edge">
<title>2&#45;&gt;7</title>
<path fill="none" stroke="blue" stroke-width="2" d="M460.6,-212.45C507.41,-213.17 598.84,-214.57 651.86,-215.38"/>
<polygon fill="blue" stroke="blue" stroke-width="2" points="650.12,-218.85 660.17,-215.5 650.22,-211.85 650.12,-218.85"/>
<text xml:space="preserve" text-anchor="middle" x="565.97" y="-218.41" font-family="Times,serif" font-size="14.00">C=7</text>
</g>
<!-- 2&#45;&gt;9 -->
<g id="edge3" class="edge">
<title>2&#45;&gt;9</title>
<path fill="none" stroke="red" stroke-dasharray="5,2" d="M459.13,-221.55C476.46,-227.86 498.95,-236.79 517.92,-246.75 522.43,-249.12 527.06,-251.82 531.56,-254.62"/>
<polygon fill="red" stroke="red" points="529.56,-257.49 539.86,-259.98 533.36,-251.61 529.56,-257.49"/>
<text xml:space="preserve" text-anchor="middle" x="498.04" y="-250.7" font-family="Times,serif" font-size="14.00">Σ=11</text>
</g>
<!-- 5 -->
<g id="node6" class="node">
<title>5</title>
<ellipse fill="#66ee66" stroke="black" cx="1228.74" cy="-207" rx="30.05" ry="30.05"/>
<text xml:space="preserve" text-anchor="middle" x="1228.74" y="-210.95" font-family="Times,serif" font-size="14.00" fill="white">5</text>
<text xml:space="preserve" text-anchor="middle" x="1228.74" y="-193.7" font-family="Times,serif" font-size="14.00" fill="white">5</text>
</g>
<!-- 3&#45;&gt;5 -->
<g id="edge10" class="edge">
<title>3&#45;&gt;5</title>
<path fill="none" stroke="blue" stroke-width="2" d="M987.16,-150.21C994.8,-156.86 1003.91,-163.61 1013.33,-168 1069.84,-194.33 1142.43,-202.92 1186.99,-205.7"/>
<polygon fill="blue" stroke="blue" stroke-width="2" points="1185.04,-209.1 1195.21,-206.15 1185.42,-202.11 1185.04,-209.1"/>
<text xml:space="preserve" text-anchor="middle" x="1101.13" y="-203.8" font-family="Times,serif" font-size="14.00">C=5</text>
</g>
<!-- 6 -->
<g id="node7" class="node">
<title>6</title>
<ellipse fill="#8cd8aa" stroke="black" cx="302.51" cy="-278" rx="30.05" ry="30.05"/>
<text xml:space="preserve" text-anchor="middle" x="302.51" y="-281.95" font-family="Times,serif" font-size="14.00" fill="white">6</text>
<text xml:space="preserve" text-anchor="middle" x="302.51" y="-264.7" font-family="Times,serif" font-size="14.00" fill="white">6</text>
</g>
<!-- 3&#45;&gt;6 -->
<g id="edge19" class="edge">
<title>3&#45;&gt;6</title>
<path fill="none" stroke="green" stroke-dasharray="1,5" d="M944.9,-106.93C920.79,-82.04 877.07,-45 830.43,-45 429.11,-45 429.11,-45 429.11,-45 343.06,-45 315.69,-169.67 307.2,-236.62"/>
<polygon fill="green" stroke="green" points="303.73,-236.17 306.04,-246.51 310.68,-236.99 303.73,-236.17"/>
<text xml:space="preserve" text-anchor="middle" x="629.77" y="-48.95" font-family="Times,serif" font-size="14.00">Gt&#45;6</text>
</g>
<!-- 8 -->
<g id="node9" class="node">
<title>8</title>
<ellipse fill="#72bdd0" stroke="black" cx="1101.13" cy="-88" rx="30.05" ry="30.05"/>
<text xml:space="preserve" text-anchor="middle" x="1101.13" y="-91.95" font-family="Times,serif" font-size="14.00" fill="white">8</text>
<text xml:space="preserve" text-anchor="middle" x="1101.13" y="-74.7" font-family="Times,serif" font-size="14.00" fill="white">8</text>
</g>
<!-- 3&#45;&gt;8 -->
<g id="edge4" class="edge">
<title>3&#45;&gt;8</title>
<path fill="none" stroke="red" stroke-dasharray="5,2" d="M994.34,-120.41C1013.79,-114.45 1039.95,-106.43 1061.39,-99.87"/>
<polygon fill="red" stroke="red" points="1062.13,-103.3 1070.66,-97.03 1060.08,-96.61 1062.13,-103.3"/>
<text xml:space="preserve" text-anchor="middle" x="1033.21" y="-118.52" font-family="Times,serif" font-size="14.00">Σ=11</text>
</g>
<!-- 4 -->
<g id="node5" class="node">
<title>4</title>
<ellipse fill="#98d072" stroke="black" cx="829.43" cy="-194" rx="30.05" ry="30.05"/>
<text xml:space="preserve" text-anchor="middle" x="829.43" y="-197.95" font-family="Times,serif" font-size="14.00" fill="white">4</text>
<text xml:space="preserve" text-anchor="middle" x="829.43" y="-180.7" font-family="Times,serif" font-size="14.00" fill="white">4</text>
</g>
<!-- 4&#45;&gt;3 -->
<g id="edge11" class="edge">
<title>4&#45;&gt;3</title>
<path fill="none" stroke="blue" stroke-width="2" d="M856.87,-181.16C877.13,-171.32 905.31,-157.63 927.73,-146.75"/>
<polygon fill="blue" stroke="blue" stroke-width="2" points="927.7,-150.65 935.17,-143.14 924.64,-144.36 927.7,-150.65"/>
<text xml:space="preserve" text-anchor="middle" x="897.35" y="-175.07" font-family="Times,serif" font-size="14.00">C=3</text>
</g>
<!-- 4&#45;&gt;7 -->
<g id="edge5" class="edge">
<title>4&#45;&gt;7</title>
<path fill="none" stroke="red" stroke-dasharray="5,2" d="M800.89,-183.33C783.54,-178.17 760.86,-174.34 741.62,-180.75 735.81,-182.69 730.14,-185.65 724.86,-189.05"/>
<polygon fill="red" stroke="red" points="723.15,-185.97 717.07,-194.65 727.24,-191.66 723.15,-185.97"/>
<text xml:space="preserve" text-anchor="middle" x="761.5" y="-184.7" font-family="Times,serif" font-size="14.00">Σ=11</text>
</g>
<!-- 4&#45;&gt;A -->
<g id="edge20" class="edge">
<title>4&#45;&gt;A</title>
<path fill="none" stroke="green" stroke-dasharray="1,5" d="M858.7,-201.56C876.56,-207.21 899.51,-216.14 917.23,-228.75 925.41,-234.57 933.09,-242.09 939.79,-249.67"/>
<polygon fill="green" stroke="green" points="937.1,-251.91 946.19,-257.34 942.47,-247.42 937.1,-251.91"/>
<text xml:space="preserve" text-anchor="middle" x="897.35" y="-232.7" font-family="Times,serif" font-size="14.00">Gt&#45;10</text>
</g>
<!-- 5&#45;&gt;1 -->
<g id="edge12" class="edge">
<title>5&#45;&gt;1</title>
<path fill="none" stroke="blue" stroke-width="2" d="M1221.64,-236.65C1209.11,-288.22 1175.27,-389 1102.13,-389 564.97,-389 564.97,-389 564.97,-389 530.41,-389 493.43,-375.12 467.12,-362.61"/>
<polygon fill="blue" stroke="blue" stroke-width="2" points="470.11,-360.18 459.59,-358.89 467.01,-366.46 470.11,-360.18"/>
<text xml:space="preserve" text-anchor="middle" x="829.43" y="-392.95" font-family="Times,serif" font-size="14.00">C=1</text>
</g>
<!-- 5&#45;&gt;3 -->
<g id="edge21" class="edge">
<title>5&#45;&gt;3</title>
<path fill="none" stroke="green" stroke-dasharray="1,5" d="M1201.1,-194.86C1181.94,-186.46 1155.32,-175.44 1131.19,-167.75 1089.33,-154.41 1040.17,-143.45 1006.48,-136.62"/>
<polygon fill="green" stroke="green" points="1007.22,-133.2 996.73,-134.68 1005.86,-140.07 1007.22,-133.2"/>
<text xml:space="preserve" text-anchor="middle" x="1101.13" y="-171.7" font-family="Times,serif" font-size="14.00">Gt&#45;15</text>
</g>
<!-- 5&#45;&gt;6 -->
<g id="edge6" class="edge">
<title>5&#45;&gt;6</title>
<path fill="none" stroke="red" stroke-dasharray="5,2" d="M1224.99,-237.14C1217.55,-298.89 1191.09,-434 1102.13,-434 429.11,-434 429.11,-434 429.11,-434 369.4,-434 333.28,-363.8 315.97,-317.58"/>
<polygon fill="red" stroke="red" points="319.35,-316.63 312.68,-308.4 312.76,-319 319.35,-316.63"/>
<text xml:space="preserve" text-anchor="middle" x="761.5" y="-437.95" font-family="Times,serif" font-size="14.00">Σ=11</text>
</g>
<!-- 6&#45;&gt;1 -->
<g id="edge13" class="edge">
<title>6&#45;&gt;1</title>
<path fill="none" stroke="blue" stroke-width="2" d="M329.84,-291.63C348.1,-301.07 372.64,-313.78 392.76,-324.19"/>
<polygon fill="blue" stroke="blue" stroke-width="2" points="389.64,-326.51 400.13,-328 392.86,-320.3 389.64,-326.51"/>
<text xml:space="preserve" text-anchor="middle" x="366.31" y="-322.18" font-family="Times,serif" font-size="14.00">C=1</text>
</g>
<!-- 6&#45;&gt;9 -->
<g id="edge22" class="edge">
<title>6&#45;&gt;9</title>
<path fill="none" stroke="green" stroke-dasharray="1,5" d="M332.99,-278C379.8,-278 471.23,-278 524.26,-278"/>
<polygon fill="green" stroke="green" points="524.08,-281.5 534.08,-278 524.08,-274.5 524.08,-281.5"/>
<text xml:space="preserve" text-anchor="middle" x="430.11" y="-281.95" font-family="Times,serif" font-size="14.00">Gt&#45;21</text>
</g>
<!-- 7&#45;&gt;3 -->
<g id="edge14" class="edge">
<title>7&#45;&gt;3</title>
<path fill="none" stroke="blue" stroke-width="2" d="M714.57,-194.31C734.02,-175 765.54,-148.24 799.37,-137.75 840.28,-125.07 889.6,-124.21 923.59,-125.69"/>
<polygon fill="blue" stroke="blue" stroke-width="2" points="921.73,-129.1 931.9,-126.14 922.11,-122.11 921.73,-129.1"/>
<text xml:space="preserve" text-anchor="middle" x="829.43" y="-141.7" font-family="Times,serif" font-size="14.00">C=3</text>
</g>
<!-- 7&#45;&gt;4 -->
<g id="edge23" class="edge">
<title>7&#45;&gt;4</title>
<path fill="none" stroke="green" stroke-dasharray="1,5" d="M723.62,-211.23C742.56,-208.11 767.54,-204.01 788.36,-200.58"/>
<polygon fill="green" stroke="green" points="788.65,-204.09 797.95,-199.01 787.51,-197.18 788.65,-204.09"/>
<text xml:space="preserve" text-anchor="middle" x="761.5" y="-212.21" font-family="Times,serif" font-size="14.00">Gt&#45;28</text>
</g>
<!-- 8&#45;&gt;0 -->
<g id="edge24" class="edge">
<title>8&#45;&gt;0</title>
<path fill="none" stroke="green" stroke-dasharray="1,5" d="M1081.39,-65.34C1057.58,-39.26 1013.84,0 966.28,0 165.66,0 165.66,0 165.66,0 123.58,0 83.8,-29.9 58.55,-54.02"/>
<polygon fill="green" stroke="green" points="56.28,-51.34 51.64,-60.87 61.21,-56.32 56.28,-51.34"/>
<text xml:space="preserve" text-anchor="middle" x="565.97" y="-3.95" font-family="Times,serif" font-size="14.00">Gt&#45;36</text>
</g>
<!-- 8&#45;&gt;5 -->
<g id="edge15" class="edge">
<title>8&#45;&gt;5</title>
<path fill="none" stroke="blue" stroke-width="2" d="M1130.45,-95.61C1146.63,-101.07 1166.47,-109.79 1180.69,-122.75 1194.5,-135.34 1205.21,-152.96 1212.9,-168.83"/>
<polygon fill="blue" stroke="blue" stroke-width="2" points="1208.92,-168.54 1216.26,-176.18 1215.29,-165.63 1208.92,-168.54"/>
<text xml:space="preserve" text-anchor="middle" x="1164.94" y="-126.7" font-family="Times,serif" font-size="14.00">C=5</text>
</g>
<!-- 9&#45;&gt;7 -->
<g id="edge16" class="edge">
<title>9&#45;&gt;7</title>
<path fill="none" stroke="blue" stroke-width="2" d="M593.3,-265C611.55,-255.99 636.1,-243.88 656.22,-233.95"/>
<polygon fill="blue" stroke="blue" stroke-width="2" points="656.14,-237.88 663.56,-230.32 653.05,-231.61 656.14,-237.88"/>
<text xml:space="preserve" text-anchor="middle" x="629.77" y="-258.33" font-family="Times,serif" font-size="14.00">C=7</text>
</g>
<!-- A&#45;&gt;7 -->
<g id="edge25" class="edge">
<title>A&#45;&gt;7</title>
<path fill="none" stroke="green" stroke-dasharray="1,5" d="M935.68,-276.73C893.18,-267.28 810.91,-248.54 741.62,-230 738.89,-229.27 736.07,-228.49 733.23,-227.69"/>
<polygon fill="green" stroke="green" points="734.4,-224.38 723.82,-224.97 732.45,-231.11 734.4,-224.38"/>
<text xml:space="preserve" text-anchor="middle" x="829.43" y="-263.22" font-family="Times,serif" font-size="14.00">Gt&#45;55</text>
</g>
<!-- A&#45;&gt;9 -->
<g id="edge17" class="edge">
<title>A&#45;&gt;9</title>
<path fill="none" stroke="blue" stroke-width="2" d="M934.95,-282.67C918.13,-282.48 896.62,-282.23 877.48,-282 780.9,-280.83 667.42,-279.34 608,-278.55"/>
<polygon fill="blue" stroke="blue" stroke-width="2" points="609.58,-275.07 599.54,-278.43 609.49,-282.07 609.58,-275.07"/>
<text xml:space="preserve" text-anchor="middle" x="761.5" y="-284.72" font-family="Times,serif" font-size="14.00">C=9</text>
</g>
<!-- B&#45;&gt;6 -->
<g id="edge26" class="edge">
<title>B&#45;&gt;6</title>
<path fill="none" stroke="green" stroke-dasharray="1,5" d="M187.12,-146.39C210.22,-172.97 248.85,-217.42 274.75,-247.22"/>
<polygon fill="green" stroke="green" points="271.83,-249.19 281.03,-254.44 277.11,-244.59 271.83,-249.19"/>
<text xml:space="preserve" text-anchor="middle" x="234.58" y="-227.74" font-family="Times,serif" font-size="14.00">Gt&#45;66</text>
</g>
</g>
</svg>
