<?xml version="1.0" encoding="UTF-8" standalone="no"?>
<!DOCTYPE svg PUBLIC "-//W3C//DTD SVG 1.1//EN"
 "http://www.w3.org/Graphics/SVG/1.1/DTD/svg11.dtd">
<!-- Generated by graphviz version 14.1.5 (0)
 -->
<!-- Title: Numogram Pages: 1 -->
<svg width="1122pt" height="252pt"
 viewBox="0.00 0.00 1122.00 252.00" xmlns="http://www.w3.org/2000/svg" xmlns:xlink="http://www.w3.org/1999/xlink">
<g id="graph0" class="graph" transform="scale(1 1) rotate(0) translate(4 248.25)">
<title>Numogram</title>
<polygon fill="white" stroke="none" points="-4,4 -4,-248.25 1117.94,-248.25 1117.94,4 -4,4"/>
<!-- 0 -->
<g id="node1" class="node">
<title>0</title>
<ellipse fill="#000000" stroke="black" cx="165.91" cy="-165" rx="30.05" ry="30.05"/>
<text xml:space="preserve" text-anchor="middle" x="165.91" y="-168.95" font-family="Times,serif" font-size="14.00" fill="white">0</text>
<text xml:space="preserve" text-anchor="middle" x="165.91" y="-151.7" font-family="Times,serif" font-size="14.00" fill="white">0</text>
</g>
<!-- 9 -->
<g id="node10" class="node">
<title>9</title>
<ellipse fill="#c8c8c8" stroke="black" cx="293.51" cy="-161" rx="30.05" ry="30.05"/>
<text xml:space="preserve" text-anchor="middle" x="293.51" y="-164.95" font-family="Times,serif" font-size="14.00" fill="white">9</text>
<text xml:space="preserve" text-anchor="middle" x="293.51" y="-147.7" font-family="Times,serif" font-size="14.00" fill="white">9</text>
</g>
<!-- 0&#45;&gt;9 -->
<g id="edge1" class="edge">
<title>0&#45;&gt;9</title>
<path fill="none" stroke="red" stroke-dasharray="5,2" d="M194.42,-154.49C200.75,-152.53 207.51,-150.77 213.96,-149.75 226.67,-147.74 240.56,-148.7 253.08,-150.72"/>
<polygon fill="red" stroke="red" points="252.16,-154.11 262.63,-152.54 253.47,-147.23 252.16,-154.11"/>
<text xml:space="preserve" text-anchor="middle" x="229.71" y="-153.7" font-family="Times,serif" font-size="14.00">Σ=9</text>
</g>
<!-- 0&#45;&gt;9 -->
<g id="edge6" class="edge">
<title>0&#45;&gt;9</title>
<path fill="none" stroke="blue" stroke-width="2" d="M196.03,-166.97C210.84,-167.66 229.12,-168.04 245.46,-167 247.65,-166.86 249.89,-166.69 252.15,-166.48"/>
<polygon fill="blue" stroke="blue" stroke-width="2" points="250.86,-170.14 260.44,-165.61 250.13,-163.18 250.86,-170.14"/>
<text xml:space="preserve" text-anchor="middle" x="229.71" y="-171.59" font-family="Times,serif" font-size="14.00">C=9</text>
</g>
<!-- 1 -->
<g id="node2" class="node">
<title>1</title>
<ellipse fill="#c86432" stroke="black" cx="556.97" cy="-149" rx="30.05" ry="30.05"/>
<text xml:space="preserve" text-anchor="middle" x="556.97" y="-152.95" font-family="Times,serif" font-size="14.00" fill="white">1</text>
<text xml:space="preserve" text-anchor="middle" x="556.97" y="-135.7" font-family="Times,serif" font-size="14.00" fill="white">1</text>
</g>
<!-- 7 -->
<g id="node8" class="node">
<title>7</title>
<ellipse fill="#326496" stroke="black" cx="684.57" cy="-83" rx="30.05" ry="30.05"/>
<text xml:space="preserve" text-anchor="middle" x="684.57" y="-86.95" font-family="Times,serif" font-size="14.00" fill="white">7</text>
<text xml:space="preserve" text-anchor="middle" x="684.57" y="-69.7" font-family="Times,serif" font-size="14.00" fill="white">7</text>
</g>
<!-- 1&#45;&gt;7 -->
<g id="edge7" class="edge">
<title>1&#45;&gt;7</title>
<path fill="none" stroke="blue" stroke-width="2" d="M581.9,-131.97C589.17,-127.11 597.28,-121.99 605.02,-117.75 617.89,-110.69 632.48,-103.93 645.56,-98.27"/>
<polygon fill="blue" stroke="blue" stroke-width="2" points="645.49,-102.1 653.34,-94.98 642.76,-95.65 645.49,-102.1"/>
<text xml:space="preserve" text-anchor="middle" x="620.77" y="-121.7" font-family="Times,serif" font-size="14.00">C=7</text>
</g>
<!-- 8 -->
<g id="node9" class="node">
<title>8</title>
<ellipse fill="#969632" stroke="black" cx="820.43" cy="-117" rx="30.05" ry="30.05"/>
<text xml:space="preserve" text-anchor="middle" x="820.43" y="-120.95" font-family="Times,serif" font-size="14.00" fill="white">8</text>
<text xml:space="preserve" text-anchor="middle" x="820.43" y="-103.7" font-family="Times,serif" font-size="14.00" fill="white">8</text>
</g>
<!-- 1&#45;&gt;8 -->
<g id="edge2" class="edge">
<title>1&#45;&gt;8</title>
<path fill="none" stroke="red" stroke-dasharray="5,2" d="M587.2,-146.63C628.55,-143.1 706.46,-135.82 772.37,-126 774.69,-125.66 777.06,-125.28 779.45,-124.88"/>
<polygon fill="red" stroke="red" points="779.9,-128.35 789.14,-123.16 778.68,-121.46 779.9,-128.35"/>
<text xml:space="preserve" text-anchor="middle" x="684.57" y="-144.15" font-family="Times,serif" font-size="14.00">Σ=9</text>
</g>
<!-- 2 -->
<g id="node3" class="node">
<title>2</title>
<ellipse fill="#3296c8" stroke="black" cx="293.51" cy="-38" rx="30.05" ry="30.05"/>
<text xml:space="preserve" text-anchor="middle" x="293.51" y="-41.95" font-family="Times,serif" font-size="14.00" fill="white">2</text>
<text xml:space="preserve" text-anchor="middle" x="293.51" y="-24.7" font-family="Times,serif" font-size="14.00" fill="white">2</text>
</g>
<!-- 3 -->
<g id="node4" class="node">
<title>3</title>
<ellipse fill="#64c864" stroke="black" cx="1083.88" cy="-77" rx="30.05" ry="30.05"/>
<text xml:space="preserve" text-anchor="middle" x="1083.88" y="-80.95" font-family="Times,serif" font-size="14.00" fill="white">3</text>
<text xml:space="preserve" text-anchor="middle" x="1083.88" y="-63.7" font-family="Times,serif" font-size="14.00" fill="white">3</text>
</g>
<!-- 2&#45;&gt;3 -->
<g id="edge14" class="edge">
<title>2&#45;&gt;3</title>
<path fill="none" stroke="green" stroke-dasharray="1,5" d="M321.31,-25.66C347.89,-14.57 390.08,0 428.36,0 428.36,0 428.36,0 957.28,0 995.1,0 1031.13,-25.68 1054.82,-47.38"/>
<polygon fill="green" stroke="green" points="1052.22,-49.74 1061.87,-54.1 1057.04,-44.67 1052.22,-49.74"/>
<text xml:space="preserve" text-anchor="middle" x="684.57" y="-3.95" font-family="Times,serif" font-size="14.00">Gt&#45;3</text>
</g>
<!-- 5 -->
<g id="node6" class="node">
<title>5</title>
<ellipse fill="#c83232" stroke="black" cx="429.36" cy="-103" rx="30.05" ry="30.05"/>
<text xml:space="preserve" text-anchor="middle" x="429.36" y="-106.95" font-family="Times,serif" font-size="14.00" fill="white">5</text>
<text xml:space="preserve" text-anchor="middle" x="429.36" y="-89.7" font-family="Times,serif" font-size="14.00" fill="white">5</text>
</g>
<!-- 2&#45;&gt;5 -->
<g id="edge8" class="edge">
<title>2&#45;&gt;5</title>
<path fill="none" stroke="blue" stroke-width="2" d="M322.54,-47.17C339.88,-53.26 362.37,-61.92 381.31,-71.75 385.84,-74.1 390.47,-76.78 394.98,-79.57"/>
<polygon fill="blue" stroke="blue" stroke-width="2" points="391.71,-81.63 402.01,-84.11 395.5,-75.75 391.71,-81.63"/>
<text xml:space="preserve" text-anchor="middle" x="361.44" y="-75.7" font-family="Times,serif" font-size="14.00">C=5</text>
</g>
<!-- 2&#45;&gt;7 -->
<g id="edge3" class="edge">
<title>2&#45;&gt;7</title>
<path fill="none" stroke="red" stroke-dasharray="5,2" d="M323.75,-41.38C392.42,-49.32 564.09,-69.18 642.88,-78.29"/>
<polygon fill="red" stroke="red" points="642.42,-81.76 652.75,-79.44 643.22,-74.81 642.42,-81.76"/>
<text xml:space="preserve" text-anchor="middle" x="493.17" y="-66.52" font-family="Times,serif" font-size="14.00">Σ=9</text>
</g>
<!-- 6 -->
<g id="node7" class="node">
<title>6</title>
<ellipse fill="#643296" stroke="black" cx="956.28" cy="-117" rx="30.05" ry="30.05"/>
<text xml:space="preserve" text-anchor="middle" x="956.28" y="-120.95" font-family="Times,serif" font-size="14.00" fill="white">6</text>
<text xml:space="preserve" text-anchor="middle" x="956.28" y="-103.7" font-family="Times,serif" font-size="14.00" fill="white">6</text>
</g>
<!-- 3&#45;&gt;6 -->
<g id="edge4" class="edge">
<title>3&#45;&gt;6</title>
<path fill="none" stroke="red" stroke-dasharray="5,2" d="M1057.2,-62.15C1041.39,-55.06 1021.02,-49.69 1004.33,-57.75 993.69,-62.89 984.71,-71.74 977.55,-81.05"/>
<polygon fill="red" stroke="red" points="974.73,-78.97 971.86,-89.16 980.47,-82.99 974.73,-78.97"/>
<text xml:space="preserve" text-anchor="middle" x="1020.08" y="-61.7" font-family="Times,serif" font-size="14.00">Σ=9</text>
</g>
<!-- 3&#45;&gt;6 -->
<g id="edge15" class="edge">
<title>3&#45;&gt;6</title>
<path fill="none" stroke="green" stroke-dasharray="1,5" d="M1062.28,-98.5C1054.65,-105.05 1045.49,-111.45 1035.83,-115 1023.87,-119.4 1010.18,-120.85 997.62,-120.93"/>
<polygon fill="green" stroke="green" points="998.07,-117.44 987.99,-120.69 997.9,-124.44 998.07,-117.44"/>
<text xml:space="preserve" text-anchor="middle" x="1020.08" y="-124.7" font-family="Times,serif" font-size="14.00">Gt&#45;6</text>
</g>
<!-- 4 -->
<g id="node5" class="node">
<title>4</title>
<ellipse fill="#965032" stroke="black" cx="30.05" cy="-165" rx="30.05" ry="30.05"/>
<text xml:space="preserve" text-anchor="middle" x="30.05" y="-168.95" font-family="Times,serif" font-size="14.00" fill="white">4</text>
<text xml:space="preserve" text-anchor="middle" x="30.05" y="-151.7" font-family="Times,serif" font-size="14.00" fill="white">4</text>
</g>
<!-- 4&#45;&gt;0 -->
<g id="edge16" class="edge">
<title>4&#45;&gt;0</title>
<path fill="none" stroke="green" stroke-dasharray="1,5" d="M60.43,-165C79.17,-165 103.72,-165 124.32,-165"/>
<polygon fill="green" stroke="green" points="124.09,-168.5 134.09,-165 124.09,-161.5 124.09,-168.5"/>
<text xml:space="preserve" text-anchor="middle" x="97.98" y="-168.95" font-family="Times,serif" font-size="14.00">Gt&#45;10</text>
</g>
<!-- 4&#45;&gt;1 -->
<g id="edge9" class="edge">
<title>4&#45;&gt;1</title>
<path fill="none" stroke="blue" stroke-width="2" d="M54.22,-183.27C79.78,-201.56 122.91,-227 164.91,-227 164.91,-227 164.91,-227 430.36,-227 468.31,-227 504.32,-200.99 527.97,-179"/>
<polygon fill="blue" stroke="blue" stroke-width="2" points="529.17,-182.71 533.93,-173.25 524.31,-177.68 529.17,-182.71"/>
<text xml:space="preserve" text-anchor="middle" x="293.51" y="-230.95" font-family="Times,serif" font-size="14.00">C=1</text>
</g>
<!-- 4&#45;&gt;5 -->
<g id="edge5" class="edge">
<title>4&#45;&gt;5</title>
<path fill="none" stroke="red" stroke-dasharray="5,2" d="M57.57,-152.79C78.39,-143.78 108.37,-132.07 135.85,-126 224.09,-106.51 330.48,-102.99 387.51,-102.66"/>
<polygon fill="red" stroke="red" points="387.4,-106.16 397.39,-102.64 387.39,-99.16 387.4,-106.16"/>
<text xml:space="preserve" text-anchor="middle" x="229.71" y="-116.76" font-family="Times,serif" font-size="14.00">Σ=9</text>
</g>
<!-- 5&#45;&gt;1 -->
<g id="edge10" class="edge">
<title>5&#45;&gt;1</title>
<path fill="none" stroke="blue" stroke-width="2" d="M457.93,-113.09C475.52,-119.54 498.56,-127.97 517.88,-135.05"/>
<polygon fill="blue" stroke="blue" stroke-width="2" points="515.03,-137.74 525.63,-137.89 517.44,-131.16 515.03,-137.74"/>
<text xml:space="preserve" text-anchor="middle" x="493.17" y="-135.42" font-family="Times,serif" font-size="14.00">C=1</text>
</g>
<!-- 6&#45;&gt;1 -->
<g id="edge17" class="edge">
<title>6&#45;&gt;1</title>
<path fill="none" stroke="green" stroke-dasharray="1,5" d="M928.91,-129.96C908.16,-139.37 878.23,-151.25 850.48,-156 764.61,-170.69 741.6,-163.64 654.52,-161 632.49,-160.33 626.89,-160.74 605.02,-158 602.7,-157.71 600.32,-157.37 597.92,-157.01"/>
<polygon fill="green" stroke="green" points="598.68,-153.58 588.23,-155.36 597.51,-160.49 598.68,-153.58"/>
<text xml:space="preserve" text-anchor="middle" x="752.5" y="-168.97" font-family="Times,serif" font-size="14.00">Gt&#45;21</text>
</g>
<!-- 6&#45;&gt;3 -->
<g id="edge11" class="edge">
<title>6&#45;&gt;3</title>
<path fill="none" stroke="blue" stroke-width="2" d="M984.42,-105.19C990.89,-102.58 997.81,-99.94 1004.33,-97.75 1016.83,-93.56 1030.66,-89.67 1043.19,-86.41"/>
<polygon fill="blue" stroke="blue" stroke-width="2" points="1042.49,-90.2 1051.33,-84.35 1040.77,-83.42 1042.49,-90.2"/>
<text xml:space="preserve" text-anchor="middle" x="1020.08" y="-101.7" font-family="Times,serif" font-size="14.00">C=3</text>
</g>
<!-- 7&#45;&gt;5 -->
<g id="edge12" class="edge">
<title>7&#45;&gt;5</title>
<path fill="none" stroke="blue" stroke-width="2" d="M654.09,-84.45C622.58,-86.09 571.18,-89.03 526.92,-92.75 508.49,-94.3 488.13,-96.4 470.87,-98.3"/>
<polygon fill="blue" stroke="blue" stroke-width="2" points="472.04,-94.65 462.49,-99.24 472.82,-101.61 472.04,-94.65"/>
<text xml:space="preserve" text-anchor="middle" x="556.97" y="-96.7" font-family="Times,serif" font-size="14.00">C=5</text>
</g>
<!-- 7&#45;&gt;8 -->
<g id="edge18" class="edge">
<title>7&#45;&gt;8</title>
<path fill="none" stroke="green" stroke-dasharray="1,5" d="M713.43,-73.58C730.9,-69.21 753.59,-66.43 772.37,-73.75 779.6,-76.57 786.38,-81.07 792.43,-86.12"/>
<polygon fill="green" stroke="green" points="789.9,-88.55 799.62,-92.77 794.65,-83.41 789.9,-88.55"/>
<text xml:space="preserve" text-anchor="middle" x="752.5" y="-77.7" font-family="Times,serif" font-size="14.00">Gt&#45;28</text>
</g>
<!-- 8&#45;&gt;6 -->
<g id="edge19" class="edge">
<title>8&#45;&gt;6</title>
<path fill="none" stroke="green" stroke-dasharray="1,5" d="M850.8,-117C869.54,-117 894.1,-117 914.69,-117"/>
<polygon fill="green" stroke="green" points="914.46,-120.5 924.46,-117 914.46,-113.5 914.46,-120.5"/>
<text xml:space="preserve" text-anchor="middle" x="888.35" y="-120.95" font-family="Times,serif" font-size="14.00">Gt&#45;36</text>
</g>
<!-- 8&#45;&gt;7 -->
<g id="edge13" class="edge">
<title>8&#45;&gt;7</title>
<path fill="none" stroke="blue" stroke-width="2" d="M790.88,-109.78C773.95,-105.49 752.06,-99.94 732.62,-95 730.17,-94.38 727.64,-93.73 725.09,-93.08"/>
<polygon fill="blue" stroke="blue" stroke-width="2" points="727.42,-90.07 716.87,-90.99 725.69,-96.85 727.42,-90.07"/>
<text xml:space="preserve" text-anchor="middle" x="752.5" y="-108.62" font-family="Times,serif" font-size="14.00">C=7</text>
</g>
<!-- 9&#45;&gt;5 -->
<g id="edge20" class="edge">
<title>9&#45;&gt;5</title>
<path fill="none" stroke="green" stroke-dasharray="1,5" d="M321.6,-149.26C341.55,-140.62 368.94,-128.75 390.98,-119.2"/>
<polygon fill="green" stroke="green" points="392.14,-122.51 399.93,-115.32 389.36,-116.09 392.14,-122.51"/>
<text xml:space="preserve" text-anchor="middle" x="361.44" y="-144.53" font-family="Times,serif" font-size="14.00">Gt&#45;45</text>
</g>
</g>
</svg>
