<svg xmlns="http://www.w3.org/2000/svg" viewBox="0 0 820 620">
  <style>
    @import url('https://fonts.googleapis.com/css2?family=JetBrains+Mono:wght@400;500;600;700&amp;display=swap');
    text { font-family: 'JetBrains Mono', monospace; }
  </style>
  <defs>
    <pattern id="grid" width="40" height="40" patternUnits="userSpaceOnUse">
      <path d="M 40 0 L 0 0 0 40" fill="none" stroke="#1e293b" stroke-width="0.5"/>
    </pattern>
  </defs>
  <rect width="100%" height="100%" fill="#0f172a"/>
  <rect width="100%" height="100%" fill="url(#grid)"/>
  <text x="30" y="30" fill="#94a3b8" font-size="10" font-weight="400">TRIGRAM PAIR MATRIX · 8×8 = 64 HEXAGRAMS</text>
  <text x="30" y="50" fill="white" font-size="16" font-weight="700">THE 64 HEXAGRAMS</text>
  <text x="30" y="67" fill="#64748b" font-size="9">Upper trigram (rows) × Lower trigram (columns) → hexagram number. Each cell colored by numogram zone.</text>
  <text x="170" y="98" fill="#94a3b8" font-size="10" font-weight="600" text-anchor="middle">☰ Qian</text>
  <text x="170" y="110" fill="#64748b" font-size="7" text-anchor="middle">Metal</text>
  <text x="240" y="98" fill="#94a3b8" font-size="10" font-weight="600" text-anchor="middle">☴ Xun</text>
  <text x="240" y="110" fill="#64748b" font-size="7" text-anchor="middle">Wood</text>
  <text x="310" y="98" fill="#94a3b8" font-size="10" font-weight="600" text-anchor="middle">☲ Li</text>
  <text x="310" y="110" fill="#64748b" font-size="7" text-anchor="middle">Fire</text>
  <text x="380" y="98" fill="#94a3b8" font-size="10" font-weight="600" text-anchor="middle">☶ Gen</text>
  <text x="380" y="110" fill="#64748b" font-size="7" text-anchor="middle">Earth</text>
  <text x="450" y="98" fill="#94a3b8" font-size="10" font-weight="600" text-anchor="middle">☱ Dui</text>
  <text x="450" y="110" fill="#64748b" font-size="7" text-anchor="middle">Metal</text>
  <text x="520" y="98" fill="#94a3b8" font-size="10" font-weight="600" text-anchor="middle">☵ Kan</text>
  <text x="520" y="110" fill="#64748b" font-size="7" text-anchor="middle">Water</text>
  <text x="590" y="98" fill="#94a3b8" font-size="10" font-weight="600" text-anchor="middle">☳ Zhen</text>
  <text x="590" y="110" fill="#64748b" font-size="7" text-anchor="middle">Wood</text>
  <text x="660" y="98" fill="#94a3b8" font-size="10" font-weight="600" text-anchor="middle">☷ Kun</text>
  <text x="660" y="110" fill="#64748b" font-size="7" text-anchor="middle">Earth</text>
  <text x="100" y="104" fill="#64748b" font-size="8" font-weight="500">Lower →</text>
  <text x="50" y="150" fill="#94a3b8" font-size="10" font-weight="600" text-anchor="end">☰ Qian</text>
  <text x="50" y="162" fill="#64748b" font-size="7" text-anchor="end">Metal</text>
  <rect x="140" y="125" width="64" height="52" rx="4" fill="rgba(15,23,42,0.85)" stroke="#94a3b8" stroke-width="1" stroke-opacity="0.6"/>
  <text x="172" y="147" fill="#94a3b8" font-size="14" font-weight="700" text-anchor="middle">#1</text>
  <text x="172" y="169" fill="#94a3b8" font-size="8" text-anchor="middle">Z0</text>
  <rect x="210" y="125" width="64" height="52" rx="4" fill="rgba(15,23,42,0.85)" stroke="#fbbf24" stroke-width="1" stroke-opacity="0.6"/>
  <text x="242" y="147" fill="#fbbf24" font-size="14" font-weight="700" text-anchor="middle">#2</text>
  <text x="242" y="169" fill="#94a3b8" font-size="8" text-anchor="middle">Z1</text>
  <rect x="280" y="125" width="64" height="52" rx="4" fill="rgba(15,23,42,0.85)" stroke="#34d399" stroke-width="1" stroke-opacity="0.6"/>
  <text x="312" y="147" fill="#34d399" font-size="14" font-weight="700" text-anchor="middle">#3</text>
  <text x="312" y="169" fill="#94a3b8" font-size="8" text-anchor="middle">Z2</text>
  <rect x="350" y="125" width="64" height="52" rx="4" fill="rgba(15,23,42,0.85)" stroke="#e879f9" stroke-width="1" stroke-opacity="0.6"/>
  <text x="382" y="147" fill="#e879f9" font-size="14" font-weight="700" text-anchor="middle">#4</text>
  <text x="382" y="169" fill="#94a3b8" font-size="8" text-anchor="middle">Z3</text>
  <rect x="420" y="125" width="64" height="52" rx="4" fill="rgba(15,23,42,0.85)" stroke="#00ffff" stroke-width="1" stroke-opacity="0.6"/>
  <text x="452" y="147" fill="#00ffff" font-size="14" font-weight="700" text-anchor="middle">#5</text>
  <text x="452" y="169" fill="#94a3b8" font-size="8" text-anchor="middle">Z4</text>
  <rect x="490" y="125" width="64" height="52" rx="4" fill="rgba(15,23,42,0.85)" stroke="#34d399" stroke-width="1" stroke-opacity="0.6"/>
  <text x="522" y="147" fill="#34d399" font-size="14" font-weight="700" text-anchor="middle">#6</text>
  <text x="522" y="169" fill="#94a3b8" font-size="8" text-anchor="middle">Z5</text>
  <rect x="560" y="125" width="64" height="52" rx="4" fill="rgba(15,23,42,0.85)" stroke="#60a5fa" stroke-width="1" stroke-opacity="0.6"/>
  <text x="592" y="147" fill="#60a5fa" font-size="14" font-weight="700" text-anchor="middle">#7</text>
  <text x="592" y="169" fill="#94a3b8" font-size="8" text-anchor="middle">Z6</text>
  <rect x="630" y="125" width="64" height="52" rx="4" fill="rgba(15,23,42,0.85)" stroke="#fb7185" stroke-width="1" stroke-opacity="0.6"/>
  <text x="662" y="147" fill="#fb7185" font-size="14" font-weight="700" text-anchor="middle">#8</text>
  <text x="662" y="169" fill="#94a3b8" font-size="8" text-anchor="middle">Z7</text>
  <text x="50" y="208" fill="#94a3b8" font-size="10" font-weight="600" text-anchor="end">☴ Xun</text>
  <text x="50" y="220" fill="#64748b" font-size="7" text-anchor="end">Wood</text>
  <rect x="140" y="183" width="64" height="52" rx="4" fill="rgba(15,23,42,0.85)" stroke="#c084fc" stroke-width="1" stroke-opacity="0.6"/>
  <text x="172" y="205" fill="#c084fc" font-size="14" font-weight="700" text-anchor="middle">#9</text>
  <text x="172" y="227" fill="#94a3b8" font-size="8" text-anchor="middle">Z8</text>
  <rect x="210" y="183" width="64" height="52" rx="4" fill="rgba(15,23,42,0.85)" stroke="#a855f7" stroke-width="1" stroke-opacity="0.6"/>
  <text x="242" y="205" fill="#a855f7" font-size="14" font-weight="700" text-anchor="middle">#10</text>
  <text x="242" y="227" fill="#94a3b8" font-size="8" text-anchor="middle">Z9</text>
  <rect x="280" y="183" width="64" height="52" rx="4" fill="rgba(15,23,42,0.85)" stroke="#fbbf24" stroke-width="1" stroke-opacity="0.6"/>
  <text x="312" y="205" fill="#fbbf24" font-size="14" font-weight="700" text-anchor="middle">#11</text>
  <text x="312" y="227" fill="#94a3b8" font-size="8" text-anchor="middle">Z1</text>
  <rect x="350" y="183" width="64" height="52" rx="4" fill="rgba(15,23,42,0.85)" stroke="#34d399" stroke-width="1" stroke-opacity="0.6"/>
  <text x="382" y="205" fill="#34d399" font-size="14" font-weight="700" text-anchor="middle">#12</text>
  <text x="382" y="227" fill="#94a3b8" font-size="8" text-anchor="middle">Z2</text>
  <rect x="420" y="183" width="64" height="52" rx="4" fill="rgba(15,23,42,0.85)" stroke="#e879f9" stroke-width="1" stroke-opacity="0.6"/>
  <text x="452" y="205" fill="#e879f9" font-size="14" font-weight="700" text-anchor="middle">#13</text>
  <text x="452" y="227" fill="#94a3b8" font-size="8" text-anchor="middle">Z3</text>
  <rect x="490" y="183" width="64" height="52" rx="4" fill="rgba(15,23,42,0.85)" stroke="#00ffff" stroke-width="1" stroke-opacity="0.6"/>
  <text x="522" y="205" fill="#00ffff" font-size="14" font-weight="700" text-anchor="middle">#14</text>
  <text x="522" y="227" fill="#94a3b8" font-size="8" text-anchor="middle">Z4</text>
  <rect x="560" y="183" width="64" height="52" rx="4" fill="rgba(15,23,42,0.85)" stroke="#34d399" stroke-width="1" stroke-opacity="0.6"/>
  <text x="592" y="205" fill="#34d399" font-size="14" font-weight="700" text-anchor="middle">#15</text>
  <text x="592" y="227" fill="#94a3b8" font-size="8" text-anchor="middle">Z5</text>
  <rect x="630" y="183" width="64" height="52" rx="4" fill="rgba(15,23,42,0.85)" stroke="#60a5fa" stroke-width="1" stroke-opacity="0.6"/>
  <text x="662" y="205" fill="#60a5fa" font-size="14" font-weight="700" text-anchor="middle">#16</text>
  <text x="662" y="227" fill="#94a3b8" font-size="8" text-anchor="middle">Z6</text>
  <text x="50" y="266" fill="#94a3b8" font-size="10" font-weight="600" text-anchor="end">☲ Li</text>
  <text x="50" y="278" fill="#64748b" font-size="7" text-anchor="end">Fire</text>
  <rect x="140" y="241" width="64" height="52" rx="4" fill="rgba(15,23,42,0.85)" stroke="#fb7185" stroke-width="1" stroke-opacity="0.6"/>
  <text x="172" y="263" fill="#fb7185" font-size="14" font-weight="700" text-anchor="middle">#17</text>
  <text x="172" y="285" fill="#94a3b8" font-size="8" text-anchor="middle">Z7</text>
  <rect x="210" y="241" width="64" height="52" rx="4" fill="rgba(15,23,42,0.85)" stroke="#c084fc" stroke-width="1" stroke-opacity="0.6"/>
  <text x="242" y="263" fill="#c084fc" font-size="14" font-weight="700" text-anchor="middle">#18</text>
  <text x="242" y="285" fill="#94a3b8" font-size="8" text-anchor="middle">Z8</text>
  <rect x="280" y="241" width="64" height="52" rx="4" fill="rgba(15,23,42,0.85)" stroke="#a855f7" stroke-width="1" stroke-opacity="0.6"/>
  <text x="312" y="263" fill="#a855f7" font-size="14" font-weight="700" text-anchor="middle">#19</text>
  <text x="312" y="285" fill="#94a3b8" font-size="8" text-anchor="middle">Z9</text>
  <rect x="350" y="241" width="64" height="52" rx="4" fill="rgba(15,23,42,0.85)" stroke="#fbbf24" stroke-width="1" stroke-opacity="0.6"/>
  <text x="382" y="263" fill="#fbbf24" font-size="14" font-weight="700" text-anchor="middle">#20</text>
  <text x="382" y="285" fill="#94a3b8" font-size="8" text-anchor="middle">Z1</text>
  <rect x="420" y="241" width="64" height="52" rx="4" fill="rgba(15,23,42,0.85)" stroke="#34d399" stroke-width="1" stroke-opacity="0.6"/>
  <text x="452" y="263" fill="#34d399" font-size="14" font-weight="700" text-anchor="middle">#21</text>
  <text x="452" y="285" fill="#94a3b8" font-size="8" text-anchor="middle">Z2</text>
  <rect x="490" y="241" width="64" height="52" rx="4" fill="rgba(15,23,42,0.85)" stroke="#e879f9" stroke-width="1" stroke-opacity="0.6"/>
  <text x="522" y="263" fill="#e879f9" font-size="14" font-weight="700" text-anchor="middle">#22</text>
  <text x="522" y="285" fill="#94a3b8" font-size="8" text-anchor="middle">Z3</text>
  <rect x="560" y="241" width="64" height="52" rx="4" fill="rgba(15,23,42,0.85)" stroke="#00ffff" stroke-width="1" stroke-opacity="0.6"/>
  <text x="592" y="263" fill="#00ffff" font-size="14" font-weight="700" text-anchor="middle">#23</text>
  <text x="592" y="285" fill="#94a3b8" font-size="8" text-anchor="middle">Z4</text>
  <rect x="630" y="241" width="64" height="52" rx="4" fill="rgba(15,23,42,0.85)" stroke="#34d399" stroke-width="1" stroke-opacity="0.6"/>
  <text x="662" y="263" fill="#34d399" font-size="14" font-weight="700" text-anchor="middle">#24</text>
  <text x="662" y="285" fill="#94a3b8" font-size="8" text-anchor="middle">Z5</text>
  <text x="50" y="324" fill="#94a3b8" font-size="10" font-weight="600" text-anchor="end">☶ Gen</text>
  <text x="50" y="336" fill="#64748b" font-size="7" text-anchor="end">Earth</text>
  <rect x="140" y="299" width="64" height="52" rx="4" fill="rgba(15,23,42,0.85)" stroke="#60a5fa" stroke-width="1" stroke-opacity="0.6"/>
  <text x="172" y="321" fill="#60a5fa" font-size="14" font-weight="700" text-anchor="middle">#25</text>
  <text x="172" y="343" fill="#94a3b8" font-size="8" text-anchor="middle">Z6</text>
  <rect x="210" y="299" width="64" height="52" rx="4" fill="rgba(15,23,42,0.85)" stroke="#fb7185" stroke-width="1" stroke-opacity="0.6"/>
  <text x="242" y="321" fill="#fb7185" font-size="14" font-weight="700" text-anchor="middle">#26</text>
  <text x="242" y="343" fill="#94a3b8" font-size="8" text-anchor="middle">Z7</text>
  <rect x="280" y="299" width="64" height="52" rx="4" fill="rgba(15,23,42,0.85)" stroke="#c084fc" stroke-width="1" stroke-opacity="0.6"/>
  <text x="312" y="321" fill="#c084fc" font-size="14" font-weight="700" text-anchor="middle">#27</text>
  <text x="312" y="343" fill="#94a3b8" font-size="8" text-anchor="middle">Z8</text>
  <rect x="350" y="299" width="64" height="52" rx="4" fill="rgba(15,23,42,0.85)" stroke="#a855f7" stroke-width="1" stroke-opacity="0.6"/>
  <text x="382" y="321" fill="#a855f7" font-size="14" font-weight="700" text-anchor="middle">#28</text>
  <text x="382" y="343" fill="#94a3b8" font-size="8" text-anchor="middle">Z9</text>
  <rect x="420" y="299" width="64" height="52" rx="4" fill="rgba(15,23,42,0.85)" stroke="#fbbf24" stroke-width="1" stroke-opacity="0.6"/>
  <text x="452" y="321" fill="#fbbf24" font-size="14" font-weight="700" text-anchor="middle">#29</text>
  <text x="452" y="343" fill="#94a3b8" font-size="8" text-anchor="middle">Z1</text>
  <rect x="490" y="299" width="64" height="52" rx="4" fill="rgba(15,23,42,0.85)" stroke="#34d399" stroke-width="1" stroke-opacity="0.6"/>
  <text x="522" y="321" fill="#34d399" font-size="14" font-weight="700" text-anchor="middle">#30</text>
  <text x="522" y="343" fill="#94a3b8" font-size="8" text-anchor="middle">Z2</text>
  <rect x="560" y="299" width="64" height="52" rx="4" fill="rgba(15,23,42,0.85)" stroke="#e879f9" stroke-width="1" stroke-opacity="0.6"/>
  <text x="592" y="321" fill="#e879f9" font-size="14" font-weight="700" text-anchor="middle">#31</text>
  <text x="592" y="343" fill="#94a3b8" font-size="8" text-anchor="middle">Z3</text>
  <rect x="630" y="299" width="64" height="52" rx="4" fill="rgba(15,23,42,0.85)" stroke="#00ffff" stroke-width="1" stroke-opacity="0.6"/>
  <text x="662" y="321" fill="#00ffff" font-size="14" font-weight="700" text-anchor="middle">#32</text>
  <text x="662" y="343" fill="#94a3b8" font-size="8" text-anchor="middle">Z4</text>
  <text x="50" y="382" fill="#94a3b8" font-size="10" font-weight="600" text-anchor="end">☱ Dui</text>
  <text x="50" y="394" fill="#64748b" font-size="7" text-anchor="end">Metal</text>
  <rect x="140" y="357" width="64" height="52" rx="4" fill="rgba(15,23,42,0.85)" stroke="#34d399" stroke-width="1" stroke-opacity="0.6"/>
  <text x="172" y="379" fill="#34d399" font-size="14" font-weight="700" text-anchor="middle">#33</text>
  <text x="172" y="401" fill="#94a3b8" font-size="8" text-anchor="middle">Z5</text>
  <rect x="210" y="357" width="64" height="52" rx="4" fill="rgba(15,23,42,0.85)" stroke="#60a5fa" stroke-width="1" stroke-opacity="0.6"/>
  <text x="242" y="379" fill="#60a5fa" font-size="14" font-weight="700" text-anchor="middle">#34</text>
  <text x="242" y="401" fill="#94a3b8" font-size="8" text-anchor="middle">Z6</text>
  <rect x="280" y="357" width="64" height="52" rx="4" fill="rgba(15,23,42,0.85)" stroke="#fb7185" stroke-width="1" stroke-opacity="0.6"/>
  <text x="312" y="379" fill="#fb7185" font-size="14" font-weight="700" text-anchor="middle">#35</text>
  <text x="312" y="401" fill="#94a3b8" font-size="8" text-anchor="middle">Z7</text>
  <rect x="350" y="357" width="64" height="52" rx="4" fill="rgba(15,23,42,0.85)" stroke="#c084fc" stroke-width="1" stroke-opacity="0.6"/>
  <text x="382" y="379" fill="#c084fc" font-size="14" font-weight="700" text-anchor="middle">#36</text>
  <text x="382" y="401" fill="#94a3b8" font-size="8" text-anchor="middle">Z8</text>
  <rect x="420" y="357" width="64" height="52" rx="4" fill="rgba(15,23,42,0.85)" stroke="#a855f7" stroke-width="1" stroke-opacity="0.6"/>
  <text x="452" y="379" fill="#a855f7" font-size="14" font-weight="700" text-anchor="middle">#37</text>
  <text x="452" y="401" fill="#94a3b8" font-size="8" text-anchor="middle">Z9</text>
  <rect x="490" y="357" width="64" height="52" rx="4" fill="rgba(15,23,42,0.85)" stroke="#fbbf24" stroke-width="1" stroke-opacity="0.6"/>
  <text x="522" y="379" fill="#fbbf24" font-size="14" font-weight="700" text-anchor="middle">#38</text>
  <text x="522" y="401" fill="#94a3b8" font-size="8" text-anchor="middle">Z1</text>
  <rect x="560" y="357" width="64" height="52" rx="4" fill="rgba(15,23,42,0.85)" stroke="#34d399" stroke-width="1" stroke-opacity="0.6"/>
  <text x="592" y="379" fill="#34d399" font-size="14" font-weight="700" text-anchor="middle">#39</text>
  <text x="592" y="401" fill="#94a3b8" font-size="8" text-anchor="middle">Z2</text>
  <rect x="630" y="357" width="64" height="52" rx="4" fill="rgba(15,23,42,0.85)" stroke="#e879f9" stroke-width="1" stroke-opacity="0.6"/>
  <text x="662" y="379" fill="#e879f9" font-size="14" font-weight="700" text-anchor="middle">#40</text>
  <text x="662" y="401" fill="#94a3b8" font-size="8" text-anchor="middle">Z3</text>
  <text x="50" y="440" fill="#94a3b8" font-size="10" font-weight="600" text-anchor="end">☵ Kan</text>
  <text x="50" y="452" fill="#64748b" font-size="7" text-anchor="end">Water</text>
  <rect x="140" y="415" width="64" height="52" rx="4" fill="rgba(15,23,42,0.85)" stroke="#00ffff" stroke-width="1" stroke-opacity="0.6"/>
  <text x="172" y="437" fill="#00ffff" font-size="14" font-weight="700" text-anchor="middle">#41</text>
  <text x="172" y="459" fill="#94a3b8" font-size="8" text-anchor="middle">Z4</text>
  <rect x="210" y="415" width="64" height="52" rx="4" fill="rgba(15,23,42,0.85)" stroke="#34d399" stroke-width="1" stroke-opacity="0.6"/>
  <text x="242" y="437" fill="#34d399" font-size="14" font-weight="700" text-anchor="middle">#42</text>
  <text x="242" y="459" fill="#94a3b8" font-size="8" text-anchor="middle">Z5</text>
  <rect x="280" y="415" width="64" height="52" rx="4" fill="rgba(15,23,42,0.85)" stroke="#60a5fa" stroke-width="1" stroke-opacity="0.6"/>
  <text x="312" y="437" fill="#60a5fa" font-size="14" font-weight="700" text-anchor="middle">#43</text>
  <text x="312" y="459" fill="#94a3b8" font-size="8" text-anchor="middle">Z6</text>
  <rect x="350" y="415" width="64" height="52" rx="4" fill="rgba(15,23,42,0.85)" stroke="#fb7185" stroke-width="1" stroke-opacity="0.6"/>
  <text x="382" y="437" fill="#fb7185" font-size="14" font-weight="700" text-anchor="middle">#44</text>
  <text x="382" y="459" fill="#94a3b8" font-size="8" text-anchor="middle">Z7</text>
  <rect x="420" y="415" width="64" height="52" rx="4" fill="rgba(15,23,42,0.85)" stroke="#c084fc" stroke-width="1" stroke-opacity="0.6"/>
  <text x="452" y="437" fill="#c084fc" font-size="14" font-weight="700" text-anchor="middle">#45</text>
  <text x="452" y="459" fill="#94a3b8" font-size="8" text-anchor="middle">Z8</text>
  <rect x="490" y="415" width="64" height="52" rx="4" fill="rgba(15,23,42,0.85)" stroke="#a855f7" stroke-width="1" stroke-opacity="0.6"/>
  <text x="522" y="437" fill="#a855f7" font-size="14" font-weight="700" text-anchor="middle">#46</text>
  <text x="522" y="459" fill="#94a3b8" font-size="8" text-anchor="middle">Z9</text>
  <rect x="560" y="415" width="64" height="52" rx="4" fill="rgba(15,23,42,0.85)" stroke="#fbbf24" stroke-width="1" stroke-opacity="0.6"/>
  <text x="592" y="437" fill="#fbbf24" font-size="14" font-weight="700" text-anchor="middle">#47</text>
  <text x="592" y="459" fill="#94a3b8" font-size="8" text-anchor="middle">Z1</text>
  <rect x="630" y="415" width="64" height="52" rx="4" fill="rgba(15,23,42,0.85)" stroke="#34d399" stroke-width="1" stroke-opacity="0.6"/>
  <text x="662" y="437" fill="#34d399" font-size="14" font-weight="700" text-anchor="middle">#48</text>
  <text x="662" y="459" fill="#94a3b8" font-size="8" text-anchor="middle">Z2</text>
  <text x="50" y="498" fill="#94a3b8" font-size="10" font-weight="600" text-anchor="end">☳ Zhen</text>
  <text x="50" y="510" fill="#64748b" font-size="7" text-anchor="end">Wood</text>
  <rect x="140" y="473" width="64" height="52" rx="4" fill="rgba(15,23,42,0.85)" stroke="#e879f9" stroke-width="1" stroke-opacity="0.6"/>
  <text x="172" y="495" fill="#e879f9" font-size="14" font-weight="700" text-anchor="middle">#49</text>
  <text x="172" y="517" fill="#94a3b8" font-size="8" text-anchor="middle">Z3</text>
  <rect x="210" y="473" width="64" height="52" rx="4" fill="rgba(15,23,42,0.85)" stroke="#00ffff" stroke-width="1" stroke-opacity="0.6"/>
  <text x="242" y="495" fill="#00ffff" font-size="14" font-weight="700" text-anchor="middle">#50</text>
  <text x="242" y="517" fill="#94a3b8" font-size="8" text-anchor="middle">Z4</text>
  <rect x="280" y="473" width="64" height="52" rx="4" fill="rgba(15,23,42,0.85)" stroke="#34d399" stroke-width="1" stroke-opacity="0.6"/>
  <text x="312" y="495" fill="#34d399" font-size="14" font-weight="700" text-anchor="middle">#51</text>
  <text x="312" y="517" fill="#94a3b8" font-size="8" text-anchor="middle">Z5</text>
  <rect x="350" y="473" width="64" height="52" rx="4" fill="rgba(15,23,42,0.85)" stroke="#60a5fa" stroke-width="1" stroke-opacity="0.6"/>
  <text x="382" y="495" fill="#60a5fa" font-size="14" font-weight="700" text-anchor="middle">#52</text>
  <text x="382" y="517" fill="#94a3b8" font-size="8" text-anchor="middle">Z6</text>
  <rect x="420" y="473" width="64" height="52" rx="4" fill="rgba(15,23,42,0.85)" stroke="#fb7185" stroke-width="1" stroke-opacity="0.6"/>
  <text x="452" y="495" fill="#fb7185" font-size="14" font-weight="700" text-anchor="middle">#53</text>
  <text x="452" y="517" fill="#94a3b8" font-size="8" text-anchor="middle">Z7</text>
  <rect x="490" y="473" width="64" height="52" rx="4" fill="rgba(15,23,42,0.85)" stroke="#c084fc" stroke-width="1" stroke-opacity="0.6"/>
  <text x="522" y="495" fill="#c084fc" font-size="14" font-weight="700" text-anchor="middle">#54</text>
  <text x="522" y="517" fill="#94a3b8" font-size="8" text-anchor="middle">Z8</text>
  <rect x="560" y="473" width="64" height="52" rx="4" fill="rgba(15,23,42,0.85)" stroke="#a855f7" stroke-width="1" stroke-opacity="0.6"/>
  <text x="592" y="495" fill="#a855f7" font-size="14" font-weight="700" text-anchor="middle">#55</text>
  <text x="592" y="517" fill="#94a3b8" font-size="8" text-anchor="middle">Z9</text>
  <rect x="630" y="473" width="64" height="52" rx="4" fill="rgba(15,23,42,0.85)" stroke="#fbbf24" stroke-width="1" stroke-opacity="0.6"/>
  <text x="662" y="495" fill="#fbbf24" font-size="14" font-weight="700" text-anchor="middle">#56</text>
  <text x="662" y="517" fill="#94a3b8" font-size="8" text-anchor="middle">Z1</text>
  <text x="50" y="556" fill="#94a3b8" font-size="10" font-weight="600" text-anchor="end">☷ Kun</text>
  <text x="50" y="568" fill="#64748b" font-size="7" text-anchor="end">Earth</text>
  <rect x="140" y="531" width="64" height="52" rx="4" fill="rgba(15,23,42,0.85)" stroke="#34d399" stroke-width="1" stroke-opacity="0.6"/>
  <text x="172" y="553" fill="#34d399" font-size="14" font-weight="700" text-anchor="middle">#57</text>
  <text x="172" y="575" fill="#94a3b8" font-size="8" text-anchor="middle">Z2</text>
  <rect x="210" y="531" width="64" height="52" rx="4" fill="rgba(15,23,42,0.85)" stroke="#e879f9" stroke-width="1" stroke-opacity="0.6"/>
  <text x="242" y="553" fill="#e879f9" font-size="14" font-weight="700" text-anchor="middle">#58</text>
  <text x="242" y="575" fill="#94a3b8" font-size="8" text-anchor="middle">Z3</text>
  <rect x="280" y="531" width="64" height="52" rx="4" fill="rgba(15,23,42,0.85)" stroke="#00ffff" stroke-width="1" stroke-opacity="0.6"/>
  <text x="312" y="553" fill="#00ffff" font-size="14" font-weight="700" text-anchor="middle">#59</text>
  <text x="312" y="575" fill="#94a3b8" font-size="8" text-anchor="middle">Z4</text>
  <rect x="350" y="531" width="64" height="52" rx="4" fill="rgba(15,23,42,0.85)" stroke="#34d399" stroke-width="1" stroke-opacity="0.6"/>
  <text x="382" y="553" fill="#34d399" font-size="14" font-weight="700" text-anchor="middle">#60</text>
  <text x="382" y="575" fill="#94a3b8" font-size="8" text-anchor="middle">Z5</text>
  <rect x="420" y="531" width="64" height="52" rx="4" fill="rgba(15,23,42,0.85)" stroke="#60a5fa" stroke-width="1" stroke-opacity="0.6"/>
  <text x="452" y="553" fill="#60a5fa" font-size="14" font-weight="700" text-anchor="middle">#61</text>
  <text x="452" y="575" fill="#94a3b8" font-size="8" text-anchor="middle">Z6</text>
  <rect x="490" y="531" width="64" height="52" rx="4" fill="rgba(15,23,42,0.85)" stroke="#fb7185" stroke-width="1" stroke-opacity="0.6"/>
  <text x="522" y="553" fill="#fb7185" font-size="14" font-weight="700" text-anchor="middle">#62</text>
  <text x="522" y="575" fill="#94a3b8" font-size="8" text-anchor="middle">Z7</text>
  <rect x="560" y="531" width="64" height="52" rx="4" fill="rgba(15,23,42,0.85)" stroke="#c084fc" stroke-width="1" stroke-opacity="0.6"/>
  <text x="592" y="553" fill="#c084fc" font-size="14" font-weight="700" text-anchor="middle">#63</text>
  <text x="592" y="575" fill="#94a3b8" font-size="8" text-anchor="middle">Z8</text>
  <rect x="630" y="531" width="64" height="52" rx="4" fill="rgba(15,23,42,0.85)" stroke="#a855f7" stroke-width="1" stroke-opacity="0.6"/>
  <text x="662" y="553" fill="#a855f7" font-size="14" font-weight="700" text-anchor="middle">#64</text>
  <text x="662" y="575" fill="#94a3b8" font-size="8" text-anchor="middle">Z9</text>
  <rect x="30" y="570" width="760" height="36" rx="6" fill="rgba(15,23,42,0.95)" stroke="#1e293b" stroke-width="1"/>
  <text x="45" y="592" fill="#94a3b8" font-size="9" font-weight="600">PATTERN</text>
  <text x="120" y="592" fill="#64748b" font-size="8">Each row is the same zone sequence shifted by one. Diagonal bands of constant zone. Moving right = hex-1. Moving down = hex-8.</text>
</svg>