<?xml version="1.0" encoding="utf-8" standalone="no"?>
<!DOCTYPE svg PUBLIC "-//W3C//DTD SVG 1.1//EN"
  "http://www.w3.org/Graphics/SVG/1.1/DTD/svg11.dtd">
<svg xmlns:xlink="http://www.w3.org/1999/xlink" width="720pt" height="648pt" viewBox="0 0 720 648" xmlns="http://www.w3.org/2000/svg" version="1.1">
 <metadata>
  <rdf:RDF xmlns:dc="http://purl.org/dc/elements/1.1/" xmlns:cc="http://creativecommons.org/ns#" xmlns:rdf="http://www.w3.org/1999/02/22-rdf-syntax-ns#">
   <cc:Work>
    <dc:type rdf:resource="http://purl.org/dc/dcmitype/StillImage"/>
    <dc:date>2026-05-01T11:19:51.325217</dc:date>
    <dc:format>image/svg+xml</dc:format>
    <dc:creator>
     <cc:Agent>
      <dc:title>Matplotlib v3.10.9, https://matplotlib.org/</dc:title>
     </cc:Agent>
    </dc:creator>
   </cc:Work>
  </rdf:RDF>
 </metadata>
 <defs>
  <style type="text/css">*{stroke-linejoin: round; stroke-linecap: butt}</style>
 </defs>
 <g id="figure_1">
  <g id="patch_1">
   <path d="M 0 648 
L 720 648 
L 720 0 
L 0 0 
z
" style="fill: #0a0a0a"/>
  </g>
  <g id="axes_1">
   <g id="patch_2">
    <path d="M 120.4 606.04 
L 709.2 606.04 
L 709.2 37.6 
L 120.4 37.6 
z
"/>
   </g>
   <g id="patch_3">
    <path d="M 120.4 63.438182 
L 681.161905 63.438182 
L 681.161905 77.792727 
L 120.4 77.792727 
z
" clip-path="url(#pf54b6ee264)" style="fill: #0055ff; opacity: 0.85"/>
   </g>
   <g id="patch_4">
    <path d="M 120.4 81.381364 
L 645.20284 81.381364 
L 645.20284 95.735909 
L 120.4 95.735909 
z
" clip-path="url(#pf54b6ee264)" style="fill: #0055ff; opacity: 0.85"/>
   </g>
   <g id="patch_5">
    <path d="M 120.4 99.324545 
L 570.071843 99.324545 
L 570.071843 113.679091 
L 120.4 113.679091 
z
" clip-path="url(#pf54b6ee264)" style="fill: #0055ff; opacity: 0.85"/>
   </g>
   <g id="patch_6">
    <path d="M 120.4 117.267727 
L 558.971535 117.267727 
L 558.971535 131.622273 
L 120.4 131.622273 
z
" clip-path="url(#pf54b6ee264)" style="fill: #0055ff; opacity: 0.85"/>
   </g>
   <g id="patch_7">
    <path d="M 120.4 135.210909 
L 502.619853 135.210909 
L 502.619853 149.565455 
L 120.4 149.565455 
z
" clip-path="url(#pf54b6ee264)" style="fill: #0055ff; opacity: 0.85"/>
   </g>
   <g id="patch_8">
    <path d="M 120.4 153.154091 
L 204.411331 153.154091 
L 204.411331 167.508636 
L 120.4 167.508636 
z
" clip-path="url(#pf54b6ee264)" style="fill: #0055ff; opacity: 0.85"/>
   </g>
   <g id="patch_9">
    <path d="M 120.4 171.097273 
L 194.17935 171.097273 
L 194.17935 185.451818 
L 120.4 185.451818 
z
" clip-path="url(#pf54b6ee264)" style="fill: #0055ff; opacity: 0.85"/>
   </g>
   <g id="patch_10">
    <path d="M 120.4 189.040455 
L 190.855778 189.040455 
L 190.855778 203.395 
L 120.4 203.395 
z
" clip-path="url(#pf54b6ee264)" style="fill: #0055ff; opacity: 0.85"/>
   </g>
   <g id="patch_11">
    <path d="M 120.4 206.983636 
L 175.975145 206.983636 
L 175.975145 221.338182 
L 120.4 221.338182 
z
" clip-path="url(#pf54b6ee264)" style="fill: #0055ff; opacity: 0.85"/>
   </g>
   <g id="patch_12">
    <path d="M 120.4 224.926818 
L 173.840004 224.926818 
L 173.840004 239.281364 
L 120.4 239.281364 
z
" clip-path="url(#pf54b6ee264)" style="fill: #0055ff; opacity: 0.85"/>
   </g>
   <g id="patch_13">
    <path d="M 120.4 242.87 
L 154.818147 242.87 
L 154.818147 257.224545 
L 120.4 257.224545 
z
" clip-path="url(#pf54b6ee264)" style="fill: #0055ff; opacity: 0.85"/>
   </g>
   <g id="patch_14">
    <path d="M 120.4 260.813182 
L 145.050189 260.813182 
L 145.050189 275.167727 
L 120.4 275.167727 
z
" clip-path="url(#pf54b6ee264)" style="fill: #0055ff; opacity: 0.85"/>
   </g>
   <g id="patch_15">
    <path d="M 120.4 278.756364 
L 126.196272 278.756364 
L 126.196272 293.110909 
L 120.4 293.110909 
z
" clip-path="url(#pf54b6ee264)" style="fill: #0055ff; opacity: 0.85"/>
   </g>
   <g id="patch_16">
    <path d="M 120.4 296.699545 
L 121.137132 296.699545 
L 121.137132 311.054091 
L 120.4 311.054091 
z
" clip-path="url(#pf54b6ee264)" style="fill: #0055ff; opacity: 0.85"/>
   </g>
   <g id="patch_17">
    <path d="M 120.4 314.642727 
L 121.112112 314.642727 
L 121.112112 328.997273 
L 120.4 328.997273 
z
" clip-path="url(#pf54b6ee264)" style="fill: #0055ff; opacity: 0.85"/>
   </g>
   <g id="patch_18">
    <path d="M 120.4 332.585909 
L 120.4 332.585909 
L 120.4 346.940455 
L 120.4 346.940455 
z
" clip-path="url(#pf54b6ee264)" style="fill: #0055ff; opacity: 0.85"/>
   </g>
   <g id="patch_19">
    <path d="M 120.4 350.529091 
L 120.4 350.529091 
L 120.4 364.883636 
L 120.4 364.883636 
z
" clip-path="url(#pf54b6ee264)" style="fill: #0055ff; opacity: 0.85"/>
   </g>
   <g id="patch_20">
    <path d="M 120.4 368.472273 
L 120.4 368.472273 
L 120.4 382.826818 
L 120.4 382.826818 
z
" clip-path="url(#pf54b6ee264)" style="fill: #0055ff; opacity: 0.85"/>
   </g>
   <g id="patch_21">
    <path d="M 120.4 386.415455 
L 120.4 386.415455 
L 120.4 400.77 
L 120.4 400.77 
z
" clip-path="url(#pf54b6ee264)" style="fill: #0055ff; opacity: 0.85"/>
   </g>
   <g id="patch_22">
    <path d="M 120.4 404.358636 
L 120.4 404.358636 
L 120.4 418.713182 
L 120.4 418.713182 
z
" clip-path="url(#pf54b6ee264)" style="fill: #0055ff; opacity: 0.85"/>
   </g>
   <g id="patch_23">
    <path d="M 120.4 422.301818 
L 120.4 422.301818 
L 120.4 436.656364 
L 120.4 436.656364 
z
" clip-path="url(#pf54b6ee264)" style="fill: #0055ff; opacity: 0.85"/>
   </g>
   <g id="patch_24">
    <path d="M 120.4 440.245 
L 120.4 440.245 
L 120.4 454.599545 
L 120.4 454.599545 
z
" clip-path="url(#pf54b6ee264)" style="fill: #0055ff; opacity: 0.85"/>
   </g>
   <g id="patch_25">
    <path d="M 120.4 458.188182 
L 120.4 458.188182 
L 120.4 472.542727 
L 120.4 472.542727 
z
" clip-path="url(#pf54b6ee264)" style="fill: #0055ff; opacity: 0.85"/>
   </g>
   <g id="patch_26">
    <path d="M 120.4 476.131364 
L 120.4 476.131364 
L 120.4 490.485909 
L 120.4 490.485909 
z
" clip-path="url(#pf54b6ee264)" style="fill: #0055ff; opacity: 0.85"/>
   </g>
   <g id="patch_27">
    <path d="M 120.4 494.074545 
L 120.4 494.074545 
L 120.4 508.429091 
L 120.4 508.429091 
z
" clip-path="url(#pf54b6ee264)" style="fill: #0055ff; opacity: 0.85"/>
   </g>
   <g id="patch_28">
    <path d="M 120.4 512.017727 
L 120.4 512.017727 
L 120.4 526.372273 
L 120.4 526.372273 
z
" clip-path="url(#pf54b6ee264)" style="fill: #0055ff; opacity: 0.85"/>
   </g>
   <g id="patch_29">
    <path d="M 120.4 529.960909 
L 120.4 529.960909 
L 120.4 544.315455 
L 120.4 544.315455 
z
" clip-path="url(#pf54b6ee264)" style="fill: #0055ff; opacity: 0.85"/>
   </g>
   <g id="patch_30">
    <path d="M 120.4 547.904091 
L 120.4 547.904091 
L 120.4 562.258636 
L 120.4 562.258636 
z
" clip-path="url(#pf54b6ee264)" style="fill: #0055ff; opacity: 0.85"/>
   </g>
   <g id="patch_31">
    <path d="M 120.4 565.847273 
L 120.4 565.847273 
L 120.4 580.201818 
L 120.4 580.201818 
z
" clip-path="url(#pf54b6ee264)" style="fill: #0055ff; opacity: 0.85"/>
   </g>
   <g id="matplotlib.axis_1">
    <g id="xtick_1">
     <g id="line2d_1">
      <path d="M 120.4 606.04 
L 120.4 37.6 
" clip-path="url(#pf54b6ee264)" style="fill: none; stroke: #1a1a22; stroke-opacity: 0.3; stroke-width: 0.8; stroke-linecap: square"/>
     </g>
     <g id="line2d_2">
      <defs>
       <path id="m24ce1d59ed" d="M 0 0 
L 0 3.5 
" style="stroke: #ffffff; stroke-width: 0.8"/>
      </defs>
      <g>
       <use xlink:href="#m24ce1d59ed" x="120.4" y="606.04" style="fill: #ffffff; stroke: #ffffff; stroke-width: 0.8"/>
      </g>
     </g>
     <g id="text_1">
      <!-- 0.000 -->
      <g style="fill: #ffffff" transform="translate(106.085938 620.638438) scale(0.1 -0.1)">
       <defs>
        <path id="DejaVuSans-30" d="M 2034 4250 
Q 1547 4250 1301 3770 
Q 1056 3291 1056 2328 
Q 1056 1369 1301 889 
Q 1547 409 2034 409 
Q 2525 409 2770 889 
Q 3016 1369 3016 2328 
Q 3016 3291 2770 3770 
Q 2525 4250 2034 4250 
z
M 2034 4750 
Q 2819 4750 3233 4129 
Q 3647 3509 3647 2328 
Q 3647 1150 3233 529 
Q 2819 -91 2034 -91 
Q 1250 -91 836 529 
Q 422 1150 422 2328 
Q 422 3509 836 4129 
Q 1250 4750 2034 4750 
z
" transform="scale(0.015625)"/>
        <path id="DejaVuSans-2e" d="M 684 794 
L 1344 794 
L 1344 0 
L 684 0 
L 684 794 
z
" transform="scale(0.015625)"/>
       </defs>
       <use xlink:href="#DejaVuSans-30"/>
       <use xlink:href="#DejaVuSans-2e" transform="translate(63.623047 0)"/>
       <use xlink:href="#DejaVuSans-30" transform="translate(95.410156 0)"/>
       <use xlink:href="#DejaVuSans-30" transform="translate(159.033203 0)"/>
       <use xlink:href="#DejaVuSans-30" transform="translate(222.65625 0)"/>
      </g>
     </g>
    </g>
    <g id="xtick_2">
     <g id="line2d_3">
      <path d="M 189.390086 606.04 
L 189.390086 37.6 
" clip-path="url(#pf54b6ee264)" style="fill: none; stroke: #1a1a22; stroke-opacity: 0.3; stroke-width: 0.8; stroke-linecap: square"/>
     </g>
     <g id="line2d_4">
      <g>
       <use xlink:href="#m24ce1d59ed" x="189.390086" y="606.04" style="fill: #ffffff; stroke: #ffffff; stroke-width: 0.8"/>
      </g>
     </g>
     <g id="text_2">
      <!-- 0.025 -->
      <g style="fill: #ffffff" transform="translate(175.076023 620.638438) scale(0.1 -0.1)">
       <defs>
        <path id="DejaVuSans-32" d="M 1228 531 
L 3431 531 
L 3431 0 
L 469 0 
L 469 531 
Q 828 903 1448 1529 
Q 2069 2156 2228 2338 
Q 2531 2678 2651 2914 
Q 2772 3150 2772 3378 
Q 2772 3750 2511 3984 
Q 2250 4219 1831 4219 
Q 1534 4219 1204 4116 
Q 875 4013 500 3803 
L 500 4441 
Q 881 4594 1212 4672 
Q 1544 4750 1819 4750 
Q 2544 4750 2975 4387 
Q 3406 4025 3406 3419 
Q 3406 3131 3298 2873 
Q 3191 2616 2906 2266 
Q 2828 2175 2409 1742 
Q 1991 1309 1228 531 
z
" transform="scale(0.015625)"/>
        <path id="DejaVuSans-35" d="M 691 4666 
L 3169 4666 
L 3169 4134 
L 1269 4134 
L 1269 2991 
Q 1406 3038 1543 3061 
Q 1681 3084 1819 3084 
Q 2600 3084 3056 2656 
Q 3513 2228 3513 1497 
Q 3513 744 3044 326 
Q 2575 -91 1722 -91 
Q 1428 -91 1123 -41 
Q 819 9 494 109 
L 494 744 
Q 775 591 1075 516 
Q 1375 441 1709 441 
Q 2250 441 2565 725 
Q 2881 1009 2881 1497 
Q 2881 1984 2565 2268 
Q 2250 2553 1709 2553 
Q 1456 2553 1204 2497 
Q 953 2441 691 2322 
L 691 4666 
z
" transform="scale(0.015625)"/>
       </defs>
       <use xlink:href="#DejaVuSans-30"/>
       <use xlink:href="#DejaVuSans-2e" transform="translate(63.623047 0)"/>
       <use xlink:href="#DejaVuSans-30" transform="translate(95.410156 0)"/>
       <use xlink:href="#DejaVuSans-32" transform="translate(159.033203 0)"/>
       <use xlink:href="#DejaVuSans-35" transform="translate(222.65625 0)"/>
      </g>
     </g>
    </g>
    <g id="xtick_3">
     <g id="line2d_5">
      <path d="M 258.380172 606.04 
L 258.380172 37.6 
" clip-path="url(#pf54b6ee264)" style="fill: none; stroke: #1a1a22; stroke-opacity: 0.3; stroke-width: 0.8; stroke-linecap: square"/>
     </g>
     <g id="line2d_6">
      <g>
       <use xlink:href="#m24ce1d59ed" x="258.380172" y="606.04" style="fill: #ffffff; stroke: #ffffff; stroke-width: 0.8"/>
      </g>
     </g>
     <g id="text_3">
      <!-- 0.050 -->
      <g style="fill: #ffffff" transform="translate(244.066109 620.638438) scale(0.1 -0.1)">
       <use xlink:href="#DejaVuSans-30"/>
       <use xlink:href="#DejaVuSans-2e" transform="translate(63.623047 0)"/>
       <use xlink:href="#DejaVuSans-30" transform="translate(95.410156 0)"/>
       <use xlink:href="#DejaVuSans-35" transform="translate(159.033203 0)"/>
       <use xlink:href="#DejaVuSans-30" transform="translate(222.65625 0)"/>
      </g>
     </g>
    </g>
    <g id="xtick_4">
     <g id="line2d_7">
      <path d="M 327.370258 606.04 
L 327.370258 37.6 
" clip-path="url(#pf54b6ee264)" style="fill: none; stroke: #1a1a22; stroke-opacity: 0.3; stroke-width: 0.8; stroke-linecap: square"/>
     </g>
     <g id="line2d_8">
      <g>
       <use xlink:href="#m24ce1d59ed" x="327.370258" y="606.04" style="fill: #ffffff; stroke: #ffffff; stroke-width: 0.8"/>
      </g>
     </g>
     <g id="text_4">
      <!-- 0.075 -->
      <g style="fill: #ffffff" transform="translate(313.056195 620.638438) scale(0.1 -0.1)">
       <defs>
        <path id="DejaVuSans-37" d="M 525 4666 
L 3525 4666 
L 3525 4397 
L 1831 0 
L 1172 0 
L 2766 4134 
L 525 4134 
L 525 4666 
z
" transform="scale(0.015625)"/>
       </defs>
       <use xlink:href="#DejaVuSans-30"/>
       <use xlink:href="#DejaVuSans-2e" transform="translate(63.623047 0)"/>
       <use xlink:href="#DejaVuSans-30" transform="translate(95.410156 0)"/>
       <use xlink:href="#DejaVuSans-37" transform="translate(159.033203 0)"/>
       <use xlink:href="#DejaVuSans-35" transform="translate(222.65625 0)"/>
      </g>
     </g>
    </g>
    <g id="xtick_5">
     <g id="line2d_9">
      <path d="M 396.360344 606.04 
L 396.360344 37.6 
" clip-path="url(#pf54b6ee264)" style="fill: none; stroke: #1a1a22; stroke-opacity: 0.3; stroke-width: 0.8; stroke-linecap: square"/>
     </g>
     <g id="line2d_10">
      <g>
       <use xlink:href="#m24ce1d59ed" x="396.360344" y="606.04" style="fill: #ffffff; stroke: #ffffff; stroke-width: 0.8"/>
      </g>
     </g>
     <g id="text_5">
      <!-- 0.100 -->
      <g style="fill: #ffffff" transform="translate(382.046281 620.638438) scale(0.1 -0.1)">
       <defs>
        <path id="DejaVuSans-31" d="M 794 531 
L 1825 531 
L 1825 4091 
L 703 3866 
L 703 4441 
L 1819 4666 
L 2450 4666 
L 2450 531 
L 3481 531 
L 3481 0 
L 794 0 
L 794 531 
z
" transform="scale(0.015625)"/>
       </defs>
       <use xlink:href="#DejaVuSans-30"/>
       <use xlink:href="#DejaVuSans-2e" transform="translate(63.623047 0)"/>
       <use xlink:href="#DejaVuSans-31" transform="translate(95.410156 0)"/>
       <use xlink:href="#DejaVuSans-30" transform="translate(159.033203 0)"/>
       <use xlink:href="#DejaVuSans-30" transform="translate(222.65625 0)"/>
      </g>
     </g>
    </g>
    <g id="xtick_6">
     <g id="line2d_11">
      <path d="M 465.35043 606.04 
L 465.35043 37.6 
" clip-path="url(#pf54b6ee264)" style="fill: none; stroke: #1a1a22; stroke-opacity: 0.3; stroke-width: 0.8; stroke-linecap: square"/>
     </g>
     <g id="line2d_12">
      <g>
       <use xlink:href="#m24ce1d59ed" x="465.35043" y="606.04" style="fill: #ffffff; stroke: #ffffff; stroke-width: 0.8"/>
      </g>
     </g>
     <g id="text_6">
      <!-- 0.125 -->
      <g style="fill: #ffffff" transform="translate(451.036367 620.638438) scale(0.1 -0.1)">
       <use xlink:href="#DejaVuSans-30"/>
       <use xlink:href="#DejaVuSans-2e" transform="translate(63.623047 0)"/>
       <use xlink:href="#DejaVuSans-31" transform="translate(95.410156 0)"/>
       <use xlink:href="#DejaVuSans-32" transform="translate(159.033203 0)"/>
       <use xlink:href="#DejaVuSans-35" transform="translate(222.65625 0)"/>
      </g>
     </g>
    </g>
    <g id="xtick_7">
     <g id="line2d_13">
      <path d="M 534.340516 606.04 
L 534.340516 37.6 
" clip-path="url(#pf54b6ee264)" style="fill: none; stroke: #1a1a22; stroke-opacity: 0.3; stroke-width: 0.8; stroke-linecap: square"/>
     </g>
     <g id="line2d_14">
      <g>
       <use xlink:href="#m24ce1d59ed" x="534.340516" y="606.04" style="fill: #ffffff; stroke: #ffffff; stroke-width: 0.8"/>
      </g>
     </g>
     <g id="text_7">
      <!-- 0.150 -->
      <g style="fill: #ffffff" transform="translate(520.026453 620.638438) scale(0.1 -0.1)">
       <use xlink:href="#DejaVuSans-30"/>
       <use xlink:href="#DejaVuSans-2e" transform="translate(63.623047 0)"/>
       <use xlink:href="#DejaVuSans-31" transform="translate(95.410156 0)"/>
       <use xlink:href="#DejaVuSans-35" transform="translate(159.033203 0)"/>
       <use xlink:href="#DejaVuSans-30" transform="translate(222.65625 0)"/>
      </g>
     </g>
    </g>
    <g id="xtick_8">
     <g id="line2d_15">
      <path d="M 603.330601 606.04 
L 603.330601 37.6 
" clip-path="url(#pf54b6ee264)" style="fill: none; stroke: #1a1a22; stroke-opacity: 0.3; stroke-width: 0.8; stroke-linecap: square"/>
     </g>
     <g id="line2d_16">
      <g>
       <use xlink:href="#m24ce1d59ed" x="603.330601" y="606.04" style="fill: #ffffff; stroke: #ffffff; stroke-width: 0.8"/>
      </g>
     </g>
     <g id="text_8">
      <!-- 0.175 -->
      <g style="fill: #ffffff" transform="translate(589.016539 620.638438) scale(0.1 -0.1)">
       <use xlink:href="#DejaVuSans-30"/>
       <use xlink:href="#DejaVuSans-2e" transform="translate(63.623047 0)"/>
       <use xlink:href="#DejaVuSans-31" transform="translate(95.410156 0)"/>
       <use xlink:href="#DejaVuSans-37" transform="translate(159.033203 0)"/>
       <use xlink:href="#DejaVuSans-35" transform="translate(222.65625 0)"/>
      </g>
     </g>
    </g>
    <g id="xtick_9">
     <g id="line2d_17">
      <path d="M 672.320687 606.04 
L 672.320687 37.6 
" clip-path="url(#pf54b6ee264)" style="fill: none; stroke: #1a1a22; stroke-opacity: 0.3; stroke-width: 0.8; stroke-linecap: square"/>
     </g>
     <g id="line2d_18">
      <g>
       <use xlink:href="#m24ce1d59ed" x="672.320687" y="606.04" style="fill: #ffffff; stroke: #ffffff; stroke-width: 0.8"/>
      </g>
     </g>
     <g id="text_9">
      <!-- 0.200 -->
      <g style="fill: #ffffff" transform="translate(658.006625 620.638438) scale(0.1 -0.1)">
       <use xlink:href="#DejaVuSans-30"/>
       <use xlink:href="#DejaVuSans-2e" transform="translate(63.623047 0)"/>
       <use xlink:href="#DejaVuSans-32" transform="translate(95.410156 0)"/>
       <use xlink:href="#DejaVuSans-30" transform="translate(159.033203 0)"/>
       <use xlink:href="#DejaVuSans-30" transform="translate(222.65625 0)"/>
      </g>
     </g>
    </g>
    <g id="text_10">
     <!-- Gini importance -->
     <g style="fill: #ccb8a0" transform="translate(374.822656 634.316563) scale(0.1 -0.1)">
      <defs>
       <path id="DejaVuSans-47" d="M 3809 666 
L 3809 1919 
L 2778 1919 
L 2778 2438 
L 4434 2438 
L 4434 434 
Q 4069 175 3628 42 
Q 3188 -91 2688 -91 
Q 1594 -91 976 548 
Q 359 1188 359 2328 
Q 359 3472 976 4111 
Q 1594 4750 2688 4750 
Q 3144 4750 3555 4637 
Q 3966 4525 4313 4306 
L 4313 3634 
Q 3963 3931 3569 4081 
Q 3175 4231 2741 4231 
Q 1884 4231 1454 3753 
Q 1025 3275 1025 2328 
Q 1025 1384 1454 906 
Q 1884 428 2741 428 
Q 3075 428 3337 486 
Q 3600 544 3809 666 
z
" transform="scale(0.015625)"/>
       <path id="DejaVuSans-69" d="M 603 3500 
L 1178 3500 
L 1178 0 
L 603 0 
L 603 3500 
z
M 603 4863 
L 1178 4863 
L 1178 4134 
L 603 4134 
L 603 4863 
z
" transform="scale(0.015625)"/>
       <path id="DejaVuSans-6e" d="M 3513 2113 
L 3513 0 
L 2938 0 
L 2938 2094 
Q 2938 2591 2744 2837 
Q 2550 3084 2163 3084 
Q 1697 3084 1428 2787 
Q 1159 2491 1159 1978 
L 1159 0 
L 581 0 
L 581 3500 
L 1159 3500 
L 1159 2956 
Q 1366 3272 1645 3428 
Q 1925 3584 2291 3584 
Q 2894 3584 3203 3211 
Q 3513 2838 3513 2113 
z
" transform="scale(0.015625)"/>
       <path id="DejaVuSans-20" transform="scale(0.015625)"/>
       <path id="DejaVuSans-6d" d="M 3328 2828 
Q 3544 3216 3844 3400 
Q 4144 3584 4550 3584 
Q 5097 3584 5394 3201 
Q 5691 2819 5691 2113 
L 5691 0 
L 5113 0 
L 5113 2094 
Q 5113 2597 4934 2840 
Q 4756 3084 4391 3084 
Q 3944 3084 3684 2787 
Q 3425 2491 3425 1978 
L 3425 0 
L 2847 0 
L 2847 2094 
Q 2847 2600 2669 2842 
Q 2491 3084 2119 3084 
Q 1678 3084 1418 2786 
Q 1159 2488 1159 1978 
L 1159 0 
L 581 0 
L 581 3500 
L 1159 3500 
L 1159 2956 
Q 1356 3278 1631 3431 
Q 1906 3584 2284 3584 
Q 2666 3584 2933 3390 
Q 3200 3197 3328 2828 
z
" transform="scale(0.015625)"/>
       <path id="DejaVuSans-70" d="M 1159 525 
L 1159 -1331 
L 581 -1331 
L 581 3500 
L 1159 3500 
L 1159 2969 
Q 1341 3281 1617 3432 
Q 1894 3584 2278 3584 
Q 2916 3584 3314 3078 
Q 3713 2572 3713 1747 
Q 3713 922 3314 415 
Q 2916 -91 2278 -91 
Q 1894 -91 1617 61 
Q 1341 213 1159 525 
z
M 3116 1747 
Q 3116 2381 2855 2742 
Q 2594 3103 2138 3103 
Q 1681 3103 1420 2742 
Q 1159 2381 1159 1747 
Q 1159 1113 1420 752 
Q 1681 391 2138 391 
Q 2594 391 2855 752 
Q 3116 1113 3116 1747 
z
" transform="scale(0.015625)"/>
       <path id="DejaVuSans-6f" d="M 1959 3097 
Q 1497 3097 1228 2736 
Q 959 2375 959 1747 
Q 959 1119 1226 758 
Q 1494 397 1959 397 
Q 2419 397 2687 759 
Q 2956 1122 2956 1747 
Q 2956 2369 2687 2733 
Q 2419 3097 1959 3097 
z
M 1959 3584 
Q 2709 3584 3137 3096 
Q 3566 2609 3566 1747 
Q 3566 888 3137 398 
Q 2709 -91 1959 -91 
Q 1206 -91 779 398 
Q 353 888 353 1747 
Q 353 2609 779 3096 
Q 1206 3584 1959 3584 
z
" transform="scale(0.015625)"/>
       <path id="DejaVuSans-72" d="M 2631 2963 
Q 2534 3019 2420 3045 
Q 2306 3072 2169 3072 
Q 1681 3072 1420 2755 
Q 1159 2438 1159 1844 
L 1159 0 
L 581 0 
L 581 3500 
L 1159 3500 
L 1159 2956 
Q 1341 3275 1631 3429 
Q 1922 3584 2338 3584 
Q 2397 3584 2469 3576 
Q 2541 3569 2628 3553 
L 2631 2963 
z
" transform="scale(0.015625)"/>
       <path id="DejaVuSans-74" d="M 1172 4494 
L 1172 3500 
L 2356 3500 
L 2356 3053 
L 1172 3053 
L 1172 1153 
Q 1172 725 1289 603 
Q 1406 481 1766 481 
L 2356 481 
L 2356 0 
L 1766 0 
Q 1100 0 847 248 
Q 594 497 594 1153 
L 594 3053 
L 172 3053 
L 172 3500 
L 594 3500 
L 594 4494 
L 1172 4494 
z
" transform="scale(0.015625)"/>
       <path id="DejaVuSans-61" d="M 2194 1759 
Q 1497 1759 1228 1600 
Q 959 1441 959 1056 
Q 959 750 1161 570 
Q 1363 391 1709 391 
Q 2188 391 2477 730 
Q 2766 1069 2766 1631 
L 2766 1759 
L 2194 1759 
z
M 3341 1997 
L 3341 0 
L 2766 0 
L 2766 531 
Q 2569 213 2275 61 
Q 1981 -91 1556 -91 
Q 1019 -91 701 211 
Q 384 513 384 1019 
Q 384 1609 779 1909 
Q 1175 2209 1959 2209 
L 2766 2209 
L 2766 2266 
Q 2766 2663 2505 2880 
Q 2244 3097 1772 3097 
Q 1472 3097 1187 3025 
Q 903 2953 641 2809 
L 641 3341 
Q 956 3463 1253 3523 
Q 1550 3584 1831 3584 
Q 2591 3584 2966 3190 
Q 3341 2797 3341 1997 
z
" transform="scale(0.015625)"/>
       <path id="DejaVuSans-63" d="M 3122 3366 
L 3122 2828 
Q 2878 2963 2633 3030 
Q 2388 3097 2138 3097 
Q 1578 3097 1268 2742 
Q 959 2388 959 1747 
Q 959 1106 1268 751 
Q 1578 397 2138 397 
Q 2388 397 2633 464 
Q 2878 531 3122 666 
L 3122 134 
Q 2881 22 2623 -34 
Q 2366 -91 2075 -91 
Q 1284 -91 818 406 
Q 353 903 353 1747 
Q 353 2603 823 3093 
Q 1294 3584 2113 3584 
Q 2378 3584 2631 3529 
Q 2884 3475 3122 3366 
z
" transform="scale(0.015625)"/>
       <path id="DejaVuSans-65" d="M 3597 1894 
L 3597 1613 
L 953 1613 
Q 991 1019 1311 708 
Q 1631 397 2203 397 
Q 2534 397 2845 478 
Q 3156 559 3463 722 
L 3463 178 
Q 3153 47 2828 -22 
Q 2503 -91 2169 -91 
Q 1331 -91 842 396 
Q 353 884 353 1716 
Q 353 2575 817 3079 
Q 1281 3584 2069 3584 
Q 2775 3584 3186 3129 
Q 3597 2675 3597 1894 
z
M 3022 2063 
Q 3016 2534 2758 2815 
Q 2500 3097 2075 3097 
Q 1594 3097 1305 2825 
Q 1016 2553 972 2059 
L 3022 2063 
z
" transform="scale(0.015625)"/>
      </defs>
      <use xlink:href="#DejaVuSans-47"/>
      <use xlink:href="#DejaVuSans-69" transform="translate(77.490234 0)"/>
      <use xlink:href="#DejaVuSans-6e" transform="translate(105.273438 0)"/>
      <use xlink:href="#DejaVuSans-69" transform="translate(168.652344 0)"/>
      <use xlink:href="#DejaVuSans-20" transform="translate(196.435547 0)"/>
      <use xlink:href="#DejaVuSans-69" transform="translate(228.222656 0)"/>
      <use xlink:href="#DejaVuSans-6d" transform="translate(256.005859 0)"/>
      <use xlink:href="#DejaVuSans-70" transform="translate(353.417969 0)"/>
      <use xlink:href="#DejaVuSans-6f" transform="translate(416.894531 0)"/>
      <use xlink:href="#DejaVuSans-72" transform="translate(478.076172 0)"/>
      <use xlink:href="#DejaVuSans-74" transform="translate(519.189453 0)"/>
      <use xlink:href="#DejaVuSans-61" transform="translate(558.398438 0)"/>
      <use xlink:href="#DejaVuSans-6e" transform="translate(619.677734 0)"/>
      <use xlink:href="#DejaVuSans-63" transform="translate(683.056641 0)"/>
      <use xlink:href="#DejaVuSans-65" transform="translate(738.037109 0)"/>
     </g>
    </g>
   </g>
   <g id="matplotlib.axis_2">
    <g id="ytick_1">
     <g id="line2d_19">
      <defs>
       <path id="me703a31cef" d="M 0 0 
L -3.5 0 
" style="stroke: #ffffff; stroke-width: 0.8"/>
      </defs>
      <g>
       <use xlink:href="#me703a31cef" x="120.4" y="70.615455" style="fill: #ffffff; stroke: #ffffff; stroke-width: 0.8"/>
      </g>
     </g>
     <g id="text_11">
      <!-- Spectral Centroid Hz -->
      <g style="fill: #ccb8a0" transform="translate(20.757656 74.034751) scale(0.09 -0.09)">
       <defs>
        <path id="DejaVuSans-53" d="M 3425 4513 
L 3425 3897 
Q 3066 4069 2747 4153 
Q 2428 4238 2131 4238 
Q 1616 4238 1336 4038 
Q 1056 3838 1056 3469 
Q 1056 3159 1242 3001 
Q 1428 2844 1947 2747 
L 2328 2669 
Q 3034 2534 3370 2195 
Q 3706 1856 3706 1288 
Q 3706 609 3251 259 
Q 2797 -91 1919 -91 
Q 1588 -91 1214 -16 
Q 841 59 441 206 
L 441 856 
Q 825 641 1194 531 
Q 1563 422 1919 422 
Q 2459 422 2753 634 
Q 3047 847 3047 1241 
Q 3047 1584 2836 1778 
Q 2625 1972 2144 2069 
L 1759 2144 
Q 1053 2284 737 2584 
Q 422 2884 422 3419 
Q 422 4038 858 4394 
Q 1294 4750 2059 4750 
Q 2388 4750 2728 4690 
Q 3069 4631 3425 4513 
z
" transform="scale(0.015625)"/>
        <path id="DejaVuSans-6c" d="M 603 4863 
L 1178 4863 
L 1178 0 
L 603 0 
L 603 4863 
z
" transform="scale(0.015625)"/>
        <path id="DejaVuSans-43" d="M 4122 4306 
L 4122 3641 
Q 3803 3938 3442 4084 
Q 3081 4231 2675 4231 
Q 1875 4231 1450 3742 
Q 1025 3253 1025 2328 
Q 1025 1406 1450 917 
Q 1875 428 2675 428 
Q 3081 428 3442 575 
Q 3803 722 4122 1019 
L 4122 359 
Q 3791 134 3420 21 
Q 3050 -91 2638 -91 
Q 1578 -91 968 557 
Q 359 1206 359 2328 
Q 359 3453 968 4101 
Q 1578 4750 2638 4750 
Q 3056 4750 3426 4639 
Q 3797 4528 4122 4306 
z
" transform="scale(0.015625)"/>
        <path id="DejaVuSans-64" d="M 2906 2969 
L 2906 4863 
L 3481 4863 
L 3481 0 
L 2906 0 
L 2906 525 
Q 2725 213 2448 61 
Q 2172 -91 1784 -91 
Q 1150 -91 751 415 
Q 353 922 353 1747 
Q 353 2572 751 3078 
Q 1150 3584 1784 3584 
Q 2172 3584 2448 3432 
Q 2725 3281 2906 2969 
z
M 947 1747 
Q 947 1113 1208 752 
Q 1469 391 1925 391 
Q 2381 391 2643 752 
Q 2906 1113 2906 1747 
Q 2906 2381 2643 2742 
Q 2381 3103 1925 3103 
Q 1469 3103 1208 2742 
Q 947 2381 947 1747 
z
" transform="scale(0.015625)"/>
        <path id="DejaVuSans-48" d="M 628 4666 
L 1259 4666 
L 1259 2753 
L 3553 2753 
L 3553 4666 
L 4184 4666 
L 4184 0 
L 3553 0 
L 3553 2222 
L 1259 2222 
L 1259 0 
L 628 0 
L 628 4666 
z
" transform="scale(0.015625)"/>
        <path id="DejaVuSans-7a" d="M 353 3500 
L 3084 3500 
L 3084 2975 
L 922 459 
L 3084 459 
L 3084 0 
L 275 0 
L 275 525 
L 2438 3041 
L 353 3041 
L 353 3500 
z
" transform="scale(0.015625)"/>
       </defs>
       <use xlink:href="#DejaVuSans-53"/>
       <use xlink:href="#DejaVuSans-70" transform="translate(63.476562 0)"/>
       <use xlink:href="#DejaVuSans-65" transform="translate(126.953125 0)"/>
       <use xlink:href="#DejaVuSans-63" transform="translate(188.476562 0)"/>
       <use xlink:href="#DejaVuSans-74" transform="translate(243.457031 0)"/>
       <use xlink:href="#DejaVuSans-72" transform="translate(282.666016 0)"/>
       <use xlink:href="#DejaVuSans-61" transform="translate(323.779297 0)"/>
       <use xlink:href="#DejaVuSans-6c" transform="translate(385.058594 0)"/>
       <use xlink:href="#DejaVuSans-20" transform="translate(412.841797 0)"/>
       <use xlink:href="#DejaVuSans-43" transform="translate(444.628906 0)"/>
       <use xlink:href="#DejaVuSans-65" transform="translate(514.453125 0)"/>
       <use xlink:href="#DejaVuSans-6e" transform="translate(575.976562 0)"/>
       <use xlink:href="#DejaVuSans-74" transform="translate(639.355469 0)"/>
       <use xlink:href="#DejaVuSans-72" transform="translate(678.564453 0)"/>
       <use xlink:href="#DejaVuSans-6f" transform="translate(717.427734 0)"/>
       <use xlink:href="#DejaVuSans-69" transform="translate(778.609375 0)"/>
       <use xlink:href="#DejaVuSans-64" transform="translate(806.392578 0)"/>
       <use xlink:href="#DejaVuSans-20" transform="translate(869.869141 0)"/>
       <use xlink:href="#DejaVuSans-48" transform="translate(901.65625 0)"/>
       <use xlink:href="#DejaVuSans-7a" transform="translate(976.851562 0)"/>
      </g>
     </g>
    </g>
    <g id="ytick_2">
     <g id="line2d_20">
      <g>
       <use xlink:href="#me703a31cef" x="120.4" y="88.558636" style="fill: #ffffff; stroke: #ffffff; stroke-width: 0.8"/>
      </g>
     </g>
     <g id="text_12">
      <!-- High Mid -->
      <g style="fill: #ccb8a0" transform="translate(73.874531 91.977933) scale(0.09 -0.09)">
       <defs>
        <path id="DejaVuSans-67" d="M 2906 1791 
Q 2906 2416 2648 2759 
Q 2391 3103 1925 3103 
Q 1463 3103 1205 2759 
Q 947 2416 947 1791 
Q 947 1169 1205 825 
Q 1463 481 1925 481 
Q 2391 481 2648 825 
Q 2906 1169 2906 1791 
z
M 3481 434 
Q 3481 -459 3084 -895 
Q 2688 -1331 1869 -1331 
Q 1566 -1331 1297 -1286 
Q 1028 -1241 775 -1147 
L 775 -588 
Q 1028 -725 1275 -790 
Q 1522 -856 1778 -856 
Q 2344 -856 2625 -561 
Q 2906 -266 2906 331 
L 2906 616 
Q 2728 306 2450 153 
Q 2172 0 1784 0 
Q 1141 0 747 490 
Q 353 981 353 1791 
Q 353 2603 747 3093 
Q 1141 3584 1784 3584 
Q 2172 3584 2450 3431 
Q 2728 3278 2906 2969 
L 2906 3500 
L 3481 3500 
L 3481 434 
z
" transform="scale(0.015625)"/>
        <path id="DejaVuSans-68" d="M 3513 2113 
L 3513 0 
L 2938 0 
L 2938 2094 
Q 2938 2591 2744 2837 
Q 2550 3084 2163 3084 
Q 1697 3084 1428 2787 
Q 1159 2491 1159 1978 
L 1159 0 
L 581 0 
L 581 4863 
L 1159 4863 
L 1159 2956 
Q 1366 3272 1645 3428 
Q 1925 3584 2291 3584 
Q 2894 3584 3203 3211 
Q 3513 2838 3513 2113 
z
" transform="scale(0.015625)"/>
        <path id="DejaVuSans-4d" d="M 628 4666 
L 1569 4666 
L 2759 1491 
L 3956 4666 
L 4897 4666 
L 4897 0 
L 4281 0 
L 4281 4097 
L 3078 897 
L 2444 897 
L 1241 4097 
L 1241 0 
L 628 0 
L 628 4666 
z
" transform="scale(0.015625)"/>
       </defs>
       <use xlink:href="#DejaVuSans-48"/>
       <use xlink:href="#DejaVuSans-69" transform="translate(75.195312 0)"/>
       <use xlink:href="#DejaVuSans-67" transform="translate(102.978516 0)"/>
       <use xlink:href="#DejaVuSans-68" transform="translate(166.455078 0)"/>
       <use xlink:href="#DejaVuSans-20" transform="translate(229.833984 0)"/>
       <use xlink:href="#DejaVuSans-4d" transform="translate(261.621094 0)"/>
       <use xlink:href="#DejaVuSans-69" transform="translate(347.900391 0)"/>
       <use xlink:href="#DejaVuSans-64" transform="translate(375.683594 0)"/>
      </g>
     </g>
    </g>
    <g id="ytick_3">
     <g id="line2d_21">
      <g>
       <use xlink:href="#me703a31cef" x="120.4" y="106.501818" style="fill: #ffffff; stroke: #ffffff; stroke-width: 0.8"/>
      </g>
     </g>
     <g id="text_13">
      <!-- Spectral Bandwidth Hz -->
      <g style="fill: #ccb8a0" transform="translate(11.116406 109.921115) scale(0.09 -0.09)">
       <defs>
        <path id="DejaVuSans-42" d="M 1259 2228 
L 1259 519 
L 2272 519 
Q 2781 519 3026 730 
Q 3272 941 3272 1375 
Q 3272 1813 3026 2020 
Q 2781 2228 2272 2228 
L 1259 2228 
z
M 1259 4147 
L 1259 2741 
L 2194 2741 
Q 2656 2741 2882 2914 
Q 3109 3088 3109 3444 
Q 3109 3797 2882 3972 
Q 2656 4147 2194 4147 
L 1259 4147 
z
M 628 4666 
L 2241 4666 
Q 2963 4666 3353 4366 
Q 3744 4066 3744 3513 
Q 3744 3084 3544 2831 
Q 3344 2578 2956 2516 
Q 3422 2416 3680 2098 
Q 3938 1781 3938 1306 
Q 3938 681 3513 340 
Q 3088 0 2303 0 
L 628 0 
L 628 4666 
z
" transform="scale(0.015625)"/>
        <path id="DejaVuSans-77" d="M 269 3500 
L 844 3500 
L 1563 769 
L 2278 3500 
L 2956 3500 
L 3675 769 
L 4391 3500 
L 4966 3500 
L 4050 0 
L 3372 0 
L 2619 2869 
L 1863 0 
L 1184 0 
L 269 3500 
z
" transform="scale(0.015625)"/>
       </defs>
       <use xlink:href="#DejaVuSans-53"/>
       <use xlink:href="#DejaVuSans-70" transform="translate(63.476562 0)"/>
       <use xlink:href="#DejaVuSans-65" transform="translate(126.953125 0)"/>
       <use xlink:href="#DejaVuSans-63" transform="translate(188.476562 0)"/>
       <use xlink:href="#DejaVuSans-74" transform="translate(243.457031 0)"/>
       <use xlink:href="#DejaVuSans-72" transform="translate(282.666016 0)"/>
       <use xlink:href="#DejaVuSans-61" transform="translate(323.779297 0)"/>
       <use xlink:href="#DejaVuSans-6c" transform="translate(385.058594 0)"/>
       <use xlink:href="#DejaVuSans-20" transform="translate(412.841797 0)"/>
       <use xlink:href="#DejaVuSans-42" transform="translate(444.628906 0)"/>
       <use xlink:href="#DejaVuSans-61" transform="translate(513.232422 0)"/>
       <use xlink:href="#DejaVuSans-6e" transform="translate(574.511719 0)"/>
       <use xlink:href="#DejaVuSans-64" transform="translate(637.890625 0)"/>
       <use xlink:href="#DejaVuSans-77" transform="translate(701.367188 0)"/>
       <use xlink:href="#DejaVuSans-69" transform="translate(783.154297 0)"/>
       <use xlink:href="#DejaVuSans-64" transform="translate(810.9375 0)"/>
       <use xlink:href="#DejaVuSans-74" transform="translate(874.414062 0)"/>
       <use xlink:href="#DejaVuSans-68" transform="translate(913.623047 0)"/>
       <use xlink:href="#DejaVuSans-20" transform="translate(977.001953 0)"/>
       <use xlink:href="#DejaVuSans-48" transform="translate(1008.789062 0)"/>
       <use xlink:href="#DejaVuSans-7a" transform="translate(1083.984375 0)"/>
      </g>
     </g>
    </g>
    <g id="ytick_4">
     <g id="line2d_22">
      <g>
       <use xlink:href="#me703a31cef" x="120.4" y="124.445" style="fill: #ffffff; stroke: #ffffff; stroke-width: 0.8"/>
      </g>
     </g>
     <g id="text_14">
      <!-- High -->
      <g style="fill: #ccb8a0" transform="translate(92.714063 127.864297) scale(0.09 -0.09)">
       <use xlink:href="#DejaVuSans-48"/>
       <use xlink:href="#DejaVuSans-69" transform="translate(75.195312 0)"/>
       <use xlink:href="#DejaVuSans-67" transform="translate(102.978516 0)"/>
       <use xlink:href="#DejaVuSans-68" transform="translate(166.455078 0)"/>
      </g>
     </g>
    </g>
    <g id="ytick_5">
     <g id="line2d_23">
      <g>
       <use xlink:href="#me703a31cef" x="120.4" y="142.388182" style="fill: #ffffff; stroke: #ffffff; stroke-width: 0.8"/>
      </g>
     </g>
     <g id="text_15">
      <!-- Mid -->
      <g style="fill: #ccb8a0" transform="translate(97.420781 145.807479) scale(0.09 -0.09)">
       <use xlink:href="#DejaVuSans-4d"/>
       <use xlink:href="#DejaVuSans-69" transform="translate(86.279297 0)"/>
       <use xlink:href="#DejaVuSans-64" transform="translate(114.0625 0)"/>
      </g>
     </g>
    </g>
    <g id="ytick_6">
     <g id="line2d_24">
      <g>
       <use xlink:href="#me703a31cef" x="120.4" y="160.331364" style="fill: #ffffff; stroke: #ffffff; stroke-width: 0.8"/>
      </g>
     </g>
     <g id="text_16">
      <!-- Low Mid -->
      <g style="fill: #ccb8a0" transform="translate(76.836094 163.750661) scale(0.09 -0.09)">
       <defs>
        <path id="DejaVuSans-4c" d="M 628 4666 
L 1259 4666 
L 1259 531 
L 3531 531 
L 3531 0 
L 628 0 
L 628 4666 
z
" transform="scale(0.015625)"/>
       </defs>
       <use xlink:href="#DejaVuSans-4c"/>
       <use xlink:href="#DejaVuSans-6f" transform="translate(53.962891 0)"/>
       <use xlink:href="#DejaVuSans-77" transform="translate(115.144531 0)"/>
       <use xlink:href="#DejaVuSans-20" transform="translate(196.931641 0)"/>
       <use xlink:href="#DejaVuSans-4d" transform="translate(228.71875 0)"/>
       <use xlink:href="#DejaVuSans-69" transform="translate(314.998047 0)"/>
       <use xlink:href="#DejaVuSans-64" transform="translate(342.78125 0)"/>
      </g>
     </g>
    </g>
    <g id="ytick_7">
     <g id="line2d_25">
      <g>
       <use xlink:href="#me703a31cef" x="120.4" y="178.274545" style="fill: #ffffff; stroke: #ffffff; stroke-width: 0.8"/>
      </g>
     </g>
     <g id="text_17">
      <!-- Key: C# -->
      <g style="fill: #ccb8a0" transform="translate(78.017344 181.693842) scale(0.09 -0.09)">
       <defs>
        <path id="DejaVuSans-4b" d="M 628 4666 
L 1259 4666 
L 1259 2694 
L 3353 4666 
L 4166 4666 
L 1850 2491 
L 4331 0 
L 3500 0 
L 1259 2247 
L 1259 0 
L 628 0 
L 628 4666 
z
" transform="scale(0.015625)"/>
        <path id="DejaVuSans-79" d="M 2059 -325 
Q 1816 -950 1584 -1140 
Q 1353 -1331 966 -1331 
L 506 -1331 
L 506 -850 
L 844 -850 
Q 1081 -850 1212 -737 
Q 1344 -625 1503 -206 
L 1606 56 
L 191 3500 
L 800 3500 
L 1894 763 
L 2988 3500 
L 3597 3500 
L 2059 -325 
z
" transform="scale(0.015625)"/>
        <path id="DejaVuSans-3a" d="M 750 794 
L 1409 794 
L 1409 0 
L 750 0 
L 750 794 
z
M 750 3309 
L 1409 3309 
L 1409 2516 
L 750 2516 
L 750 3309 
z
" transform="scale(0.015625)"/>
        <path id="DejaVuSans-23" d="M 3272 2816 
L 2363 2816 
L 2100 1772 
L 3016 1772 
L 3272 2816 
z
M 2803 4594 
L 2478 3297 
L 3391 3297 
L 3719 4594 
L 4219 4594 
L 3897 3297 
L 4872 3297 
L 4872 2816 
L 3775 2816 
L 3519 1772 
L 4513 1772 
L 4513 1294 
L 3397 1294 
L 3072 0 
L 2572 0 
L 2894 1294 
L 1978 1294 
L 1656 0 
L 1153 0 
L 1478 1294 
L 494 1294 
L 494 1772 
L 1594 1772 
L 1856 2816 
L 850 2816 
L 850 3297 
L 1978 3297 
L 2297 4594 
L 2803 4594 
z
" transform="scale(0.015625)"/>
       </defs>
       <use xlink:href="#DejaVuSans-4b"/>
       <use xlink:href="#DejaVuSans-65" transform="translate(60.576172 0)"/>
       <use xlink:href="#DejaVuSans-79" transform="translate(122.099609 0)"/>
       <use xlink:href="#DejaVuSans-3a" transform="translate(174.029297 0)"/>
       <use xlink:href="#DejaVuSans-20" transform="translate(207.720703 0)"/>
       <use xlink:href="#DejaVuSans-43" transform="translate(239.507812 0)"/>
       <use xlink:href="#DejaVuSans-23" transform="translate(309.332031 0)"/>
      </g>
     </g>
    </g>
    <g id="ytick_8">
     <g id="line2d_26">
      <g>
       <use xlink:href="#me703a31cef" x="120.4" y="196.217727" style="fill: #ffffff; stroke: #ffffff; stroke-width: 0.8"/>
      </g>
     </g>
     <g id="text_18">
      <!-- Key: C -->
      <g style="fill: #ccb8a0" transform="translate(85.559063 199.637024) scale(0.09 -0.09)">
       <use xlink:href="#DejaVuSans-4b"/>
       <use xlink:href="#DejaVuSans-65" transform="translate(60.576172 0)"/>
       <use xlink:href="#DejaVuSans-79" transform="translate(122.099609 0)"/>
       <use xlink:href="#DejaVuSans-3a" transform="translate(174.029297 0)"/>
       <use xlink:href="#DejaVuSans-20" transform="translate(207.720703 0)"/>
       <use xlink:href="#DejaVuSans-43" transform="translate(239.507812 0)"/>
      </g>
     </g>
    </g>
    <g id="ytick_9">
     <g id="line2d_27">
      <g>
       <use xlink:href="#me703a31cef" x="120.4" y="214.160909" style="fill: #ffffff; stroke: #ffffff; stroke-width: 0.8"/>
      </g>
     </g>
     <g id="text_19">
      <!-- Sub Bass -->
      <g style="fill: #ccb8a0" transform="translate(72.341719 217.580206) scale(0.09 -0.09)">
       <defs>
        <path id="DejaVuSans-75" d="M 544 1381 
L 544 3500 
L 1119 3500 
L 1119 1403 
Q 1119 906 1312 657 
Q 1506 409 1894 409 
Q 2359 409 2629 706 
Q 2900 1003 2900 1516 
L 2900 3500 
L 3475 3500 
L 3475 0 
L 2900 0 
L 2900 538 
Q 2691 219 2414 64 
Q 2138 -91 1772 -91 
Q 1169 -91 856 284 
Q 544 659 544 1381 
z
M 1991 3584 
L 1991 3584 
z
" transform="scale(0.015625)"/>
        <path id="DejaVuSans-62" d="M 3116 1747 
Q 3116 2381 2855 2742 
Q 2594 3103 2138 3103 
Q 1681 3103 1420 2742 
Q 1159 2381 1159 1747 
Q 1159 1113 1420 752 
Q 1681 391 2138 391 
Q 2594 391 2855 752 
Q 3116 1113 3116 1747 
z
M 1159 2969 
Q 1341 3281 1617 3432 
Q 1894 3584 2278 3584 
Q 2916 3584 3314 3078 
Q 3713 2572 3713 1747 
Q 3713 922 3314 415 
Q 2916 -91 2278 -91 
Q 1894 -91 1617 61 
Q 1341 213 1159 525 
L 1159 0 
L 581 0 
L 581 4863 
L 1159 4863 
L 1159 2969 
z
" transform="scale(0.015625)"/>
        <path id="DejaVuSans-73" d="M 2834 3397 
L 2834 2853 
Q 2591 2978 2328 3040 
Q 2066 3103 1784 3103 
Q 1356 3103 1142 2972 
Q 928 2841 928 2578 
Q 928 2378 1081 2264 
Q 1234 2150 1697 2047 
L 1894 2003 
Q 2506 1872 2764 1633 
Q 3022 1394 3022 966 
Q 3022 478 2636 193 
Q 2250 -91 1575 -91 
Q 1294 -91 989 -36 
Q 684 19 347 128 
L 347 722 
Q 666 556 975 473 
Q 1284 391 1588 391 
Q 1994 391 2212 530 
Q 2431 669 2431 922 
Q 2431 1156 2273 1281 
Q 2116 1406 1581 1522 
L 1381 1569 
Q 847 1681 609 1914 
Q 372 2147 372 2553 
Q 372 3047 722 3315 
Q 1072 3584 1716 3584 
Q 2034 3584 2315 3537 
Q 2597 3491 2834 3397 
z
" transform="scale(0.015625)"/>
       </defs>
       <use xlink:href="#DejaVuSans-53"/>
       <use xlink:href="#DejaVuSans-75" transform="translate(63.476562 0)"/>
       <use xlink:href="#DejaVuSans-62" transform="translate(126.855469 0)"/>
       <use xlink:href="#DejaVuSans-20" transform="translate(190.332031 0)"/>
       <use xlink:href="#DejaVuSans-42" transform="translate(222.119141 0)"/>
       <use xlink:href="#DejaVuSans-61" transform="translate(290.722656 0)"/>
       <use xlink:href="#DejaVuSans-73" transform="translate(352.001953 0)"/>
       <use xlink:href="#DejaVuSans-73" transform="translate(404.101562 0)"/>
      </g>
     </g>
    </g>
    <g id="ytick_10">
     <g id="line2d_28">
      <g>
       <use xlink:href="#me703a31cef" x="120.4" y="232.104091" style="fill: #ffffff; stroke: #ffffff; stroke-width: 0.8"/>
      </g>
     </g>
     <g id="text_20">
      <!-- Bass -->
      <g style="fill: #ccb8a0" transform="translate(92.332969 235.523388) scale(0.09 -0.09)">
       <use xlink:href="#DejaVuSans-42"/>
       <use xlink:href="#DejaVuSans-61" transform="translate(68.603516 0)"/>
       <use xlink:href="#DejaVuSans-73" transform="translate(129.882812 0)"/>
       <use xlink:href="#DejaVuSans-73" transform="translate(181.982422 0)"/>
      </g>
     </g>
    </g>
    <g id="ytick_11">
     <g id="line2d_29">
      <g>
       <use xlink:href="#me703a31cef" x="120.4" y="250.047273" style="fill: #ffffff; stroke: #ffffff; stroke-width: 0.8"/>
      </g>
     </g>
     <g id="text_21">
      <!-- Bpm -->
      <g style="fill: #ccb8a0" transform="translate(92.745 253.46657) scale(0.09 -0.09)">
       <use xlink:href="#DejaVuSans-42"/>
       <use xlink:href="#DejaVuSans-70" transform="translate(68.603516 0)"/>
       <use xlink:href="#DejaVuSans-6d" transform="translate(132.080078 0)"/>
      </g>
     </g>
    </g>
    <g id="ytick_12">
     <g id="line2d_30">
      <g>
       <use xlink:href="#me703a31cef" x="120.4" y="267.990455" style="fill: #ffffff; stroke: #ffffff; stroke-width: 0.8"/>
      </g>
     </g>
     <g id="text_22">
      <!-- Key: A -->
      <g style="fill: #ccb8a0" transform="translate(85.687031 271.409751) scale(0.09 -0.09)">
       <defs>
        <path id="DejaVuSans-41" d="M 2188 4044 
L 1331 1722 
L 3047 1722 
L 2188 4044 
z
M 1831 4666 
L 2547 4666 
L 4325 0 
L 3669 0 
L 3244 1197 
L 1141 1197 
L 716 0 
L 50 0 
L 1831 4666 
z
" transform="scale(0.015625)"/>
       </defs>
       <use xlink:href="#DejaVuSans-4b"/>
       <use xlink:href="#DejaVuSans-65" transform="translate(60.576172 0)"/>
       <use xlink:href="#DejaVuSans-79" transform="translate(122.099609 0)"/>
       <use xlink:href="#DejaVuSans-3a" transform="translate(174.029297 0)"/>
       <use xlink:href="#DejaVuSans-20" transform="translate(207.720703 0)"/>
       <use xlink:href="#DejaVuSans-41" transform="translate(239.507812 0)"/>
      </g>
     </g>
    </g>
    <g id="ytick_13">
     <g id="line2d_31">
      <g>
       <use xlink:href="#me703a31cef" x="120.4" y="285.933636" style="fill: #ffffff; stroke: #ffffff; stroke-width: 0.8"/>
      </g>
     </g>
     <g id="text_23">
      <!-- Key: A# -->
      <g style="fill: #ccb8a0" transform="translate(78.145313 289.352933) scale(0.09 -0.09)">
       <use xlink:href="#DejaVuSans-4b"/>
       <use xlink:href="#DejaVuSans-65" transform="translate(60.576172 0)"/>
       <use xlink:href="#DejaVuSans-79" transform="translate(122.099609 0)"/>
       <use xlink:href="#DejaVuSans-3a" transform="translate(174.029297 0)"/>
       <use xlink:href="#DejaVuSans-20" transform="translate(207.720703 0)"/>
       <use xlink:href="#DejaVuSans-41" transform="translate(239.507812 0)"/>
       <use xlink:href="#DejaVuSans-23" transform="translate(307.916016 0)"/>
      </g>
     </g>
    </g>
    <g id="ytick_14">
     <g id="line2d_32">
      <g>
       <use xlink:href="#me703a31cef" x="120.4" y="303.876818" style="fill: #ffffff; stroke: #ffffff; stroke-width: 0.8"/>
      </g>
     </g>
     <g id="text_24">
      <!-- Key: G -->
      <g style="fill: #ccb8a0" transform="translate(84.87 307.296115) scale(0.09 -0.09)">
       <use xlink:href="#DejaVuSans-4b"/>
       <use xlink:href="#DejaVuSans-65" transform="translate(60.576172 0)"/>
       <use xlink:href="#DejaVuSans-79" transform="translate(122.099609 0)"/>
       <use xlink:href="#DejaVuSans-3a" transform="translate(174.029297 0)"/>
       <use xlink:href="#DejaVuSans-20" transform="translate(207.720703 0)"/>
       <use xlink:href="#DejaVuSans-47" transform="translate(239.507812 0)"/>
      </g>
     </g>
    </g>
    <g id="ytick_15">
     <g id="line2d_33">
      <g>
       <use xlink:href="#me703a31cef" x="120.4" y="321.82" style="fill: #ffffff; stroke: #ffffff; stroke-width: 0.8"/>
      </g>
     </g>
     <g id="text_25">
      <!-- Key: E -->
      <g style="fill: #ccb8a0" transform="translate(86.156719 325.239297) scale(0.09 -0.09)">
       <defs>
        <path id="DejaVuSans-45" d="M 628 4666 
L 3578 4666 
L 3578 4134 
L 1259 4134 
L 1259 2753 
L 3481 2753 
L 3481 2222 
L 1259 2222 
L 1259 531 
L 3634 531 
L 3634 0 
L 628 0 
L 628 4666 
z
" transform="scale(0.015625)"/>
       </defs>
       <use xlink:href="#DejaVuSans-4b"/>
       <use xlink:href="#DejaVuSans-65" transform="translate(60.576172 0)"/>
       <use xlink:href="#DejaVuSans-79" transform="translate(122.099609 0)"/>
       <use xlink:href="#DejaVuSans-3a" transform="translate(174.029297 0)"/>
       <use xlink:href="#DejaVuSans-20" transform="translate(207.720703 0)"/>
       <use xlink:href="#DejaVuSans-45" transform="translate(239.507812 0)"/>
      </g>
     </g>
    </g>
    <g id="ytick_16">
     <g id="line2d_34">
      <g>
       <use xlink:href="#me703a31cef" x="120.4" y="339.763182" style="fill: #ffffff; stroke: #ffffff; stroke-width: 0.8"/>
      </g>
     </g>
     <g id="text_26">
      <!-- Key: D# -->
      <g style="fill: #ccb8a0" transform="translate(77.371875 343.182479) scale(0.09 -0.09)">
       <defs>
        <path id="DejaVuSans-44" d="M 1259 4147 
L 1259 519 
L 2022 519 
Q 2988 519 3436 956 
Q 3884 1394 3884 2338 
Q 3884 3275 3436 3711 
Q 2988 4147 2022 4147 
L 1259 4147 
z
M 628 4666 
L 1925 4666 
Q 3281 4666 3915 4102 
Q 4550 3538 4550 2338 
Q 4550 1131 3912 565 
Q 3275 0 1925 0 
L 628 0 
L 628 4666 
z
" transform="scale(0.015625)"/>
       </defs>
       <use xlink:href="#DejaVuSans-4b"/>
       <use xlink:href="#DejaVuSans-65" transform="translate(60.576172 0)"/>
       <use xlink:href="#DejaVuSans-79" transform="translate(122.099609 0)"/>
       <use xlink:href="#DejaVuSans-3a" transform="translate(174.029297 0)"/>
       <use xlink:href="#DejaVuSans-20" transform="translate(207.720703 0)"/>
       <use xlink:href="#DejaVuSans-44" transform="translate(239.507812 0)"/>
       <use xlink:href="#DejaVuSans-23" transform="translate(316.509766 0)"/>
      </g>
     </g>
    </g>
    <g id="ytick_17">
     <g id="line2d_35">
      <g>
       <use xlink:href="#me703a31cef" x="120.4" y="357.706364" style="fill: #ffffff; stroke: #ffffff; stroke-width: 0.8"/>
      </g>
     </g>
     <g id="text_27">
      <!-- Key: G# -->
      <g style="fill: #ccb8a0" transform="translate(77.328281 361.125661) scale(0.09 -0.09)">
       <use xlink:href="#DejaVuSans-4b"/>
       <use xlink:href="#DejaVuSans-65" transform="translate(60.576172 0)"/>
       <use xlink:href="#DejaVuSans-79" transform="translate(122.099609 0)"/>
       <use xlink:href="#DejaVuSans-3a" transform="translate(174.029297 0)"/>
       <use xlink:href="#DejaVuSans-20" transform="translate(207.720703 0)"/>
       <use xlink:href="#DejaVuSans-47" transform="translate(239.507812 0)"/>
       <use xlink:href="#DejaVuSans-23" transform="translate(316.998047 0)"/>
      </g>
     </g>
    </g>
    <g id="ytick_18">
     <g id="line2d_36">
      <g>
       <use xlink:href="#me703a31cef" x="120.4" y="375.649545" style="fill: #ffffff; stroke: #ffffff; stroke-width: 0.8"/>
      </g>
     </g>
     <g id="text_28">
      <!-- Unknown -->
      <g style="fill: #ccb8a0" transform="translate(71.623125 379.068842) scale(0.09 -0.09)">
       <defs>
        <path id="DejaVuSans-55" d="M 556 4666 
L 1191 4666 
L 1191 1831 
Q 1191 1081 1462 751 
Q 1734 422 2344 422 
Q 2950 422 3222 751 
Q 3494 1081 3494 1831 
L 3494 4666 
L 4128 4666 
L 4128 1753 
Q 4128 841 3676 375 
Q 3225 -91 2344 -91 
Q 1459 -91 1007 375 
Q 556 841 556 1753 
L 556 4666 
z
" transform="scale(0.015625)"/>
        <path id="DejaVuSans-6b" d="M 581 4863 
L 1159 4863 
L 1159 1991 
L 2875 3500 
L 3609 3500 
L 1753 1863 
L 3688 0 
L 2938 0 
L 1159 1709 
L 1159 0 
L 581 0 
L 581 4863 
z
" transform="scale(0.015625)"/>
       </defs>
       <use xlink:href="#DejaVuSans-55"/>
       <use xlink:href="#DejaVuSans-6e" transform="translate(73.193359 0)"/>
       <use xlink:href="#DejaVuSans-6b" transform="translate(136.572266 0)"/>
       <use xlink:href="#DejaVuSans-6e" transform="translate(194.482422 0)"/>
       <use xlink:href="#DejaVuSans-6f" transform="translate(257.861328 0)"/>
       <use xlink:href="#DejaVuSans-77" transform="translate(319.042969 0)"/>
       <use xlink:href="#DejaVuSans-6e" transform="translate(400.830078 0)"/>
      </g>
     </g>
    </g>
    <g id="ytick_19">
     <g id="line2d_37">
      <g>
       <use xlink:href="#me703a31cef" x="120.4" y="393.592727" style="fill: #ffffff; stroke: #ffffff; stroke-width: 0.8"/>
      </g>
     </g>
     <g id="text_29">
      <!-- Minor -->
      <g style="fill: #ccb8a0" transform="translate(88.223906 397.012024) scale(0.09 -0.09)">
       <use xlink:href="#DejaVuSans-4d"/>
       <use xlink:href="#DejaVuSans-69" transform="translate(86.279297 0)"/>
       <use xlink:href="#DejaVuSans-6e" transform="translate(114.0625 0)"/>
       <use xlink:href="#DejaVuSans-6f" transform="translate(177.441406 0)"/>
       <use xlink:href="#DejaVuSans-72" transform="translate(238.623047 0)"/>
      </g>
     </g>
    </g>
    <g id="ytick_20">
     <g id="line2d_38">
      <g>
       <use xlink:href="#me703a31cef" x="120.4" y="411.535909" style="fill: #ffffff; stroke: #ffffff; stroke-width: 0.8"/>
      </g>
     </g>
     <g id="text_30">
      <!-- Major -->
      <g style="fill: #ccb8a0" transform="translate(88.412344 414.955206) scale(0.09 -0.09)">
       <defs>
        <path id="DejaVuSans-6a" d="M 603 3500 
L 1178 3500 
L 1178 -63 
Q 1178 -731 923 -1031 
Q 669 -1331 103 -1331 
L -116 -1331 
L -116 -844 
L 38 -844 
Q 366 -844 484 -692 
Q 603 -541 603 -63 
L 603 3500 
z
M 603 4863 
L 1178 4863 
L 1178 4134 
L 603 4134 
L 603 4863 
z
" transform="scale(0.015625)"/>
       </defs>
       <use xlink:href="#DejaVuSans-4d"/>
       <use xlink:href="#DejaVuSans-61" transform="translate(86.279297 0)"/>
       <use xlink:href="#DejaVuSans-6a" transform="translate(147.558594 0)"/>
       <use xlink:href="#DejaVuSans-6f" transform="translate(175.341797 0)"/>
       <use xlink:href="#DejaVuSans-72" transform="translate(236.523438 0)"/>
      </g>
     </g>
    </g>
    <g id="ytick_21">
     <g id="line2d_39">
      <g>
       <use xlink:href="#me703a31cef" x="120.4" y="429.479091" style="fill: #ffffff; stroke: #ffffff; stroke-width: 0.8"/>
      </g>
     </g>
     <g id="text_31">
      <!-- Key: B -->
      <g style="fill: #ccb8a0" transform="translate(85.66875 432.898388) scale(0.09 -0.09)">
       <use xlink:href="#DejaVuSans-4b"/>
       <use xlink:href="#DejaVuSans-65" transform="translate(60.576172 0)"/>
       <use xlink:href="#DejaVuSans-79" transform="translate(122.099609 0)"/>
       <use xlink:href="#DejaVuSans-3a" transform="translate(174.029297 0)"/>
       <use xlink:href="#DejaVuSans-20" transform="translate(207.720703 0)"/>
       <use xlink:href="#DejaVuSans-42" transform="translate(239.507812 0)"/>
      </g>
     </g>
    </g>
    <g id="ytick_22">
     <g id="line2d_40">
      <g>
       <use xlink:href="#me703a31cef" x="120.4" y="447.422273" style="fill: #ffffff; stroke: #ffffff; stroke-width: 0.8"/>
      </g>
     </g>
     <g id="text_32">
      <!-- Duration -->
      <g style="fill: #ccb8a0" transform="translate(74.311875 450.84157) scale(0.09 -0.09)">
       <use xlink:href="#DejaVuSans-44"/>
       <use xlink:href="#DejaVuSans-75" transform="translate(77.001953 0)"/>
       <use xlink:href="#DejaVuSans-72" transform="translate(140.380859 0)"/>
       <use xlink:href="#DejaVuSans-61" transform="translate(181.494141 0)"/>
       <use xlink:href="#DejaVuSans-74" transform="translate(242.773438 0)"/>
       <use xlink:href="#DejaVuSans-69" transform="translate(281.982422 0)"/>
       <use xlink:href="#DejaVuSans-6f" transform="translate(309.765625 0)"/>
       <use xlink:href="#DejaVuSans-6e" transform="translate(370.947266 0)"/>
      </g>
     </g>
    </g>
    <g id="ytick_23">
     <g id="line2d_41">
      <g>
       <use xlink:href="#me703a31cef" x="120.4" y="465.365455" style="fill: #ffffff; stroke: #ffffff; stroke-width: 0.8"/>
      </g>
     </g>
     <g id="text_33">
      <!-- Key: F -->
      <g style="fill: #ccb8a0" transform="translate(86.667188 468.784751) scale(0.09 -0.09)">
       <defs>
        <path id="DejaVuSans-46" d="M 628 4666 
L 3309 4666 
L 3309 4134 
L 1259 4134 
L 1259 2759 
L 3109 2759 
L 3109 2228 
L 1259 2228 
L 1259 0 
L 628 0 
L 628 4666 
z
" transform="scale(0.015625)"/>
       </defs>
       <use xlink:href="#DejaVuSans-4b"/>
       <use xlink:href="#DejaVuSans-65" transform="translate(60.576172 0)"/>
       <use xlink:href="#DejaVuSans-79" transform="translate(122.099609 0)"/>
       <use xlink:href="#DejaVuSans-3a" transform="translate(174.029297 0)"/>
       <use xlink:href="#DejaVuSans-20" transform="translate(207.720703 0)"/>
       <use xlink:href="#DejaVuSans-46" transform="translate(239.507812 0)"/>
      </g>
     </g>
    </g>
    <g id="ytick_24">
     <g id="line2d_42">
      <g>
       <use xlink:href="#me703a31cef" x="120.4" y="483.308636" style="fill: #ffffff; stroke: #ffffff; stroke-width: 0.8"/>
      </g>
     </g>
     <g id="text_34">
      <!-- Key: F# -->
      <g style="fill: #ccb8a0" transform="translate(79.125469 486.727933) scale(0.09 -0.09)">
       <use xlink:href="#DejaVuSans-4b"/>
       <use xlink:href="#DejaVuSans-65" transform="translate(60.576172 0)"/>
       <use xlink:href="#DejaVuSans-79" transform="translate(122.099609 0)"/>
       <use xlink:href="#DejaVuSans-3a" transform="translate(174.029297 0)"/>
       <use xlink:href="#DejaVuSans-20" transform="translate(207.720703 0)"/>
       <use xlink:href="#DejaVuSans-46" transform="translate(239.507812 0)"/>
       <use xlink:href="#DejaVuSans-23" transform="translate(297.027344 0)"/>
      </g>
     </g>
    </g>
    <g id="ytick_25">
     <g id="line2d_43">
      <g>
       <use xlink:href="#me703a31cef" x="120.4" y="501.251818" style="fill: #ffffff; stroke: #ffffff; stroke-width: 0.8"/>
      </g>
     </g>
     <g id="text_35">
      <!-- Spectral Rolloff -->
      <g style="fill: #ccb8a0" transform="translate(45.182813 504.671115) scale(0.09 -0.09)">
       <defs>
        <path id="DejaVuSans-52" d="M 2841 2188 
Q 3044 2119 3236 1894 
Q 3428 1669 3622 1275 
L 4263 0 
L 3584 0 
L 2988 1197 
Q 2756 1666 2539 1819 
Q 2322 1972 1947 1972 
L 1259 1972 
L 1259 0 
L 628 0 
L 628 4666 
L 2053 4666 
Q 2853 4666 3247 4331 
Q 3641 3997 3641 3322 
Q 3641 2881 3436 2590 
Q 3231 2300 2841 2188 
z
M 1259 4147 
L 1259 2491 
L 2053 2491 
Q 2509 2491 2742 2702 
Q 2975 2913 2975 3322 
Q 2975 3731 2742 3939 
Q 2509 4147 2053 4147 
L 1259 4147 
z
" transform="scale(0.015625)"/>
        <path id="DejaVuSans-66" d="M 2375 4863 
L 2375 4384 
L 1825 4384 
Q 1516 4384 1395 4259 
Q 1275 4134 1275 3809 
L 1275 3500 
L 2222 3500 
L 2222 3053 
L 1275 3053 
L 1275 0 
L 697 0 
L 697 3053 
L 147 3053 
L 147 3500 
L 697 3500 
L 697 3744 
Q 697 4328 969 4595 
Q 1241 4863 1831 4863 
L 2375 4863 
z
" transform="scale(0.015625)"/>
       </defs>
       <use xlink:href="#DejaVuSans-53"/>
       <use xlink:href="#DejaVuSans-70" transform="translate(63.476562 0)"/>
       <use xlink:href="#DejaVuSans-65" transform="translate(126.953125 0)"/>
       <use xlink:href="#DejaVuSans-63" transform="translate(188.476562 0)"/>
       <use xlink:href="#DejaVuSans-74" transform="translate(243.457031 0)"/>
       <use xlink:href="#DejaVuSans-72" transform="translate(282.666016 0)"/>
       <use xlink:href="#DejaVuSans-61" transform="translate(323.779297 0)"/>
       <use xlink:href="#DejaVuSans-6c" transform="translate(385.058594 0)"/>
       <use xlink:href="#DejaVuSans-20" transform="translate(412.841797 0)"/>
       <use xlink:href="#DejaVuSans-52" transform="translate(444.628906 0)"/>
       <use xlink:href="#DejaVuSans-6f" transform="translate(509.611328 0)"/>
       <use xlink:href="#DejaVuSans-6c" transform="translate(570.792969 0)"/>
       <use xlink:href="#DejaVuSans-6c" transform="translate(598.576172 0)"/>
       <use xlink:href="#DejaVuSans-6f" transform="translate(626.359375 0)"/>
       <use xlink:href="#DejaVuSans-66" transform="translate(687.541016 0)"/>
       <use xlink:href="#DejaVuSans-66" transform="translate(722.746094 0)"/>
      </g>
     </g>
    </g>
    <g id="ytick_26">
     <g id="line2d_44">
      <g>
       <use xlink:href="#me703a31cef" x="120.4" y="519.195" style="fill: #ffffff; stroke: #ffffff; stroke-width: 0.8"/>
      </g>
     </g>
     <g id="text_36">
      <!-- Key: D -->
      <g style="fill: #ccb8a0" transform="translate(84.913594 522.614297) scale(0.09 -0.09)">
       <use xlink:href="#DejaVuSans-4b"/>
       <use xlink:href="#DejaVuSans-65" transform="translate(60.576172 0)"/>
       <use xlink:href="#DejaVuSans-79" transform="translate(122.099609 0)"/>
       <use xlink:href="#DejaVuSans-3a" transform="translate(174.029297 0)"/>
       <use xlink:href="#DejaVuSans-20" transform="translate(207.720703 0)"/>
       <use xlink:href="#DejaVuSans-44" transform="translate(239.507812 0)"/>
      </g>
     </g>
    </g>
    <g id="ytick_27">
     <g id="line2d_45">
      <g>
       <use xlink:href="#me703a31cef" x="120.4" y="537.138182" style="fill: #ffffff; stroke: #ffffff; stroke-width: 0.8"/>
      </g>
     </g>
     <g id="text_37">
      <!-- Dynamic Complexity -->
      <g style="fill: #ccb8a0" transform="translate(20.01375 540.557479) scale(0.09 -0.09)">
       <defs>
        <path id="DejaVuSans-78" d="M 3513 3500 
L 2247 1797 
L 3578 0 
L 2900 0 
L 1881 1375 
L 863 0 
L 184 0 
L 1544 1831 
L 300 3500 
L 978 3500 
L 1906 2253 
L 2834 3500 
L 3513 3500 
z
" transform="scale(0.015625)"/>
       </defs>
       <use xlink:href="#DejaVuSans-44"/>
       <use xlink:href="#DejaVuSans-79" transform="translate(77.001953 0)"/>
       <use xlink:href="#DejaVuSans-6e" transform="translate(136.181641 0)"/>
       <use xlink:href="#DejaVuSans-61" transform="translate(199.560547 0)"/>
       <use xlink:href="#DejaVuSans-6d" transform="translate(260.839844 0)"/>
       <use xlink:href="#DejaVuSans-69" transform="translate(358.251953 0)"/>
       <use xlink:href="#DejaVuSans-63" transform="translate(386.035156 0)"/>
       <use xlink:href="#DejaVuSans-20" transform="translate(441.015625 0)"/>
       <use xlink:href="#DejaVuSans-43" transform="translate(472.802734 0)"/>
       <use xlink:href="#DejaVuSans-6f" transform="translate(542.626953 0)"/>
       <use xlink:href="#DejaVuSans-6d" transform="translate(603.808594 0)"/>
       <use xlink:href="#DejaVuSans-70" transform="translate(701.220703 0)"/>
       <use xlink:href="#DejaVuSans-6c" transform="translate(764.697266 0)"/>
       <use xlink:href="#DejaVuSans-65" transform="translate(792.480469 0)"/>
       <use xlink:href="#DejaVuSans-78" transform="translate(852.253906 0)"/>
       <use xlink:href="#DejaVuSans-69" transform="translate(911.433594 0)"/>
       <use xlink:href="#DejaVuSans-74" transform="translate(939.216797 0)"/>
       <use xlink:href="#DejaVuSans-79" transform="translate(978.425781 0)"/>
      </g>
     </g>
    </g>
    <g id="ytick_28">
     <g id="line2d_46">
      <g>
       <use xlink:href="#me703a31cef" x="120.4" y="555.081364" style="fill: #ffffff; stroke: #ffffff; stroke-width: 0.8"/>
      </g>
     </g>
     <g id="text_38">
      <!-- Onset Rate -->
      <g style="fill: #ccb8a0" transform="translate(63.364219 558.500661) scale(0.09 -0.09)">
       <defs>
        <path id="DejaVuSans-4f" d="M 2522 4238 
Q 1834 4238 1429 3725 
Q 1025 3213 1025 2328 
Q 1025 1447 1429 934 
Q 1834 422 2522 422 
Q 3209 422 3611 934 
Q 4013 1447 4013 2328 
Q 4013 3213 3611 3725 
Q 3209 4238 2522 4238 
z
M 2522 4750 
Q 3503 4750 4090 4092 
Q 4678 3434 4678 2328 
Q 4678 1225 4090 567 
Q 3503 -91 2522 -91 
Q 1538 -91 948 565 
Q 359 1222 359 2328 
Q 359 3434 948 4092 
Q 1538 4750 2522 4750 
z
" transform="scale(0.015625)"/>
       </defs>
       <use xlink:href="#DejaVuSans-4f"/>
       <use xlink:href="#DejaVuSans-6e" transform="translate(78.710938 0)"/>
       <use xlink:href="#DejaVuSans-73" transform="translate(142.089844 0)"/>
       <use xlink:href="#DejaVuSans-65" transform="translate(194.189453 0)"/>
       <use xlink:href="#DejaVuSans-74" transform="translate(255.712891 0)"/>
       <use xlink:href="#DejaVuSans-20" transform="translate(294.921875 0)"/>
       <use xlink:href="#DejaVuSans-52" transform="translate(326.708984 0)"/>
       <use xlink:href="#DejaVuSans-61" transform="translate(393.941406 0)"/>
       <use xlink:href="#DejaVuSans-74" transform="translate(455.220703 0)"/>
       <use xlink:href="#DejaVuSans-65" transform="translate(494.429688 0)"/>
      </g>
     </g>
    </g>
    <g id="ytick_29">
     <g id="line2d_47">
      <g>
       <use xlink:href="#me703a31cef" x="120.4" y="573.024545" style="fill: #ffffff; stroke: #ffffff; stroke-width: 0.8"/>
      </g>
     </g>
     <g id="text_39">
      <!-- Beat Conf -->
      <g style="fill: #ccb8a0" transform="translate(69.12 576.443842) scale(0.09 -0.09)">
       <use xlink:href="#DejaVuSans-42"/>
       <use xlink:href="#DejaVuSans-65" transform="translate(68.603516 0)"/>
       <use xlink:href="#DejaVuSans-61" transform="translate(130.126953 0)"/>
       <use xlink:href="#DejaVuSans-74" transform="translate(191.40625 0)"/>
       <use xlink:href="#DejaVuSans-20" transform="translate(230.615234 0)"/>
       <use xlink:href="#DejaVuSans-43" transform="translate(262.402344 0)"/>
       <use xlink:href="#DejaVuSans-6f" transform="translate(332.226562 0)"/>
       <use xlink:href="#DejaVuSans-6e" transform="translate(393.408203 0)"/>
       <use xlink:href="#DejaVuSans-66" transform="translate(456.787109 0)"/>
      </g>
     </g>
    </g>
   </g>
   <g id="patch_32">
    <path d="M 120.4 606.04 
L 120.4 37.6 
" style="fill: none; stroke: #ffffff; stroke-width: 0.8; stroke-linejoin: miter; stroke-linecap: square"/>
   </g>
   <g id="patch_33">
    <path d="M 709.2 606.04 
L 709.2 37.6 
" style="fill: none; stroke: #ffffff; stroke-width: 0.8; stroke-linejoin: miter; stroke-linecap: square"/>
   </g>
   <g id="patch_34">
    <path d="M 120.4 606.04 
L 709.2 606.04 
" style="fill: none; stroke: #ffffff; stroke-width: 0.8; stroke-linejoin: miter; stroke-linecap: square"/>
   </g>
   <g id="patch_35">
    <path d="M 120.4 37.6 
L 709.2 37.6 
" style="fill: none; stroke: #ffffff; stroke-width: 0.8; stroke-linejoin: miter; stroke-linecap: square"/>
   </g>
   <g id="text_40">
    <!-- Feature Importance — RandomForest Zone Classifier -->
    <g style="fill: #e8dcc8" transform="translate(229.889531 21.6) scale(0.14 -0.14)">
     <defs>
      <path id="DejaVuSans-49" d="M 628 4666 
L 1259 4666 
L 1259 0 
L 628 0 
L 628 4666 
z
" transform="scale(0.015625)"/>
      <path id="DejaVuSans-2014" d="M 313 1978 
L 6088 1978 
L 6088 1528 
L 313 1528 
L 313 1978 
z
" transform="scale(0.015625)"/>
      <path id="DejaVuSans-5a" d="M 359 4666 
L 4025 4666 
L 4025 4184 
L 1075 531 
L 4097 531 
L 4097 0 
L 288 0 
L 288 481 
L 3238 4134 
L 359 4134 
L 359 4666 
z
" transform="scale(0.015625)"/>
     </defs>
     <use xlink:href="#DejaVuSans-46"/>
     <use xlink:href="#DejaVuSans-65" transform="translate(52.019531 0)"/>
     <use xlink:href="#DejaVuSans-61" transform="translate(113.542969 0)"/>
     <use xlink:href="#DejaVuSans-74" transform="translate(174.822266 0)"/>
     <use xlink:href="#DejaVuSans-75" transform="translate(214.03125 0)"/>
     <use xlink:href="#DejaVuSans-72" transform="translate(277.410156 0)"/>
     <use xlink:href="#DejaVuSans-65" transform="translate(316.273438 0)"/>
     <use xlink:href="#DejaVuSans-20" transform="translate(377.796875 0)"/>
     <use xlink:href="#DejaVuSans-49" transform="translate(409.583984 0)"/>
     <use xlink:href="#DejaVuSans-6d" transform="translate(439.076172 0)"/>
     <use xlink:href="#DejaVuSans-70" transform="translate(536.488281 0)"/>
     <use xlink:href="#DejaVuSans-6f" transform="translate(599.964844 0)"/>
     <use xlink:href="#DejaVuSans-72" transform="translate(661.146484 0)"/>
     <use xlink:href="#DejaVuSans-74" transform="translate(702.259766 0)"/>
     <use xlink:href="#DejaVuSans-61" transform="translate(741.46875 0)"/>
     <use xlink:href="#DejaVuSans-6e" transform="translate(802.748047 0)"/>
     <use xlink:href="#DejaVuSans-63" transform="translate(866.126953 0)"/>
     <use xlink:href="#DejaVuSans-65" transform="translate(921.107422 0)"/>
     <use xlink:href="#DejaVuSans-20" transform="translate(982.630859 0)"/>
     <use xlink:href="#DejaVuSans-2014" transform="translate(1014.417969 0)"/>
     <use xlink:href="#DejaVuSans-20" transform="translate(1114.417969 0)"/>
     <use xlink:href="#DejaVuSans-52" transform="translate(1146.205078 0)"/>
     <use xlink:href="#DejaVuSans-61" transform="translate(1213.4375 0)"/>
     <use xlink:href="#DejaVuSans-6e" transform="translate(1274.716797 0)"/>
     <use xlink:href="#DejaVuSans-64" transform="translate(1338.095703 0)"/>
     <use xlink:href="#DejaVuSans-6f" transform="translate(1401.572266 0)"/>
     <use xlink:href="#DejaVuSans-6d" transform="translate(1462.753906 0)"/>
     <use xlink:href="#DejaVuSans-46" transform="translate(1560.166016 0)"/>
     <use xlink:href="#DejaVuSans-6f" transform="translate(1614.060547 0)"/>
     <use xlink:href="#DejaVuSans-72" transform="translate(1675.242188 0)"/>
     <use xlink:href="#DejaVuSans-65" transform="translate(1714.105469 0)"/>
     <use xlink:href="#DejaVuSans-73" transform="translate(1775.628906 0)"/>
     <use xlink:href="#DejaVuSans-74" transform="translate(1827.728516 0)"/>
     <use xlink:href="#DejaVuSans-20" transform="translate(1866.9375 0)"/>
     <use xlink:href="#DejaVuSans-5a" transform="translate(1898.724609 0)"/>
     <use xlink:href="#DejaVuSans-6f" transform="translate(1967.230469 0)"/>
     <use xlink:href="#DejaVuSans-6e" transform="translate(2028.412109 0)"/>
     <use xlink:href="#DejaVuSans-65" transform="translate(2091.791016 0)"/>
     <use xlink:href="#DejaVuSans-20" transform="translate(2153.314453 0)"/>
     <use xlink:href="#DejaVuSans-43" transform="translate(2185.101562 0)"/>
     <use xlink:href="#DejaVuSans-6c" transform="translate(2254.925781 0)"/>
     <use xlink:href="#DejaVuSans-61" transform="translate(2282.708984 0)"/>
     <use xlink:href="#DejaVuSans-73" transform="translate(2343.988281 0)"/>
     <use xlink:href="#DejaVuSans-73" transform="translate(2396.087891 0)"/>
     <use xlink:href="#DejaVuSans-69" transform="translate(2448.1875 0)"/>
     <use xlink:href="#DejaVuSans-66" transform="translate(2475.970703 0)"/>
     <use xlink:href="#DejaVuSans-69" transform="translate(2511.175781 0)"/>
     <use xlink:href="#DejaVuSans-65" transform="translate(2538.958984 0)"/>
     <use xlink:href="#DejaVuSans-72" transform="translate(2600.482422 0)"/>
    </g>
   </g>
  </g>
 </g>
 <defs>
  <clipPath id="pf54b6ee264">
   <rect x="120.4" y="37.6" width="588.8" height="568.44"/>
  </clipPath>
 </defs>
</svg>
