<?xml version="1.0" encoding="UTF-8"?>
<svg xmlns="http://www.w3.org/2000/svg" xmlns:xlink="http://www.w3.org/1999/xlink" width="854" height="480" viewBox="0 0 854 480">
<defs>
<g>
<g id="glyph-0-0">
<path d="M 0.84375 0 L 0.84375 -6.34375 L 2.546875 -6.34375 C 3.203125 -6.34375 3.71875 -6.222656 4.09375 -5.984375 C 4.476562 -5.753906 4.671875 -5.359375 4.671875 -4.796875 C 4.671875 -4.378906 4.566406 -4.050781 4.359375 -3.8125 C 4.160156 -3.570312 3.882812 -3.425781 3.53125 -3.375 L 3.53125 -3.328125 C 3.769531 -3.285156 3.988281 -3.207031 4.1875 -3.09375 C 4.382812 -2.988281 4.539062 -2.835938 4.65625 -2.640625 C 4.78125 -2.441406 4.84375 -2.175781 4.84375 -1.84375 C 4.84375 -1.269531 4.660156 -0.816406 4.296875 -0.484375 C 3.941406 -0.160156 3.445312 0 2.8125 0 Z M 2.625 -3.65625 C 3.070312 -3.65625 3.390625 -3.738281 3.578125 -3.90625 C 3.765625 -4.082031 3.859375 -4.34375 3.859375 -4.6875 C 3.859375 -5.03125 3.753906 -5.273438 3.546875 -5.421875 C 3.347656 -5.578125 2.992188 -5.65625 2.484375 -5.65625 L 1.59375 -5.65625 L 1.59375 -3.65625 Z M 2.671875 -0.6875 C 3.179688 -0.6875 3.535156 -0.789062 3.734375 -1 C 3.929688 -1.21875 4.03125 -1.5 4.03125 -1.84375 C 4.03125 -2.1875 3.925781 -2.457031 3.71875 -2.65625 C 3.507812 -2.863281 3.144531 -2.96875 2.625 -2.96875 L 1.59375 -2.96875 L 1.59375 -0.6875 Z "/>
</g>
<g id="glyph-0-1">
<path d="M 2.328125 0.09375 C 1.753906 0.09375 1.332031 -0.046875 1.0625 -0.328125 C 0.800781 -0.609375 0.671875 -1.03125 0.671875 -1.59375 L 0.671875 -4.765625 L 1.46875 -4.765625 L 1.46875 -1.71875 C 1.46875 -1.332031 1.546875 -1.039062 1.703125 -0.84375 C 1.859375 -0.65625 2.128906 -0.5625 2.515625 -0.5625 C 3.003906 -0.5625 3.34375 -0.710938 3.53125 -1.015625 C 3.726562 -1.328125 3.828125 -1.757812 3.828125 -2.3125 L 3.828125 -4.765625 L 4.625 -4.765625 L 4.625 0 L 3.984375 0 L 3.875 -0.640625 L 3.828125 -0.640625 C 3.660156 -0.367188 3.445312 -0.175781 3.1875 -0.0625 C 2.9375 0.0390625 2.648438 0.09375 2.328125 0.09375 Z "/>
</g>
<g id="glyph-0-2">
<path d="M 3 0.09375 C 2.300781 0.09375 1.75 -0.0976562 1.34375 -0.484375 C 0.945312 -0.867188 0.75 -1.488281 0.75 -2.34375 C 0.75 -2.957031 0.847656 -3.445312 1.046875 -3.8125 C 1.242188 -4.175781 1.519531 -4.441406 1.875 -4.609375 C 2.226562 -4.773438 2.628906 -4.859375 3.078125 -4.859375 C 3.359375 -4.859375 3.613281 -4.828125 3.84375 -4.765625 C 4.070312 -4.710938 4.285156 -4.632812 4.484375 -4.53125 L 4.25 -3.875 C 4.0625 -3.976562 3.878906 -4.050781 3.703125 -4.09375 C 3.523438 -4.132812 3.332031 -4.15625 3.125 -4.15625 C 2.570312 -4.15625 2.175781 -4.003906 1.9375 -3.703125 C 1.695312 -3.410156 1.578125 -2.960938 1.578125 -2.359375 C 1.578125 -1.722656 1.703125 -1.269531 1.953125 -1 C 2.210938 -0.726562 2.59375 -0.59375 3.09375 -0.59375 C 3.351562 -0.59375 3.597656 -0.617188 3.828125 -0.671875 C 4.054688 -0.734375 4.257812 -0.800781 4.4375 -0.875 L 4.4375 -0.171875 C 4.257812 -0.0859375 4.039062 -0.0234375 3.78125 0.015625 C 3.519531 0.0664062 3.257812 0.09375 3 0.09375 Z "/>
</g>
<g id="glyph-0-3">
<path d="M 0.9375 0 L 0.9375 -6.75 L 1.734375 -6.75 L 1.734375 -3.5 C 1.734375 -3.320312 1.722656 -3.101562 1.703125 -2.84375 C 1.691406 -2.59375 1.679688 -2.363281 1.671875 -2.15625 L 1.6875 -2.15625 C 1.800781 -2.300781 1.910156 -2.4375 2.015625 -2.5625 C 2.117188 -2.6875 2.226562 -2.8125 2.34375 -2.9375 L 3.984375 -4.765625 L 4.9375 -4.765625 L 3.046875 -2.71875 L 5.0625 0 L 4.140625 0 L 2.515625 -2.234375 L 1.734375 -1.484375 L 1.734375 0 Z "/>
</g>
<g id="glyph-0-4">
<path d="M 3 0.09375 C 2.226562 0.09375 1.625 -0.117188 1.1875 -0.546875 C 0.75 -0.972656 0.53125 -1.578125 0.53125 -2.359375 C 0.53125 -2.878906 0.625 -3.328125 0.8125 -3.703125 C 1.007812 -4.078125 1.273438 -4.363281 1.609375 -4.5625 C 1.941406 -4.757812 2.335938 -4.859375 2.796875 -4.859375 C 3.410156 -4.859375 3.894531 -4.65625 4.25 -4.25 C 4.613281 -3.84375 4.796875 -3.289062 4.796875 -2.59375 L 4.796875 -2.234375 L 1.34375 -2.234375 C 1.351562 -1.816406 1.429688 -1.484375 1.578125 -1.234375 C 1.722656 -0.992188 1.921875 -0.820312 2.171875 -0.71875 C 2.421875 -0.613281 2.710938 -0.5625 3.046875 -0.5625 C 3.304688 -0.5625 3.5625 -0.597656 3.8125 -0.671875 C 4.070312 -0.742188 4.332031 -0.835938 4.59375 -0.953125 L 4.59375 -0.25 C 4.3125 -0.132812 4.035156 -0.0507812 3.765625 0 C 3.492188 0.0625 3.238281 0.09375 3 0.09375 Z M 4 -2.875 C 3.976562 -3.289062 3.863281 -3.613281 3.65625 -3.84375 C 3.457031 -4.082031 3.171875 -4.203125 2.796875 -4.203125 C 2.398438 -4.203125 2.078125 -4.082031 1.828125 -3.84375 C 1.578125 -3.601562 1.421875 -3.28125 1.359375 -2.875 Z "/>
</g>
<g id="glyph-0-5">
<path d="M 3.578125 0.09375 C 3.234375 0.09375 2.925781 0.0507812 2.65625 -0.03125 C 2.394531 -0.125 2.1875 -0.285156 2.03125 -0.515625 C 1.875 -0.742188 1.796875 -1.054688 1.796875 -1.453125 L 1.796875 -4.09375 L 0.5 -4.09375 L 0.5 -4.65625 L 1.796875 -4.796875 L 1.953125 -6.03125 L 2.59375 -6.03125 L 2.59375 -4.765625 L 4.453125 -4.765625 L 4.453125 -4.09375 L 2.59375 -4.09375 L 2.59375 -1.59375 C 2.59375 -1.238281 2.671875 -0.976562 2.828125 -0.8125 C 2.992188 -0.644531 3.257812 -0.5625 3.625 -0.5625 C 3.78125 -0.5625 3.945312 -0.578125 4.125 -0.609375 C 4.300781 -0.640625 4.457031 -0.664062 4.59375 -0.6875 L 4.59375 -0.046875 C 4.445312 -0.015625 4.285156 0.015625 4.109375 0.046875 C 3.941406 0.078125 3.765625 0.09375 3.578125 0.09375 Z "/>
</g>
<g id="glyph-0-6">
</g>
<g id="glyph-0-7">
<path d="M 2.5 0.09375 C 2.15625 0.09375 1.828125 0.0625 1.515625 0 C 1.203125 -0.0625 0.945312 -0.140625 0.75 -0.234375 L 0.75 -0.984375 C 0.96875 -0.878906 1.234375 -0.785156 1.546875 -0.703125 C 1.867188 -0.628906 2.191406 -0.59375 2.515625 -0.59375 C 3.429688 -0.59375 3.890625 -0.960938 3.890625 -1.703125 C 3.890625 -1.910156 3.847656 -2.070312 3.765625 -2.1875 C 3.679688 -2.300781 3.53125 -2.410156 3.3125 -2.515625 C 3.101562 -2.628906 2.8125 -2.769531 2.4375 -2.9375 C 2.1875 -3.050781 1.941406 -3.175781 1.703125 -3.3125 C 1.460938 -3.445312 1.265625 -3.628906 1.109375 -3.859375 C 0.960938 -4.085938 0.890625 -4.382812 0.890625 -4.75 C 0.890625 -5.289062 1.070312 -5.707031 1.4375 -6 C 1.800781 -6.289062 2.296875 -6.4375 2.921875 -6.4375 C 3.242188 -6.4375 3.546875 -6.398438 3.828125 -6.328125 C 4.117188 -6.265625 4.367188 -6.179688 4.578125 -6.078125 L 4.328125 -5.421875 C 4.117188 -5.515625 3.890625 -5.585938 3.640625 -5.640625 C 3.390625 -5.691406 3.144531 -5.71875 2.90625 -5.71875 C 2.5625 -5.71875 2.273438 -5.644531 2.046875 -5.5 C 1.828125 -5.351562 1.71875 -5.097656 1.71875 -4.734375 C 1.71875 -4.523438 1.757812 -4.351562 1.84375 -4.21875 C 1.925781 -4.09375 2.0625 -3.976562 2.25 -3.875 C 2.445312 -3.78125 2.691406 -3.664062 2.984375 -3.53125 C 3.328125 -3.394531 3.625 -3.253906 3.875 -3.109375 C 4.132812 -2.960938 4.335938 -2.78125 4.484375 -2.5625 C 4.628906 -2.351562 4.703125 -2.066406 4.703125 -1.703125 C 4.703125 -1.140625 4.515625 -0.695312 4.140625 -0.375 C 3.773438 -0.0625 3.226562 0.09375 2.5 0.09375 Z "/>
</g>
<g id="glyph-0-8">
<path d="M 2.734375 -5.625 C 2.578125 -5.625 2.441406 -5.671875 2.328125 -5.765625 C 2.222656 -5.859375 2.171875 -6 2.171875 -6.1875 C 2.171875 -6.382812 2.222656 -6.523438 2.328125 -6.609375 C 2.441406 -6.703125 2.578125 -6.75 2.734375 -6.75 C 2.878906 -6.75 3.007812 -6.703125 3.125 -6.609375 C 3.238281 -6.523438 3.296875 -6.382812 3.296875 -6.1875 C 3.296875 -6 3.238281 -5.859375 3.125 -5.765625 C 3.007812 -5.671875 2.878906 -5.625 2.734375 -5.625 Z M 0.71875 0 L 0.71875 -0.53125 L 2.40625 -0.671875 L 2.40625 -4.09375 L 0.859375 -4.21875 L 0.859375 -4.765625 L 3.203125 -4.765625 L 3.203125 -0.671875 L 4.796875 -0.53125 L 4.796875 0 Z "/>
</g>
<g id="glyph-0-9">
<path d="M 0.796875 0 L 0.796875 -0.546875 L 3.59375 -4.15625 L 0.9375 -4.15625 L 0.9375 -4.765625 L 4.46875 -4.765625 L 4.46875 -4.140625 L 1.75 -0.671875 L 4.53125 -0.671875 L 4.53125 0 Z "/>
</g>
</g>
</defs>
<g fill="rgb(100%, 84.313725%, 0%)" fill-opacity="1">
<use xlink:href="#glyph-0-0" x="30" y="29.50293"/>
<use xlink:href="#glyph-0-1" x="35" y="29.50293"/>
<use xlink:href="#glyph-0-2" x="40" y="29.50293"/>
<use xlink:href="#glyph-0-3" x="45" y="29.50293"/>
<use xlink:href="#glyph-0-4" x="50" y="29.50293"/>
<use xlink:href="#glyph-0-5" x="55" y="29.50293"/>
<use xlink:href="#glyph-0-6" x="60" y="29.50293"/>
<use xlink:href="#glyph-0-7" x="65" y="29.50293"/>
<use xlink:href="#glyph-0-8" x="70" y="29.50293"/>
<use xlink:href="#glyph-0-9" x="75" y="29.50293"/>
<use xlink:href="#glyph-0-4" x="80" y="29.50293"/>
</g>
</svg>
