<?xml version="1.0" encoding="UTF-8"?>
<svg xmlns="http://www.w3.org/2000/svg" xmlns:xlink="http://www.w3.org/1999/xlink" width="854" height="480" viewBox="0 0 854 480">
<defs>
<g>
<g id="glyph-0-0">
<path d="M 2.171875 0.078125 C 1.910156 0.078125 1.660156 0.0507812 1.421875 0 C 1.191406 -0.0390625 0.988281 -0.101562 0.8125 -0.1875 L 0.8125 -0.828125 C 1 -0.742188 1.203125 -0.664062 1.421875 -0.59375 C 1.640625 -0.53125 1.898438 -0.5 2.203125 -0.5 C 2.546875 -0.5 2.789062 -0.550781 2.9375 -0.65625 C 3.082031 -0.757812 3.15625 -0.914062 3.15625 -1.125 C 3.15625 -1.226562 3.128906 -1.316406 3.078125 -1.390625 C 3.023438 -1.460938 2.925781 -1.535156 2.78125 -1.609375 C 2.644531 -1.679688 2.441406 -1.773438 2.171875 -1.890625 C 1.910156 -2.003906 1.679688 -2.113281 1.484375 -2.21875 C 1.296875 -2.320312 1.148438 -2.441406 1.046875 -2.578125 C 0.941406 -2.722656 0.890625 -2.910156 0.890625 -3.140625 C 0.890625 -3.503906 1.03125 -3.78125 1.3125 -3.96875 C 1.59375 -4.15625 1.984375 -4.25 2.484375 -4.25 C 2.710938 -4.25 2.929688 -4.226562 3.140625 -4.1875 C 3.347656 -4.144531 3.566406 -4.078125 3.796875 -3.984375 L 3.578125 -3.4375 C 3.367188 -3.53125 3.175781 -3.59375 3 -3.625 C 2.832031 -3.65625 2.660156 -3.671875 2.484375 -3.671875 C 2.160156 -3.671875 1.925781 -3.628906 1.78125 -3.546875 C 1.632812 -3.460938 1.5625 -3.332031 1.5625 -3.15625 C 1.5625 -3.039062 1.59375 -2.941406 1.65625 -2.859375 C 1.726562 -2.785156 1.835938 -2.710938 1.984375 -2.640625 C 2.128906 -2.566406 2.320312 -2.476562 2.5625 -2.375 C 2.84375 -2.257812 3.078125 -2.148438 3.265625 -2.046875 C 3.460938 -1.953125 3.609375 -1.835938 3.703125 -1.703125 C 3.804688 -1.566406 3.859375 -1.378906 3.859375 -1.140625 C 3.859375 -0.742188 3.710938 -0.441406 3.421875 -0.234375 C 3.140625 -0.0234375 2.722656 0.078125 2.171875 0.078125 Z "/>
</g>
<g id="glyph-0-1">
<path d="M 0.625 1.875 L 0.625 -4.171875 L 1.203125 -4.171875 L 1.28125 -3.609375 L 1.3125 -3.609375 C 1.4375 -3.804688 1.597656 -3.960938 1.796875 -4.078125 C 1.992188 -4.191406 2.25 -4.25 2.5625 -4.25 C 3.070312 -4.25 3.476562 -4.066406 3.78125 -3.703125 C 4.082031 -3.335938 4.234375 -2.800781 4.234375 -2.09375 C 4.234375 -1.382812 4.082031 -0.84375 3.78125 -0.46875 C 3.476562 -0.101562 3.070312 0.078125 2.5625 0.078125 C 2.25 0.078125 1.992188 0.0117188 1.796875 -0.109375 C 1.597656 -0.234375 1.4375 -0.375 1.3125 -0.53125 L 1.265625 -0.53125 C 1.296875 -0.332031 1.3125 -0.128906 1.3125 0.078125 L 1.3125 1.875 Z M 2.40625 -0.484375 C 2.800781 -0.484375 3.085938 -0.617188 3.265625 -0.890625 C 3.441406 -1.160156 3.53125 -1.566406 3.53125 -2.109375 C 3.53125 -2.640625 3.441406 -3.035156 3.265625 -3.296875 C 3.085938 -3.554688 2.800781 -3.6875 2.40625 -3.6875 C 2.03125 -3.6875 1.753906 -3.5625 1.578125 -3.3125 C 1.398438 -3.0625 1.3125 -2.707031 1.3125 -2.25 L 1.3125 -2.09375 C 1.3125 -1.601562 1.390625 -1.210938 1.546875 -0.921875 C 1.710938 -0.628906 2 -0.484375 2.40625 -0.484375 Z "/>
</g>
<g id="glyph-0-2">
<path d="M 2.625 0.078125 C 1.957031 0.078125 1.429688 -0.101562 1.046875 -0.46875 C 0.660156 -0.84375 0.46875 -1.375 0.46875 -2.0625 C 0.46875 -2.519531 0.550781 -2.910156 0.71875 -3.234375 C 0.882812 -3.566406 1.113281 -3.816406 1.40625 -3.984375 C 1.707031 -4.160156 2.050781 -4.25 2.4375 -4.25 C 2.988281 -4.25 3.421875 -4.070312 3.734375 -3.71875 C 4.046875 -3.363281 4.203125 -2.878906 4.203125 -2.265625 L 4.203125 -1.953125 L 1.171875 -1.953125 C 1.179688 -1.585938 1.25 -1.296875 1.375 -1.078125 C 1.507812 -0.867188 1.6875 -0.71875 1.90625 -0.625 C 2.125 -0.539062 2.378906 -0.5 2.671875 -0.5 C 2.898438 -0.5 3.125 -0.53125 3.34375 -0.59375 C 3.570312 -0.65625 3.796875 -0.738281 4.015625 -0.84375 L 4.015625 -0.21875 C 3.773438 -0.113281 3.535156 -0.0390625 3.296875 0 C 3.054688 0.0507812 2.832031 0.078125 2.625 0.078125 Z M 3.5 -2.515625 C 3.488281 -2.878906 3.390625 -3.164062 3.203125 -3.375 C 3.023438 -3.582031 2.769531 -3.6875 2.4375 -3.6875 C 2.09375 -3.6875 1.8125 -3.578125 1.59375 -3.359375 C 1.382812 -3.148438 1.25 -2.867188 1.1875 -2.515625 Z "/>
</g>
<g id="glyph-0-3">
<path d="M 1.921875 0.078125 C 1.503906 0.078125 1.171875 -0.0195312 0.921875 -0.21875 C 0.671875 -0.425781 0.546875 -0.734375 0.546875 -1.140625 C 0.546875 -1.597656 0.707031 -1.9375 1.03125 -2.15625 C 1.351562 -2.375 1.820312 -2.492188 2.4375 -2.515625 L 3.328125 -2.53125 L 3.328125 -2.703125 C 3.328125 -3.078125 3.234375 -3.332031 3.046875 -3.46875 C 2.859375 -3.613281 2.609375 -3.6875 2.296875 -3.6875 C 2.066406 -3.6875 1.851562 -3.65625 1.65625 -3.59375 C 1.457031 -3.539062 1.265625 -3.460938 1.078125 -3.359375 L 0.84375 -3.890625 C 1.039062 -3.984375 1.257812 -4.066406 1.5 -4.140625 C 1.738281 -4.210938 2.015625 -4.25 2.328125 -4.25 C 2.859375 -4.25 3.265625 -4.128906 3.546875 -3.890625 C 3.828125 -3.660156 3.96875 -3.296875 3.96875 -2.796875 L 3.96875 0 L 3.40625 0 L 3.328125 -0.578125 L 3.296875 -0.578125 C 3.128906 -0.359375 2.929688 -0.191406 2.703125 -0.078125 C 2.484375 0.0234375 2.222656 0.078125 1.921875 0.078125 Z M 2.03125 -0.484375 C 2.257812 -0.484375 2.472656 -0.523438 2.671875 -0.609375 C 2.867188 -0.703125 3.023438 -0.832031 3.140625 -1 C 3.265625 -1.175781 3.328125 -1.398438 3.328125 -1.671875 L 3.328125 -2.03125 L 2.578125 -2.015625 C 2.085938 -1.992188 1.734375 -1.910156 1.515625 -1.765625 C 1.304688 -1.628906 1.203125 -1.429688 1.203125 -1.171875 C 1.203125 -0.929688 1.273438 -0.753906 1.421875 -0.640625 C 1.578125 -0.535156 1.78125 -0.484375 2.03125 -0.484375 Z "/>
</g>
<g id="glyph-0-4">
<path d="M 0.8125 0 L 0.8125 -5.90625 L 1.515625 -5.90625 L 1.515625 -3.0625 C 1.515625 -2.90625 1.507812 -2.710938 1.5 -2.484375 C 1.488281 -2.265625 1.476562 -2.066406 1.46875 -1.890625 L 1.484375 -1.890625 C 1.578125 -2.015625 1.671875 -2.128906 1.765625 -2.234375 C 1.859375 -2.347656 1.953125 -2.460938 2.046875 -2.578125 L 3.484375 -4.171875 L 4.328125 -4.171875 L 2.671875 -2.375 L 4.4375 0 L 3.625 0 L 2.203125 -1.953125 L 1.515625 -1.296875 L 1.515625 0 Z "/>
</g>
</g>
</defs>
<g fill="rgb(22.352941%, 100%, 7.843137%)" fill-opacity="1">
<use xlink:href="#glyph-0-0" x="30" y="28.314453"/>
<use xlink:href="#glyph-0-1" x="35" y="28.314453"/>
<use xlink:href="#glyph-0-2" x="40" y="28.314453"/>
<use xlink:href="#glyph-0-3" x="45" y="28.314453"/>
<use xlink:href="#glyph-0-4" x="50" y="28.314453"/>
<use xlink:href="#glyph-0-0" x="55" y="28.314453"/>
</g>
</svg>
