<?xml version="1.0" encoding="UTF-8"?>
<svg width="800" height="400" viewBox="0 0 800 400" xmlns="http://www.w3.org/2000/svg" style="background:#0a0a0a; color:#e0e0e0; font-family:monospace">
  <text x="20" y="30" fill="#00d4ff" font-size="18" font-weight="bold">AQ Dictionary Motif Distribution: Canonical (46) vs Augmented (41)</text>
  <rect x="20" y="40" width="12" height="12" fill="#ff6b9d"/>
  <text x="38" y="50" fill="#e0e0e0" font-size="12">Canonical</text>
  <rect x="160" y="40" width="12" height="12" fill="#00d4ff"/>
  <text x="178" y="50" fill="#e0e0e0" font-size="12">Augmented (Grok additions)</text>
  <text x="180" y="90" fill="#cccccc" font-size="13">Gate-Scattered</text>
  <rect x="200" y="70" width="400.0" height="24" fill="#ff6b9d" rx="4"/>
  <text x="608.0" y="90" fill="#ff6b9d" font-size="12">29</text>
  <rect x="200" y="96" width="344.8275862068965" height="24" fill="#00d4ff" rx="4"/>
  <text x="552.8275862068965" y="116" fill="#00d4ff" font-size="12">25</text>
  <text x="180" y="124" fill="#cccccc" font-size="13">Void-Dominant</text>
  <rect x="200" y="104" width="344.8275862068965" height="24" fill="#ff6b9d" rx="4"/>
  <text x="552.8275862068965" y="124" fill="#ff6b9d" font-size="12">25</text>
  <rect x="200" y="130" width="193.10344827586206" height="24" fill="#00d4ff" rx="4"/>
  <text x="401.1034482758621" y="150" fill="#00d4ff" font-size="12">14</text>
  <text x="180" y="158" fill="#cccccc" font-size="13">Hold-Stable</text>
  <rect x="200" y="138" width="165.51724137931035" height="24" fill="#ff6b9d" rx="4"/>
  <text x="373.51724137931035" y="158" fill="#ff6b9d" font-size="12">12</text>
  <rect x="200" y="164" width="206.89655172413794" height="24" fill="#00d4ff" rx="4"/>
  <text x="414.8965517241379" y="184" fill="#00d4ff" font-size="12">15</text>
  <text x="180" y="192" fill="#cccccc" font-size="13">Rise-Seeking</text>
  <rect x="200" y="172" width="137.93103448275863" height="24" fill="#ff6b9d" rx="4"/>
  <text x="345.9310344827586" y="192" fill="#ff6b9d" font-size="12">10</text>
  <rect x="200" y="198" width="179.31034482758622" height="24" fill="#00d4ff" rx="4"/>
  <text x="387.3103448275862" y="218" fill="#00d4ff" font-size="12">13</text>
  <text x="180" y="226" fill="#cccccc" font-size="13">Warp-Anchored</text>
  <rect x="200" y="206" width="110.34482758620689" height="24" fill="#ff6b9d" rx="4"/>
  <text x="318.34482758620686" y="226" fill="#ff6b9d" font-size="12">8</text>
  <rect x="200" y="232" width="124.13793103448276" height="24" fill="#00d4ff" rx="4"/>
  <text x="332.1379310344828" y="252" fill="#00d4ff" font-size="12">9</text>
  <text x="180" y="260" fill="#cccccc" font-size="13">Sink-Dominant</text>
  <rect x="200" y="240" width="55.172413793103445" height="24" fill="#ff6b9d" rx="4"/>
  <text x="263.17241379310343" y="260" fill="#ff6b9d" font-size="12">4</text>
  <rect x="200" y="266" width="110.34482758620689" height="24" fill="#00d4ff" rx="4"/>
  <text x="318.34482758620686" y="286" fill="#00d4ff" font-size="12">8</text>
</svg>