<?xml version="1.0" encoding="UTF-8"?>
<svg xmlns="http://www.w3.org/2000/svg" viewBox="0 0 600 600" width="600" height="600">
<rect width="600" height="600" fill="#0a0606"/>
<defs>
  <filter id="glow" x="-50%" y="-50%" width="200%" height="200%">
    <feGaussianBlur stdDeviation="2" result="blur"/>
    <feMerge><feMergeNode in="blur"/><feMergeNode in="SourceGraphic"/></feMerge>
  </filter>
  <filter id="glow-thick" x="-50%" y="-50%" width="200%" height="200%">
    <feGaussianBlur stdDeviation="4" result="blur"/>
    <feMerge><feMergeNode in="blur"/><feMergeNode in="SourceGraphic"/></feMerge>
  </filter>
</defs>
<polygon points="300.0,550.0 83.49364905389035,174.99999999999997 516.5063509461096,174.9999999999999" fill="none" stroke="#FF4500" stroke-width="0.5" opacity="0.2"/><polygon points="281.69729402299174,509.2008865992666 112.8886299204427,204.6619950546953 472.02192930068827,179.54894836628023" fill="none" stroke="#FF4500" stroke-width="0.9" opacity="0.165"/><polygon points="270.47980979662185,467.4173180120754 144.69727220075782,230.85477067711403 430.2275553302262,190.7261063532883" fill="none" stroke="#FF4500" stroke-width="1.3" opacity="0.13"/><polygon points="266.35352413667226,425.57035741757886 178.6345445553638,253.41216655911094 391.9238815542511,208.07611844574882" fill="none" stroke="#FF4500" stroke-width="1.7000000000000002" opacity="0.095"/><polygon points="269.2181871006898,384.57233587073176 214.40491353343617,272.1884705062547 357.85088487178854,231.05600011929198" fill="none" stroke="#FF4500" stroke-width="2.1" opacity="0.06"/><polyline points="520.0,300.0 517.7616192341653,322.88766845982235 513.1600988132459,345.3085776889857 506.26830744248053,367.0206357966865 497.18371177961296,387.7918447598944 486.02706798514066,407.40277777777777 472.94086616421794,425.6488940983877 458.0875472908606,442.3426669338169 441.6475145816552,457.3155023888368 423.81696339540946,470.4194298650827 404.80555555555554,481.5285471377048 384.83396550552646,490.54020620153426 364.1313268992808,497.37592901512085 342.93260908891835,501.98204539819346 321.47595349202425,504.3300485250527 300.0,504.4166666666667 278.7412334260986,502.2636530313431 257.9313794929244,497.91729870181075 237.79487903232308,491.4476767302144 218.54646792803686,482.94762839801575 200.3888888888889,472.5315054428332 183.5107594165034,460.33368466854165 168.08461834860864,446.5068737605045 154.26517114151926,431.2202292992297 142.1877516305936,414.6573098805184 131.96701540460265,397.01388888888886 123.69587718006298,378.4956528175953 117.44470169714526,359.3158120702712 113.26075471324168,339.6926519070082 111.16791767776957,319.8470516061033 111.16666666666666,300.0 113.23431317147919,280.37013531201956 117.32550140962437,261.1713366748345 123.37295398205174,242.61039386133262 131.2884549835814,224.8847806159681 140.96405709947436,208.18055555555554 152.27349682713458,192.67041293139442 165.07379976985155,178.51190363103422 179.20705598319586,165.8458446718753 194.5023436343726,154.79493312626988 210.7777777777777,145.46257794691022 227.84265987033598,137.9319605616601 245.4997027587384,132.26533240941143 263.54730527490176,128.50355482467683 281.78185027981766,126.66588388059182 299.99999999999994,126.75 318.00096280205946,128.73227937430144 335.5887061432553,132.5683015210595 352.57409130965766,138.19358469431788 368.7769066961008,145.52453836517864 384.02777777777777,154.45961964178187 398.1699335537145,164.88067832281087 411.0608110865402,176.65447330020754 422.57348179776864,189.63434126562146 432.5978853780539,203.6619971492636 441.0418595107823,218.56944444444437 447.8319560567427,234.18097255826717 452.91403687832246,250.315217587748 456.25364506388803,266.78726245681185 457.8361499165859,283.4107521657386 457.66666666666663,299.99999999999994 455.7697544228763,316.37206091613854 452.1888983675053,332.3487489613452 446.98578459341604,347.7585764806481 440.23937825322423,362.43859400816945 432.04481781591073,376.236111111111 422.5121401815128,389.01028003882357 411.76485316943626,400.63352580411475 399.9383734519531,410.9928082674125 387.17834933584544,419.9907038823775 373.63888888888886,427.54629696847485 359.4807147538016,433.5958726751454 344.8692675832424,438.0934061660563 329.97278036127796,441.0108449524529 314.9603459483405,442.33818371376367 300.00000000000006,442.0833333333333 285.2568409697824,440.2717882200541 270.8912082205646,436.9460982560702 257.05693834836154,432.1651538811498 243.89971867976166,426.00329487162696 231.55555555555566,418.5492552736032 220.14937347606755,409.9049586858366 209.79375947831076,400.18417963908024 200.58786526294352,389.51108816952757 192.61647761329868,378.0186958209543 185.94926557383263,365.8472222222222 180.64021070645177,353.1424020658705 176.72722454620987,340.0537527542328 174.2319551589822,326.73282317936787 173.1597824890586,313.3314440624197 173.5,300.00000000000006 175.2261779827682,286.8857428557032 178.29670185536492,274.1311654024749 182.6554768311163,261.87245317737114 188.23278850997016,250.2380313676931 194.94630726870437,239.34722222222214 202.7022228098396,229.3090269909586 211.39649389127567,220.22104476073648 220.91619711289812,212.16853879329946 231.14095769393674,205.22365910897494 241.94444444444446,199.44482811614017 253.19591062206072,194.87629408804895 264.7617620747768,191.547855258476 276.5071340025422,189.47475527041735 288.29745782350125,188.65774869188087 299.99999999999994,189.08333333333334 311.4853552583759,190.7241441855905 322.628877415615,193.53950196680006 333.31203199361926,197.47610754338243 343.42365594437587,202.46887189156743 352.86111111111103,208.4418698110118 361.53131949415035,215.3094043055159 369.3516699568381,222.97716742163186 376.2507876763444,231.34348239532352 382.1691593953488,240.30061120882777 387.05960934155235,249.73611111111111 390.88762253035384,259.53422330999194 393.63151402925786,269.57727690378636 395.2824446181475,279.7470911844523 395.8442851052969,289.92635970942223 395.33333333333337,299.99999999999994 393.7778896115872,309.8564533724549 391.2176979217648,319.38892023370494 387.70326174435144,328.4965171646097 383.29504472683544,337.0853432564445 378.0625676466807,345.06944444444434 372.0834141988079,352.3716659792593 365.4421590480122,358.92438467441247 358.22923232225094,364.6701141459883 350.5397352762811,369.5619778996726 342.47222222222234,373.56404679924475 334.1274640020768,376.6515391487566 325.6072082672039,378.81088331699175 317.0129516336378,380.0396445067123 308.44473840465673,380.34631890247465 300.00000000000017,379.75 291.77244851346614,378.279923408765 283.851036948205,375.97489781032965 276.31899766440006,372.8826310320853 269.2529694314866,369.0589613452382 262.7222222222222,364.56700510437315 256.7879875356317,359.4762327031316 251.50290060801296,353.86148551765604 246.91055938436767,347.8019470398253 243.04520359600372,341.38008176139016 239.93151574306268,334.68055555555554 237.5845442328405,327.78915131414544 236.00974739527442,320.79169343819444 235.20315560472278,313.7729944517276 235.15164730034763,306.8158365187359 235.83333333333334,300.00000000000006 237.21804279405728,293.40135039938696 239.26790230110547,287.0909941301152 241.9379996801808,281.1345124934096 245.17712203635907,275.5912821194177 248.92855743793433,270.51388888888897 253.1309487925447,265.94764105052275 257.71918801270004,261.9301858904385 262.62533824260026,258.49123291472375 267.779571753501,255.65238509167992 273.11111111111103,253.42707828537021 278.54916137378564,251.82062761443774 284.0238213908152,250.83037810754058 289.4669627301825,250.44595571615793 294.8130653671851,250.6496135031699 300.00000000000006,251.41666666666663 304.969747714692,252.71600899687954 309.66904868797474,254.51070241254064 314.0499726775809,256.758630392447 318.070405192651,259.4132054179562 321.69444444444446,262.42411998024187 324.8927054345863,265.738130288221 327.6425288271359,269.29986154305607 329.9280935549201,273.05262352502575 331.74043341264377,276.93922526839197 333.0773591723223,280.90277777777777 333.9432890039651,284.88747406171694 334.34899118019325,288.83933621982476 334.31124417240693,292.70691991209253 333.85242029400786,296.441967253106" fill="none" stroke="#3a1008" stroke-width="1" opacity="0.12"/><circle cx="300" cy="300" r="10" fill="none" stroke="#FF4500" stroke-width="1" opacity="0.4" filter="url(#glow)"/><text x="300" y="304" fill="#FF4500" font-size="16" font-family="monospace" text-anchor="middle" font-weight="bold" opacity="0.7">un</text><text x="300" y="570" fill="#3a1008" font-size="10" font-family="monospace" text-anchor="middle" letter-spacing="4" opacity="0.5">ZONE 3 · KALASUTRA</text><text x="300" y="30" fill="#3a1008" font-size="9" font-family="monospace" text-anchor="middle" letter-spacing="6" opacity="0.3">0122</text></svg>
