<?xml version="1.0" encoding="UTF-8"?>
<svg xmlns="http://www.w3.org/2000/svg" viewBox="0 0 600 600" width="600" height="600">
<rect width="600" height="600" fill="#0a080a"/>
<defs>
  <filter id="glow" x="-50%" y="-50%" width="200%" height="200%">
    <feGaussianBlur stdDeviation="2" result="blur"/>
    <feMerge><feMergeNode in="blur"/><feMergeNode in="SourceGraphic"/></feMerge>
  </filter>
</defs>
<polygon points="540.0,300.0 569.3422935701526,318.83424791091386 537.6643364979768,333.4015442304157" fill="#3a1050" stroke="#9900FF" stroke-width="0.3" opacity="0.15"/><polygon points="537.6643364979768,333.4015442304157 564.0998521981276,356.136156520795 530.7028070251965,366.1529653960798" fill="#3a1050" stroke="#9900FF" stroke-width="0.3" opacity="0.15"/><polygon points="530.7028070251965,366.1529653960798 553.7170076121953,392.34543869793055 519.2509098342242,397.61679433819205" fill="#3a1050" stroke="#9900FF" stroke-width="0.3" opacity="0.15"/><polygon points="519.2509098342242,397.61679433819205 538.3958500719102,426.7573219521905 503.5315430775422,427.1806234159692" fill="#3a1050" stroke="#9900FF" stroke-width="0.3" opacity="0.15"/><polygon points="503.5315430775422,427.1806234159692 518.4345884812358,458.70201811896777 483.8506663485547,454.2690263247694" fill="#3a1050" stroke="#9900FF" stroke-width="0.3" opacity="0.15"/><polygon points="483.8506663485547,454.2690263247694 494.2217460914358,487.5577600239293 460.59134552612596,478.35475811457457" fill="#3a1050" stroke="#9900FF" stroke-width="0.3" opacity="0.15"/><polygon points="460.59134552612596,478.35475811457457 466.22859833792774,512.762903473815 434.2062968329792,498.96901741321005" fill="#3a1050" stroke="#9900FF" stroke-width="0.3" opacity="0.15"/><polygon points="434.2062968329792,498.96901741321005 435.0,533.8268590217984 405.2090752293786,515.7105711118" fill="#3a1050" stroke="#9900FF" stroke-width="0.3" opacity="0.15"/><polygon points="405.2090752293786,515.7105711118 401.1437802222963,550.3396407330326 374.1640786499874,528.2535639108369" fill="#3a1050" stroke="#9900FF" stroke-width="0.3" opacity="0.15"/><polygon points="374.1640786499874,528.2535639108369 365.31891181191025,561.9798460945191 341.6755626400633,536.35386072293" fill="#3a1050" stroke="#9900FF" stroke-width="0.3" opacity="0.15"/><polygon points="341.6755626400633,536.35386072293 328.2226850822665,568.5209117494337 308.3758792086003,539.853798484583" fill="#3a1050" stroke="#9900FF" stroke-width="0.3" opacity="0.15"/><polygon points="308.3758792086003,539.853798484583 290.57713589032477,569.8355232951558 274.9131688157632,538.6852548883857" fill="#3a1050" stroke="#9900FF" stroke-width="0.3" opacity="0.15"/><polygon points="274.9131688157632,538.6852548883857 253.11499202992883,565.8980933132962 241.93874505607974,532.8709743062392" fill="#3a1050" stroke="#9900FF" stroke-width="0.3" opacity="0.15"/><polygon points="241.93874505607974,532.8709743062392 216.56541151876422,556.7852593996915 210.0944175801811,522.5241250960289" fill="#3a1050" stroke="#9900FF" stroke-width="0.3" opacity="0.15"/><polygon points="210.0944175801811,522.5241250960289 181.63979036694906,542.6743925007751 180.00000000000006,507.8460969082653" fill="#3a1050" stroke="#9900FF" stroke-width="0.3" opacity="0.15"/><polygon points="180.00000000000006,507.8460969082653 149.0179160628984,523.8401445898612 152.24124592184202,489.12258086561326" fill="#3a1050" stroke="#9900FF" stroke-width="0.3" opacity="0.15"/><polygon points="152.24124592184202,489.12258086561326 119.33473628310827,500.64910287889643 127.35844791872373,466.7180089101593" fill="#3a1050" stroke="#9900FF" stroke-width="0.3" opacity="0.15"/><polygon points="127.35844791872373,466.7180089101593 93.16800035787597,473.55265461536567 105.83592135001263,441.06846055019355" fill="#3a1050" stroke="#9900FF" stroke-width="0.3" opacity="0.15"/><polygon points="105.83592135001263,441.06846055019355 71.02701403776499,443.0782013429653 88.09257771385757,412.6731750686139" fill="#3a1050" stroke="#9900FF" stroke-width="0.3" opacity="0.15"/><polygon points="88.09257771385757,412.6731750686139 53.3427264364978,409.8188936304661 74.47377101138201,382.0848343981605" fill="#3a1050" stroke="#9900FF" stroke-width="0.3" opacity="0.15"/><polygon points="74.47377101138201,382.0848343981605 40.45934209665393,374.4220860705898 65.24457582388663,349.89880579626225" fill="#3a1050" stroke="#9900FF" stroke-width="0.3" opacity="0.15"/><polygon points="65.24457582388663,349.89880579626225 32.62762143977602,337.57673725921774 60.58462793764218,316.7415536985901" fill="#3a1050" stroke="#9900FF" stroke-width="0.3" opacity="0.15"/><polygon points="60.58462793764218,316.7415536985901 30.0,300.00000000000006 60.58462793764215,283.25844630141006" fill="#3a1050" stroke="#9900FF" stroke-width="0.3" opacity="0.15"/><polygon points="60.58462793764215,283.25844630141006 32.62762143977602,262.42326274078243 65.24457582388663,250.10119420373783" fill="#3a1050" stroke="#9900FF" stroke-width="0.3" opacity="0.15"/><polygon points="65.24457582388663,250.10119420373783 40.45934209665393,225.57791392941027 74.47377101138198,217.91516560183953" fill="#3a1050" stroke="#9900FF" stroke-width="0.3" opacity="0.15"/><polygon points="74.47377101138198,217.91516560183953 53.34272643649777,190.18110636953395 88.09257771385754,187.3268249313862" fill="#3a1050" stroke="#9900FF" stroke-width="0.3" opacity="0.15"/><polygon points="88.09257771385754,187.3268249313862 71.02701403776496,156.9217986570347 105.8359213500126,158.93153944980648" fill="#3a1050" stroke="#9900FF" stroke-width="0.3" opacity="0.15"/><polygon points="105.8359213500126,158.93153944980648 93.16800035787594,126.44734538463439 127.35844791872375,133.28199108984063" fill="#3a1050" stroke="#9900FF" stroke-width="0.3" opacity="0.15"/><polygon points="127.35844791872375,133.28199108984063 119.3347362831083,99.35089712110351 152.24124592184205,110.87741913438668" fill="#3a1050" stroke="#9900FF" stroke-width="0.3" opacity="0.15"/><polygon points="152.24124592184205,110.87741913438668 149.01791606289825,76.15985541013882 179.9999999999999,92.15390309173478" fill="#3a1050" stroke="#9900FF" stroke-width="0.3" opacity="0.15"/><polygon points="179.9999999999999,92.15390309173478 181.639790366949,57.32560749922496 210.09441758018104,77.47587490397103" fill="#3a1050" stroke="#9900FF" stroke-width="0.3" opacity="0.15"/><polygon points="210.09441758018104,77.47587490397103 216.56541151876417,43.21474060030857 241.93874505607974,67.12902569376084" fill="#3a1050" stroke="#9900FF" stroke-width="0.3" opacity="0.15"/><polygon points="241.93874505607974,67.12902569376084 253.11499202992883,34.10190668670384 274.9131688157632,61.31474511161437" fill="#3a1050" stroke="#9900FF" stroke-width="0.3" opacity="0.15"/><polygon points="274.9131688157632,61.31474511161437 290.57713589032477,30.164476704844162 308.3758792086003,60.146201515417005" fill="#3a1050" stroke="#9900FF" stroke-width="0.3" opacity="0.15"/><polygon points="308.3758792086003,60.146201515417005 328.22268508226654,31.479088250566235 341.67556264006316,63.64613927707006" fill="#3a1050" stroke="#9900FF" stroke-width="0.3" opacity="0.15"/><polygon points="341.67556264006316,63.64613927707006 365.3189118119102,38.020153905480925 374.16407864998735,71.74643608916313" fill="#3a1050" stroke="#9900FF" stroke-width="0.3" opacity="0.15"/><polygon points="374.16407864998735,71.74643608916313 401.14378022229624,49.66035926696739 405.2090752293786,84.28942888819992" fill="#3a1050" stroke="#9900FF" stroke-width="0.3" opacity="0.15"/><polygon points="405.2090752293786,84.28942888819992 434.99999999999983,66.17314097820145 434.2062968329791,101.03098258678989" fill="#3a1050" stroke="#9900FF" stroke-width="0.3" opacity="0.15"/><polygon points="434.2062968329791,101.03098258678989 466.2285983379276,87.23709652618496 460.5913455261259,121.64524188542529" fill="#3a1050" stroke="#9900FF" stroke-width="0.3" opacity="0.15"/><polygon points="460.5913455261259,121.64524188542529 494.22174609143576,112.44223997607065 483.8506663485547,145.7309736752305" fill="#3a1050" stroke="#9900FF" stroke-width="0.3" opacity="0.15"/><polygon points="483.8506663485547,145.7309736752305 518.4345884812358,141.2979818810322 503.5315430775421,172.8193765840306" fill="#3a1050" stroke="#9900FF" stroke-width="0.3" opacity="0.15"/><polygon points="503.5315430775421,172.8193765840306 538.3958500719102,173.24267804780948 519.2509098342242,202.38320566180795" fill="#3a1050" stroke="#9900FF" stroke-width="0.3" opacity="0.15"/><polygon points="519.2509098342242,202.38320566180795 553.7170076121953,207.65456130206948 530.7028070251965,233.84703460392006" fill="#3a1050" stroke="#9900FF" stroke-width="0.3" opacity="0.15"/><polygon points="530.7028070251965,233.84703460392006 564.0998521981276,243.86384347920483 537.6643364979768,266.5984557695842" fill="#3a1050" stroke="#9900FF" stroke-width="0.3" opacity="0.15"/><polygon points="537.6643364979768,266.5984557695842 569.3422935701526,281.1657520890861 540.0,299.99999999999994" fill="#3a1050" stroke="#9900FF" stroke-width="0.3" opacity="0.15"/><polygon points="487.9385241571817,231.59597133486625 530.0,300.0 487.9385241571817,368.40402866513375" fill="none" stroke="#9900FF" stroke-width="1" opacity="0.25"/><polygon points="487.9385241571817,368.40402866513375 476.19022191736497,447.841150227904 400.0,473.2050807568877" fill="none" stroke="#9900FF" stroke-width="1" opacity="0.25"/><polygon points="400.0,473.2050807568877 339.939080863394,526.5057831928078 265.27036446661396,496.9615506024416" fill="none" stroke="#9900FF" stroke-width="1" opacity="0.25"/><polygon points="265.27036446661396,496.96155060244166 185.00000000000006,499.1858428704209 146.7911113762044,428.5575219373079" fill="none" stroke="#9900FF" stroke-width="1" opacity="0.25"/><polygon points="146.7911113762044,428.5575219373079 83.8706972192411,378.66463296490383 100.0,300.0" fill="none" stroke="#9900FF" stroke-width="1" opacity="0.25"/><polygon points="100.0,300.0 83.87069721924107,221.33536703509623 146.79111137620438,171.44247806269215" fill="none" stroke="#9900FF" stroke-width="1" opacity="0.25"/><polygon points="146.79111137620433,171.4424780626922 184.9999999999999,100.81415712957917 265.2703644666138,103.03844939755842" fill="none" stroke="#9900FF" stroke-width="1" opacity="0.25"/><polygon points="265.27036446661396,103.0384493975584 339.9390808633939,73.49421680719212 399.9999999999999,126.79491924311219" fill="none" stroke="#9900FF" stroke-width="1" opacity="0.25"/><polygon points="400.0,126.79491924311228 476.19022191736485,152.1588497720959 487.93852415718163,231.5959713348661" fill="none" stroke="#9900FF" stroke-width="1" opacity="0.25"/><circle cx="300" cy="300" r="190" fill="none" stroke="#9900FF" stroke-width="0.3" opacity="0.3"/><circle cx="300" cy="300" r="181" fill="none" stroke="#9900FF" stroke-width="0.35" opacity="0.285"/><circle cx="300" cy="300" r="172" fill="none" stroke="#9900FF" stroke-width="0.4" opacity="0.27"/><circle cx="300" cy="300" r="163" fill="none" stroke="#9900FF" stroke-width="0.45" opacity="0.255"/><circle cx="300" cy="300" r="154" fill="none" stroke="#9900FF" stroke-width="0.5" opacity="0.24"/><circle cx="300" cy="300" r="145" fill="none" stroke="#9900FF" stroke-width="0.55" opacity="0.22499999999999998"/><circle cx="300" cy="300" r="136" fill="none" stroke="#9900FF" stroke-width="0.6000000000000001" opacity="0.21"/><circle cx="300" cy="300" r="127" fill="none" stroke="#9900FF" stroke-width="0.65" opacity="0.195"/><circle cx="300" cy="300" r="118" fill="none" stroke="#9900FF" stroke-width="0.7" opacity="0.18"/><circle cx="300" cy="300" r="109" fill="none" stroke="#9900FF" stroke-width="0.75" opacity="0.16499999999999998"/><circle cx="300" cy="300" r="100" fill="none" stroke="#9900FF" stroke-width="0.8" opacity="0.15"/><circle cx="300" cy="300" r="91" fill="none" stroke="#9900FF" stroke-width="0.8500000000000001" opacity="0.135"/><circle cx="300" cy="300" r="82" fill="none" stroke="#9900FF" stroke-width="0.9000000000000001" opacity="0.12"/><circle cx="300" cy="300" r="73" fill="none" stroke="#9900FF" stroke-width="0.95" opacity="0.10499999999999998"/><circle cx="300" cy="300" r="64" fill="none" stroke="#9900FF" stroke-width="1.0" opacity="0.09"/><circle cx="300" cy="300" r="55" fill="none" stroke="#9900FF" stroke-width="1.05" opacity="0.07500000000000001"/><circle cx="300" cy="300" r="46" fill="none" stroke="#9900FF" stroke-width="1.1" opacity="0.06"/><circle cx="300" cy="300" r="37" fill="none" stroke="#9900FF" stroke-width="1.1500000000000001" opacity="0.044999999999999984"/><circle cx="300" cy="300" r="28" fill="none" stroke="#9900FF" stroke-width="1.2" opacity="0.02999999999999997"/><circle cx="300" cy="300" r="19" fill="none" stroke="#9900FF" stroke-width="1.25" opacity="0.02"/><polygon points="300.0,460.0 438.5640646055101,219.99999999999994 161.43593539448983,220.0" fill="none" stroke="#9900FF" stroke-width="1.5" opacity="0.4"/><polygon points="300.0,240.0 351.9615242270663,330.0 248.03847577293368,330.0" fill="none" stroke="#9900FF" stroke-width="0.8" opacity="0.2"/><circle cx="300.0" cy="15.0" r="2" fill="#9900FF" opacity="0.4"/><text x="300.0" y="27.0" fill="#3a1050" font-size="6" font-family="monospace" text-anchor="middle" opacity="0.3">0::Uttu</text><circle cx="483.1944687606637" cy="81.67733371109128" r="2" fill="#9900FF" opacity="0.4"/><text x="483.1944687606637" y="93.67733371109128" fill="#3a1050" font-size="6" font-family="monospace" text-anchor="middle" opacity="0.3">1::Tutt</text><circle cx="580.6702096084794" cy="250.51026936492485" r="2" fill="#9900FF" opacity="0.4"/><text x="580.6702096084794" y="262.51026936492485" fill="#3a1050" font-size="6" font-family="monospace" text-anchor="middle" opacity="0.3">2::Unnu</text><circle cx="546.817240078565" cy="442.5" r="2" fill="#9900FF" opacity="0.4"/><text x="546.817240078565" y="454.5" fill="#3a1050" font-size="6" font-family="monospace" text-anchor="middle" opacity="0.3">3::Unun</text><circle cx="397.4757408478156" cy="567.8123969239839" r="2" fill="#9900FF" opacity="0.4"/><text x="397.4757408478156" y="579.8123969239839" fill="#3a1050" font-size="6" font-family="monospace" text-anchor="middle" opacity="0.3">4::Unnu</text><circle cx="202.5242591521844" cy="567.8123969239839" r="2" fill="#9900FF" opacity="0.4"/><text x="202.5242591521844" y="579.8123969239839" fill="#3a1050" font-size="6" font-family="monospace" text-anchor="middle" opacity="0.3">5::Tuku</text><circle cx="53.18275992143498" cy="442.5" r="2" fill="#9900FF" opacity="0.4"/><text x="53.18275992143498" y="454.5" fill="#3a1050" font-size="6" font-family="monospace" text-anchor="middle" opacity="0.3">6::Unnu</text><circle cx="19.329790391520703" cy="250.51026936492482" r="2" fill="#9900FF" opacity="0.4"/><text x="19.329790391520703" y="262.51026936492485" fill="#3a1050" font-size="6" font-family="monospace" text-anchor="middle" opacity="0.3">7::Nutt</text><circle cx="116.80553123933626" cy="81.67733371109131" r="2" fill="#9900FF" opacity="0.4"/><text x="116.80553123933626" y="93.67733371109131" fill="#3a1050" font-size="6" font-family="monospace" text-anchor="middle" opacity="0.3">8::Ummn</text><circle cx="300" cy="300" r="15" fill="none" stroke="#CC66FF" stroke-width="1" opacity="0.6" filter="url(#glow)"/><circle cx="300" cy="300" r="6" fill="#9900FF" opacity="0.7"/><circle cx="300" cy="300" r="2" fill="#ffffff" opacity="0.9"/><text x="300" y="278" fill="#9900FF" font-size="14" font-family="monospace" text-anchor="middle" font-weight="bold" opacity="0.7">tn</text><circle cx="550.0" cy="300.0" r="0.8" fill="#3a1050" opacity="0.2"/><circle cx="546.201938253052" cy="343.41204441673256" r="0.8" fill="#3a1050" opacity="0.2"/><circle cx="534.9231551964771" cy="385.50503583141716" r="0.8" fill="#3a1050" opacity="0.2"/><circle cx="516.5063509461097" cy="425.0" r="0.8" fill="#3a1050" opacity="0.2"/><circle cx="491.5111107797445" cy="460.69690242163483" r="0.8" fill="#3a1050" opacity="0.2"/><circle cx="460.69690242163483" cy="491.5111107797445" r="0.8" fill="#3a1050" opacity="0.2"/><circle cx="425.0" cy="516.5063509461097" r="0.8" fill="#3a1050" opacity="0.2"/><circle cx="385.5050358314172" cy="534.9231551964771" r="0.8" fill="#3a1050" opacity="0.2"/><circle cx="343.4120444167326" cy="546.201938253052" r="0.8" fill="#3a1050" opacity="0.2"/><circle cx="300.0" cy="550.0" r="0.8" fill="#3a1050" opacity="0.2"/><circle cx="256.58795558326744" cy="546.201938253052" r="0.8" fill="#3a1050" opacity="0.2"/><circle cx="214.49496416858284" cy="534.9231551964771" r="0.8" fill="#3a1050" opacity="0.2"/><circle cx="175.00000000000006" cy="516.5063509461097" r="0.8" fill="#3a1050" opacity="0.2"/><circle cx="139.30309757836517" cy="491.5111107797445" r="0.8" fill="#3a1050" opacity="0.2"/><circle cx="108.48888922025552" cy="460.69690242163483" r="0.8" fill="#3a1050" opacity="0.2"/><circle cx="83.49364905389032" cy="425.0" r="0.8" fill="#3a1050" opacity="0.2"/><circle cx="65.07684480352293" cy="385.5050358314172" r="0.8" fill="#3a1050" opacity="0.2"/><circle cx="53.79806174694801" cy="343.41204441673256" r="0.8" fill="#3a1050" opacity="0.2"/><circle cx="50.0" cy="300.00000000000006" r="0.8" fill="#3a1050" opacity="0.2"/><circle cx="53.79806174694801" cy="256.5879555832674" r="0.8" fill="#3a1050" opacity="0.2"/><circle cx="65.0768448035229" cy="214.49496416858284" r="0.8" fill="#3a1050" opacity="0.2"/><circle cx="83.49364905389035" cy="174.99999999999997" r="0.8" fill="#3a1050" opacity="0.2"/><circle cx="108.48888922025549" cy="139.3030975783652" r="0.8" fill="#3a1050" opacity="0.2"/><circle cx="139.30309757836514" cy="108.48888922025552" r="0.8" fill="#3a1050" opacity="0.2"/><circle cx="174.9999999999999" cy="83.49364905389041" r="0.8" fill="#3a1050" opacity="0.2"/><circle cx="214.49496416858267" cy="65.07684480352296" r="0.8" fill="#3a1050" opacity="0.2"/><circle cx="256.58795558326744" cy="53.79806174694801" r="0.8" fill="#3a1050" opacity="0.2"/><circle cx="299.99999999999994" cy="50.0" r="0.8" fill="#3a1050" opacity="0.2"/><circle cx="343.4120444167325" cy="53.79806174694798" r="0.8" fill="#3a1050" opacity="0.2"/><circle cx="385.50503583141705" cy="65.07684480352287" r="0.8" fill="#3a1050" opacity="0.2"/><circle cx="425.0" cy="83.49364905389035" r="0.8" fill="#3a1050" opacity="0.2"/><circle cx="460.69690242163483" cy="108.48888922025546" r="0.8" fill="#3a1050" opacity="0.2"/><circle cx="491.51111077974446" cy="139.3030975783651" r="0.8" fill="#3a1050" opacity="0.2"/><circle cx="516.5063509461096" cy="174.9999999999999" r="0.8" fill="#3a1050" opacity="0.2"/><circle cx="534.9231551964771" cy="214.49496416858284" r="0.8" fill="#3a1050" opacity="0.2"/><circle cx="546.2019382530519" cy="256.58795558326716" r="0.8" fill="#3a1050" opacity="0.2"/><text x="300" y="570" fill="#3a1050" font-size="10" font-family="monospace" text-anchor="middle" letter-spacing="4" opacity="0.5">ZONE 9 · PICO_8</text><text x="300" y="30" fill="#3a1050" font-size="9" font-family="monospace" text-anchor="middle" letter-spacing="6" opacity="0.3">0511</text></svg>
