<?xml version="1.0" encoding="UTF-8"?>
<svg xmlns="http://www.w3.org/2000/svg" viewBox="0 0 600 600" width="600" height="600">
<rect width="600" height="600" fill="#060a0c"/>
<defs>
  <filter id="glow" x="-50%" y="-50%" width="200%" height="200%">
    <feGaussianBlur stdDeviation="2" result="blur"/>
    <feMerge><feMergeNode in="blur"/><feMergeNode in="SourceGraphic"/></feMerge>
  </filter>
  <filter id="glow-thick" x="-50%" y="-50%" width="200%" height="200%">
    <feGaussianBlur stdDeviation="4" result="blur"/>
    <feMerge><feMergeNode in="blur"/><feMergeNode in="SourceGraphic"/></feMerge>
  </filter>
</defs>
<polyline points="560.0,300.0 563.2522152211865,327.66892276281806 561.7605653874003,355.6389257595468 554.5107622142398,382.6955595466562 541.817567365485,407.6641176026433 525.1666049839541,430.0 506.54019247230576,450.0602335735428 487.56347279355214,468.8829094658622 468.8829094658622,487.5634727935521 450.0602335735428,506.54019247230576 430.0,525.166604983954 407.6641176026433,541.817567365485 382.6955595466562,554.5107622142398 355.63892575954685,561.7605653874002 327.66892276281806,563.2522152211866 300.0,560.0 273.3141218636383,553.8991703703157 247.52484653431202,546.8761869941786 222.0067224716836,540.0386262592401 196.16106320322723,533.2260706086674 170.00000000000006,525.1666049839541 144.41190238145683,514.148644602667 120.9349941592559,498.8718364546929 101.12816354530716,479.0650058407441 85.85135539733307,455.5880976185433 74.83339501604593,430.0 66.77392939133259,403.8389367967729 59.96137374075988,377.99327752831647 53.123813005821376,352.47515346568804 46.10082962968437,326.6858781363618 40.0,300.00000000000006 36.747784778813525,272.33107723718206 38.239434612599666,244.36107424045326 45.48923778576028,217.30444045334372 58.182432634514896,192.3358823973568 74.83339501604596,169.99999999999997 93.45980752769424,149.93976642645723 112.43652720644789,131.11709053413782 131.11709053413776,112.43652720644795 149.93976642645717,93.4598075276943 169.9999999999999,74.83339501604601 192.33588239735673,58.182432634514925 217.30444045334374,45.48923778576028 244.36107424045306,38.23943461259972 272.33107723718194,36.74778477881347 299.99999999999994,40.0 326.6858781363616,46.10082962968434 352.47515346568787,53.12381300582135 377.9932775283164,59.96137374075985 403.83893679677294,66.77392939133256 430.0,74.83339501604596 455.58809761854315,85.85135539733304 479.065005840744,101.12816354530699 498.8718364546929,120.93499415925592 514.148644602667,144.41190238145668 525.166604983954,169.99999999999986 533.2260706086674,196.16106320322717 540.0386262592401,222.00672247168353 546.8761869941786,247.52484653431182 553.8991703703157,273.31412186363826" fill="none" stroke="#1E90FF" stroke-width="0.3" opacity="0.15"/><polyline points="553.4563126877379,300.0 552.3461986240234,326.52265422857846 545.5748213715713,352.198539663471 534.3905930350084,376.1581202887857 520.7780149614265,398.29670534630424 506.5848931248307,419.27184365613107 492.75946978992545,440.0479524781454 479.0524901290071,461.21958625375703 464.3031104965339,482.47709074281426 447.1393272473527,502.51990981354777 426.72815634386893,519.4996055371131 403.20380697427197,531.7995456711271 377.58214929677007,538.7733036693419 351.2404296429447,541.06726812081 325.26156354250014,540.3477222268483 300.0,538.5436873122621 275.094650300893,536.9585738971672 249.90598778113352,535.6737981894611 224.1217590563116,533.5292129822071 198.1822769530106,528.6863501987332 173.27184365613115,519.4996055371131 150.85760835024865,505.27689144254873 132.0073279251988,486.57476400587086 116.84983660793637,464.90914783202436 104.48354858107365,442.0510168805441 93.41510687516924,419.27184365613107 82.33518051096758,396.9106214190218 70.85349765212638,374.45421193570405 59.81864855977764,351.0521222393929 51.04294970565786,326.16644038518547 46.54368731226219,300.00000000000006 47.653801375976656,273.47734577142165 54.42517862842871,247.801460336529 65.60940696499162,223.84187971121423 79.22198503857342,201.70329465369582 93.41510687516927,180.72815634386887 107.24053021007455,159.9520475218546 120.94750987099292,138.78041374624297 135.69688950346602,117.52290925718577 152.8606727526473,97.48009018645229 173.27184365613098,80.50039446288699 196.7961930257281,68.20045432887281 222.41785070322987,61.22669633065806 248.75957035705517,58.93273187918996 274.7384364574999,59.65227777315161 299.99999999999994,61.45631268773781 324.9053496991069,63.041426102832816 350.09401221886634,64.32620181053889 375.8782409436884,66.47078701779284 401.81772304698956,71.3136498012669 426.72815634386893,80.50039446288693 449.1423916497513,94.72310855745124 467.9926720748011,113.42523599412903 483.15016339206363,135.09085216797573 495.51645141892635,157.94898311945585 506.58489312483067,180.72815634386882 517.6648194890324,203.08937858097823 529.1465023478736,225.5457880642959 540.1813514402223,248.94787776060699 548.9570502943421,273.83355961481465" fill="none" stroke="#1E90FF" stroke-width="0.33999999999999997" opacity="0.142"/><polyline points="537.4037054444092,300.0 531.6283824427574,324.34512400247166 523.0757667009229,347.4162179618522 513.7211715446599,369.44221813683174 504.7811511964354,391.17444272315754 496.23814748856313,413.29814727779535 486.9603839582861,435.83466999790613 475.338027070747,457.87506869370475 460.1097465346787,477.81988824754416 440.97389927295114,494.03392621761424 418.70185272220465,505.59763986741643 394.7306953769559,512.7686254341611 370.4742340441175,516.8973899126162 346.7218607706932,519.8090729526632 323.43119202407405,522.9329005139139 300.0,526.5962945555908 275.84391704628047,529.8297770081215 250.94519342241193,530.7847200395629 226.0583327468562,527.5690520162914 202.44864033598628,519.1039411497313 181.29814727779547,505.59763986741643 163.10231293419864,488.4235014316895 147.39846734319448,469.48117195076395 133.0006892260333,450.3668548158315 118.65004082763866,431.75845779075644 103.76185251143687,413.29814727779535 88.88353308799432,393.9951070102154 75.60716635166492,372.90965134585815 65.94858621217742,349.74916376874717 61.47474106303511,325.0700149321172 62.59629455559079,300.00000000000006 68.37161755724264,275.65487599752845 76.924233299077,252.58378203814786 86.27882845534012,230.55778186316817 95.21884880356453,208.82555727684257 103.7618525114369,186.7018527222046 113.03961604171383,164.1653300020939 124.66197292925307,142.1249313062953 139.89025346532122,122.18011175245587 159.02610072704886,105.96607378238579 181.2981472777953,94.40236013258365 205.2693046230441,87.23137456583888 229.5257659558825,83.10261008738382 253.27813922930673,80.19092704733677 276.56880797592595,77.06709948608608 299.99999999999994,73.40370544440921 324.1560829537194,70.17022299187849 349.05480657758795,69.21527996043716 373.9416672531438,72.43094798370862 397.55135966401383,80.89605885026867 418.70185272220465,94.4023601325836 436.8976870658014,111.57649856831046 452.60153265680543,130.51882804923594 466.9993107739667,149.63314518416854 481.3499591723613,168.24154220924353 496.238147488563,186.70185272220453 511.1164669120057,206.00489298978465 524.3928336483351,227.09034865414185 534.0514137878225,250.2508362312527 538.5252589369649,274.92998506788285" fill="none" stroke="#1E90FF" stroke-width="0.38" opacity="0.134"/><polyline points="514.4598364536412,300.0 509.76369945333965,322.04705321754244 505.4922663477596,343.6787295846602 501.88174365398106,365.595354823021 497.9171033794229,388.1183717376941 491.859409589706,410.7700817731794 482.0942436378522,432.29921210786927 467.8889857620761,451.1679217732358 449.7039032193272,466.263028434163 428.9323164983541,477.4601093928018 407.2299182268206,485.72766646030925 385.78854156169064,492.68421912716735 364.9192437485332,499.80088773072794 344.1336281800003,507.632395976156 322.6458032247476,515.4604252388583 300.0,521.5401635463588 276.4726432328456,523.8478469272275 253.02923238811715,520.9800875721797 230.86394527554395,512.7788974507059 210.78119535664524,500.38871615275104 192.77008177317947,485.72766646030925 176.02484210835098,470.6371659096249 159.42697740077358,456.1221581460678 142.2518845260192,442.037041153135 124.72869984532474,427.3420535011642 108.14059041029404,410.7700817731794 94.3783995949934,391.5486348193583 85.140246626041,369.81216579894397 81.16004205621675,346.5158690165428 81.84887885829107,322.92860675994933 85.54016354635883,300.0 90.23630054666032,277.9529467824576 94.50773365224043,256.3212704153399 98.11825634601891,234.40464517697893 102.08289662057703,211.88162826230598 108.14059041029401,189.22991822682053 117.9057563621478,167.7007878921308 132.1110142379239,148.83207822676422 150.2960967806728,133.736971565837 171.06768350164583,122.53989060719817 192.7700817731793,114.27233353969078 214.21145843830942,107.31578087283265 235.08075625146682,100.19911226927204 255.86637181999964,92.36760402384402 277.3541967752524,84.5395747611417 299.99999999999994,78.4598364536412 323.52735676715434,76.1521530727725 346.9707676118827,79.01991242782026 369.136054724456,87.22110254929413 389.2188046433548,99.61128384724898 407.2299182268206,114.27233353969075 423.975157891649,129.36283409037506 440.5730225992263,143.87784185393213 457.7481154739809,157.962958846865 475.27130015467526,172.65794649883577 491.85940958970593,189.2299182268205 505.6216004050067,208.45136518064174 514.8597533739589,230.18783420105603 518.8399579437832,253.48413098345708 518.1511211417089,277.0713932400508" fill="none" stroke="#1E90FF" stroke-width="0.42" opacity="0.126"/><polyline points="496.0306831293133,300.0 496.87966388545357,320.692886512044 497.78445509839923,342.0403837274946 496.9908013800589,364.00619134508554 492.6290602812595,385.76398326124394 483.5708132328481,405.98465843534336 469.92258654765607,423.4559855955438 452.9369180696478,437.7050195523583 434.40934475997125,449.2767004004156 415.8767148552563,459.4906153303682 398.01534156465664,469.7675515112029 380.5192665456683,480.8492336693665 362.4841872563434,492.3065544526237 343.06441298569774,502.6021339795284 322.04074190664915,509.7036513413167 300.0,511.9693168706867 278.0452734988414,508.885269424802 257.21241387384885,501.2997660009935 237.927257640107,491.04025726836375 219.81543288631747,480.0974864369217 201.98465843534342,469.7675515112029 183.63960266021473,460.15634715732244 164.6997321579441,450.2661707251291 146.07361160563886,438.59594263444296 129.41168162538966,423.9396680800728 116.42918676715189,405.98465843534336 108.12268695118536,385.4292838292582 104.27549580420103,363.59474644863525 103.51791288013573,341.76355686794807 103.9387180310612,320.6068711065535 103.96931687068673,300.0 103.12033611454646,279.3071134879561 102.21554490160077,257.95961627250546 103.00919861994106,235.9938086549144 107.37093971874046,214.23601673875615 116.42918676715192,194.0153415646566 130.0774134523439,176.54401440445625 147.0630819303522,162.29498044764173 165.59065524002872,150.72329959958438 184.1232851447437,140.50938466963183 201.98465843534328,130.2324484887972 219.48073345433173,119.1507663306335 237.51581274365662,107.69344554737634 256.9355870143022,97.39786602047161 277.95925809335085,90.29634865868329 299.99999999999994,88.03068312931327 321.9547265011585,91.114730575198 342.78758612615104,98.70023399900643 362.07274235989297,108.95974273163623 380.18456711368265,119.90251356307837 398.01534156465664,130.23244848879713 416.3603973397852,139.84365284267753 435.30026784205575,149.7338292748709 453.9263883943612,161.4040573655571 470.58831837461037,176.0603319199272 483.570813232848,194.01534156465652 491.8773130488147,214.57071617074183 495.724504195799,236.40525355136475 496.4820871198643,258.2364431320518 496.06128196893883,279.39312889344654" fill="none" stroke="#1E90FF" stroke-width="0.45999999999999996" opacity="0.118"/><polyline points="487.76467601440856,300.0 491.65090959254485,320.1433222906957 492.3181545866817,340.87848568566886 488.3055407966698,361.1841791146271 479.3503562970511,379.8519233437536 466.4806740762542,396.11766199279566 451.52356264228933,410.0883122545075 436.28186904323513,422.7087460509975 421.7843379703966,435.25520986011054 407.96239281197995,448.5974855572162 393.88233800720434,462.6089793618325 378.38082597591256,476.04621751088644 360.7572702213131,486.99165032384354 341.1657169753706,493.6694715605966 320.5213839917873,495.24792640291344 300.0,492.23532398559144 280.4225062489874,486.26741064739906 261.87204317492035,479.37793369216445 243.7577212521471,473.0959353954886 225.29199897494956,467.79691760713723 206.11766199279575,462.60897936183255 186.72991638336777,455.9028952201907 168.43911563463138,446.1131646381747 152.86017617870078,432.48529244596955 141.17102769473618,415.39600305915985 133.5193259237458,396.11766199279566 128.8989436066981,376.17909839289155 125.59017413168522,356.66918764116696 121.97338328175047,337.840725535378 117.32960616296958,319.1994320499211 112.2353239855914,300.0 108.34909040745518,279.85667770930434 107.68184541331829,259.1215143143312 111.69445920333018,238.81582088537283 120.64964370294882,220.14807665624647 133.51932592374584,203.88233800720428 148.47643735771067,189.9116877454925 163.7181309567649,177.2912539490025 178.21566202960332,164.7447901398895 192.03760718802002,151.40251444278383 206.1176619927956,137.39102063816756 221.61917402408744,123.95378248911351 239.24272977868688,113.00834967615646 258.83428302462937,106.3305284394034 279.4786160082127,104.75207359708654 299.99999999999994,107.76467601440862 319.5774937510125,113.73258935260094 338.12795682507954,120.62206630783552 356.2422787478529,126.90406460451143 374.7080010250505,132.2030823928628 393.88233800720434,137.3910206381675 413.2700836166322,144.09710477980929 431.56088436536857,153.88683536182523 447.1398238212993,167.5147075540305 458.82897230526385,184.60399694084012 466.48067407625416,203.8823380072042 471.1010563933019,223.8209016071085 474.4098258683148,243.33081235883304 478.02661671824956,262.1592744646219 482.6703938370305,280.80056795007897" fill="none" stroke="#1E90FF" stroke-width="0.5" opacity="0.10999999999999999"/><polyline points="482.3493429107932,300.0 482.98940894348084,319.2329618887227 478.6006225662163,337.9627342448003 469.92199327174774,355.21100243714625 458.7046917230899,370.65988124816784 446.92177880797567,384.8253285446034 435.91698619578904,398.7494707495583 425.89566941638327,413.3569699020954 415.9827118218692,428.81185125319564 404.78805469906064,444.22838396913147 391.1746714553966,457.9191633241468 374.83847088608866,468.0899577129152 356.42361902999363,473.65404339645977 337.1468659569007,474.7622640535951 318.1590936722399,472.77223535605776 300.0,469.6506570892068 282.4389428185087,467.08229822615135 264.7778190769491,465.7073328920833 246.43702041716477,464.8499004641463 227.4885828854862,462.86330936710556 208.82532854460345,457.9191633241468 191.8490619426078,448.8569958241925 177.82299646377732,435.6913091516595 167.22487268515295,419.5512616164489 159.45440194915,402.1123541078899 153.07822119202433,384.8253285446034 146.52195662271967,368.3328274765931 138.88214966056574,352.35036298998784 130.45430859529557,336.0380492109506 122.70052818642554,318.63492539797414 117.65065708920679,300.0 117.0105910565191,280.7670381112774 121.39937743378366,262.03726575519977 130.07800672825226,244.7889975628537 141.29530827691002,229.34011875183222 153.0782211920244,215.1746714553966 164.08301380421094,201.25052925044173 174.10433058361673,186.6430300979046 184.0172881781308,171.18814874680436 195.21194530093933,155.77161603086856 208.82532854460328,142.08083667585328 225.16152911391137,131.91004228708485 243.5763809700063,126.3459566035402 262.8531340430992,125.23773594640485 281.8409063277601,127.22776464394224 299.99999999999994,130.3493429107932 317.56105718149126,132.91770177384865 335.2221809230508,134.29266710791674 353.5629795828352,135.15009953585368 372.5114171145139,137.13669063289444 391.1746714553966,142.08083667585325 408.1509380573922,151.14300417580753 422.1770035362226,164.30869084834046 432.77512731484705,180.44873838355113 440.54559805085006,197.88764589211002 446.9217788079756,215.17467145539655 453.4780433772804,231.66717252340698 461.1178503394343,247.6496370100121 469.54569140470437,263.9619507890493 477.2994718135744,281.3650746020259" fill="none" stroke="#1E90FF" stroke-width="0.54" opacity="0.102"/><polyline points="468.8367912647062,300.0 464.18486249683076,317.25652441492963 456.661784365754,333.2994902298751 448.304265099484,348.18697676616875 440.71073744193177,362.6484566400659 434.3752804974719,377.58160436764683 428.56150654583746,393.40540196999046 421.7555835066705,409.6292198052495 412.4565437776194,424.89564489386106 399.90757685283916,437.51098249833206 384.41839563235317,446.2169503286862 367.1478427240599,450.8165240465752 349.49268771073343,452.3228301778803 332.42098653866935,452.52874944881944 316.1002137627809,453.18330152998806 300.0,455.1632087352938 283.3893023162099,458.0402316024898 265.9361024049211,460.258038271999 248.0654705886858,459.83804618014574 230.86578428350668,455.2779908342709 215.58160436764692,446.21695032868627 202.9629802272292,433.55999963164555 192.83090334497942,419.02333994800523 184.11672143918537,404.3417726826507 175.38947632084913,390.53484488992217 165.62471950252808,377.58160436764683 154.82779577037255,364.6348296324994 144.18051889825057,350.6288184667495 135.6089268110664,334.9424012862847 130.95820743066753,317.76700833593884 131.16320873529375,300.0 135.8151375031692,282.7434755850704 143.33821563424596,266.70050977012494 151.69573490051602,251.8130232338312 159.28926255806815,237.35154335993414 165.6247195025281,222.4183956323531 171.4384934541626,206.59459803000956 178.24441649332948,190.3707801947505 187.5434562223806,175.104355106139 200.09242314716084,162.48901750166794 215.5816043676468,153.78304967131382 232.8521572759401,149.1834759534248 250.5073122892665,147.67716982211965 267.5790134613306,147.47125055118053 283.8997862372191,146.81669847001191 299.99999999999994,144.83679126470625 316.61069768379,141.95976839751017 334.0638975950788,139.741961728001 351.9345294113142,140.16195381985426 369.1342157164934,144.72200916572913 384.41839563235317,153.7830496713138 397.0370197727708,166.4400003683544 407.1690966550205,180.9766600519947 415.8832785608147,195.65822731734931 424.6105236791509,209.46515511007777 434.37528049747186,222.41839563235305 445.1722042296275,235.36517036750064 455.81948110174943,249.37118153325045 464.39107318893355,265.0575987137152 469.0417925693325,282.2329916640612" fill="none" stroke="#1E90FF" stroke-width="0.5800000000000001" opacity="0.094"/><polyline points="446.60538575021616,300.0 441.46223980880103,314.8682805340738 437.0160695815418,329.123664643793 434.04096299486787,343.5525489790587 432.00547932497204,358.77262601338043 429.37953112888954,374.6973071248919 424.3932772513533,390.37700612107 415.87330367889376,404.3327912586277 403.75605487046596,415.2327730284439 389.050649151095,422.5677034977888 373.3026928751081,426.9639883913043 357.854811251299,429.9440336177049 343.28620135794745,433.221229306208 329.30286768200307,437.85915359081474 315.1041524877764,443.7064115408575 300.0,449.3946142497838 283.9278554068484,452.9162412202079 267.5818041617363,452.5156202356647 252.08351864407427,447.4717658284976 238.37857966294362,438.4039761372378 226.69730712489195,426.9639883913043 216.39257144249794,415.0757530836312 206.27013177640566,404.0975646624149 195.26190468713526,394.3066046117561 183.09867316280435,384.9337855274771 170.62046887111052,374.6973071248919 159.53457815549504,362.5392350991379 151.70850048284254,348.182828977037 148.32746377360832,332.23899280005367 149.32793051184862,315.8362726394491 153.39461424978384,300.0 158.5377601911989,285.13171946592627 162.98393041845821,270.876335356207 165.95903700513213,256.44745102094123 167.9945206750279,241.2273739866196 170.6204688711105,225.30269287510805 175.6067227486467,209.62299387893003 184.12669632110627,195.6672087413723 196.243945129534,184.7672269715561 210.949350848905,177.43229650221122 226.69730712489184,173.0360116086957 242.14518874870106,170.0559663822951 256.71379864205255,166.77877069379204 270.6971323179969,162.14084640918526 284.8958475122236,156.29358845914246 300.0,150.6053857502162 316.07214459315156,147.08375877979213 332.4181958382636,147.4843797643353 347.9164813559257,152.5282341715024 361.62142033705646,161.59602386276222 373.3026928751081,173.03601160869567 383.60742855750203,184.92424691636882 393.7298682235943,195.90243533758502 404.7380953128648,205.6933953882439 416.9013268371956,215.06621447252292 429.3795311288894,225.30269287510802 440.465421844505,237.46076490086213 448.2914995171575,251.81717102296298 451.6725362263917,267.7610071999462 450.67206948815135,284.163727360551" fill="none" stroke="#1E90FF" stroke-width="0.62" opacity="0.086"/><polyline points="426.1525101594681,300.0 426.04317230096814,313.2476712351531 427.253523081027,327.0485713264999 428.34170816826844,341.7007488320461 427.3801730833593,356.7133069962778 422.8435296649557,370.92374492026596 414.283800923845,383.0320416332717 402.4823151819528,392.2754910588362 389.0301972813878,398.87805129842127 375.56863528387385,404.01130335940394 363.07625507973404,409.2512785492738 351.54876631985707,415.78042480379406 340.20201163568925,423.7290693724887 328.0569462387481,431.99755405483234 314.5749219502773,438.67111932678677 300.0,441.8474898405319 285.23404307942207,440.4886956577291 271.32823818734045,434.8900339156329 258.88419433956017,426.54143819883274 247.7078866519634,417.4500095648578 236.923744920266,409.2512785492738 225.50559401888893,402.53275356864094 212.94848855466225,396.6804980459888 199.71523807047964,390.29680522278625 187.19474886691805,381.957812330509 177.15647033504428,370.92374492026596 170.95024215557706,357.4566540244574 168.8459230053876,342.6145428567967 169.85399705817235,327.66338690041147 172.13925136808956,313.43870620545385 173.84748984053192,300.0 173.95682769903186,286.7523287648469 172.74647691897303,272.9514286735001 171.65829183173156,258.29925116795386 172.6198269166407,243.28669300372223 177.15647033504428,229.07625507973404 185.716199076155,216.96795836672828 197.5176848180472,207.72450894116378 210.96980271861216,201.12194870157873 224.43136471612615,195.98869664059606 236.9237449202659,190.74872145072618 248.45123368014293,184.21957519620588 259.79798836431075,176.2709306275113 271.9430537612519,168.00244594516775 285.42507804972274,161.32888067321318 300.0,158.15251015946808 314.76595692057793,159.51130434227088 328.6717618126595,165.10996608436702 341.1158056604398,173.45856180116726 352.29211334803665,182.54999043514226 363.07625507973404,190.74872145072618 374.494405981111,197.46724643135906 387.0515114453377,203.31950195401112 400.2847619295204,209.7031947772138 412.8052511330819,218.042187669491 422.84352966495567,229.07625507973398 429.04975784442297,242.54334597554262 431.1540769946124,257.3854571432033 430.14600294182765,272.3366130995885 427.86074863191044,286.56129379454615" fill="none" stroke="#1E90FF" stroke-width="0.6599999999999999" opacity="0.07799999999999999"/><polyline points="415.70741665599655,300.0 419.83518074409994,312.5951850300327 422.36033849705353,326.00849283571375 421.4945251558098,339.4759642075869 416.42297507739534,351.8348481334172 407.6405346779016,362.1462916720017 396.68136037351337,370.2431199767698 385.3918429783201,376.8871607677255 375.1119824242606,383.4203076940142 366.1606306157152,391.062295826442 357.8537083279983,400.2055622303637 349.00984017067617,410.0779033065067 338.6561537386531,418.97140797196823 326.56007473524943,424.9553273094523 313.32119225385,426.74267806789555 300.0,424.29258334400345 287.5083538457959,418.85007414428566 276.1096870394515,412.39508567905983 265.31188555759957,406.75903875502706 254.2180537952252,402.8279347568289 242.14629167200178,400.2055622303637 229.17465942657623,397.482718276474 216.29581524159954,392.96291513625454 205.06554957943962,385.4793631018654 196.89821717645464,374.9078299344784 192.35946532209837,362.1462916720017 190.82699347228254,348.60695416751594 190.71784406113142,335.50792491133427 190.19990313333895,323.3387310610128 188.05742317950995,311.7656389303869 184.2925833440035,300.0 180.16481925590006,287.40481496996733 177.63966150294647,273.9915071642863 178.5054748441902,260.52403579241303 183.5770249226046,248.16515186658285 192.3594653220984,237.85370832799825 203.31863962648657,229.75688002323028 214.60815702167992,223.1128392322745 224.88801757573938,216.57969230598582 233.8393693842848,208.93770417355802 242.1462916720017,199.79443776963637 250.99015982932386,189.92209669349324 261.34384626134687,181.02859202803174 273.43992526475057,175.0446726905477 286.67880774615,173.25732193210442 300.0,175.70741665599655 312.49164615420403,181.14992585571434 323.8903129605484,187.60491432094017 334.68811444240043,193.24096124497297 345.7819462047749,197.17206524317118 357.8537083279983,199.79443776963635 370.8253405734238,202.51728172352603 383.7041847584004,207.03708486374543 394.93445042056044,214.52063689813463 403.10178282354536,225.0921700655216 407.6405346779016,237.8537083279982 409.1730065277175,251.39304583248412 409.2821559388686,264.49207508866573 409.800096866661,276.6612689389871 411.94257682049005,288.23436106961316" fill="none" stroke="#1E90FF" stroke-width="0.7" opacity="0.06999999999999999"/><polyline points="410.7365881176578,300.0 412.9990436028463,311.87667806363 411.1128877290069,323.6177733729049 405.2513735058776,334.19824430762594 396.79700503344526,343.0968032928446 387.6966871639953,350.6317059411711 379.5898994758935,357.8254467689082 373.1290062264918,365.8456529618152 367.80444746259644,375.30446791303814 362.3302097632128,385.790173817262 355.3682940588289,395.90069843830565 346.2140168857502,403.79838139522536 335.1028521427441,408.03547014762063 323.0091384177082,408.2494853931074 311.07557604321835,405.37706701563604 300.0,401.2634118823422 289.71664385088746,397.8395982152276 279.5404949195399,396.2544036265599 268.68664150013706,396.37260794869496 256.86863496077495,396.87463198678614 244.63170594117113,395.90069843830565 233.21497328290388,391.9217033315954 223.98996441373723,384.41769677471575 217.75776491183058,374.0512410854815 214.2785710097731,362.2802637227915 212.30331283600464,350.6317059411711 210.12674437499402,340.01415144631943 206.41148869304808,330.40875066474473 200.88219403754061,321.06814003565677 194.53842519756213,311.08445816952417 189.26341188234224,300.0 187.00095639715366,288.1233219363701 188.8871122709931,276.3822266270951 194.7486264941224,265.80175569237406 203.20299496655468,256.9031967071554 212.30331283600464,249.36829405882887 220.4101005241065,242.1745532310918 226.8709937735082,234.15434703818482 232.19555253740356,224.69553208696192 237.66979023678715,214.20982618273806 244.63170594117105,204.09930156169435 253.7859831142498,196.20161860477458 264.89714785725585,191.96452985237937 276.99086158229176,191.75051460689258 288.92442395678165,194.62293298436396 300.0,198.7365881176578 310.2833561491125,202.16040178477238 320.45950508046,203.7455963734401 331.3133584998629,203.62739205130504 343.1313650392251,203.12536801321386 355.3682940588289,204.09930156169438 366.7850267170961,208.07829666840462 376.01003558626275,215.58230322528422 382.2422350881694,225.94875891451855 385.7214289902269,237.71973627720848 387.6966871639953,249.36829405882884 389.87325562500604,259.98584855368057 393.58851130695194,269.59124933525527 399.11780596245933,278.9318599643432 405.4615748024379,288.91554183047583" fill="none" stroke="#1E90FF" stroke-width="0.74" opacity="0.062"/><polyline points="399.7252622123942,300.0 396.49660366374326,310.1422017338128 390.3910397928033,319.2132086241364 383.3467458485883,327.0809993431246 377.22053321433657,334.3807964818432 372.98406382133896,342.1373688938029 370.3617176801765,351.12078023815496 368.064315464851,361.28538491691586 364.4801320139495,371.6124415725308 358.46794120534116,380.47421720220314 349.8626311061971,386.36461047499773 339.46489748008315,388.6396110186266 328.55639313968925,387.887541047126 318.2205395332786,385.72089889920494 308.8356234515494,384.06534169831707 300.0,384.2747377876058 290.90896449256456,386.495425084019 280.9574575136687,389.5881187422169 270.22187237813426,391.64765314972 259.541254155896,390.871830991902 250.13736889380291,386.36461047499773 242.9682938163399,378.4974092848138 238.16535334688595,368.67433242298955 234.8737936846903,358.6398995560804 231.61509023721285,349.6845452164739 227.01593617866104,342.1373688938029 220.54724681238804,335.3746448458641 212.8931420488177,328.30273382530106 205.7417403641847,320.0352115771891 201.0733129505548,310.3976137896989 200.27473778760577,300.0 203.50339633625669,289.8577982661872 209.60896020719667,280.78679137586363 216.65325415141172,272.9190006568754 222.77946678566343,265.61920351815684 227.015936178661,257.8626311061971 229.63828231982347,248.87921976184506 231.93568453514902,238.71461508308417 235.51986798605046,228.3875584274692 241.53205879465878,219.52578279779684 250.13736889380283,213.6353895250023 260.53510251991685,211.36038898137338 271.44360686031075,212.11245895287402 281.7794604667214,214.27910110079503 291.1643765484506,215.9346583016829 300.0,215.72526221239423 309.0910355074354,213.50457491598098 319.04254248633123,210.41188125778308 329.77812762186574,208.35234685028004 340.45874584410404,209.128169008098 349.8626311061971,213.63538952500227 357.0317061836601,221.50259071518616 361.834646653114,231.32566757701042 365.1262063153097,241.36010044391963 368.3849097627872,250.3154547835261 372.98406382133896,257.86263110619706 379.45275318761196,264.62535515413595 387.1068579511823,271.6972661746989 394.2582596358153,279.96478842281084 398.9266870494452,289.6023862103012" fill="none" stroke="#1E90FF" stroke-width="0.78" opacity="0.05399999999999999"/><polyline points="378.86202921839555,300.0 373.6169897571851,307.7374574109901 369.15721547492586,314.69981993602306 366.73512736267355,321.6835573107442 366.3487055644223,329.5403469503709 366.80344229325124,338.5689853908022 366.3211965481258,348.18516980041574 363.3885972862049,357.075349358866 357.4318376264887,363.7845176176165 349.0050083058076,367.44960744465334 339.43101460919775,368.2965206971212 330.10766019997493,367.6229119853561 321.84819024181,367.24181542429164 314.58905220581653,368.6360942762374 307.5916618865838,372.22983800218907 300.0,377.13797078160445 291.43101714123617,381.5284259202656 282.26559616845265,383.4338102395478 273.4769061882524,381.6296891793704 266.0894306305461,376.1643858278235 260.56898539080225,368.2965206971212 256.4906704427899,359.88545457436607 252.69097476688415,352.5419954882685 247.853924843143,346.9525369654932 241.2429563221615,342.6894910518182 233.1965577067488,338.5689853908022 225.10982059311038,333.3432561198499 218.87699888224768,326.35846088068183 216.04506856176369,317.84517156175394 217.08442232473843,308.7147783831702 221.13797078160445,300.0 226.38301024281492,292.26254258900997 230.84278452507414,285.30018006397694 233.26487263732645,278.3164426892558 233.6512944355777,270.45965304962914 233.19655770674876,261.43101460919775 233.67880345187422,251.8148301995843 236.61140271379506,242.92465064113398 242.56816237351129,236.21548238238356 250.99499169419238,232.5503925553467 260.5689853908022,231.7034793028788 269.89233980002507,232.3770880146439 278.15180975819,232.75818457570836 285.41094779418347,231.36390572376263 292.4083381134162,227.7701619978109 300.0,222.86202921839558 308.56898285876383,218.4715740797344 317.7344038315473,216.56618976045218 326.5230938117476,218.37031082062958 333.910569369454,223.83561417217658 339.4310146091978,231.7034793028788 343.5093295572101,240.11454542563393 347.30902523311585,247.45800451173142 352.146075156857,253.04746303450682 358.7570436778385,257.3105089481818 366.8034422932512,261.43101460919775 374.8901794068896,266.65674388015015 381.1230011177523,273.64153911931817 383.95493143823626,282.154828438246 382.91557767526155,291.28522161682986" fill="none" stroke="#1E90FF" stroke-width="0.8200000000000001" opacity="0.045999999999999985"/><polyline points="356.89946373134796,300.0 355.78204177096796,305.8629288418956 357.02675110118855,312.1214101372808 359.62091071964335,319.37200820015573 361.73577031900214,327.4865358556391 361.5748706313495,335.550268134326 358.1769744523181,342.2680460902905 351.7966275808254,346.6378929547642 343.7014984340366,348.5354310776294 335.51503480279894,348.8822518074769 328.449731865674,349.2763810530586 322.8135755678219,351.24012966957076 318.0159264420189,355.44732021756187 313.03380413616634,361.319227380053 307.0638468464858,367.20801334627674 300.0,371.10053626865204 292.483285543636,371.51676083617104 285.50871371260763,368.1761417927386 279.81783292016246,362.1143233661363 275.42424554193667,355.1980482592508 271.550268134326,349.2763810530586 267.031533796854,345.37720082767515 260.98917534083034,343.3259100802811 253.412893416523,341.9472191798973 245.32807652748366,339.72147749063765 238.4251293686505,335.550268134326 234.30631109131787,329.24871474588053 233.71208613178223,321.5382488379744 236.11633448612585,313.57889228850684 239.90921073913773,306.31579645177385 243.10053626865204,300.0 244.21795822903204,294.1370711581044 242.97324889881148,287.87858986271925 240.37908928035665,280.6279917998442 238.26422968099786,272.51346414436097 238.42512936865046,264.449731865674 241.82302554768188,257.7319539097095 248.20337241917463,253.3621070452358 256.2985015659634,251.4645689223706 264.48496519720106,251.11774819252307 271.55026813432596,250.72361894694137 277.1864244321781,248.75987033042924 281.9840735579811,244.5526797824381 286.96619586383366,238.68077261994708 292.9361531535142,232.7919866537233 300.0,228.89946373134796 307.516714456364,228.48323916382896 314.49128628739237,231.82385820726137 320.18216707983754,237.88567663386368 324.5757544580634,244.80195174074922 328.449731865674,250.72361894694137 332.968466203146,254.62279917232485 339.0108246591696,256.6740899197189 346.587106583477,258.0527808201028 354.67192347251637,260.27852250936235 361.5748706313495,264.449731865674 365.69368890868213,270.75128525411947 366.28791386821774,278.4617511620256 363.8836655138741,286.4211077114931 360.0907892608622,293.68420354822615" fill="none" stroke="#1E90FF" stroke-width="0.8600000000000001" opacity="0.03799999999999999"/><polyline points="343.99210202582657,300.0 347.9802153821656,305.04292384562495 352.0056092442281,311.05413348850783 354.0965993155392,317.5770506168383 352.9541072987947,323.5766875743295 348.5042624582012,328.0039489870867 341.8710759603029,330.42111737850297 334.803370547205,331.3370955958997 328.8525566787001,332.04401053218294 324.7072668609289,334.0066354116391 321.9960510129133,338.0982779202427 319.6228075314213,344.0735473228168 316.4296442042419,350.56524548904224 311.8261272999828,355.63755457402397 306.05904327293905,357.647945942648 300.0,356.00789797417343 294.59007751885963,351.47197415466167 290.2629644067319,345.8091508291525 286.6753511793435,341.00905231397616 282.9030232667495,338.40043846546536 278.0039489870867,338.0982779202427 271.6425921492556,339.03062347719185 264.4240349600139,339.5111120005344 257.72952798444356,338.0605039571857 253.10493597414433,334.07125836831847 251.49573754179883,328.0039489870867 252.71900155855673,321.05085677615875 255.45959385952688,314.47205523325283 257.8227945006434,308.96504178179316 258.19575640582065,304.3938030538263 256.00789797417343,300.0 252.01978461783438,294.95707615437505 247.99439075577195,288.94586651149217 245.9034006844608,282.4229493831617 247.04589270120525,276.4233124256705 251.49573754179886,271.9960510129133 258.1289240396971,269.57888262149703 265.19662945279504,268.6629044041003 271.1474433212999,267.95598946781706 275.2927331390711,265.9933645883609 278.0039489870867,261.90172207975735 280.3771924685787,255.92645267718314 283.570355795758,249.43475451095776 288.1738727000172,244.36244542597606 293.94095672706095,242.352054057352 300.0,243.9921020258266 305.40992248114037,248.5280258453383 309.73703559326805,254.19084917084746 313.3246488206565,258.99094768602384 317.0969767332505,261.59956153453464 321.9960510129133,261.9017220797573 328.3574078507443,260.96937652280815 335.5759650399861,260.48888799946553 342.2704720155565,261.9394960428143 346.8950640258557,265.92874163168153 348.5042624582012,271.99605101291326 347.2809984414433,278.94914322384125 344.54040614047307,285.5279447667472 342.1772054993566,291.0349582182068 341.80424359417935,295.6061969461737" fill="none" stroke="#1E90FF" stroke-width="0.8999999999999999" opacity="0.03"/><polyline points="338.74651943055915,300.0 342.40488189788346,304.45693268340835 343.03334372918687,309.14701958024017 340.2271150529663,313.07058200333597 334.8924102031003,315.5351019219725 328.798358937388,316.6267402847204 323.75398496865444,317.25828028932756 320.8119683452289,318.7391804678427 319.87499110267754,322.07341385075256 319.87037549089206,327.3492255786374 319.3732597152796,333.5554701350916 317.34262402215296,338.95217130975016 313.5951205391918,341.8414786693837 308.7941014693465,341.3729945584962 303.9924121867415,337.9852645961385 300.0,333.25348056944085 296.9308833281373,329.20069456863223 294.17737784136153,327.39328352364714 290.8213584083398,328.24895412028474 286.25006362051494,330.8828627471669 280.6267402847204,333.5554701350916 274.93774212426945,334.4952386263418 270.5617768100049,332.69445908914355 268.5669864163802,328.30241255516023 269.10000198364116,322.450162674166 271.201641062612,316.6267402847204 273.1768983594829,311.94241427930467 273.36540949613266,308.65410305580446 270.9463673056622,306.1755402695322 266.3796881296228,303.53363716852954 261.25348056944085,300.0 257.59511810211654,295.54306731659165 256.96665627081313,290.85298041975983 259.77288494703373,286.92941799666403 265.1075897968996,284.4648980780275 271.201641062612,283.3732597152796 276.24601503134556,282.7417197106725 279.1880316547711,281.2608195321573 280.12500889732246,277.92658614924744 280.12962450910794,272.65077442136266 280.62674028472037,266.4445298649084 282.65737597784704,261.0478286902498 286.4048794608082,258.1585213306163 291.2058985306535,258.6270054415038 296.0075878132585,262.0147354038615 300.0,266.74651943055915 303.0691166718627,270.79930543136777 305.82262215863847,272.60671647635286 309.1786415916602,271.75104587971526 313.7499363794851,269.11713725283306 319.3732597152796,266.4445298649084 325.06225787573055,265.5047613736582 329.4382231899951,267.30554091085645 331.4330135836198,271.6975874448398 330.8999980163589,277.549837325834 328.798358937388,283.3732597152796 326.8231016405171,288.05758572069533 326.63459050386734,291.34589694419554 329.05363269433775,293.8244597304678 333.6203118703771,296.46636283147046" fill="none" stroke="#1E90FF" stroke-width="0.94" opacity="0.021999999999999992"/><polyline points="329.9983432011413,300.0 328.4100007546669,302.98601140321654 324.0883151045653,305.12012943505044 318.71984935603854,306.0824477662898 314.2740562640722,306.35521930447294 312.1257904828827,307.00082839942934 312.48597107902935,309.0715889923598 314.3973442236126,312.96342696608895 316.27110546558754,318.07089336018714 316.67846541337036,322.95593825616675 314.99917160057066,325.9793272836326 311.6190386461579,326.09678807668485 307.60999539086447,323.4211575324432 304.09237039522037,319.25308898049207 301.63324676774124,315.53930499197145 300.0,314.0016567988587 298.3867590194398,315.3489626415371 295.97201503906905,318.95017932772214 292.48570001379215,323.1266373609482 288.45880700913773,325.92194387220223 285.00082839942934,325.9793272836326 283.209037891491,323.1107766734683 283.52168028629916,318.30102809739276 285.37252103918183,313.17064121420225 287.359190503669,309.18408568749845 287.8742095171173,307.00082839942934 285.90078794041045,306.2773736491773 281.57467081545644,305.9867523616332 276.2145945482046,305.055744000761 271.7803415957674,302.9660056160355 270.0016567988587,300.0 271.5899992453331,297.01398859678346 275.9116848954347,294.87987056494956 281.28015064396146,293.9175522337102 285.7259437359278,293.64478069552706 287.8742095171173,292.99917160057066 287.51402892097065,290.9284110076402 285.60265577638745,287.0365730339111 283.72889453441246,281.92910663981286 283.32153458662964,277.04406174383325 285.00082839942934,274.0206727163674 288.3809613538421,273.90321192331515 292.3900046091355,276.5788424675568 295.9076296047796,280.74691101950793 298.36675323225876,284.46069500802855 300.0,285.9983432011413 301.6132409805602,284.6510373584629 304.02798496093095,281.0498206722779 307.51429998620785,276.87336263905183 311.54119299086227,274.07805612779777 314.99917160057066,274.0206727163674 316.790962108509,276.8892233265317 316.47831971370084,281.69897190260724 314.62747896081817,286.82935878579775 312.640809496331,290.81591431250155 312.1257904828827,292.99917160057066 314.09921205958955,293.7226263508227 318.42532918454356,294.0132476383668 323.7854054517954,294.944255999239 328.21965840423263,297.0339943839645" fill="none" stroke="#1E90FF" stroke-width="0.98" opacity="0.02"/><polygon points="300.0,440.0 421.2435565298214,229.99999999999994 178.7564434701786,230.0" fill="none" stroke="#1E90FF" stroke-width="1" opacity="0.2"/><polygon points="421.24355652982143,370.0 300.0,160.0 178.75644347017857,370.0" fill="none" stroke="#0a2030" stroke-width="1" opacity="0.15"/><circle cx="300" cy="300" r="8" fill="none" stroke="#87CEEB" stroke-width="1" opacity="0.4" filter="url(#glow)"/><text x="300" y="304" fill="#1E90FF" font-size="14" font-family="monospace" text-anchor="middle" font-weight="bold" opacity="0.7">tu</text><text x="300" y="570" fill="#0a2030" font-size="10" font-family="monospace" text-anchor="middle" letter-spacing="4" opacity="0.5">ZONE 2 · DEEP_WATER</text><text x="300" y="30" fill="#0a2030" font-size="9" font-family="monospace" text-anchor="middle" letter-spacing="6" opacity="0.3">0046</text></svg>
