<?xml version="1.0" encoding="UTF-8"?>
<svg xmlns="http://www.w3.org/2000/svg" viewBox="0 0 600 600" width="600" height="600">
<rect width="600" height="600" fill="#0a0608"/>
<defs>
  <filter id="glow" x="-50%" y="-50%" width="200%" height="200%">
    <feGaussianBlur stdDeviation="2" result="blur"/>
    <feMerge><feMergeNode in="blur"/><feMergeNode in="SourceGraphic"/></feMerge>
  </filter>
  <filter id="glow-thick" x="-50%" y="-50%" width="200%" height="200%">
    <feGaussianBlur stdDeviation="4" result="blur"/>
    <feMerge><feMergeNode in="blur"/><feMergeNode in="SourceGraphic"/></feMerge>
  </filter>
</defs>
<circle cx="300" cy="300" r="260" fill="none" stroke="#DC143C" stroke-width="0.5" opacity="0.15"/><circle cx="300" cy="300" r="240" fill="none" stroke="#DC143C" stroke-width="0.5" opacity="0.15"/><polygon points="300.0,90.0 346.90526313293935,235.4404438488792 499.7218684219822,235.10643118126103 375.89431000035324,324.6595561511208 423.4349029814193,469.89356881873897 300.0,379.8 176.56509701858067,469.89356881873897 224.10568999964676,324.6595561511208 100.27813157801776,235.10643118126097 253.09473686706065,235.4404438488792" fill="none" stroke="#DC143C" stroke-width="0.5" opacity="0.25"/><polygon points="300.0,130.0 337.9709272980938,247.7375021633784 461.67960777017606,247.46711095625895 361.4382509526669,319.9624978366216 399.9234928897204,437.5328890437411 300.0,364.6 200.07650711027958,437.5328890437411 238.56174904733308,319.9624978366216 138.3203922298239,247.4671109562589 262.0290727019062,247.7375021633784" fill="none" stroke="#DC143C" stroke-width="0.9" opacity="0.09"/><polygon points="300.0,170.0 329.03659146324816,260.0345604778776 423.63734711837,259.82779073125687 346.9821919049806,315.2654395221224 376.4120827980215,405.1722092687432 300.0,349.4 223.5879172019785,405.1722092687432 253.0178080950194,315.2654395221224 176.36265288163003,259.8277907312568 270.96340853675184,260.0345604778776" fill="none" stroke="#DC143C" stroke-width="1.3" opacity="0.04"/><circle cx="300" cy="300" r="80" fill="none" stroke="#3a0818" stroke-width="0.3" opacity="0.06"/><circle cx="300" cy="300" r="110" fill="none" stroke="#3a0818" stroke-width="0.3" opacity="0.06"/><circle cx="300" cy="300" r="140" fill="none" stroke="#3a0818" stroke-width="0.3" opacity="0.06"/><circle cx="300" cy="300" r="170" fill="none" stroke="#3a0818" stroke-width="0.3" opacity="0.06"/><line x1="300" y1="300" x2="480.0" y2="300.0" stroke="#3a0818" stroke-width="0.3" opacity="0.06"/><line x1="300" y1="300" x2="455.88457268119896" y2="390.0" stroke="#3a0818" stroke-width="0.3" opacity="0.06"/><line x1="300" y1="300" x2="390.0" y2="455.88457268119896" stroke="#3a0818" stroke-width="0.3" opacity="0.06"/><line x1="300" y1="300" x2="300.0" y2="480.0" stroke="#3a0818" stroke-width="0.3" opacity="0.06"/><line x1="300" y1="300" x2="210.00000000000006" y2="455.88457268119896" stroke="#3a0818" stroke-width="0.3" opacity="0.06"/><line x1="300" y1="300" x2="144.11542731880104" y2="390.0" stroke="#3a0818" stroke-width="0.3" opacity="0.06"/><line x1="300" y1="300" x2="120.0" y2="300.0" stroke="#3a0818" stroke-width="0.3" opacity="0.06"/><line x1="300" y1="300" x2="144.11542731880104" y2="210.0" stroke="#3a0818" stroke-width="0.3" opacity="0.06"/><line x1="300" y1="300" x2="209.99999999999991" y2="144.1154273188011" stroke="#3a0818" stroke-width="0.3" opacity="0.06"/><line x1="300" y1="300" x2="299.99999999999994" y2="120.0" stroke="#3a0818" stroke-width="0.3" opacity="0.06"/><line x1="300" y1="300" x2="390.0" y2="144.11542731880104" stroke="#3a0818" stroke-width="0.3" opacity="0.06"/><line x1="300" y1="300" x2="455.8845726811989" y2="209.99999999999991" stroke="#3a0818" stroke-width="0.3" opacity="0.06"/><circle cx="300" cy="300" r="10" fill="none" stroke="#DC143C" stroke-width="1.5" opacity="0.5" filter="url(#glow)"/><circle cx="300" cy="300" r="4" fill="#DC143C" opacity="0.5"/><text x="300" y="304" fill="#DC143C" font-size="14" font-family="monospace" text-anchor="middle" font-weight="bold" opacity="0.8">chi</text><text x="300" y="570" fill="#3a0818" font-size="10" font-family="monospace" text-anchor="middle" letter-spacing="4" opacity="0.5">ZONE 7 · SAMSARA</text><text x="300" y="30" fill="#3a0818" font-size="9" font-family="monospace" text-anchor="middle" letter-spacing="6" opacity="0.3">0321</text></svg>
