<?xml version="1.0" encoding="UTF-8"?>
<svg xmlns="http://www.w3.org/2000/svg" viewBox="0 0 600 600" width="600" height="600">
<rect width="600" height="600" fill="#0a0a08"/>
<defs>
  <filter id="glow" x="-50%" y="-50%" width="200%" height="200%">
    <feGaussianBlur stdDeviation="2" result="blur"/>
    <feMerge><feMergeNode in="blur"/><feMergeNode in="SourceGraphic"/></feMerge>
  </filter>
</defs>
<circle cx="300" cy="300" r="260" fill="none" stroke="#4a3a10" stroke-width="0.5" opacity="0.3"/><polygon points="300.0,500.0 200.0,300.0 299.99999999999994,100.0 400.0,300.0" fill="none" stroke="#FFB000" stroke-width="0.5" opacity="0.15"/><polygon points="300.0,460.0 220.0,300.0 299.99999999999994,140.0 380.0,300.0" fill="none" stroke="#FFB000" stroke-width="0.8" opacity="0.125"/><polygon points="300.0,420.0 240.0,300.0 300.0,180.0 360.0,300.0" fill="none" stroke="#FFB000" stroke-width="1.1" opacity="0.09999999999999999"/><polygon points="300.0,380.0 260.0,300.0 300.0,220.0 340.0,300.0" fill="none" stroke="#FFB000" stroke-width="1.4" opacity="0.07499999999999998"/><polygon points="300.0,340.0 280.0,300.0 300.0,260.0 320.0,300.0" fill="none" stroke="#FFB000" stroke-width="1.7" opacity="0.04999999999999999"/><polygon points="300.0,400.0 213.39745962155615,250.0 386.60254037844385,249.99999999999994" fill="none" stroke="#4a3a10" stroke-width="0.5" opacity="0.08"/><circle cx="300" cy="300" r="8" fill="none" stroke="#FFB000" stroke-width="1" opacity="0.5" filter="url(#glow)"/><circle cx="300" cy="300" r="2" fill="#FFB000" opacity="0.8"/><text x="300.0" y="270.0" fill="#4a3a10" font-size="8" font-family="monospace" text-anchor="middle" dominant-baseline="central" opacity="0.3">e</text><text x="323.4549444740409" y="281.295305944238" fill="#4a3a10" font-size="8" font-family="monospace" text-anchor="middle" dominant-baseline="central" opacity="0.3">i</text><text x="329.2478373654547" y="306.67562801868945" fill="#4a3a10" font-size="8" font-family="monospace" text-anchor="middle" dominant-baseline="central" opacity="0.3">a</text><text x="313.01651217352673" y="327.0290660370726" fill="#4a3a10" font-size="8" font-family="monospace" text-anchor="middle" dominant-baseline="central" opacity="0.3">o</text><text x="286.98348782647327" y="327.02906603707254" fill="#4a3a10" font-size="8" font-family="monospace" text-anchor="middle" dominant-baseline="central" opacity="0.3">u</text><text x="270.7521626345453" y="306.67562801868945" fill="#4a3a10" font-size="8" font-family="monospace" text-anchor="middle" dominant-baseline="central" opacity="0.3">n</text><text x="276.5450555259591" y="281.295305944238" fill="#4a3a10" font-size="8" font-family="monospace" text-anchor="middle" dominant-baseline="central" opacity="0.3">g</text><text x="300" y="570" fill="#4a3a10" font-size="10" font-family="monospace" text-anchor="middle" letter-spacing="4" opacity="0.5">ZONE 0 · MONO_AMBER</text><text x="300" y="30" fill="#4a3a10" font-size="9" font-family="monospace" text-anchor="middle" letter-spacing="6" opacity="0.3">0000</text></svg>
