<?xml version="1.0" encoding="UTF-8"?>
<svg xmlns="http://www.w3.org/2000/svg" viewBox="0 0 600 600" width="600" height="600">
<rect width="600" height="600" fill="#0a0806"/>
<defs>
  <filter id="glow" x="-50%" y="-50%" width="200%" height="200%">
    <feGaussianBlur stdDeviation="2" result="blur"/>
    <feMerge><feMergeNode in="blur"/><feMergeNode in="SourceGraphic"/></feMerge>
  </filter>
  <filter id="glow-thick" x="-50%" y="-50%" width="200%" height="200%">
    <feGaussianBlur stdDeviation="4" result="blur"/>
    <feMerge><feMergeNode in="blur"/><feMergeNode in="SourceGraphic"/></feMerge>
  </filter>
</defs>
<line x1="180" y1="60" x2="420" y2="60" stroke="#CD853F" stroke-width="0.3" opacity="0.12"/><line x1="180" y1="76" x2="420" y2="76" stroke="#CD853F" stroke-width="0.35" opacity="0.11699999999999999"/><line x1="180" y1="92" x2="420" y2="92" stroke="#CD853F" stroke-width="0.4" opacity="0.11399999999999999"/><line x1="180" y1="108" x2="420" y2="108" stroke="#CD853F" stroke-width="0.45" opacity="0.11099999999999999"/><line x1="180" y1="124" x2="420" y2="124" stroke="#CD853F" stroke-width="0.5" opacity="0.108"/><line x1="180" y1="140" x2="420" y2="140" stroke="#CD853F" stroke-width="0.55" opacity="0.105"/><line x1="180" y1="156" x2="420" y2="156" stroke="#CD853F" stroke-width="0.6000000000000001" opacity="0.102"/><line x1="180" y1="172" x2="420" y2="172" stroke="#CD853F" stroke-width="0.65" opacity="0.09899999999999999"/><line x1="180" y1="188" x2="420" y2="188" stroke="#CD853F" stroke-width="0.7" opacity="0.096"/><line x1="180" y1="204" x2="420" y2="204" stroke="#CD853F" stroke-width="0.75" opacity="0.093"/><line x1="180" y1="220" x2="420" y2="220" stroke="#CD853F" stroke-width="0.8" opacity="0.09"/><line x1="180" y1="236" x2="420" y2="236" stroke="#CD853F" stroke-width="0.8500000000000001" opacity="0.087"/><line x1="180" y1="252" x2="420" y2="252" stroke="#CD853F" stroke-width="0.9000000000000001" opacity="0.08399999999999999"/><line x1="180" y1="268" x2="420" y2="268" stroke="#CD853F" stroke-width="0.95" opacity="0.08099999999999999"/><line x1="180" y1="284" x2="420" y2="284" stroke="#CD853F" stroke-width="1.0" opacity="0.07799999999999999"/><line x1="180" y1="300" x2="420" y2="300" stroke="#CD853F" stroke-width="1.05" opacity="0.075"/><line x1="180" y1="316" x2="420" y2="316" stroke="#CD853F" stroke-width="1.1" opacity="0.072"/><line x1="180" y1="332" x2="420" y2="332" stroke="#CD853F" stroke-width="1.1500000000000001" opacity="0.06899999999999999"/><line x1="180" y1="348" x2="420" y2="348" stroke="#CD853F" stroke-width="1.2" opacity="0.066"/><line x1="180" y1="364" x2="420" y2="364" stroke="#CD853F" stroke-width="1.25" opacity="0.063"/><line x1="180" y1="380" x2="420" y2="380" stroke="#CD853F" stroke-width="1.3" opacity="0.06"/><line x1="180" y1="396" x2="420" y2="396" stroke="#CD853F" stroke-width="1.35" opacity="0.056999999999999995"/><line x1="180" y1="412" x2="420" y2="412" stroke="#CD853F" stroke-width="1.4000000000000001" opacity="0.05399999999999999"/><line x1="180" y1="428" x2="420" y2="428" stroke="#CD853F" stroke-width="1.4500000000000002" opacity="0.05099999999999999"/><line x1="180" y1="444" x2="420" y2="444" stroke="#CD853F" stroke-width="1.5000000000000002" opacity="0.04799999999999999"/><line x1="180" y1="460" x2="420" y2="460" stroke="#CD853F" stroke-width="1.55" opacity="0.045"/><line x1="180" y1="476" x2="420" y2="476" stroke="#CD853F" stroke-width="1.6" opacity="0.041999999999999996"/><line x1="180" y1="492" x2="420" y2="492" stroke="#CD853F" stroke-width="1.6500000000000001" opacity="0.03899999999999999"/><line x1="180" y1="508" x2="420" y2="508" stroke="#CD853F" stroke-width="1.7000000000000002" opacity="0.03599999999999999"/><line x1="180" y1="524" x2="420" y2="524" stroke="#CD853F" stroke-width="1.7500000000000002" opacity="0.03299999999999999"/><polygon points="300.0,380.0 230.71796769724492,260.0 369.28203230275506,259.99999999999994" fill="none" stroke="#CD853F" stroke-width="1.48" opacity="0.04"/><polygon points="300.0,420.0 196.07695154586736,240.0 403.92304845413264,239.99999999999994" fill="none" stroke="#CD853F" stroke-width="1.3599999999999999" opacity="0.04"/><polygon points="300.0,460.0 161.43593539448983,220.0 438.5640646055101,219.99999999999994" fill="none" stroke="#CD853F" stroke-width="1.24" opacity="0.09"/><polygon points="300.0,500.0 126.79491924311228,199.99999999999997 473.2050807568877,199.99999999999991" fill="none" stroke="#CD853F" stroke-width="1.12" opacity="0.16999999999999998"/><polygon points="300.0,540.0 92.15390309173475,179.99999999999997 507.8460969082652,179.9999999999999" fill="none" stroke="#CD853F" stroke-width="1.0" opacity="0.25"/><polygon points="413.1370849898476,413.1370849898476 186.8629150101524,413.1370849898476 186.86291501015236,186.8629150101524 413.1370849898476,186.86291501015236" fill="none" stroke="#2a1a08" stroke-width="0.8" opacity="0.1"/><polygon points="370.71067811865476,370.71067811865476 229.28932188134524,370.71067811865476 229.28932188134524,229.28932188134524 370.71067811865476,229.28932188134524" fill="none" stroke="#2a1a08" stroke-width="0.8" opacity="0.1"/><circle cx="300" cy="300" r="10" fill="none" stroke="#CD853F" stroke-width="1" opacity="0.3" filter="url(#glow)"/><text x="300" y="304" fill="#CD853F" font-size="16" font-family="monospace" text-anchor="middle" font-weight="bold" opacity="0.6">mu</text><text x="300" y="570" fill="#2a1a08" font-size="10" font-family="monospace" text-anchor="middle" letter-spacing="4" opacity="0.5">ZONE 1 · UR_EARTH</text><text x="300" y="30" fill="#2a1a08" font-size="9" font-family="monospace" text-anchor="middle" letter-spacing="6" opacity="0.3">0023</text></svg>
