<?xml version="1.0" encoding="UTF-8"?>
<svg xmlns="http://www.w3.org/2000/svg" viewBox="0 0 600 600" width="600" height="600">
<rect width="600" height="600" fill="#08060a"/>
<defs>
  <filter id="glow" x="-50%" y="-50%" width="200%" height="200%">
    <feGaussianBlur stdDeviation="2" result="blur"/>
    <feMerge><feMergeNode in="blur"/><feMergeNode in="SourceGraphic"/></feMerge>
  </filter>
  <filter id="glow-thick" x="-50%" y="-50%" width="200%" height="200%">
    <feGaussianBlur stdDeviation="4" result="blur"/>
    <feMerge><feMergeNode in="blur"/><feMergeNode in="SourceGraphic"/></feMerge>
  </filter>
</defs>
<polygon points="525.1666049839541,170.00000000000003 525.1666049839541,430.0 300.0,560.0 74.83339501604593,430.0 74.83339501604596,169.99999999999997 299.99999999999994,40.0" fill="none" stroke="#9370DB" stroke-width="0.3" opacity="0.15"/><polygon points="490.52558883257655,190.0 490.52558883257655,410.0 300.0,520.0 109.47441116742348,410.0 109.47441116742351,189.99999999999997 299.99999999999994,80.0" fill="none" stroke="#9370DB" stroke-width="0.5" opacity="0.10999999999999999"/><polygon points="455.88457268119896,210.0 455.88457268119896,390.0 300.0,480.0 144.11542731880104,390.0 144.11542731880104,210.0 299.99999999999994,120.0" fill="none" stroke="#9370DB" stroke-width="0.7" opacity="0.06999999999999999"/><polygon points="421.24355652982143,230.0 421.24355652982143,370.0 300.0,440.0 178.75644347017857,370.0 178.7564434701786,230.0 300.0,160.0" fill="none" stroke="#9370DB" stroke-width="0.8999999999999999" opacity="0.03"/><polygon points="386.6025403784439,250.0 386.6025403784439,350.0 300.0,400.0 213.39745962155612,350.0 213.39745962155615,250.0 300.0,200.0" fill="none" stroke="#9370DB" stroke-width="1.1" opacity="0.02"/><polyline points="300.0,300.0 311.13384807680524,311.1474419379326 322.0509884653599,322.1593423094852 332.538931446064,332.90240098845277 342.3935411386564,343.2477590346881 351.4230087749231,353.07311585351505 359.4515860381915,362.26472446515976 366.32300580440335,370.7192279250729 371.90352370393333,378.34530299062305 376.0845213036123,385.065080835204 378.78462024097666,390.81531889541145 379.95126616152766,395.5483027174836 379.56175162946187,399.2324618529225 377.62365810207973,401.85268933957764 374.174708365343,403.4103599870748 369.2820323027551,403.92304845413264 363.0408602885378,403.42395384820225 355.57266963671975,401.9610431837029 347.02282018339787,399.5959313953112 337.5577250228713,396.4025206135153 327.3616114660535,392.4654259740034 316.63293526542077,387.87821926217225 305.58051789953004,382.7415251112927 294.41948210047,377.1610072117627 283.3670647345793,371.2452839967515 272.6383885339465,365.1038145079499 262.4422749771287,358.8447955906441 252.97717981660216,352.5731112119134 244.42733036328022,346.3883735469831 236.95913971146223,340.3830935596645 230.71796769724494,334.6410161513776 225.82529163465702,329.23565162173185 222.37634189792027,324.2290312374979 220.43824837053813,319.6707102234606 220.04873383847234,315.5970365559559 221.21537975902334,312.03069865443484 223.9154786963877,308.9805595315917 228.09647629606667,306.4417792866897 233.67699419559665,304.3962221206696 240.54841396180845,302.81313842696824 248.57699122507682,301.65010707859193 257.6064588613435,300.85421789603174 267.461068553936,300.3634695423887 277.94901153464,300.10835384412525 288.8661519231947,300.0135938611274 300.0,300.0 311.1338480768052,299.9864061388726 322.0509884653599,299.89164615587475 332.538931446064,299.6365304576113 342.39354113865636,299.14578210396826 351.4230087749231,298.34989292140807 359.4515860381915,297.18686157303176 366.32300580440335,295.6037778793304 371.90352370393333,293.5582207133103 376.0845213036123,291.0194404684083 378.78462024097666,287.96930134556516 379.95126616152766,284.402963444044 379.56175162946187,280.32928977653944 377.62365810207973,275.7709687625021 374.174708365343,270.7643483782682 369.2820323027551,265.3589838486225 363.0408602885378,259.6169064403355 355.5726696367198,253.61162645301692 347.02282018339787,247.42688878808667 337.5577250228713,241.15520440935592 327.3616114660535,234.8961854920501 316.6329352654207,228.7547160032485 305.58051789953015,222.83899278823742 294.4194821004699,217.2584748887073 283.36706473457934,212.1217807378278 272.63838853394657,207.53457402599662 262.44227497712876,203.59747938648468 252.9771798166022,200.4040686046888 244.42733036328022,198.03895681629712 236.95913971146223,196.57604615179775 230.7179676972449,196.07695154586736 225.82529163465705,196.58964001292517 222.37634189792027,198.14731066042236 220.43824837053813,200.76753814707752 220.04873383847234,204.45169728251636 221.21537975902334,209.1846811045885 223.9154786963877,214.93491916479599 228.09647629606658,221.65469700937683 233.67699419559665,229.28077207492706 240.54841396180848,237.7352755348402 248.57699122507688,246.92688414648495 257.6064588613435,256.7522409653118 267.4610685539359,267.0975990115472 277.94901153464,277.8406576905147 288.8661519231949,288.85255806206743" fill="none" stroke="#BA55D3" stroke-width="1" opacity="0.15" filter="url(#glow)"/><line x1="377.9422863405995" y1="255.0" x2="377.9422863405995" y2="345.0" stroke="#281848" stroke-width="0.5" opacity="0.15"/><line x1="377.9422863405995" y1="345.0" x2="300.0" y2="390.0" stroke="#281848" stroke-width="0.5" opacity="0.15"/><line x1="300.0" y1="390.0" x2="222.05771365940052" y2="345.0" stroke="#281848" stroke-width="0.5" opacity="0.15"/><line x1="222.05771365940052" y1="345.0" x2="222.05771365940052" y2="255.0" stroke="#281848" stroke-width="0.5" opacity="0.15"/><line x1="222.05771365940052" y1="255.0" x2="300.0" y2="210.0" stroke="#281848" stroke-width="0.5" opacity="0.15"/><line x1="300.0" y1="210.0" x2="377.9422863405995" y2="254.99999999999994" stroke="#281848" stroke-width="0.5" opacity="0.15"/><circle cx="300" cy="300" r="9" fill="none" stroke="#9370DB" stroke-width="1" opacity="0.4" filter="url(#glow)"/><text x="300" y="304" fill="#9370DB" font-size="16" font-family="monospace" text-anchor="middle" font-weight="bold" opacity="0.7">ku</text><text x="300" y="570" fill="#281848" font-size="10" font-family="monospace" text-anchor="middle" letter-spacing="4" opacity="0.5">ZONE 6 · BINDING</text><text x="300" y="30" fill="#281848" font-size="9" font-family="monospace" text-anchor="middle" letter-spacing="6" opacity="0.3">0243</text></svg>
