<?xml version="1.0" encoding="UTF-8"?>
<svg xmlns="http://www.w3.org/2000/svg" viewBox="0 0 600 600" width="600" height="600">
<rect width="600" height="600" fill="#080a08"/>
<defs>
  <filter id="glow" x="-50%" y="-50%" width="200%" height="200%">
    <feGaussianBlur stdDeviation="2" result="blur"/>
    <feMerge><feMergeNode in="blur"/><feMergeNode in="SourceGraphic"/></feMerge>
  </filter>
  <filter id="glow-thick" x="-50%" y="-50%" width="200%" height="200%">
    <feGaussianBlur stdDeviation="4" result="blur"/>
    <feMerge><feMergeNode in="blur"/><feMergeNode in="SourceGraphic"/></feMerge>
  </filter>
</defs>
<circle cx="300" cy="300" r="250" fill="none" stroke="#6B8E23" stroke-width="0.5" opacity="0.15" stroke-dasharray="8 4"/><circle cx="300" cy="300" r="250" fill="none" stroke="#6B8E23" stroke-width="0.5" opacity="0.15" stroke-dasharray="4 6"/><circle cx="300" cy="300" r="250" fill="none" stroke="#6B8E23" stroke-width="0.5" opacity="0.15" stroke-dasharray="2 8"/><polyline points="300,300 311.00613144075254,305.9257970526233 308.5157357173565,312.3483701431459 302.9637033324772,317.24721608135826 295.8616540595378,319.5671687496444 288.78835830347816,319.50766747893795 282.6891335796479,318.03701482443046 277.79600590800277,316.2244459493245 273.9162272651376,314.82014844446735 270.73172109895256,314.12861812671366 267.93944653432453,314.03997547984204 265.25482084359186,314.1075343483226 262.3916649302495,313.62399109223776 259.13606400245266,311.6785587633216 255.58149667632236,307.21086419816925 252.50739662671106,299.1617728067732 251.7429098960867,286.91362331648696 256.13941063963927,271.1469464187616 268.6309344945259,254.82277421849284 290.23189274290803,243.33577777279612 317.9687292379697,242.75382310081716 344.77391432183276,256.3932734970718 362.48806097795614,282.1046867807451 366.253129522456,312.9140554621957 356.83511256138956,340.86281904291695 339.2632095343941,360.9479316881079 319.49429599949246,372.42218184702926 301.8325869389812,377.4783300356369 288.2346981410805,379.13013125332543 278.8789318008204,379.7505515850869 272.96533681423506,380.5861463679226 269.21321383038804,381.9049680870861 266.0593566570824,383.3548602630276 261.77183775032563,384.2309777398587 254.66170113159677,383.4831639057801 243.50109680248167,379.4614619641336 228.23856103180083,369.64406562811666 211.0139418623879,350.86974992202653 197.06059583300652,320.6997359824797 194.3728670943043,280.02104121525605 210.84390950324422,235.57025898442322 249.196671474517,199.6243465240109 303.0365071972782,185.0400955809336 358.2811337000078,197.97275141099897 400.2316459943156,234.01805442948663 421.0482456840914,281.1964839244401 422.05289043823666,326.9831787540274 410.4528010447079,363.6900992413905 394.36954565235345,389.41134633461445 379.6322072388265,405.90071562681993 368.9983363466422,416.03546691161125 362.7371167408599,422.3531944129115 359.50093389744836,426.72663045047585 357.02383691643996,430.5930014331827 352.5747177947803,435.13289402954115 343.1995146345964,441.03209540858165 325.89385108010043,447.7481251192095 298.09146417348325,452.48805687987146 259.02054606081117,449.4847295038724 212.0780653796369,430.6751063233262 167.0338266638576,388.99436357625655 139.28655185146795,324.0299310071648 143.88303369615076,246.59126633140605 186.34171438455792,176.9632408141429 257.2894094285342,135.4527257805933 336.59857169558194,131.42718324165267 404.37691060386624,159.5348422818224 450.0515282218007,205.18022949668065 473.8590687144696,253.38429207083362 482.41506238219097,294.43268322246786 483.3536665658134,324.62585951540626 482.1778406862426,344.3563339659403 481.545715713976,356.0459909886534 481.9070530454224,362.97677391173573 482.4478183089653,368.8316322216668 481.6956376565937,377.4141153573675 477.4943765531641,392.17237271549203 466.4508256321607,415.32724156231274 443.459613251691,446.4388587966843 402.4042777564134,480.47053470632636 339.17374309224164,506.31388186969644 256.87151466803516,508.07735040837696 170.17667877139772,471.37941902449995 103.49048554668906,393.2215679407077 80.30641815121552,288.39267065809537 109.59626092875143,184.87977524479945 180.2609738899331,109.50704573078636 268.5346718166489,74.6864781636175 351.51510071015304,75.84337083453724 416.2490104900498,98.64852232952376 460.38031929092335,128.23518059817522 487.7373868998893,154.5320531525887 503.7465002098146,173.1640285555709 513.0209265107097,184.119307611152 518.9565210742276,190.077109394488 524.1850426854337,195.13190839854917 530.8352075291829,204.0046513368534 540.0394513258623,221.65900302409366 550.6362600142239,253.02697405869694 557.4912224970647,302.12610840907905" fill="none" stroke="#6B8E23" stroke-width="1.2" opacity="0.25" filter="url(#glow)"/><line x1="376.0" y1="300.0" x2="384.0" y2="300.0" stroke="#202818" stroke-width="0.5" opacity="0.1"/><line x1="337.7197623961462" y1="377.4820071088063" x2="345.7197623961462" y2="377.4820071088063" stroke="#202818" stroke-width="0.5" opacity="0.1"/><line x1="243.15384895184042" y1="380.14539487328705" x2="251.15384895184042" y2="380.14539487328705" stroke="#202818" stroke-width="0.5" opacity="0.1"/><line x1="192.41172919727995" y1="290.75499312589005" x2="200.41172919727995" y2="290.75499312589005" stroke="#202818" stroke-width="0.5" opacity="0.1"/><line x1="251.8785061258135" y1="197.05684200341375" x2="259.8785061258135" y2="197.05684200341375" stroke="#202818" stroke-width="0.5" opacity="0.1"/><line x1="370.7017563965143" y1="206.0870211777103" x2="378.7017563965143" y2="206.0870211777103" stroke="#202818" stroke-width="0.5" opacity="0.1"/><line x1="421.97703782006295" y1="322.6668467609067" x2="429.97703782006295" y2="322.6668467609067" stroke="#202818" stroke-width="0.5" opacity="0.1"/><line x1="338.2519944297794" y1="429.2701395013786" x2="346.2519944297794" y2="429.2701395013786" stroke="#202818" stroke-width="0.5" opacity="0.1"/><line x1="196.6947857020635" y1="404.2807480469953" x2="204.6947857020635" y2="404.2807480469953" stroke="#202818" stroke-width="0.5" opacity="0.1"/><line x1="149.38727239441474" y1="259.89129640526323" x2="157.38727239441474" y2="259.89129640526323" stroke="#202818" stroke-width="0.5" opacity="0.1"/><line x1="260.00783130498155" y1="144.10078963436237" x2="268.00783130498155" y2="144.10078963436237" stroke="#202818" stroke-width="0.5" opacity="0.1"/><line x1="422.21237442858984" y1="189.11971978256264" x2="430.21237442858984" y2="189.11971978256264" stroke="#202818" stroke-width="0.5" opacity="0.1"/><line x1="460.9616301505729" y1="361.34868032863955" x2="468.9616301505729" y2="361.34868032863955" stroke="#202818" stroke-width="0.5" opacity="0.1"/><line x1="321.28979647083514" y1="482.2537412358488" x2="329.28979647083514" y2="482.2537412358488" stroke="#202818" stroke-width="0.5" opacity="0.1"/><line x1="141.06362006838987" y1="413.39628818302543" x2="149.06362006838987" y2="413.39628818302543" stroke="#202818" stroke-width="0.5" opacity="0.1"/><line x1="115.48294313002805" y1="213.89778063834063" x2="123.48294313002805" y2="213.89778063834063" stroke="#202818" stroke-width="0.5" opacity="0.1"/><line x1="285.83924788251255" y1="92.24832343298172" x2="293.83924788251255" y2="92.24832343298172" stroke="#202818" stroke-width="0.5" opacity="0.1"/><line x1="480.9536902736708" y1="188.42880096480522" x2="488.9536902736708" y2="188.42880096480522" stroke="#202818" stroke-width="0.5" opacity="0.1"/><line x1="488.8062140488832" y1="414.0252771280835" x2="496.8062140488832" y2="414.0252771280835" stroke="#202818" stroke-width="0.5" opacity="0.1"/><line x1="286.6894241324461" y1="531.8130996665515" x2="294.6894241324461" y2="531.8130996665515" stroke="#202818" stroke-width="0.5" opacity="0.1"/><circle cx="300" cy="300" r="8" fill="none" stroke="#6B8E23" stroke-width="0.8" opacity="0.3" filter="url(#glow)"/><text x="300" y="304" fill="#6B8E23" font-size="14" font-family="monospace" text-anchor="middle" font-weight="bold" opacity="0.6">bab</text><text x="300" y="570" fill="#202818" font-size="10" font-family="monospace" text-anchor="middle" letter-spacing="4" opacity="0.5">ZONE 8 · EXILE</text><text x="300" y="30" fill="#202818" font-size="9" font-family="monospace" text-anchor="middle" letter-spacing="6" opacity="0.3">0402</text></svg>
