<svg xmlns="http://www.w3.org/2000/svg" viewBox="0 0 900 600">
  <style>
    @import url("https://fonts.googleapis.com/css2?family=JetBrains+Mono:wght@400;500;600;700&amp;display=swap");
    text { font-family: "JetBrains Mono", monospace; fill: #e2e8f0; }
    .label, .pair { font-size: 11px; fill: #94a3b8; }
    .title { font-size: 18px; font-weight: 700; fill: #f8fafc; }
    .atlantean { stroke: #60a5fa; }
    .lemurian { stroke: #a78bfa; }
    .center-dot { fill: #fbbf24; }
    .conn { stroke-width: 1.5; opacity: 0.5; }
    .num-bg { fill: #1e293b; stroke-width: 1; rx: 6; }
    .atl-bg { stroke: #60a5fa; }
    .lem-bg { stroke: #a78bfa; }
  </style>
  <rect width="100%" height="100%" fill="#0f172a"/>
  <text x="450" y="35" class="title" text-anchor="middle">BARKER SPIRAL (Diplozygotic)</text>
  <circle cx="450" cy="320" r="8" class="center-dot"/>
  <text x="470" y="324" class="label" fill="#fbbf24">5 ⊕ 5 = 10 (axis origin)</text>
  <circle cx="450" cy="320" r="60" fill="none" stroke="#334155" stroke-width="0.5" stroke-dasharray="3 3"/>
  <circle cx="450" cy="320" r="110" fill="none" stroke="#334155" stroke-width="0.5" stroke-dasharray="3 3"/>
  <circle cx="450" cy="320" r="170" fill="none" stroke="#334155" stroke-width="0.5" stroke-dasharray="3 3"/>
  <circle cx="450" cy="320" r="240" fill="none" stroke="#334155" stroke-width="0.5" stroke-dasharray="3 3"/>
  <circle cx="450" cy="320" r="320" fill="none" stroke="#334155" stroke-width="0.5" stroke-dasharray="3 3"/>
  <!-- Atlantean (sum-to-10) -->
  <line x1="450" y1="320" x2="449.1339745962156" y2="320.5" class="conn atlantean"/>
  <line x1="450" y1="320" x2="449.1339745962156" y2="319.5" class="conn atlantean"/>
  <rect x="431.1339745962156" y="308.5" width="36" height="24" class="num-bg atl-bg"/>
  <text x="449.1339745962156" y="325.5" text-anchor="middle" class="pair">4</text>
  <rect x="431.1339745962156" y="307.5" width="36" height="24" class="num-bg atl-bg"/>
  <text x="449.1339745962156" y="324.5" text-anchor="middle" class="pair">6</text>
  <line x1="450" y1="320" x2="449.0" y2="321.7320508075689" class="conn atlantean"/>
  <line x1="450" y1="320" x2="449.0" y2="318.2679491924311" class="conn atlantean"/>
  <rect x="431.0" y="309.7320508075689" width="36" height="24" class="num-bg atl-bg"/>
  <text x="449.0" y="326.7320508075689" text-anchor="middle" class="pair">3</text>
  <rect x="431.0" y="306.2679491924311" width="36" height="24" class="num-bg atl-bg"/>
  <text x="449.0" y="323.2679491924311" text-anchor="middle" class="pair">7</text>
  <line x1="450" y1="320" x2="450.0" y2="323.0" class="conn atlantean"/>
  <line x1="450" y1="320" x2="450.0" y2="317.0" class="conn atlantean"/>
  <rect x="432.0" y="311.0" width="36" height="24" class="num-bg atl-bg"/>
  <text x="450.0" y="328.0" text-anchor="middle" class="pair">2</text>
  <rect x="432.0" y="305.0" width="36" height="24" class="num-bg atl-bg"/>
  <text x="450.0" y="322.0" text-anchor="middle" class="pair">8</text>
  <line x1="450" y1="320" x2="452.0" y2="323.46410161513774" class="conn atlantean"/>
  <line x1="450" y1="320" x2="452.0" y2="316.53589838486226" class="conn atlantean"/>
  <rect x="434.0" y="311.46410161513774" width="36" height="24" class="num-bg atl-bg"/>
  <text x="452.0" y="328.46410161513774" text-anchor="middle" class="pair">1</text>
  <rect x="434.0" y="304.53589838486226" width="36" height="24" class="num-bg atl-bg"/>
  <text x="452.0" y="321.53589838486226" text-anchor="middle" class="pair">9</text>
  <!-- Lemurian (sum-to-9) -->
  <line x1="450" y1="320" x2="450.8660254037844" y2="319.5" class="conn lemurian"/>
  <line x1="450" y1="320" x2="450.8660254037844" y2="320.5" class="conn lemurian"/>
  <rect x="432.8660254037844" y="307.5" width="36" height="24" class="num-bg lem-bg"/>
  <text x="450.8660254037844" y="324.5" text-anchor="middle" class="pair">1</text>
  <rect x="432.8660254037844" y="308.5" width="36" height="24" class="num-bg lem-bg"/>
  <text x="450.8660254037844" y="325.5" text-anchor="middle" class="pair">8</text>
  <line x1="450" y1="320" x2="451.0" y2="318.2679491924311" class="conn lemurian"/>
  <line x1="450" y1="320" x2="451.0" y2="321.7320508075689" class="conn lemurian"/>
  <rect x="433.0" y="306.2679491924311" width="36" height="24" class="num-bg lem-bg"/>
  <text x="451.0" y="323.2679491924311" text-anchor="middle" class="pair">2</text>
  <rect x="433.0" y="309.7320508075689" width="36" height="24" class="num-bg lem-bg"/>
  <text x="451.0" y="326.7320508075689" text-anchor="middle" class="pair">7</text>
  <line x1="450" y1="320" x2="450.0" y2="317.0" class="conn lemurian"/>
  <line x1="450" y1="320" x2="450.0" y2="323.0" class="conn lemurian"/>
  <rect x="432.0" y="305.0" width="36" height="24" class="num-bg lem-bg"/>
  <text x="450.0" y="322.0" text-anchor="middle" class="pair">3</text>
  <rect x="432.0" y="311.0" width="36" height="24" class="num-bg lem-bg"/>
  <text x="450.0" y="328.0" text-anchor="middle" class="pair">6</text>
  <line x1="450" y1="320" x2="448.0" y2="316.53589838486226" class="conn lemurian"/>
  <line x1="450" y1="320" x2="448.0" y2="323.46410161513774" class="conn lemurian"/>
  <rect x="430.0" y="304.53589838486226" width="36" height="24" class="num-bg lem-bg"/>
  <text x="448.0" y="321.53589838486226" text-anchor="middle" class="pair">4</text>
  <rect x="430.0" y="311.46410161513774" width="36" height="24" class="num-bg lem-bg"/>
  <text x="448.0" y="328.46410161513774" text-anchor="middle" class="pair">5</text>
  <line x1="450" y1="320" x2="445.6698729810778" y2="317.5" class="conn lemurian"/>
  <line x1="450" y1="320" x2="445.6698729810778" y2="322.5" class="conn lemurian"/>
  <rect x="427.6698729810778" y="305.5" width="36" height="24" class="num-bg lem-bg"/>
  <text x="445.6698729810778" y="322.5" text-anchor="middle" class="pair">9</text>
  <rect x="427.6698729810778" y="310.5" width="36" height="24" class="num-bg lem-bg"/>
  <text x="445.6698729810778" y="327.5" text-anchor="middle" class="pair">0</text>
  <line x1="450" y1="20" x2="450" y2="580" stroke="#94a3b8" stroke-width="1" stroke-dasharray="5 5"/>
  <text x="20" y="300" class="label" fill="#60a5fa">Atlantean
(decadence)</text>
  <text x="880" y="300" class="label" fill="#a78bfa" text-anchor="end">Lemurian
(subdecadence)</text>
  <path d="M 380 320 Q 450 180 520 320 Q 450 460 380 320" fill="none" stroke="#fbbf24" stroke-width="2" stroke-dasharray="4 2" opacity="0.7"/>
  <text x="530" y="295" fill="#fbbf24" font-size="10" class="label">spiral tension</text>
  <rect x="120" y="520" width="660" height="60" fill="#1e293b" stroke="#334155" rx="8"/>
  <text x="450" y="545" class="label" text-anchor="middle">
    Spiral emerges from Lemuro-Atlantean convergence; the friction between sum-to-10 and sum-to-9
    opens the infinitesimal gap where 0.999… → 1. The Numogram lives in that gap.
  </text>
</svg>