<svg xmlns="http://www.w3.org/2000/svg" viewBox="0 0 800 720">
  <style>
    @import url('https://fonts.googleapis.com/css2?family=JetBrains+Mono:wght@400;500;600;700&amp;display=swap');
    text { font-family: 'JetBrains Mono', monospace; }
  </style>
  <defs>
    <pattern id="grid" width="40" height="40" patternUnits="userSpaceOnUse">
      <path d="M 40 0 L 0 0 0 40" fill="none" stroke="#1e293b" stroke-width="0.5"/>
    </pattern>
  </defs>
  <rect width="100%" height="100%" fill="#0f172a"/>
  <rect width="100%" height="100%" fill="url(#grid)"/>
  <text x="30" y="30" fill="#94a3b8" font-size="10" font-weight="400">CHANGING LINES NETWORK · 64 HEXAGRAMS · 192 EDGES</text>
  <text x="30" y="50" fill="white" font-size="16" font-weight="700">THE 6-DIMENSIONAL HYPERCUBE</text>
  <text x="30" y="67" fill="#64748b" font-size="9">Each hexagram connected to 6 neighbors (single-line flip). Every edge crosses a zone boundary. 100% cross-zone.</text>
  <line x1="400.0" y1="100.0" x2="424.5" y2="101.2" stroke="#fbbf24" stroke-width="0.3" stroke-opacity="0.06"/>
  <line x1="400.0" y1="100.0" x2="448.8" y2="104.8" stroke="#34d399" stroke-width="0.3" stroke-opacity="0.06"/>
  <line x1="400.0" y1="100.0" x2="495.7" y2="119.0" stroke="#00ffff" stroke-width="0.3" stroke-opacity="0.06"/>
  <line x1="400.0" y1="100.0" x2="576.8" y2="173.2" stroke="#c084fc" stroke-width="0.3" stroke-opacity="0.06"/>
  <line x1="400.0" y1="100.0" x2="650.0" y2="350.0" stroke="#fb7185" stroke-width="0.3" stroke-opacity="0.06"/>
  <line x1="400.0" y1="100.0" x2="400.0" y2="600.0" stroke="#34d399" stroke-width="0.3" stroke-opacity="0.06"/>
  <line x1="424.5" y1="101.2" x2="472.6" y2="110.8" stroke="#fbbf24" stroke-width="0.3" stroke-opacity="0.06"/>
  <line x1="424.5" y1="101.2" x2="517.8" y2="129.5" stroke="#fbbf24" stroke-width="0.3" stroke-opacity="0.06"/>
  <line x1="424.5" y1="101.2" x2="593.3" y2="191.4" stroke="#fbbf24" stroke-width="0.3" stroke-opacity="0.06"/>
  <line x1="424.5" y1="101.2" x2="648.8" y2="374.5" stroke="#fbbf24" stroke-width="0.3" stroke-opacity="0.06"/>
  <line x1="424.5" y1="101.2" x2="375.5" y2="598.8" stroke="#fbbf24" stroke-width="0.3" stroke-opacity="0.06"/>
  <line x1="448.8" y1="104.8" x2="472.6" y2="110.8" stroke="#34d399" stroke-width="0.3" stroke-opacity="0.06"/>
  <line x1="448.8" y1="104.8" x2="538.9" y2="142.1" stroke="#34d399" stroke-width="0.3" stroke-opacity="0.06"/>
  <line x1="448.8" y1="104.8" x2="607.9" y2="211.1" stroke="#34d399" stroke-width="0.3" stroke-opacity="0.06"/>
  <line x1="448.8" y1="104.8" x2="645.2" y2="398.8" stroke="#34d399" stroke-width="0.3" stroke-opacity="0.06"/>
  <line x1="448.8" y1="104.8" x2="351.2" y2="595.2" stroke="#34d399" stroke-width="0.3" stroke-opacity="0.06"/>
  <line x1="472.6" y1="110.8" x2="558.6" y2="156.7" stroke="#e879f9" stroke-width="0.3" stroke-opacity="0.06"/>
  <line x1="472.6" y1="110.8" x2="620.5" y2="232.2" stroke="#e879f9" stroke-width="0.3" stroke-opacity="0.06"/>
  <line x1="472.6" y1="110.8" x2="639.2" y2="422.6" stroke="#e879f9" stroke-width="0.3" stroke-opacity="0.06"/>
  <line x1="472.6" y1="110.8" x2="327.4" y2="589.2" stroke="#e879f9" stroke-width="0.3" stroke-opacity="0.06"/>
  <line x1="495.7" y1="119.0" x2="517.8" y2="129.5" stroke="#00ffff" stroke-width="0.3" stroke-opacity="0.06"/>
  <line x1="495.7" y1="119.0" x2="538.9" y2="142.1" stroke="#00ffff" stroke-width="0.3" stroke-opacity="0.06"/>
  <line x1="495.7" y1="119.0" x2="631.0" y2="254.3" stroke="#00ffff" stroke-width="0.3" stroke-opacity="0.06"/>
  <line x1="495.7" y1="119.0" x2="631.0" y2="445.7" stroke="#00ffff" stroke-width="0.3" stroke-opacity="0.06"/>
  <line x1="495.7" y1="119.0" x2="304.3" y2="581.0" stroke="#00ffff" stroke-width="0.3" stroke-opacity="0.06"/>
  <line x1="517.8" y1="129.5" x2="558.6" y2="156.7" stroke="#34d399" stroke-width="0.3" stroke-opacity="0.06"/>
  <line x1="517.8" y1="129.5" x2="639.2" y2="277.4" stroke="#34d399" stroke-width="0.3" stroke-opacity="0.06"/>
  <line x1="517.8" y1="129.5" x2="620.5" y2="467.8" stroke="#34d399" stroke-width="0.3" stroke-opacity="0.06"/>
  <line x1="517.8" y1="129.5" x2="282.2" y2="570.5" stroke="#34d399" stroke-width="0.3" stroke-opacity="0.06"/>
  <line x1="538.9" y1="142.1" x2="558.6" y2="156.7" stroke="#60a5fa" stroke-width="0.3" stroke-opacity="0.06"/>
  <line x1="538.9" y1="142.1" x2="645.2" y2="301.2" stroke="#60a5fa" stroke-width="0.3" stroke-opacity="0.06"/>
  <line x1="538.9" y1="142.1" x2="607.9" y2="488.9" stroke="#60a5fa" stroke-width="0.3" stroke-opacity="0.06"/>
  <line x1="538.9" y1="142.1" x2="261.1" y2="557.9" stroke="#60a5fa" stroke-width="0.3" stroke-opacity="0.06"/>
  <line x1="558.6" y1="156.7" x2="648.8" y2="325.5" stroke="#fb7185" stroke-width="0.3" stroke-opacity="0.06"/>
  <line x1="558.6" y1="156.7" x2="593.3" y2="508.6" stroke="#fb7185" stroke-width="0.3" stroke-opacity="0.06"/>
  <line x1="558.6" y1="156.7" x2="241.4" y2="543.3" stroke="#fb7185" stroke-width="0.3" stroke-opacity="0.06"/>
  <line x1="576.8" y1="173.2" x2="593.3" y2="191.4" stroke="#c084fc" stroke-width="0.3" stroke-opacity="0.06"/>
  <line x1="576.8" y1="173.2" x2="607.9" y2="211.1" stroke="#c084fc" stroke-width="0.3" stroke-opacity="0.06"/>
  <line x1="576.8" y1="173.2" x2="631.0" y2="254.3" stroke="#c084fc" stroke-width="0.3" stroke-opacity="0.06"/>
  <line x1="576.8" y1="173.2" x2="576.8" y2="526.8" stroke="#c084fc" stroke-width="0.3" stroke-opacity="0.06"/>
  <line x1="576.8" y1="173.2" x2="223.2" y2="526.8" stroke="#c084fc" stroke-width="0.3" stroke-opacity="0.06"/>
  <line x1="593.3" y1="191.4" x2="620.5" y2="232.2" stroke="#a855f7" stroke-width="0.3" stroke-opacity="0.06"/>
  <line x1="593.3" y1="191.4" x2="639.2" y2="277.4" stroke="#a855f7" stroke-width="0.3" stroke-opacity="0.06"/>
  <line x1="593.3" y1="191.4" x2="558.6" y2="543.3" stroke="#a855f7" stroke-width="0.3" stroke-opacity="0.06"/>
  <line x1="593.3" y1="191.4" x2="206.7" y2="508.6" stroke="#a855f7" stroke-width="0.3" stroke-opacity="0.06"/>
  <line x1="607.9" y1="211.1" x2="620.5" y2="232.2" stroke="#fbbf24" stroke-width="0.3" stroke-opacity="0.06"/>
  <line x1="607.9" y1="211.1" x2="645.2" y2="301.2" stroke="#fbbf24" stroke-width="0.3" stroke-opacity="0.06"/>
  <line x1="607.9" y1="211.1" x2="538.9" y2="557.9" stroke="#fbbf24" stroke-width="0.3" stroke-opacity="0.06"/>
  <line x1="607.9" y1="211.1" x2="192.1" y2="488.9" stroke="#fbbf24" stroke-width="0.3" stroke-opacity="0.06"/>
  <line x1="620.5" y1="232.2" x2="648.8" y2="325.5" stroke="#34d399" stroke-width="0.3" stroke-opacity="0.06"/>
  <line x1="620.5" y1="232.2" x2="517.8" y2="570.5" stroke="#34d399" stroke-width="0.3" stroke-opacity="0.06"/>
  <line x1="620.5" y1="232.2" x2="179.5" y2="467.8" stroke="#34d399" stroke-width="0.3" stroke-opacity="0.06"/>
  <line x1="631.0" y1="254.3" x2="639.2" y2="277.4" stroke="#e879f9" stroke-width="0.3" stroke-opacity="0.06"/>
  <line x1="631.0" y1="254.3" x2="645.2" y2="301.2" stroke="#e879f9" stroke-width="0.3" stroke-opacity="0.06"/>
  <line x1="631.0" y1="254.3" x2="495.7" y2="581.0" stroke="#e879f9" stroke-width="0.3" stroke-opacity="0.06"/>
  <line x1="631.0" y1="254.3" x2="169.0" y2="445.7" stroke="#e879f9" stroke-width="0.3" stroke-opacity="0.06"/>
  <line x1="639.2" y1="277.4" x2="648.8" y2="325.5" stroke="#00ffff" stroke-width="0.3" stroke-opacity="0.06"/>
  <line x1="639.2" y1="277.4" x2="472.6" y2="589.2" stroke="#00ffff" stroke-width="0.3" stroke-opacity="0.06"/>
  <line x1="639.2" y1="277.4" x2="160.8" y2="422.6" stroke="#00ffff" stroke-width="0.3" stroke-opacity="0.06"/>
  <line x1="645.2" y1="301.2" x2="648.8" y2="325.5" stroke="#34d399" stroke-width="0.3" stroke-opacity="0.06"/>
  <line x1="645.2" y1="301.2" x2="448.8" y2="595.2" stroke="#34d399" stroke-width="0.3" stroke-opacity="0.06"/>
  <line x1="645.2" y1="301.2" x2="154.8" y2="398.8" stroke="#34d399" stroke-width="0.3" stroke-opacity="0.06"/>
  <line x1="648.8" y1="325.5" x2="424.5" y2="598.8" stroke="#60a5fa" stroke-width="0.3" stroke-opacity="0.06"/>
  <line x1="648.8" y1="325.5" x2="151.2" y2="374.5" stroke="#60a5fa" stroke-width="0.3" stroke-opacity="0.06"/>
  <line x1="650.0" y1="350.0" x2="648.8" y2="374.5" stroke="#fb7185" stroke-width="0.3" stroke-opacity="0.06"/>
  <line x1="650.0" y1="350.0" x2="645.2" y2="398.8" stroke="#fb7185" stroke-width="0.3" stroke-opacity="0.06"/>
  <line x1="650.0" y1="350.0" x2="631.0" y2="445.7" stroke="#fb7185" stroke-width="0.3" stroke-opacity="0.06"/>
  <line x1="650.0" y1="350.0" x2="576.8" y2="526.8" stroke="#fb7185" stroke-width="0.3" stroke-opacity="0.06"/>
  <line x1="650.0" y1="350.0" x2="150.0" y2="350.0" stroke="#fb7185" stroke-width="0.3" stroke-opacity="0.06"/>
  <line x1="648.8" y1="374.5" x2="639.2" y2="422.6" stroke="#c084fc" stroke-width="0.3" stroke-opacity="0.06"/>
  <line x1="648.8" y1="374.5" x2="620.5" y2="467.8" stroke="#c084fc" stroke-width="0.3" stroke-opacity="0.06"/>
  <line x1="648.8" y1="374.5" x2="558.6" y2="543.3" stroke="#c084fc" stroke-width="0.3" stroke-opacity="0.06"/>
  <line x1="648.8" y1="374.5" x2="151.2" y2="325.5" stroke="#c084fc" stroke-width="0.3" stroke-opacity="0.06"/>
  <line x1="645.2" y1="398.8" x2="639.2" y2="422.6" stroke="#a855f7" stroke-width="0.3" stroke-opacity="0.06"/>
  <line x1="645.2" y1="398.8" x2="607.9" y2="488.9" stroke="#a855f7" stroke-width="0.3" stroke-opacity="0.06"/>
  <line x1="645.2" y1="398.8" x2="538.9" y2="557.9" stroke="#a855f7" stroke-width="0.3" stroke-opacity="0.06"/>
  <line x1="645.2" y1="398.8" x2="154.8" y2="301.2" stroke="#a855f7" stroke-width="0.3" stroke-opacity="0.06"/>
  <line x1="639.2" y1="422.6" x2="593.3" y2="508.6" stroke="#fbbf24" stroke-width="0.3" stroke-opacity="0.06"/>
  <line x1="639.2" y1="422.6" x2="517.8" y2="570.5" stroke="#fbbf24" stroke-width="0.3" stroke-opacity="0.06"/>
  <line x1="639.2" y1="422.6" x2="160.8" y2="277.4" stroke="#fbbf24" stroke-width="0.3" stroke-opacity="0.06"/>
  <line x1="631.0" y1="445.7" x2="620.5" y2="467.8" stroke="#34d399" stroke-width="0.3" stroke-opacity="0.06"/>
  <line x1="631.0" y1="445.7" x2="607.9" y2="488.9" stroke="#34d399" stroke-width="0.3" stroke-opacity="0.06"/>
  <line x1="631.0" y1="445.7" x2="495.7" y2="581.0" stroke="#34d399" stroke-width="0.3" stroke-opacity="0.06"/>
  <line x1="631.0" y1="445.7" x2="169.0" y2="254.3" stroke="#34d399" stroke-width="0.3" stroke-opacity="0.06"/>
  <line x1="620.5" y1="467.8" x2="593.3" y2="508.6" stroke="#e879f9" stroke-width="0.3" stroke-opacity="0.06"/>
  <line x1="620.5" y1="467.8" x2="472.6" y2="589.2" stroke="#e879f9" stroke-width="0.3" stroke-opacity="0.06"/>
  <line x1="620.5" y1="467.8" x2="179.5" y2="232.2" stroke="#e879f9" stroke-width="0.3" stroke-opacity="0.06"/>
  <line x1="607.9" y1="488.9" x2="593.3" y2="508.6" stroke="#00ffff" stroke-width="0.3" stroke-opacity="0.06"/>
  <line x1="607.9" y1="488.9" x2="448.8" y2="595.2" stroke="#00ffff" stroke-width="0.3" stroke-opacity="0.06"/>
  <line x1="607.9" y1="488.9" x2="192.1" y2="211.1" stroke="#00ffff" stroke-width="0.3" stroke-opacity="0.06"/>
  <line x1="593.3" y1="508.6" x2="424.5" y2="598.8" stroke="#34d399" stroke-width="0.3" stroke-opacity="0.06"/>
  <line x1="593.3" y1="508.6" x2="206.7" y2="191.4" stroke="#34d399" stroke-width="0.3" stroke-opacity="0.06"/>
  <line x1="576.8" y1="526.8" x2="558.6" y2="543.3" stroke="#60a5fa" stroke-width="0.3" stroke-opacity="0.06"/>
  <line x1="576.8" y1="526.8" x2="538.9" y2="557.9" stroke="#60a5fa" stroke-width="0.3" stroke-opacity="0.06"/>
  <line x1="576.8" y1="526.8" x2="495.7" y2="581.0" stroke="#60a5fa" stroke-width="0.3" stroke-opacity="0.06"/>
  <line x1="576.8" y1="526.8" x2="223.2" y2="173.2" stroke="#60a5fa" stroke-width="0.3" stroke-opacity="0.06"/>
  <line x1="558.6" y1="543.3" x2="517.8" y2="570.5" stroke="#fb7185" stroke-width="0.3" stroke-opacity="0.06"/>
  <line x1="558.6" y1="543.3" x2="472.6" y2="589.2" stroke="#fb7185" stroke-width="0.3" stroke-opacity="0.06"/>
  <line x1="558.6" y1="543.3" x2="241.4" y2="156.7" stroke="#fb7185" stroke-width="0.3" stroke-opacity="0.06"/>
  <line x1="538.9" y1="557.9" x2="517.8" y2="570.5" stroke="#c084fc" stroke-width="0.3" stroke-opacity="0.06"/>
  <line x1="538.9" y1="557.9" x2="448.8" y2="595.2" stroke="#c084fc" stroke-width="0.3" stroke-opacity="0.06"/>
  <line x1="538.9" y1="557.9" x2="261.1" y2="142.1" stroke="#c084fc" stroke-width="0.3" stroke-opacity="0.06"/>
  <line x1="517.8" y1="570.5" x2="424.5" y2="598.8" stroke="#a855f7" stroke-width="0.3" stroke-opacity="0.06"/>
  <line x1="517.8" y1="570.5" x2="282.2" y2="129.5" stroke="#a855f7" stroke-width="0.3" stroke-opacity="0.06"/>
  <line x1="495.7" y1="581.0" x2="472.6" y2="589.2" stroke="#fbbf24" stroke-width="0.3" stroke-opacity="0.06"/>
  <line x1="495.7" y1="581.0" x2="448.8" y2="595.2" stroke="#fbbf24" stroke-width="0.3" stroke-opacity="0.06"/>
  <line x1="495.7" y1="581.0" x2="304.3" y2="119.0" stroke="#fbbf24" stroke-width="0.3" stroke-opacity="0.06"/>
  <line x1="472.6" y1="589.2" x2="424.5" y2="598.8" stroke="#34d399" stroke-width="0.3" stroke-opacity="0.06"/>
  <line x1="472.6" y1="589.2" x2="327.4" y2="110.8" stroke="#34d399" stroke-width="0.3" stroke-opacity="0.06"/>
  <line x1="448.8" y1="595.2" x2="424.5" y2="598.8" stroke="#e879f9" stroke-width="0.3" stroke-opacity="0.06"/>
  <line x1="448.8" y1="595.2" x2="351.2" y2="104.8" stroke="#e879f9" stroke-width="0.3" stroke-opacity="0.06"/>
  <line x1="424.5" y1="598.8" x2="375.5" y2="101.2" stroke="#00ffff" stroke-width="0.3" stroke-opacity="0.06"/>
  <line x1="400.0" y1="600.0" x2="375.5" y2="598.8" stroke="#34d399" stroke-width="0.3" stroke-opacity="0.06"/>
  <line x1="400.0" y1="600.0" x2="351.2" y2="595.2" stroke="#34d399" stroke-width="0.3" stroke-opacity="0.06"/>
  <line x1="400.0" y1="600.0" x2="304.3" y2="581.0" stroke="#34d399" stroke-width="0.3" stroke-opacity="0.06"/>
  <line x1="400.0" y1="600.0" x2="223.2" y2="526.8" stroke="#34d399" stroke-width="0.3" stroke-opacity="0.06"/>
  <line x1="400.0" y1="600.0" x2="150.0" y2="350.0" stroke="#34d399" stroke-width="0.3" stroke-opacity="0.06"/>
  <line x1="375.5" y1="598.8" x2="327.4" y2="589.2" stroke="#60a5fa" stroke-width="0.3" stroke-opacity="0.06"/>
  <line x1="375.5" y1="598.8" x2="282.2" y2="570.5" stroke="#60a5fa" stroke-width="0.3" stroke-opacity="0.06"/>
  <line x1="375.5" y1="598.8" x2="206.7" y2="508.6" stroke="#60a5fa" stroke-width="0.3" stroke-opacity="0.06"/>
  <line x1="375.5" y1="598.8" x2="151.2" y2="325.5" stroke="#60a5fa" stroke-width="0.3" stroke-opacity="0.06"/>
  <line x1="351.2" y1="595.2" x2="327.4" y2="589.2" stroke="#fb7185" stroke-width="0.3" stroke-opacity="0.06"/>
  <line x1="351.2" y1="595.2" x2="261.1" y2="557.9" stroke="#fb7185" stroke-width="0.3" stroke-opacity="0.06"/>
  <line x1="351.2" y1="595.2" x2="192.1" y2="488.9" stroke="#fb7185" stroke-width="0.3" stroke-opacity="0.06"/>
  <line x1="351.2" y1="595.2" x2="154.8" y2="301.2" stroke="#fb7185" stroke-width="0.3" stroke-opacity="0.06"/>
  <line x1="327.4" y1="589.2" x2="241.4" y2="543.3" stroke="#c084fc" stroke-width="0.3" stroke-opacity="0.06"/>
  <line x1="327.4" y1="589.2" x2="179.5" y2="467.8" stroke="#c084fc" stroke-width="0.3" stroke-opacity="0.06"/>
  <line x1="327.4" y1="589.2" x2="160.8" y2="277.4" stroke="#c084fc" stroke-width="0.3" stroke-opacity="0.06"/>
  <line x1="304.3" y1="581.0" x2="282.2" y2="570.5" stroke="#a855f7" stroke-width="0.3" stroke-opacity="0.06"/>
  <line x1="304.3" y1="581.0" x2="261.1" y2="557.9" stroke="#a855f7" stroke-width="0.3" stroke-opacity="0.06"/>
  <line x1="304.3" y1="581.0" x2="169.0" y2="445.7" stroke="#a855f7" stroke-width="0.3" stroke-opacity="0.06"/>
  <line x1="304.3" y1="581.0" x2="169.0" y2="254.3" stroke="#a855f7" stroke-width="0.3" stroke-opacity="0.06"/>
  <line x1="282.2" y1="570.5" x2="241.4" y2="543.3" stroke="#fbbf24" stroke-width="0.3" stroke-opacity="0.06"/>
  <line x1="282.2" y1="570.5" x2="160.8" y2="422.6" stroke="#fbbf24" stroke-width="0.3" stroke-opacity="0.06"/>
  <line x1="282.2" y1="570.5" x2="179.5" y2="232.2" stroke="#fbbf24" stroke-width="0.3" stroke-opacity="0.06"/>
  <line x1="261.1" y1="557.9" x2="241.4" y2="543.3" stroke="#34d399" stroke-width="0.3" stroke-opacity="0.06"/>
  <line x1="261.1" y1="557.9" x2="154.8" y2="398.8" stroke="#34d399" stroke-width="0.3" stroke-opacity="0.06"/>
  <line x1="261.1" y1="557.9" x2="192.1" y2="211.1" stroke="#34d399" stroke-width="0.3" stroke-opacity="0.06"/>
  <line x1="241.4" y1="543.3" x2="151.2" y2="374.5" stroke="#e879f9" stroke-width="0.3" stroke-opacity="0.06"/>
  <line x1="241.4" y1="543.3" x2="206.7" y2="191.4" stroke="#e879f9" stroke-width="0.3" stroke-opacity="0.06"/>
  <line x1="223.2" y1="526.8" x2="206.7" y2="508.6" stroke="#00ffff" stroke-width="0.3" stroke-opacity="0.06"/>
  <line x1="223.2" y1="526.8" x2="192.1" y2="488.9" stroke="#00ffff" stroke-width="0.3" stroke-opacity="0.06"/>
  <line x1="223.2" y1="526.8" x2="169.0" y2="445.7" stroke="#00ffff" stroke-width="0.3" stroke-opacity="0.06"/>
  <line x1="223.2" y1="526.8" x2="223.2" y2="173.2" stroke="#00ffff" stroke-width="0.3" stroke-opacity="0.06"/>
  <line x1="206.7" y1="508.6" x2="179.5" y2="467.8" stroke="#34d399" stroke-width="0.3" stroke-opacity="0.06"/>
  <line x1="206.7" y1="508.6" x2="160.8" y2="422.6" stroke="#34d399" stroke-width="0.3" stroke-opacity="0.06"/>
  <line x1="206.7" y1="508.6" x2="241.4" y2="156.7" stroke="#34d399" stroke-width="0.3" stroke-opacity="0.06"/>
  <line x1="192.1" y1="488.9" x2="179.5" y2="467.8" stroke="#60a5fa" stroke-width="0.3" stroke-opacity="0.06"/>
  <line x1="192.1" y1="488.9" x2="154.8" y2="398.8" stroke="#60a5fa" stroke-width="0.3" stroke-opacity="0.06"/>
  <line x1="192.1" y1="488.9" x2="261.1" y2="142.1" stroke="#60a5fa" stroke-width="0.3" stroke-opacity="0.06"/>
  <line x1="179.5" y1="467.8" x2="151.2" y2="374.5" stroke="#fb7185" stroke-width="0.3" stroke-opacity="0.06"/>
  <line x1="179.5" y1="467.8" x2="282.2" y2="129.5" stroke="#fb7185" stroke-width="0.3" stroke-opacity="0.06"/>
  <line x1="169.0" y1="445.7" x2="160.8" y2="422.6" stroke="#c084fc" stroke-width="0.3" stroke-opacity="0.06"/>
  <line x1="169.0" y1="445.7" x2="154.8" y2="398.8" stroke="#c084fc" stroke-width="0.3" stroke-opacity="0.06"/>
  <line x1="169.0" y1="445.7" x2="304.3" y2="119.0" stroke="#c084fc" stroke-width="0.3" stroke-opacity="0.06"/>
  <line x1="160.8" y1="422.6" x2="151.2" y2="374.5" stroke="#a855f7" stroke-width="0.3" stroke-opacity="0.06"/>
  <line x1="160.8" y1="422.6" x2="327.4" y2="110.8" stroke="#a855f7" stroke-width="0.3" stroke-opacity="0.06"/>
  <line x1="154.8" y1="398.8" x2="151.2" y2="374.5" stroke="#fbbf24" stroke-width="0.3" stroke-opacity="0.06"/>
  <line x1="154.8" y1="398.8" x2="351.2" y2="104.8" stroke="#fbbf24" stroke-width="0.3" stroke-opacity="0.06"/>
  <line x1="151.2" y1="374.5" x2="375.5" y2="101.2" stroke="#34d399" stroke-width="0.3" stroke-opacity="0.06"/>
  <line x1="150.0" y1="350.0" x2="151.2" y2="325.5" stroke="#e879f9" stroke-width="0.3" stroke-opacity="0.06"/>
  <line x1="150.0" y1="350.0" x2="154.8" y2="301.2" stroke="#e879f9" stroke-width="0.3" stroke-opacity="0.06"/>
  <line x1="150.0" y1="350.0" x2="169.0" y2="254.3" stroke="#e879f9" stroke-width="0.3" stroke-opacity="0.06"/>
  <line x1="150.0" y1="350.0" x2="223.2" y2="173.2" stroke="#e879f9" stroke-width="0.3" stroke-opacity="0.06"/>
  <line x1="151.2" y1="325.5" x2="160.8" y2="277.4" stroke="#00ffff" stroke-width="0.3" stroke-opacity="0.06"/>
  <line x1="151.2" y1="325.5" x2="179.5" y2="232.2" stroke="#00ffff" stroke-width="0.3" stroke-opacity="0.06"/>
  <line x1="151.2" y1="325.5" x2="241.4" y2="156.7" stroke="#00ffff" stroke-width="0.3" stroke-opacity="0.06"/>
  <line x1="154.8" y1="301.2" x2="160.8" y2="277.4" stroke="#34d399" stroke-width="0.3" stroke-opacity="0.06"/>
  <line x1="154.8" y1="301.2" x2="192.1" y2="211.1" stroke="#34d399" stroke-width="0.3" stroke-opacity="0.06"/>
  <line x1="154.8" y1="301.2" x2="261.1" y2="142.1" stroke="#34d399" stroke-width="0.3" stroke-opacity="0.06"/>
  <line x1="160.8" y1="277.4" x2="206.7" y2="191.4" stroke="#60a5fa" stroke-width="0.3" stroke-opacity="0.06"/>
  <line x1="160.8" y1="277.4" x2="282.2" y2="129.5" stroke="#60a5fa" stroke-width="0.3" stroke-opacity="0.06"/>
  <line x1="169.0" y1="254.3" x2="179.5" y2="232.2" stroke="#fb7185" stroke-width="0.3" stroke-opacity="0.06"/>
  <line x1="169.0" y1="254.3" x2="192.1" y2="211.1" stroke="#fb7185" stroke-width="0.3" stroke-opacity="0.06"/>
  <line x1="169.0" y1="254.3" x2="304.3" y2="119.0" stroke="#fb7185" stroke-width="0.3" stroke-opacity="0.06"/>
  <line x1="179.5" y1="232.2" x2="206.7" y2="191.4" stroke="#c084fc" stroke-width="0.3" stroke-opacity="0.06"/>
  <line x1="179.5" y1="232.2" x2="327.4" y2="110.8" stroke="#c084fc" stroke-width="0.3" stroke-opacity="0.06"/>
  <line x1="192.1" y1="211.1" x2="206.7" y2="191.4" stroke="#a855f7" stroke-width="0.3" stroke-opacity="0.06"/>
  <line x1="192.1" y1="211.1" x2="351.2" y2="104.8" stroke="#a855f7" stroke-width="0.3" stroke-opacity="0.06"/>
  <line x1="206.7" y1="191.4" x2="375.5" y2="101.2" stroke="#fbbf24" stroke-width="0.3" stroke-opacity="0.06"/>
  <line x1="223.2" y1="173.2" x2="241.4" y2="156.7" stroke="#34d399" stroke-width="0.3" stroke-opacity="0.06"/>
  <line x1="223.2" y1="173.2" x2="261.1" y2="142.1" stroke="#34d399" stroke-width="0.3" stroke-opacity="0.06"/>
  <line x1="223.2" y1="173.2" x2="304.3" y2="119.0" stroke="#34d399" stroke-width="0.3" stroke-opacity="0.06"/>
  <line x1="241.4" y1="156.7" x2="282.2" y2="129.5" stroke="#e879f9" stroke-width="0.3" stroke-opacity="0.06"/>
  <line x1="241.4" y1="156.7" x2="327.4" y2="110.8" stroke="#e879f9" stroke-width="0.3" stroke-opacity="0.06"/>
  <line x1="261.1" y1="142.1" x2="282.2" y2="129.5" stroke="#00ffff" stroke-width="0.3" stroke-opacity="0.06"/>
  <line x1="261.1" y1="142.1" x2="351.2" y2="104.8" stroke="#00ffff" stroke-width="0.3" stroke-opacity="0.06"/>
  <line x1="282.2" y1="129.5" x2="375.5" y2="101.2" stroke="#34d399" stroke-width="0.3" stroke-opacity="0.06"/>
  <line x1="304.3" y1="119.0" x2="327.4" y2="110.8" stroke="#60a5fa" stroke-width="0.3" stroke-opacity="0.06"/>
  <line x1="304.3" y1="119.0" x2="351.2" y2="104.8" stroke="#60a5fa" stroke-width="0.3" stroke-opacity="0.06"/>
  <line x1="327.4" y1="110.8" x2="375.5" y2="101.2" stroke="#fb7185" stroke-width="0.3" stroke-opacity="0.06"/>
  <line x1="351.2" y1="104.8" x2="375.5" y2="101.2" stroke="#c084fc" stroke-width="0.3" stroke-opacity="0.06"/>
  <circle cx="400.0" cy="100.0" r="10" fill="#0f172a" stroke="#94a3b8" stroke-width="1.2"/>
  <circle cx="400.0" cy="100.0" r="8" fill="rgba(15,23,42,0.8)"/>
  <text x="400.0" y="103.0" fill="#94a3b8" font-size="6" font-weight="700" text-anchor="middle">1</text>
  <circle cx="424.5" cy="101.2" r="10" fill="#0f172a" stroke="#fbbf24" stroke-width="1.2"/>
  <circle cx="424.5" cy="101.2" r="8" fill="rgba(15,23,42,0.8)"/>
  <text x="424.5" y="104.2" fill="#fbbf24" font-size="6" font-weight="700" text-anchor="middle">2</text>
  <circle cx="448.8" cy="104.8" r="10" fill="#0f172a" stroke="#34d399" stroke-width="1.2"/>
  <circle cx="448.8" cy="104.8" r="8" fill="rgba(15,23,42,0.8)"/>
  <text x="448.8" y="107.8" fill="#34d399" font-size="6" font-weight="700" text-anchor="middle">3</text>
  <circle cx="472.6" cy="110.8" r="10" fill="#0f172a" stroke="#e879f9" stroke-width="1.2"/>
  <circle cx="472.6" cy="110.8" r="8" fill="rgba(15,23,42,0.8)"/>
  <text x="472.6" y="113.8" fill="#e879f9" font-size="6" font-weight="700" text-anchor="middle">4</text>
  <circle cx="495.7" cy="119.0" r="10" fill="#0f172a" stroke="#00ffff" stroke-width="1.2"/>
  <circle cx="495.7" cy="119.0" r="8" fill="rgba(15,23,42,0.8)"/>
  <text x="495.7" y="122.0" fill="#00ffff" font-size="6" font-weight="700" text-anchor="middle">5</text>
  <circle cx="517.8" cy="129.5" r="10" fill="#0f172a" stroke="#34d399" stroke-width="1.2"/>
  <circle cx="517.8" cy="129.5" r="8" fill="rgba(15,23,42,0.8)"/>
  <text x="517.8" y="132.5" fill="#34d399" font-size="6" font-weight="700" text-anchor="middle">6</text>
  <circle cx="538.9" cy="142.1" r="10" fill="#0f172a" stroke="#60a5fa" stroke-width="1.2"/>
  <circle cx="538.9" cy="142.1" r="8" fill="rgba(15,23,42,0.8)"/>
  <text x="538.9" y="145.1" fill="#60a5fa" font-size="6" font-weight="700" text-anchor="middle">7</text>
  <circle cx="558.6" cy="156.7" r="10" fill="#0f172a" stroke="#fb7185" stroke-width="1.2"/>
  <circle cx="558.6" cy="156.7" r="8" fill="rgba(15,23,42,0.8)"/>
  <text x="558.6" y="159.7" fill="#fb7185" font-size="6" font-weight="700" text-anchor="middle">8</text>
  <circle cx="576.8" cy="173.2" r="10" fill="#0f172a" stroke="#c084fc" stroke-width="1.2"/>
  <circle cx="576.8" cy="173.2" r="8" fill="rgba(15,23,42,0.8)"/>
  <text x="576.8" y="176.2" fill="#c084fc" font-size="6" font-weight="700" text-anchor="middle">9</text>
  <circle cx="593.3" cy="191.4" r="10" fill="#0f172a" stroke="#a855f7" stroke-width="1.2"/>
  <circle cx="593.3" cy="191.4" r="8" fill="rgba(15,23,42,0.8)"/>
  <text x="593.3" y="194.4" fill="#a855f7" font-size="6" font-weight="700" text-anchor="middle">10</text>
  <circle cx="607.9" cy="211.1" r="10" fill="#0f172a" stroke="#fbbf24" stroke-width="1.2"/>
  <circle cx="607.9" cy="211.1" r="8" fill="rgba(15,23,42,0.8)"/>
  <text x="607.9" y="214.1" fill="#fbbf24" font-size="6" font-weight="700" text-anchor="middle">11</text>
  <circle cx="620.5" cy="232.2" r="10" fill="#0f172a" stroke="#34d399" stroke-width="1.2"/>
  <circle cx="620.5" cy="232.2" r="8" fill="rgba(15,23,42,0.8)"/>
  <text x="620.5" y="235.2" fill="#34d399" font-size="6" font-weight="700" text-anchor="middle">12</text>
  <circle cx="631.0" cy="254.3" r="10" fill="#0f172a" stroke="#e879f9" stroke-width="1.2"/>
  <circle cx="631.0" cy="254.3" r="8" fill="rgba(15,23,42,0.8)"/>
  <text x="631.0" y="257.3" fill="#e879f9" font-size="6" font-weight="700" text-anchor="middle">13</text>
  <circle cx="639.2" cy="277.4" r="10" fill="#0f172a" stroke="#00ffff" stroke-width="1.2"/>
  <circle cx="639.2" cy="277.4" r="8" fill="rgba(15,23,42,0.8)"/>
  <text x="639.2" y="280.4" fill="#00ffff" font-size="6" font-weight="700" text-anchor="middle">14</text>
  <circle cx="645.2" cy="301.2" r="10" fill="#0f172a" stroke="#34d399" stroke-width="1.2"/>
  <circle cx="645.2" cy="301.2" r="8" fill="rgba(15,23,42,0.8)"/>
  <text x="645.2" y="304.2" fill="#34d399" font-size="6" font-weight="700" text-anchor="middle">15</text>
  <circle cx="648.8" cy="325.5" r="10" fill="#0f172a" stroke="#60a5fa" stroke-width="1.2"/>
  <circle cx="648.8" cy="325.5" r="8" fill="rgba(15,23,42,0.8)"/>
  <text x="648.8" y="328.5" fill="#60a5fa" font-size="6" font-weight="700" text-anchor="middle">16</text>
  <circle cx="650.0" cy="350.0" r="10" fill="#0f172a" stroke="#fb7185" stroke-width="1.2"/>
  <circle cx="650.0" cy="350.0" r="8" fill="rgba(15,23,42,0.8)"/>
  <text x="650.0" y="353.0" fill="#fb7185" font-size="6" font-weight="700" text-anchor="middle">17</text>
  <circle cx="648.8" cy="374.5" r="10" fill="#0f172a" stroke="#c084fc" stroke-width="1.2"/>
  <circle cx="648.8" cy="374.5" r="8" fill="rgba(15,23,42,0.8)"/>
  <text x="648.8" y="377.5" fill="#c084fc" font-size="6" font-weight="700" text-anchor="middle">18</text>
  <circle cx="645.2" cy="398.8" r="10" fill="#0f172a" stroke="#a855f7" stroke-width="1.2"/>
  <circle cx="645.2" cy="398.8" r="8" fill="rgba(15,23,42,0.8)"/>
  <text x="645.2" y="401.8" fill="#a855f7" font-size="6" font-weight="700" text-anchor="middle">19</text>
  <circle cx="639.2" cy="422.6" r="10" fill="#0f172a" stroke="#fbbf24" stroke-width="1.2"/>
  <circle cx="639.2" cy="422.6" r="8" fill="rgba(15,23,42,0.8)"/>
  <text x="639.2" y="425.6" fill="#fbbf24" font-size="6" font-weight="700" text-anchor="middle">20</text>
  <circle cx="631.0" cy="445.7" r="10" fill="#0f172a" stroke="#34d399" stroke-width="1.2"/>
  <circle cx="631.0" cy="445.7" r="8" fill="rgba(15,23,42,0.8)"/>
  <text x="631.0" y="448.7" fill="#34d399" font-size="6" font-weight="700" text-anchor="middle">21</text>
  <circle cx="620.5" cy="467.8" r="10" fill="#0f172a" stroke="#e879f9" stroke-width="1.2"/>
  <circle cx="620.5" cy="467.8" r="8" fill="rgba(15,23,42,0.8)"/>
  <text x="620.5" y="470.8" fill="#e879f9" font-size="6" font-weight="700" text-anchor="middle">22</text>
  <circle cx="607.9" cy="488.9" r="10" fill="#0f172a" stroke="#00ffff" stroke-width="1.2"/>
  <circle cx="607.9" cy="488.9" r="8" fill="rgba(15,23,42,0.8)"/>
  <text x="607.9" y="491.9" fill="#00ffff" font-size="6" font-weight="700" text-anchor="middle">23</text>
  <circle cx="593.3" cy="508.6" r="10" fill="#0f172a" stroke="#34d399" stroke-width="1.2"/>
  <circle cx="593.3" cy="508.6" r="8" fill="rgba(15,23,42,0.8)"/>
  <text x="593.3" y="511.6" fill="#34d399" font-size="6" font-weight="700" text-anchor="middle">24</text>
  <circle cx="576.8" cy="526.8" r="10" fill="#0f172a" stroke="#60a5fa" stroke-width="1.2"/>
  <circle cx="576.8" cy="526.8" r="8" fill="rgba(15,23,42,0.8)"/>
  <text x="576.8" y="529.8" fill="#60a5fa" font-size="6" font-weight="700" text-anchor="middle">25</text>
  <circle cx="558.6" cy="543.3" r="10" fill="#0f172a" stroke="#fb7185" stroke-width="1.2"/>
  <circle cx="558.6" cy="543.3" r="8" fill="rgba(15,23,42,0.8)"/>
  <text x="558.6" y="546.3" fill="#fb7185" font-size="6" font-weight="700" text-anchor="middle">26</text>
  <circle cx="538.9" cy="557.9" r="10" fill="#0f172a" stroke="#c084fc" stroke-width="1.2"/>
  <circle cx="538.9" cy="557.9" r="8" fill="rgba(15,23,42,0.8)"/>
  <text x="538.9" y="560.9" fill="#c084fc" font-size="6" font-weight="700" text-anchor="middle">27</text>
  <circle cx="517.8" cy="570.5" r="10" fill="#0f172a" stroke="#a855f7" stroke-width="1.2"/>
  <circle cx="517.8" cy="570.5" r="8" fill="rgba(15,23,42,0.8)"/>
  <text x="517.8" y="573.5" fill="#a855f7" font-size="6" font-weight="700" text-anchor="middle">28</text>
  <circle cx="495.7" cy="581.0" r="10" fill="#0f172a" stroke="#fbbf24" stroke-width="1.2"/>
  <circle cx="495.7" cy="581.0" r="8" fill="rgba(15,23,42,0.8)"/>
  <text x="495.7" y="584.0" fill="#fbbf24" font-size="6" font-weight="700" text-anchor="middle">29</text>
  <circle cx="472.6" cy="589.2" r="10" fill="#0f172a" stroke="#34d399" stroke-width="1.2"/>
  <circle cx="472.6" cy="589.2" r="8" fill="rgba(15,23,42,0.8)"/>
  <text x="472.6" y="592.2" fill="#34d399" font-size="6" font-weight="700" text-anchor="middle">30</text>
  <circle cx="448.8" cy="595.2" r="10" fill="#0f172a" stroke="#e879f9" stroke-width="1.2"/>
  <circle cx="448.8" cy="595.2" r="8" fill="rgba(15,23,42,0.8)"/>
  <text x="448.8" y="598.2" fill="#e879f9" font-size="6" font-weight="700" text-anchor="middle">31</text>
  <circle cx="424.5" cy="598.8" r="10" fill="#0f172a" stroke="#00ffff" stroke-width="1.2"/>
  <circle cx="424.5" cy="598.8" r="8" fill="rgba(15,23,42,0.8)"/>
  <text x="424.5" y="601.8" fill="#00ffff" font-size="6" font-weight="700" text-anchor="middle">32</text>
  <circle cx="400.0" cy="600.0" r="10" fill="#0f172a" stroke="#34d399" stroke-width="1.2"/>
  <circle cx="400.0" cy="600.0" r="8" fill="rgba(15,23,42,0.8)"/>
  <text x="400.0" y="603.0" fill="#34d399" font-size="6" font-weight="700" text-anchor="middle">33</text>
  <circle cx="375.5" cy="598.8" r="10" fill="#0f172a" stroke="#60a5fa" stroke-width="1.2"/>
  <circle cx="375.5" cy="598.8" r="8" fill="rgba(15,23,42,0.8)"/>
  <text x="375.5" y="601.8" fill="#60a5fa" font-size="6" font-weight="700" text-anchor="middle">34</text>
  <circle cx="351.2" cy="595.2" r="10" fill="#0f172a" stroke="#fb7185" stroke-width="1.2"/>
  <circle cx="351.2" cy="595.2" r="8" fill="rgba(15,23,42,0.8)"/>
  <text x="351.2" y="598.2" fill="#fb7185" font-size="6" font-weight="700" text-anchor="middle">35</text>
  <circle cx="327.4" cy="589.2" r="10" fill="#0f172a" stroke="#c084fc" stroke-width="1.2"/>
  <circle cx="327.4" cy="589.2" r="8" fill="rgba(15,23,42,0.8)"/>
  <text x="327.4" y="592.2" fill="#c084fc" font-size="6" font-weight="700" text-anchor="middle">36</text>
  <circle cx="304.3" cy="581.0" r="10" fill="#0f172a" stroke="#a855f7" stroke-width="1.2"/>
  <circle cx="304.3" cy="581.0" r="8" fill="rgba(15,23,42,0.8)"/>
  <text x="304.3" y="584.0" fill="#a855f7" font-size="6" font-weight="700" text-anchor="middle">37</text>
  <circle cx="282.2" cy="570.5" r="10" fill="#0f172a" stroke="#fbbf24" stroke-width="1.2"/>
  <circle cx="282.2" cy="570.5" r="8" fill="rgba(15,23,42,0.8)"/>
  <text x="282.2" y="573.5" fill="#fbbf24" font-size="6" font-weight="700" text-anchor="middle">38</text>
  <circle cx="261.1" cy="557.9" r="10" fill="#0f172a" stroke="#34d399" stroke-width="1.2"/>
  <circle cx="261.1" cy="557.9" r="8" fill="rgba(15,23,42,0.8)"/>
  <text x="261.1" y="560.9" fill="#34d399" font-size="6" font-weight="700" text-anchor="middle">39</text>
  <circle cx="241.4" cy="543.3" r="10" fill="#0f172a" stroke="#e879f9" stroke-width="1.2"/>
  <circle cx="241.4" cy="543.3" r="8" fill="rgba(15,23,42,0.8)"/>
  <text x="241.4" y="546.3" fill="#e879f9" font-size="6" font-weight="700" text-anchor="middle">40</text>
  <circle cx="223.2" cy="526.8" r="10" fill="#0f172a" stroke="#00ffff" stroke-width="1.2"/>
  <circle cx="223.2" cy="526.8" r="8" fill="rgba(15,23,42,0.8)"/>
  <text x="223.2" y="529.8" fill="#00ffff" font-size="6" font-weight="700" text-anchor="middle">41</text>
  <circle cx="206.7" cy="508.6" r="10" fill="#0f172a" stroke="#34d399" stroke-width="1.2"/>
  <circle cx="206.7" cy="508.6" r="8" fill="rgba(15,23,42,0.8)"/>
  <text x="206.7" y="511.6" fill="#34d399" font-size="6" font-weight="700" text-anchor="middle">42</text>
  <circle cx="192.1" cy="488.9" r="10" fill="#0f172a" stroke="#60a5fa" stroke-width="1.2"/>
  <circle cx="192.1" cy="488.9" r="8" fill="rgba(15,23,42,0.8)"/>
  <text x="192.1" y="491.9" fill="#60a5fa" font-size="6" font-weight="700" text-anchor="middle">43</text>
  <circle cx="179.5" cy="467.8" r="10" fill="#0f172a" stroke="#fb7185" stroke-width="1.2"/>
  <circle cx="179.5" cy="467.8" r="8" fill="rgba(15,23,42,0.8)"/>
  <text x="179.5" y="470.8" fill="#fb7185" font-size="6" font-weight="700" text-anchor="middle">44</text>
  <circle cx="169.0" cy="445.7" r="10" fill="#0f172a" stroke="#c084fc" stroke-width="1.2"/>
  <circle cx="169.0" cy="445.7" r="8" fill="rgba(15,23,42,0.8)"/>
  <text x="169.0" y="448.7" fill="#c084fc" font-size="6" font-weight="700" text-anchor="middle">45</text>
  <circle cx="160.8" cy="422.6" r="10" fill="#0f172a" stroke="#a855f7" stroke-width="1.2"/>
  <circle cx="160.8" cy="422.6" r="8" fill="rgba(15,23,42,0.8)"/>
  <text x="160.8" y="425.6" fill="#a855f7" font-size="6" font-weight="700" text-anchor="middle">46</text>
  <circle cx="154.8" cy="398.8" r="10" fill="#0f172a" stroke="#fbbf24" stroke-width="1.2"/>
  <circle cx="154.8" cy="398.8" r="8" fill="rgba(15,23,42,0.8)"/>
  <text x="154.8" y="401.8" fill="#fbbf24" font-size="6" font-weight="700" text-anchor="middle">47</text>
  <circle cx="151.2" cy="374.5" r="10" fill="#0f172a" stroke="#34d399" stroke-width="1.2"/>
  <circle cx="151.2" cy="374.5" r="8" fill="rgba(15,23,42,0.8)"/>
  <text x="151.2" y="377.5" fill="#34d399" font-size="6" font-weight="700" text-anchor="middle">48</text>
  <circle cx="150.0" cy="350.0" r="10" fill="#0f172a" stroke="#e879f9" stroke-width="1.2"/>
  <circle cx="150.0" cy="350.0" r="8" fill="rgba(15,23,42,0.8)"/>
  <text x="150.0" y="353.0" fill="#e879f9" font-size="6" font-weight="700" text-anchor="middle">49</text>
  <circle cx="151.2" cy="325.5" r="10" fill="#0f172a" stroke="#00ffff" stroke-width="1.2"/>
  <circle cx="151.2" cy="325.5" r="8" fill="rgba(15,23,42,0.8)"/>
  <text x="151.2" y="328.5" fill="#00ffff" font-size="6" font-weight="700" text-anchor="middle">50</text>
  <circle cx="154.8" cy="301.2" r="10" fill="#0f172a" stroke="#34d399" stroke-width="1.2"/>
  <circle cx="154.8" cy="301.2" r="8" fill="rgba(15,23,42,0.8)"/>
  <text x="154.8" y="304.2" fill="#34d399" font-size="6" font-weight="700" text-anchor="middle">51</text>
  <circle cx="160.8" cy="277.4" r="10" fill="#0f172a" stroke="#60a5fa" stroke-width="1.2"/>
  <circle cx="160.8" cy="277.4" r="8" fill="rgba(15,23,42,0.8)"/>
  <text x="160.8" y="280.4" fill="#60a5fa" font-size="6" font-weight="700" text-anchor="middle">52</text>
  <circle cx="169.0" cy="254.3" r="10" fill="#0f172a" stroke="#fb7185" stroke-width="1.2"/>
  <circle cx="169.0" cy="254.3" r="8" fill="rgba(15,23,42,0.8)"/>
  <text x="169.0" y="257.3" fill="#fb7185" font-size="6" font-weight="700" text-anchor="middle">53</text>
  <circle cx="179.5" cy="232.2" r="10" fill="#0f172a" stroke="#c084fc" stroke-width="1.2"/>
  <circle cx="179.5" cy="232.2" r="8" fill="rgba(15,23,42,0.8)"/>
  <text x="179.5" y="235.2" fill="#c084fc" font-size="6" font-weight="700" text-anchor="middle">54</text>
  <circle cx="192.1" cy="211.1" r="10" fill="#0f172a" stroke="#a855f7" stroke-width="1.2"/>
  <circle cx="192.1" cy="211.1" r="8" fill="rgba(15,23,42,0.8)"/>
  <text x="192.1" y="214.1" fill="#a855f7" font-size="6" font-weight="700" text-anchor="middle">55</text>
  <circle cx="206.7" cy="191.4" r="10" fill="#0f172a" stroke="#fbbf24" stroke-width="1.2"/>
  <circle cx="206.7" cy="191.4" r="8" fill="rgba(15,23,42,0.8)"/>
  <text x="206.7" y="194.4" fill="#fbbf24" font-size="6" font-weight="700" text-anchor="middle">56</text>
  <circle cx="223.2" cy="173.2" r="10" fill="#0f172a" stroke="#34d399" stroke-width="1.2"/>
  <circle cx="223.2" cy="173.2" r="8" fill="rgba(15,23,42,0.8)"/>
  <text x="223.2" y="176.2" fill="#34d399" font-size="6" font-weight="700" text-anchor="middle">57</text>
  <circle cx="241.4" cy="156.7" r="10" fill="#0f172a" stroke="#e879f9" stroke-width="1.2"/>
  <circle cx="241.4" cy="156.7" r="8" fill="rgba(15,23,42,0.8)"/>
  <text x="241.4" y="159.7" fill="#e879f9" font-size="6" font-weight="700" text-anchor="middle">58</text>
  <circle cx="261.1" cy="142.1" r="10" fill="#0f172a" stroke="#00ffff" stroke-width="1.2"/>
  <circle cx="261.1" cy="142.1" r="8" fill="rgba(15,23,42,0.8)"/>
  <text x="261.1" y="145.1" fill="#00ffff" font-size="6" font-weight="700" text-anchor="middle">59</text>
  <circle cx="282.2" cy="129.5" r="10" fill="#0f172a" stroke="#34d399" stroke-width="1.2"/>
  <circle cx="282.2" cy="129.5" r="8" fill="rgba(15,23,42,0.8)"/>
  <text x="282.2" y="132.5" fill="#34d399" font-size="6" font-weight="700" text-anchor="middle">60</text>
  <circle cx="304.3" cy="119.0" r="10" fill="#0f172a" stroke="#60a5fa" stroke-width="1.2"/>
  <circle cx="304.3" cy="119.0" r="8" fill="rgba(15,23,42,0.8)"/>
  <text x="304.3" y="122.0" fill="#60a5fa" font-size="6" font-weight="700" text-anchor="middle">61</text>
  <circle cx="327.4" cy="110.8" r="10" fill="#0f172a" stroke="#fb7185" stroke-width="1.2"/>
  <circle cx="327.4" cy="110.8" r="8" fill="rgba(15,23,42,0.8)"/>
  <text x="327.4" y="113.8" fill="#fb7185" font-size="6" font-weight="700" text-anchor="middle">62</text>
  <circle cx="351.2" cy="104.8" r="10" fill="#0f172a" stroke="#c084fc" stroke-width="1.2"/>
  <circle cx="351.2" cy="104.8" r="8" fill="rgba(15,23,42,0.8)"/>
  <text x="351.2" y="107.8" fill="#c084fc" font-size="6" font-weight="700" text-anchor="middle">63</text>
  <circle cx="375.5" cy="101.2" r="10" fill="#0f172a" stroke="#a855f7" stroke-width="1.2"/>
  <circle cx="375.5" cy="101.2" r="8" fill="rgba(15,23,42,0.8)"/>
  <text x="375.5" y="104.2" fill="#a855f7" font-size="6" font-weight="700" text-anchor="middle">64</text>
  <text x="400.0" y="70.0" fill="#94a3b8" font-size="9" font-weight="600" text-anchor="middle">Z0</text>
  <text x="507.2" y="608.7" fill="#fbbf24" font-size="9" font-weight="600" text-anchor="middle">Z1</text>
  <text x="481.3" y="617.9" fill="#34d399" font-size="9" font-weight="600" text-anchor="middle">Z2</text>
  <text x="454.6" y="624.6" fill="#e879f9" font-size="9" font-weight="600" text-anchor="middle">Z3</text>
  <text x="427.4" y="628.7" fill="#00ffff" font-size="9" font-weight="600" text-anchor="middle">Z4</text>
  <text x="400.0" y="630.0" fill="#34d399" font-size="9" font-weight="600" text-anchor="middle">Z5</text>
  <text x="372.6" y="628.7" fill="#60a5fa" font-size="9" font-weight="600" text-anchor="middle">Z6</text>
  <text x="345.4" y="624.6" fill="#fb7185" font-size="9" font-weight="600" text-anchor="middle">Z7</text>
  <text x="318.7" y="617.9" fill="#c084fc" font-size="9" font-weight="600" text-anchor="middle">Z8</text>
  <text x="292.8" y="608.7" fill="#a855f7" font-size="9" font-weight="600" text-anchor="middle">Z9</text>

  <rect x="30" y="640" width="740" height="65" rx="6" fill="rgba(15,23,42,0.95)" stroke="#1e293b" stroke-width="1"/>
  <text x="45" y="660" fill="#94a3b8" font-size="9" font-weight="600">OBSERVATIONS</text>
  <text x="45" y="678" fill="#64748b" font-size="8">192 edges, ALL cross zone boundaries. Flipping any bit changes the digital root (powers of 2 are never multiples of 9).</text>
  <text x="45" y="694" fill="#64748b" font-size="8">The Changing Lines Network is a 6D hypercube. Each hexagram is a vertex. Edges = single-line transformations. No internal zone transitions exist.</text>
</svg>