<svg xmlns="http://www.w3.org/2000/svg" viewBox="0 0 800 680">
  <style>
    @import url('https://fonts.googleapis.com/css2?family=JetBrains+Mono:wght@400;500;600;700&amp;display=swap');
    text { font-family: 'JetBrains Mono', monospace; }
  </style>
  <defs>
    <pattern id="grid" width="40" height="40" patternUnits="userSpaceOnUse">
      <path d="M 40 0 L 0 0 0 40" fill="none" stroke="#1e293b" stroke-width="0.5"/>
    </pattern>
  </defs>
  <rect width="100%" height="100%" fill="#0f172a"/>
  <rect width="100%" height="100%" fill="url(#grid)"/>
  <text x="30" y="30" fill="#94a3b8" font-size="10" font-weight="400">KING WEN SPIRAL · 64 HEXAGRAMS</text>
  <text x="30" y="50" fill="white" font-size="16" font-weight="700">THE 64 HEXAGRAMS IN SEQUENCE</text>
  <text x="30" y="67" fill="#64748b" font-size="9">King Wen ordering spiraling outward from center. Each hexagram colored by numogram zone.</text>
  <line x1="389.6" y1="360.0" x2="388.4" y2="370.6" stroke="#fbbf24" stroke-width="1.5" stroke-opacity="0.4"/>
  <line x1="388.4" y1="370.6" x2="376.2" y2="376.2" stroke="#34d399" stroke-width="1.5" stroke-opacity="0.4"/>
  <line x1="376.2" y1="376.2" x2="362.6" y2="368.2" stroke="#e879f9" stroke-width="1.5" stroke-opacity="0.4"/>
  <line x1="362.6" y1="368.2" x2="360.7" y2="350.5" stroke="#00ffff" stroke-width="1.5" stroke-opacity="0.4"/>
  <line x1="360.7" y1="350.5" x2="375.0" y2="337.0" stroke="#34d399" stroke-width="1.5" stroke-opacity="0.4"/>
  <line x1="375.0" y1="337.0" x2="396.1" y2="340.4" stroke="#60a5fa" stroke-width="1.5" stroke-opacity="0.4"/>
  <line x1="396.1" y1="340.4" x2="407.1" y2="360.5" stroke="#fb7185" stroke-width="1.5" stroke-opacity="0.4"/>
  <line x1="407.1" y1="360.5" x2="397.5" y2="382.9" stroke="#c084fc" stroke-width="1.5" stroke-opacity="0.4"/>
  <line x1="397.5" y1="382.9" x2="372.6" y2="389.4" stroke="#a855f7" stroke-width="1.5" stroke-opacity="0.4"/>
  <line x1="372.6" y1="389.4" x2="351.0" y2="373.1" stroke="#fbbf24" stroke-width="1.5" stroke-opacity="0.4"/>
  <line x1="351.0" y1="373.1" x2="350.4" y2="344.8" stroke="#34d399" stroke-width="1.5" stroke-opacity="0.4"/>
  <line x1="350.4" y1="344.8" x2="373.3" y2="326.0" stroke="#e879f9" stroke-width="1.5" stroke-opacity="0.4"/>
  <line x1="373.3" y1="326.0" x2="403.3" y2="332.6" stroke="#00ffff" stroke-width="1.5" stroke-opacity="0.4"/>
  <line x1="403.3" y1="332.6" x2="417.2" y2="361.3" stroke="#34d399" stroke-width="1.5" stroke-opacity="0.4"/>
  <line x1="417.2" y1="361.3" x2="402.8" y2="390.9" stroke="#60a5fa" stroke-width="1.5" stroke-opacity="0.4"/>
  <line x1="402.8" y1="390.9" x2="369.7" y2="398.2" stroke="#fb7185" stroke-width="1.5" stroke-opacity="0.4"/>
  <line x1="369.7" y1="398.2" x2="342.6" y2="376.2" stroke="#c084fc" stroke-width="1.5" stroke-opacity="0.4"/>
  <line x1="342.6" y1="376.2" x2="343.1" y2="340.2" stroke="#a855f7" stroke-width="1.5" stroke-opacity="0.4"/>
  <line x1="343.1" y1="340.2" x2="372.4" y2="317.8" stroke="#fbbf24" stroke-width="1.5" stroke-opacity="0.4"/>
  <line x1="372.4" y1="317.8" x2="409.0" y2="327.0" stroke="#34d399" stroke-width="1.5" stroke-opacity="0.4"/>
  <line x1="409.0" y1="327.0" x2="425.0" y2="362.3" stroke="#e879f9" stroke-width="1.5" stroke-opacity="0.4"/>
  <line x1="425.0" y1="362.3" x2="406.8" y2="397.5" stroke="#00ffff" stroke-width="1.5" stroke-opacity="0.4"/>
  <line x1="406.8" y1="397.5" x2="367.0" y2="405.2" stroke="#34d399" stroke-width="1.5" stroke-opacity="0.4"/>
  <line x1="367.0" y1="405.2" x2="335.6" y2="378.3" stroke="#60a5fa" stroke-width="1.5" stroke-opacity="0.4"/>
  <line x1="335.6" y1="378.3" x2="337.3" y2="336.2" stroke="#fb7185" stroke-width="1.5" stroke-opacity="0.4"/>
  <line x1="337.3" y1="336.2" x2="372.0" y2="310.8" stroke="#c084fc" stroke-width="1.5" stroke-opacity="0.4"/>
  <line x1="372.0" y1="310.8" x2="414.2" y2="322.4" stroke="#a855f7" stroke-width="1.5" stroke-opacity="0.4"/>
  <line x1="414.2" y1="322.4" x2="431.6" y2="363.5" stroke="#fbbf24" stroke-width="1.5" stroke-opacity="0.4"/>
  <line x1="431.6" y1="363.5" x2="409.8" y2="403.3" stroke="#34d399" stroke-width="1.5" stroke-opacity="0.4"/>
  <line x1="409.8" y1="403.3" x2="364.4" y2="411.1" stroke="#e879f9" stroke-width="1.5" stroke-opacity="0.4"/>
  <line x1="364.4" y1="411.1" x2="329.5" y2="379.9" stroke="#00ffff" stroke-width="1.5" stroke-opacity="0.4"/>
  <line x1="329.5" y1="379.9" x2="332.3" y2="332.3" stroke="#34d399" stroke-width="1.5" stroke-opacity="0.4"/>
  <line x1="332.3" y1="332.3" x2="371.9" y2="304.6" stroke="#60a5fa" stroke-width="1.5" stroke-opacity="0.4"/>
  <line x1="371.9" y1="304.6" x2="418.9" y2="318.6" stroke="#fb7185" stroke-width="1.5" stroke-opacity="0.4"/>
  <line x1="418.9" y1="318.6" x2="437.4" y2="364.8" stroke="#c084fc" stroke-width="1.5" stroke-opacity="0.4"/>
  <line x1="437.4" y1="364.8" x2="412.3" y2="408.6" stroke="#a855f7" stroke-width="1.5" stroke-opacity="0.4"/>
  <line x1="412.3" y1="408.6" x2="361.8" y2="416.3" stroke="#fbbf24" stroke-width="1.5" stroke-opacity="0.4"/>
  <line x1="361.8" y1="416.3" x2="323.8" y2="381.0" stroke="#34d399" stroke-width="1.5" stroke-opacity="0.4"/>
  <line x1="323.8" y1="381.0" x2="328.0" y2="328.7" stroke="#e879f9" stroke-width="1.5" stroke-opacity="0.4"/>
  <line x1="328.0" y1="328.7" x2="372.1" y2="299.0" stroke="#00ffff" stroke-width="1.5" stroke-opacity="0.4"/>
  <line x1="372.1" y1="299.0" x2="423.4" y2="315.4" stroke="#34d399" stroke-width="1.5" stroke-opacity="0.4"/>
  <line x1="423.4" y1="315.4" x2="442.6" y2="366.3" stroke="#60a5fa" stroke-width="1.5" stroke-opacity="0.4"/>
  <line x1="442.6" y1="366.3" x2="414.4" y2="413.6" stroke="#fb7185" stroke-width="1.5" stroke-opacity="0.4"/>
  <line x1="414.4" y1="413.6" x2="359.1" y2="420.9" stroke="#c084fc" stroke-width="1.5" stroke-opacity="0.4"/>
  <line x1="359.1" y1="420.9" x2="318.6" y2="381.8" stroke="#a855f7" stroke-width="1.5" stroke-opacity="0.4"/>
  <line x1="318.6" y1="381.8" x2="324.2" y2="325.1" stroke="#fbbf24" stroke-width="1.5" stroke-opacity="0.4"/>
  <line x1="324.2" y1="325.1" x2="372.6" y2="293.9" stroke="#34d399" stroke-width="1.5" stroke-opacity="0.4"/>
  <line x1="372.6" y1="293.9" x2="427.7" y2="312.6" stroke="#e879f9" stroke-width="1.5" stroke-opacity="0.4"/>
  <line x1="427.7" y1="312.6" x2="447.4" y2="368.0" stroke="#00ffff" stroke-width="1.5" stroke-opacity="0.4"/>
  <line x1="447.4" y1="368.0" x2="416.0" y2="418.3" stroke="#34d399" stroke-width="1.5" stroke-opacity="0.4"/>
  <line x1="416.0" y1="418.3" x2="356.5" y2="425.1" stroke="#60a5fa" stroke-width="1.5" stroke-opacity="0.4"/>
  <line x1="356.5" y1="425.1" x2="313.7" y2="382.2" stroke="#fb7185" stroke-width="1.5" stroke-opacity="0.4"/>
  <line x1="313.7" y1="382.2" x2="320.8" y2="321.6" stroke="#c084fc" stroke-width="1.5" stroke-opacity="0.4"/>
  <line x1="320.8" y1="321.6" x2="373.3" y2="289.1" stroke="#a855f7" stroke-width="1.5" stroke-opacity="0.4"/>
  <line x1="373.3" y1="289.1" x2="431.8" y2="310.2" stroke="#fbbf24" stroke-width="1.5" stroke-opacity="0.4"/>
  <line x1="431.8" y1="310.2" x2="451.8" y2="369.7" stroke="#34d399" stroke-width="1.5" stroke-opacity="0.4"/>
  <line x1="451.8" y1="369.7" x2="417.4" y2="422.8" stroke="#e879f9" stroke-width="1.5" stroke-opacity="0.4"/>
  <line x1="417.4" y1="422.8" x2="353.8" y2="428.9" stroke="#00ffff" stroke-width="1.5" stroke-opacity="0.4"/>
  <line x1="353.8" y1="428.9" x2="309.1" y2="382.5" stroke="#34d399" stroke-width="1.5" stroke-opacity="0.4"/>
  <line x1="309.1" y1="382.5" x2="317.8" y2="318.1" stroke="#60a5fa" stroke-width="1.5" stroke-opacity="0.4"/>
  <line x1="317.8" y1="318.1" x2="374.1" y2="284.6" stroke="#fb7185" stroke-width="1.5" stroke-opacity="0.4"/>
  <line x1="374.1" y1="284.6" x2="435.8" y2="308.1" stroke="#c084fc" stroke-width="1.5" stroke-opacity="0.4"/>
  <line x1="435.8" y1="308.1" x2="455.9" y2="371.6" stroke="#a855f7" stroke-width="1.5" stroke-opacity="0.4"/>
  <circle cx="389.6" cy="360.0" r="12" fill="#0f172a" stroke="#94a3b8" stroke-width="1.5"/>
  <circle cx="389.6" cy="360.0" r="10" fill="rgba(15,23,42,0.8)"/>
  <text x="389.6" y="364.0" fill="#94a3b8" font-size="8" font-weight="700" text-anchor="middle">1</text>
  <circle cx="388.4" cy="370.6" r="12" fill="#0f172a" stroke="#fbbf24" stroke-width="1.5"/>
  <circle cx="388.4" cy="370.6" r="10" fill="rgba(15,23,42,0.8)"/>
  <text x="388.4" y="374.6" fill="#fbbf24" font-size="8" font-weight="700" text-anchor="middle">2</text>
  <circle cx="376.2" cy="376.2" r="12" fill="#0f172a" stroke="#34d399" stroke-width="1.5"/>
  <circle cx="376.2" cy="376.2" r="10" fill="rgba(15,23,42,0.8)"/>
  <text x="376.2" y="380.2" fill="#34d399" font-size="8" font-weight="700" text-anchor="middle">3</text>
  <circle cx="362.6" cy="368.2" r="12" fill="#0f172a" stroke="#e879f9" stroke-width="1.5"/>
  <circle cx="362.6" cy="368.2" r="10" fill="rgba(15,23,42,0.8)"/>
  <text x="362.6" y="372.2" fill="#e879f9" font-size="8" font-weight="700" text-anchor="middle">4</text>
  <circle cx="360.7" cy="350.5" r="12" fill="#0f172a" stroke="#00ffff" stroke-width="1.5"/>
  <circle cx="360.7" cy="350.5" r="10" fill="rgba(15,23,42,0.8)"/>
  <text x="360.7" y="354.5" fill="#00ffff" font-size="8" font-weight="700" text-anchor="middle">5</text>
  <circle cx="375.0" cy="337.0" r="12" fill="#0f172a" stroke="#34d399" stroke-width="1.5"/>
  <circle cx="375.0" cy="337.0" r="10" fill="rgba(15,23,42,0.8)"/>
  <text x="375.0" y="341.0" fill="#34d399" font-size="8" font-weight="700" text-anchor="middle">6</text>
  <circle cx="396.1" cy="340.4" r="12" fill="#0f172a" stroke="#60a5fa" stroke-width="1.5"/>
  <circle cx="396.1" cy="340.4" r="10" fill="rgba(15,23,42,0.8)"/>
  <text x="396.1" y="344.4" fill="#60a5fa" font-size="8" font-weight="700" text-anchor="middle">7</text>
  <circle cx="407.1" cy="360.5" r="12" fill="#0f172a" stroke="#fb7185" stroke-width="1.5"/>
  <circle cx="407.1" cy="360.5" r="10" fill="rgba(15,23,42,0.8)"/>
  <text x="407.1" y="364.5" fill="#fb7185" font-size="8" font-weight="700" text-anchor="middle">8</text>
  <circle cx="397.5" cy="382.9" r="12" fill="#0f172a" stroke="#c084fc" stroke-width="1.5"/>
  <circle cx="397.5" cy="382.9" r="10" fill="rgba(15,23,42,0.8)"/>
  <text x="397.5" y="386.9" fill="#c084fc" font-size="8" font-weight="700" text-anchor="middle">9</text>
  <circle cx="372.6" cy="389.4" r="12" fill="#0f172a" stroke="#a855f7" stroke-width="1.5"/>
  <circle cx="372.6" cy="389.4" r="10" fill="rgba(15,23,42,0.8)"/>
  <text x="372.6" y="393.4" fill="#a855f7" font-size="8" font-weight="700" text-anchor="middle">10</text>
  <circle cx="351.0" cy="373.1" r="12" fill="#0f172a" stroke="#fbbf24" stroke-width="1.5"/>
  <circle cx="351.0" cy="373.1" r="10" fill="rgba(15,23,42,0.8)"/>
  <text x="351.0" y="377.1" fill="#fbbf24" font-size="8" font-weight="700" text-anchor="middle">11</text>
  <circle cx="350.4" cy="344.8" r="12" fill="#0f172a" stroke="#34d399" stroke-width="1.5"/>
  <circle cx="350.4" cy="344.8" r="10" fill="rgba(15,23,42,0.8)"/>
  <text x="350.4" y="348.8" fill="#34d399" font-size="8" font-weight="700" text-anchor="middle">12</text>
  <circle cx="373.3" cy="326.0" r="12" fill="#0f172a" stroke="#e879f9" stroke-width="1.5"/>
  <circle cx="373.3" cy="326.0" r="10" fill="rgba(15,23,42,0.8)"/>
  <text x="373.3" y="330.0" fill="#e879f9" font-size="8" font-weight="700" text-anchor="middle">13</text>
  <circle cx="403.3" cy="332.6" r="12" fill="#0f172a" stroke="#00ffff" stroke-width="1.5"/>
  <circle cx="403.3" cy="332.6" r="10" fill="rgba(15,23,42,0.8)"/>
  <text x="403.3" y="336.6" fill="#00ffff" font-size="8" font-weight="700" text-anchor="middle">14</text>
  <circle cx="417.2" cy="361.3" r="12" fill="#0f172a" stroke="#34d399" stroke-width="1.5"/>
  <circle cx="417.2" cy="361.3" r="10" fill="rgba(15,23,42,0.8)"/>
  <text x="417.2" y="365.3" fill="#34d399" font-size="8" font-weight="700" text-anchor="middle">15</text>
  <circle cx="402.8" cy="390.9" r="12" fill="#0f172a" stroke="#60a5fa" stroke-width="1.5"/>
  <circle cx="402.8" cy="390.9" r="10" fill="rgba(15,23,42,0.8)"/>
  <text x="402.8" y="394.9" fill="#60a5fa" font-size="8" font-weight="700" text-anchor="middle">16</text>
  <circle cx="369.7" cy="398.2" r="12" fill="#0f172a" stroke="#fb7185" stroke-width="1.5"/>
  <circle cx="369.7" cy="398.2" r="10" fill="rgba(15,23,42,0.8)"/>
  <text x="369.7" y="402.2" fill="#fb7185" font-size="8" font-weight="700" text-anchor="middle">17</text>
  <circle cx="342.6" cy="376.2" r="12" fill="#0f172a" stroke="#c084fc" stroke-width="1.5"/>
  <circle cx="342.6" cy="376.2" r="10" fill="rgba(15,23,42,0.8)"/>
  <text x="342.6" y="380.2" fill="#c084fc" font-size="8" font-weight="700" text-anchor="middle">18</text>
  <circle cx="343.1" cy="340.2" r="12" fill="#0f172a" stroke="#a855f7" stroke-width="1.5"/>
  <circle cx="343.1" cy="340.2" r="10" fill="rgba(15,23,42,0.8)"/>
  <text x="343.1" y="344.2" fill="#a855f7" font-size="8" font-weight="700" text-anchor="middle">19</text>
  <circle cx="372.4" cy="317.8" r="12" fill="#0f172a" stroke="#fbbf24" stroke-width="1.5"/>
  <circle cx="372.4" cy="317.8" r="10" fill="rgba(15,23,42,0.8)"/>
  <text x="372.4" y="321.8" fill="#fbbf24" font-size="8" font-weight="700" text-anchor="middle">20</text>
  <circle cx="409.0" cy="327.0" r="12" fill="#0f172a" stroke="#34d399" stroke-width="1.5"/>
  <circle cx="409.0" cy="327.0" r="10" fill="rgba(15,23,42,0.8)"/>
  <text x="409.0" y="331.0" fill="#34d399" font-size="8" font-weight="700" text-anchor="middle">21</text>
  <circle cx="425.0" cy="362.3" r="12" fill="#0f172a" stroke="#e879f9" stroke-width="1.5"/>
  <circle cx="425.0" cy="362.3" r="10" fill="rgba(15,23,42,0.8)"/>
  <text x="425.0" y="366.3" fill="#e879f9" font-size="8" font-weight="700" text-anchor="middle">22</text>
  <circle cx="406.8" cy="397.5" r="12" fill="#0f172a" stroke="#00ffff" stroke-width="1.5"/>
  <circle cx="406.8" cy="397.5" r="10" fill="rgba(15,23,42,0.8)"/>
  <text x="406.8" y="401.5" fill="#00ffff" font-size="8" font-weight="700" text-anchor="middle">23</text>
  <circle cx="367.0" cy="405.2" r="12" fill="#0f172a" stroke="#34d399" stroke-width="1.5"/>
  <circle cx="367.0" cy="405.2" r="10" fill="rgba(15,23,42,0.8)"/>
  <text x="367.0" y="409.2" fill="#34d399" font-size="8" font-weight="700" text-anchor="middle">24</text>
  <circle cx="335.6" cy="378.3" r="12" fill="#0f172a" stroke="#60a5fa" stroke-width="1.5"/>
  <circle cx="335.6" cy="378.3" r="10" fill="rgba(15,23,42,0.8)"/>
  <text x="335.6" y="382.3" fill="#60a5fa" font-size="8" font-weight="700" text-anchor="middle">25</text>
  <circle cx="337.3" cy="336.2" r="12" fill="#0f172a" stroke="#fb7185" stroke-width="1.5"/>
  <circle cx="337.3" cy="336.2" r="10" fill="rgba(15,23,42,0.8)"/>
  <text x="337.3" y="340.2" fill="#fb7185" font-size="8" font-weight="700" text-anchor="middle">26</text>
  <circle cx="372.0" cy="310.8" r="12" fill="#0f172a" stroke="#c084fc" stroke-width="1.5"/>
  <circle cx="372.0" cy="310.8" r="10" fill="rgba(15,23,42,0.8)"/>
  <text x="372.0" y="314.8" fill="#c084fc" font-size="8" font-weight="700" text-anchor="middle">27</text>
  <circle cx="414.2" cy="322.4" r="12" fill="#0f172a" stroke="#a855f7" stroke-width="1.5"/>
  <circle cx="414.2" cy="322.4" r="10" fill="rgba(15,23,42,0.8)"/>
  <text x="414.2" y="326.4" fill="#a855f7" font-size="8" font-weight="700" text-anchor="middle">28</text>
  <circle cx="431.6" cy="363.5" r="12" fill="#0f172a" stroke="#fbbf24" stroke-width="1.5"/>
  <circle cx="431.6" cy="363.5" r="10" fill="rgba(15,23,42,0.8)"/>
  <text x="431.6" y="367.5" fill="#fbbf24" font-size="8" font-weight="700" text-anchor="middle">29</text>
  <circle cx="409.8" cy="403.3" r="12" fill="#0f172a" stroke="#34d399" stroke-width="1.5"/>
  <circle cx="409.8" cy="403.3" r="10" fill="rgba(15,23,42,0.8)"/>
  <text x="409.8" y="407.3" fill="#34d399" font-size="8" font-weight="700" text-anchor="middle">30</text>
  <circle cx="364.4" cy="411.1" r="12" fill="#0f172a" stroke="#e879f9" stroke-width="1.5"/>
  <circle cx="364.4" cy="411.1" r="10" fill="rgba(15,23,42,0.8)"/>
  <text x="364.4" y="415.1" fill="#e879f9" font-size="8" font-weight="700" text-anchor="middle">31</text>
  <circle cx="329.5" cy="379.9" r="12" fill="#0f172a" stroke="#00ffff" stroke-width="1.5"/>
  <circle cx="329.5" cy="379.9" r="10" fill="rgba(15,23,42,0.8)"/>
  <text x="329.5" y="383.9" fill="#00ffff" font-size="8" font-weight="700" text-anchor="middle">32</text>
  <circle cx="332.3" cy="332.3" r="12" fill="#0f172a" stroke="#34d399" stroke-width="1.5"/>
  <circle cx="332.3" cy="332.3" r="10" fill="rgba(15,23,42,0.8)"/>
  <text x="332.3" y="336.3" fill="#34d399" font-size="8" font-weight="700" text-anchor="middle">33</text>
  <circle cx="371.9" cy="304.6" r="12" fill="#0f172a" stroke="#60a5fa" stroke-width="1.5"/>
  <circle cx="371.9" cy="304.6" r="10" fill="rgba(15,23,42,0.8)"/>
  <text x="371.9" y="308.6" fill="#60a5fa" font-size="8" font-weight="700" text-anchor="middle">34</text>
  <circle cx="418.9" cy="318.6" r="12" fill="#0f172a" stroke="#fb7185" stroke-width="1.5"/>
  <circle cx="418.9" cy="318.6" r="10" fill="rgba(15,23,42,0.8)"/>
  <text x="418.9" y="322.6" fill="#fb7185" font-size="8" font-weight="700" text-anchor="middle">35</text>
  <circle cx="437.4" cy="364.8" r="12" fill="#0f172a" stroke="#c084fc" stroke-width="1.5"/>
  <circle cx="437.4" cy="364.8" r="10" fill="rgba(15,23,42,0.8)"/>
  <text x="437.4" y="368.8" fill="#c084fc" font-size="8" font-weight="700" text-anchor="middle">36</text>
  <circle cx="412.3" cy="408.6" r="12" fill="#0f172a" stroke="#a855f7" stroke-width="1.5"/>
  <circle cx="412.3" cy="408.6" r="10" fill="rgba(15,23,42,0.8)"/>
  <text x="412.3" y="412.6" fill="#a855f7" font-size="8" font-weight="700" text-anchor="middle">37</text>
  <circle cx="361.8" cy="416.3" r="12" fill="#0f172a" stroke="#fbbf24" stroke-width="1.5"/>
  <circle cx="361.8" cy="416.3" r="10" fill="rgba(15,23,42,0.8)"/>
  <text x="361.8" y="420.3" fill="#fbbf24" font-size="8" font-weight="700" text-anchor="middle">38</text>
  <circle cx="323.8" cy="381.0" r="12" fill="#0f172a" stroke="#34d399" stroke-width="1.5"/>
  <circle cx="323.8" cy="381.0" r="10" fill="rgba(15,23,42,0.8)"/>
  <text x="323.8" y="385.0" fill="#34d399" font-size="8" font-weight="700" text-anchor="middle">39</text>
  <circle cx="328.0" cy="328.7" r="12" fill="#0f172a" stroke="#e879f9" stroke-width="1.5"/>
  <circle cx="328.0" cy="328.7" r="10" fill="rgba(15,23,42,0.8)"/>
  <text x="328.0" y="332.7" fill="#e879f9" font-size="8" font-weight="700" text-anchor="middle">40</text>
  <circle cx="372.1" cy="299.0" r="12" fill="#0f172a" stroke="#00ffff" stroke-width="1.5"/>
  <circle cx="372.1" cy="299.0" r="10" fill="rgba(15,23,42,0.8)"/>
  <text x="372.1" y="303.0" fill="#00ffff" font-size="8" font-weight="700" text-anchor="middle">41</text>
  <circle cx="423.4" cy="315.4" r="12" fill="#0f172a" stroke="#34d399" stroke-width="1.5"/>
  <circle cx="423.4" cy="315.4" r="10" fill="rgba(15,23,42,0.8)"/>
  <text x="423.4" y="319.4" fill="#34d399" font-size="8" font-weight="700" text-anchor="middle">42</text>
  <circle cx="442.6" cy="366.3" r="12" fill="#0f172a" stroke="#60a5fa" stroke-width="1.5"/>
  <circle cx="442.6" cy="366.3" r="10" fill="rgba(15,23,42,0.8)"/>
  <text x="442.6" y="370.3" fill="#60a5fa" font-size="8" font-weight="700" text-anchor="middle">43</text>
  <circle cx="414.4" cy="413.6" r="12" fill="#0f172a" stroke="#fb7185" stroke-width="1.5"/>
  <circle cx="414.4" cy="413.6" r="10" fill="rgba(15,23,42,0.8)"/>
  <text x="414.4" y="417.6" fill="#fb7185" font-size="8" font-weight="700" text-anchor="middle">44</text>
  <circle cx="359.1" cy="420.9" r="12" fill="#0f172a" stroke="#c084fc" stroke-width="1.5"/>
  <circle cx="359.1" cy="420.9" r="10" fill="rgba(15,23,42,0.8)"/>
  <text x="359.1" y="424.9" fill="#c084fc" font-size="8" font-weight="700" text-anchor="middle">45</text>
  <circle cx="318.6" cy="381.8" r="12" fill="#0f172a" stroke="#a855f7" stroke-width="1.5"/>
  <circle cx="318.6" cy="381.8" r="10" fill="rgba(15,23,42,0.8)"/>
  <text x="318.6" y="385.8" fill="#a855f7" font-size="8" font-weight="700" text-anchor="middle">46</text>
  <circle cx="324.2" cy="325.1" r="12" fill="#0f172a" stroke="#fbbf24" stroke-width="1.5"/>
  <circle cx="324.2" cy="325.1" r="10" fill="rgba(15,23,42,0.8)"/>
  <text x="324.2" y="329.1" fill="#fbbf24" font-size="8" font-weight="700" text-anchor="middle">47</text>
  <circle cx="372.6" cy="293.9" r="12" fill="#0f172a" stroke="#34d399" stroke-width="1.5"/>
  <circle cx="372.6" cy="293.9" r="10" fill="rgba(15,23,42,0.8)"/>
  <text x="372.6" y="297.9" fill="#34d399" font-size="8" font-weight="700" text-anchor="middle">48</text>
  <circle cx="427.7" cy="312.6" r="12" fill="#0f172a" stroke="#e879f9" stroke-width="1.5"/>
  <circle cx="427.7" cy="312.6" r="10" fill="rgba(15,23,42,0.8)"/>
  <text x="427.7" y="316.6" fill="#e879f9" font-size="8" font-weight="700" text-anchor="middle">49</text>
  <circle cx="447.4" cy="368.0" r="12" fill="#0f172a" stroke="#00ffff" stroke-width="1.5"/>
  <circle cx="447.4" cy="368.0" r="10" fill="rgba(15,23,42,0.8)"/>
  <text x="447.4" y="372.0" fill="#00ffff" font-size="8" font-weight="700" text-anchor="middle">50</text>
  <circle cx="416.0" cy="418.3" r="12" fill="#0f172a" stroke="#34d399" stroke-width="1.5"/>
  <circle cx="416.0" cy="418.3" r="10" fill="rgba(15,23,42,0.8)"/>
  <text x="416.0" y="422.3" fill="#34d399" font-size="8" font-weight="700" text-anchor="middle">51</text>
  <circle cx="356.5" cy="425.1" r="12" fill="#0f172a" stroke="#60a5fa" stroke-width="1.5"/>
  <circle cx="356.5" cy="425.1" r="10" fill="rgba(15,23,42,0.8)"/>
  <text x="356.5" y="429.1" fill="#60a5fa" font-size="8" font-weight="700" text-anchor="middle">52</text>
  <circle cx="313.7" cy="382.2" r="12" fill="#0f172a" stroke="#fb7185" stroke-width="1.5"/>
  <circle cx="313.7" cy="382.2" r="10" fill="rgba(15,23,42,0.8)"/>
  <text x="313.7" y="386.2" fill="#fb7185" font-size="8" font-weight="700" text-anchor="middle">53</text>
  <circle cx="320.8" cy="321.6" r="12" fill="#0f172a" stroke="#c084fc" stroke-width="1.5"/>
  <circle cx="320.8" cy="321.6" r="10" fill="rgba(15,23,42,0.8)"/>
  <text x="320.8" y="325.6" fill="#c084fc" font-size="8" font-weight="700" text-anchor="middle">54</text>
  <circle cx="373.3" cy="289.1" r="12" fill="#0f172a" stroke="#a855f7" stroke-width="1.5"/>
  <circle cx="373.3" cy="289.1" r="10" fill="rgba(15,23,42,0.8)"/>
  <text x="373.3" y="293.1" fill="#a855f7" font-size="8" font-weight="700" text-anchor="middle">55</text>
  <circle cx="431.8" cy="310.2" r="12" fill="#0f172a" stroke="#fbbf24" stroke-width="1.5"/>
  <circle cx="431.8" cy="310.2" r="10" fill="rgba(15,23,42,0.8)"/>
  <text x="431.8" y="314.2" fill="#fbbf24" font-size="8" font-weight="700" text-anchor="middle">56</text>
  <circle cx="451.8" cy="369.7" r="12" fill="#0f172a" stroke="#34d399" stroke-width="1.5"/>
  <circle cx="451.8" cy="369.7" r="10" fill="rgba(15,23,42,0.8)"/>
  <text x="451.8" y="373.7" fill="#34d399" font-size="8" font-weight="700" text-anchor="middle">57</text>
  <circle cx="417.4" cy="422.8" r="12" fill="#0f172a" stroke="#e879f9" stroke-width="1.5"/>
  <circle cx="417.4" cy="422.8" r="10" fill="rgba(15,23,42,0.8)"/>
  <text x="417.4" y="426.8" fill="#e879f9" font-size="8" font-weight="700" text-anchor="middle">58</text>
  <circle cx="353.8" cy="428.9" r="12" fill="#0f172a" stroke="#00ffff" stroke-width="1.5"/>
  <circle cx="353.8" cy="428.9" r="10" fill="rgba(15,23,42,0.8)"/>
  <text x="353.8" y="432.9" fill="#00ffff" font-size="8" font-weight="700" text-anchor="middle">59</text>
  <circle cx="309.1" cy="382.5" r="12" fill="#0f172a" stroke="#34d399" stroke-width="1.5"/>
  <circle cx="309.1" cy="382.5" r="10" fill="rgba(15,23,42,0.8)"/>
  <text x="309.1" y="386.5" fill="#34d399" font-size="8" font-weight="700" text-anchor="middle">60</text>
  <circle cx="317.8" cy="318.1" r="12" fill="#0f172a" stroke="#60a5fa" stroke-width="1.5"/>
  <circle cx="317.8" cy="318.1" r="10" fill="rgba(15,23,42,0.8)"/>
  <text x="317.8" y="322.1" fill="#60a5fa" font-size="8" font-weight="700" text-anchor="middle">61</text>
  <circle cx="374.1" cy="284.6" r="12" fill="#0f172a" stroke="#fb7185" stroke-width="1.5"/>
  <circle cx="374.1" cy="284.6" r="10" fill="rgba(15,23,42,0.8)"/>
  <text x="374.1" y="288.6" fill="#fb7185" font-size="8" font-weight="700" text-anchor="middle">62</text>
  <circle cx="435.8" cy="308.1" r="12" fill="#0f172a" stroke="#c084fc" stroke-width="1.5"/>
  <circle cx="435.8" cy="308.1" r="10" fill="rgba(15,23,42,0.8)"/>
  <text x="435.8" y="312.1" fill="#c084fc" font-size="8" font-weight="700" text-anchor="middle">63</text>
  <circle cx="455.9" cy="371.6" r="12" fill="#0f172a" stroke="#a855f7" stroke-width="1.5"/>
  <circle cx="455.9" cy="371.6" r="10" fill="rgba(15,23,42,0.8)"/>
  <text x="455.9" y="375.6" fill="#a855f7" font-size="8" font-weight="700" text-anchor="middle">64</text>
  <text x="411.6" y="360.0" fill="#94a3b8" font-size="7" font-weight="600">Z0</text>
  <text x="402.1" y="387.9" fill="#fbbf24" font-size="7" font-weight="600">Z1</text>
  <text x="371.2" y="397.6" fill="#34d399" font-size="7" font-weight="600">Z2</text>
  <text x="342.8" y="377.6" fill="#e879f9" font-size="7" font-weight="600">Z3</text>
  <text x="341.0" y="340.8" fill="#00ffff" font-size="7" font-weight="600">Z4</text>
  <text x="370.4" y="315.5" fill="#34d399" font-size="7" font-weight="600">Z5</text>
  <text x="410.1" y="323.4" fill="#60a5fa" font-size="7" font-weight="600">Z6</text>
  <text x="429.1" y="360.8" fill="#fb7185" font-size="7" font-weight="600">Z7</text>
  <text x="410.9" y="400.3" fill="#c084fc" font-size="7" font-weight="600">Z8</text>
  <text x="367.2" y="410.8" fill="#a855f7" font-size="7" font-weight="600">Z9</text>

  <rect x="620" y="80" width="160" height="210" rx="6" fill="rgba(15,23,42,0.95)" stroke="#1e293b" stroke-width="1"/>
  <text x="635" y="100" fill="#94a3b8" font-size="9" font-weight="600">ZONE COLORS</text>
  <rect x="635" y="115" width="10" height="10" rx="2" fill="#94a3b8"/>
  <text x="655" y="124" fill="#94a3b8" font-size="8">Zone 0</text>
  <rect x="635" y="133" width="10" height="10" rx="2" fill="#fbbf24"/>
  <text x="655" y="142" fill="#fbbf24" font-size="8">Zone 1</text>
  <rect x="635" y="151" width="10" height="10" rx="2" fill="#34d399"/>
  <text x="655" y="160" fill="#34d399" font-size="8">Zone 2</text>
  <rect x="635" y="169" width="10" height="10" rx="2" fill="#e879f9"/>
  <text x="655" y="178" fill="#e879f9" font-size="8">Zone 3</text>
  <rect x="635" y="187" width="10" height="10" rx="2" fill="#00ffff"/>
  <text x="655" y="196" fill="#00ffff" font-size="8">Zone 4</text>
  <rect x="635" y="205" width="10" height="10" rx="2" fill="#34d399"/>
  <text x="655" y="214" fill="#34d399" font-size="8">Zone 5</text>
  <rect x="635" y="223" width="10" height="10" rx="2" fill="#60a5fa"/>
  <text x="655" y="232" fill="#60a5fa" font-size="8">Zone 6</text>
  <rect x="635" y="241" width="10" height="10" rx="2" fill="#fb7185"/>
  <text x="655" y="250" fill="#fb7185" font-size="8">Zone 7</text>
  <rect x="635" y="259" width="10" height="10" rx="2" fill="#c084fc"/>
  <text x="655" y="268" fill="#c084fc" font-size="8">Zone 8</text>
  <rect x="635" y="277" width="10" height="10" rx="2" fill="#a855f7"/>
  <text x="655" y="286" fill="#a855f7" font-size="8">Zone 9</text>
  <text x="380" y="335" fill="#475569" font-size="10" font-weight="600" text-anchor="middle">↦</text>
  <text x="380" y="350" fill="#94a3b8" font-size="8" text-anchor="middle">Hex #1</text>
  <text x="380" y="365" fill="#64748b" font-size="7" text-anchor="middle">Qian</text>
  <text x="380" y="378" fill="#64748b" font-size="7" text-anchor="middle">Zone 0</text>
</svg>