<svg xmlns="http://www.w3.org/2000/svg" viewBox="0 0 860 640">
  <style>
    @import url('https://fonts.googleapis.com/css2?family=JetBrains+Mono:wght@400;500;600;700&amp;display=swap');
    text { font-family: 'JetBrains Mono', monospace; }
  </style>
  <defs>
    <pattern id="grid" width="40" height="40" patternUnits="userSpaceOnUse">
      <path d="M 40 0 L 0 0 0 40" fill="none" stroke="#1e293b" stroke-width="0.5"/>
    </pattern>
  </defs>

  <rect width="100%" height="100%" fill="#0f172a"/>
  <rect width="100%" height="100%" fill="url(#grid)"/>

  <text x="30" y="30" fill="#94a3b8" font-size="10" font-weight="400">PANDEMONIUM MATRIX · 45 DEMONS</text>
  <text x="30" y="50" fill="white" font-size="16" font-weight="700">THE 45 DEMONS OF THE NUMOGRAM</text>
  <text x="30" y="67" fill="#64748b" font-size="9">15 chronodemons (cyan) · 24 amphidemons (amber) · 6 xenodemons (magenta) · 5 syzygetic ★ carriers</text>
  <text x="164" y="94" fill="#94a3b8" font-size="10" font-weight="600" text-anchor="middle">0</text>
  <text x="215" y="94" fill="#fbbf24" font-size="10" font-weight="600" text-anchor="middle">1</text>
  <text x="266" y="94" fill="#34d399" font-size="10" font-weight="600" text-anchor="middle">2</text>
  <text x="317" y="94" fill="#e879f9" font-size="10" font-weight="600" text-anchor="middle">3</text>
  <text x="368" y="94" fill="#00ffff" font-size="10" font-weight="600" text-anchor="middle">4</text>
  <text x="419" y="94" fill="#34d399" font-size="10" font-weight="600" text-anchor="middle">5</text>
  <text x="470" y="94" fill="#60a5fa" font-size="10" font-weight="600" text-anchor="middle">6</text>
  <text x="521" y="94" fill="#fb7185" font-size="10" font-weight="600" text-anchor="middle">7</text>
  <text x="572" y="94" fill="#c084fc" font-size="10" font-weight="600" text-anchor="middle">8</text>
  <text x="623" y="94" fill="#a855f7" font-size="10" font-weight="600" text-anchor="middle">9</text>
  <text x="125" y="123" fill="#94a3b8" font-size="10" font-weight="600" text-anchor="end">0</text>
  <text x="125" y="174" fill="#fbbf24" font-size="10" font-weight="600" text-anchor="end">1</text>
  <text x="125" y="225" fill="#34d399" font-size="10" font-weight="600" text-anchor="end">2</text>
  <text x="125" y="276" fill="#e879f9" font-size="10" font-weight="600" text-anchor="end">3</text>
  <text x="125" y="327" fill="#00ffff" font-size="10" font-weight="600" text-anchor="end">4</text>
  <text x="125" y="378" fill="#34d399" font-size="10" font-weight="600" text-anchor="end">5</text>
  <text x="125" y="429" fill="#60a5fa" font-size="10" font-weight="600" text-anchor="end">6</text>
  <text x="125" y="480" fill="#fb7185" font-size="10" font-weight="600" text-anchor="end">7</text>
  <text x="125" y="531" fill="#c084fc" font-size="10" font-weight="600" text-anchor="end">8</text>
  <text x="125" y="582" fill="#a855f7" font-size="10" font-weight="600" text-anchor="end">9</text>
  <rect x="140" y="100" width="48" height="48" rx="3" fill="#1e293b" stroke="#334155" stroke-width="0.5"/>
  <text x="164" y="129" fill="#475569" font-size="9" text-anchor="middle">·</text>
  <rect x="140" y="151" width="48" height="48" rx="3" fill="rgba(120,53,15,0.2)" stroke="#fbbf24" stroke-width="0.8"/>
  <text x="164" y="180" fill="#fbbf24" font-size="8" text-anchor="middle">Amp</text>
  <rect x="191" y="151" width="48" height="48" rx="3" fill="#1e293b" stroke="#334155" stroke-width="0.5"/>
  <text x="215" y="180" fill="#475569" font-size="9" text-anchor="middle">·</text>
  <rect x="140" y="202" width="48" height="48" rx="3" fill="rgba(120,53,15,0.2)" stroke="#fbbf24" stroke-width="0.8"/>
  <text x="164" y="231" fill="#fbbf24" font-size="8" text-anchor="middle">Amp</text>
  <rect x="191" y="202" width="48" height="48" rx="3" fill="rgba(8,51,68,0.3)" stroke="#22d3ee" stroke-width="0.8"/>
  <text x="215" y="231" fill="#22d3ee" font-size="8" text-anchor="middle">Chr</text>
  <rect x="242" y="202" width="48" height="48" rx="3" fill="#1e293b" stroke="#334155" stroke-width="0.5"/>
  <text x="266" y="231" fill="#475569" font-size="9" text-anchor="middle">·</text>
  <rect x="140" y="253" width="48" height="48" rx="3" fill="rgba(76,29,149,0.3)" stroke="#e879f9" stroke-width="0.8"/>
  <text x="164" y="282" fill="#e879f9" font-size="8" text-anchor="middle">Xen</text>
  <rect x="191" y="253" width="48" height="48" rx="3" fill="rgba(120,53,15,0.2)" stroke="#fbbf24" stroke-width="0.8"/>
  <text x="215" y="282" fill="#fbbf24" font-size="8" text-anchor="middle">Amp</text>
  <rect x="242" y="253" width="48" height="48" rx="3" fill="rgba(120,53,15,0.2)" stroke="#fbbf24" stroke-width="0.8"/>
  <text x="266" y="282" fill="#fbbf24" font-size="8" text-anchor="middle">Amp</text>
  <rect x="293" y="253" width="48" height="48" rx="3" fill="#1e293b" stroke="#334155" stroke-width="0.5"/>
  <text x="317" y="282" fill="#475569" font-size="9" text-anchor="middle">·</text>
  <rect x="140" y="304" width="48" height="48" rx="3" fill="rgba(120,53,15,0.2)" stroke="#fbbf24" stroke-width="0.8"/>
  <text x="164" y="333" fill="#fbbf24" font-size="8" text-anchor="middle">Amp</text>
  <rect x="191" y="304" width="48" height="48" rx="3" fill="rgba(8,51,68,0.3)" stroke="#22d3ee" stroke-width="0.8"/>
  <text x="215" y="333" fill="#22d3ee" font-size="8" text-anchor="middle">Chr</text>
  <rect x="242" y="304" width="48" height="48" rx="3" fill="rgba(8,51,68,0.3)" stroke="#22d3ee" stroke-width="0.8"/>
  <text x="266" y="333" fill="#22d3ee" font-size="8" text-anchor="middle">Chr</text>
  <rect x="293" y="304" width="48" height="48" rx="3" fill="rgba(120,53,15,0.2)" stroke="#fbbf24" stroke-width="0.8"/>
  <text x="317" y="333" fill="#fbbf24" font-size="8" text-anchor="middle">Amp</text>
  <rect x="344" y="304" width="48" height="48" rx="3" fill="#1e293b" stroke="#334155" stroke-width="0.5"/>
  <text x="368" y="333" fill="#475569" font-size="9" text-anchor="middle">·</text>
  <rect x="140" y="355" width="48" height="48" rx="3" fill="rgba(120,53,15,0.2)" stroke="#fbbf24" stroke-width="0.8"/>
  <text x="164" y="384" fill="#fbbf24" font-size="8" text-anchor="middle">Amp</text>
  <rect x="191" y="355" width="48" height="48" rx="3" fill="rgba(8,51,68,0.3)" stroke="#22d3ee" stroke-width="0.8"/>
  <text x="215" y="384" fill="#22d3ee" font-size="8" text-anchor="middle">Chr</text>
  <rect x="242" y="355" width="48" height="48" rx="3" fill="rgba(8,51,68,0.3)" stroke="#22d3ee" stroke-width="0.8"/>
  <text x="266" y="384" fill="#22d3ee" font-size="8" text-anchor="middle">Chr</text>
  <rect x="293" y="355" width="48" height="48" rx="3" fill="rgba(120,53,15,0.2)" stroke="#fbbf24" stroke-width="0.8"/>
  <text x="317" y="384" fill="#fbbf24" font-size="8" text-anchor="middle">Amp</text>
  <rect x="344" y="355" width="48" height="48" rx="3" fill="rgba(8,51,68,0.5)" stroke="#22d3ee" stroke-width="1.5"/>
  <text x="368" y="384" fill="#22d3ee" font-size="8" font-weight="600" text-anchor="middle">Chr★</text>
  <rect x="395" y="355" width="48" height="48" rx="3" fill="#1e293b" stroke="#334155" stroke-width="0.5"/>
  <rect x="395" y="355" width="48" height="48" rx="3" fill="rgba(120,53,15,0.15)" stroke="#fbbf24" stroke-width="0.8" stroke-dasharray="3,2"/>
  <text x="419" y="384" fill="#fbbf24" font-size="7" text-anchor="middle">self</text>
  <rect x="140" y="406" width="48" height="48" rx="3" fill="rgba(76,29,149,0.3)" stroke="#e879f9" stroke-width="0.8"/>
  <text x="164" y="435" fill="#e879f9" font-size="8" text-anchor="middle">Xen</text>
  <rect x="191" y="406" width="48" height="48" rx="3" fill="rgba(120,53,15,0.2)" stroke="#fbbf24" stroke-width="0.8"/>
  <text x="215" y="435" fill="#fbbf24" font-size="8" text-anchor="middle">Amp</text>
  <rect x="242" y="406" width="48" height="48" rx="3" fill="rgba(120,53,15,0.2)" stroke="#fbbf24" stroke-width="0.8"/>
  <text x="266" y="435" fill="#fbbf24" font-size="8" text-anchor="middle">Amp</text>
  <rect x="293" y="406" width="48" height="48" rx="3" fill="rgba(76,29,149,0.5)" stroke="#e879f9" stroke-width="1.5"/>
  <text x="317" y="435" fill="#e879f9" font-size="8" font-weight="600" text-anchor="middle">Xen★</text>
  <rect x="344" y="406" width="48" height="48" rx="3" fill="rgba(120,53,15,0.25)" stroke="#fbbf24" stroke-width="0.8"/>
  <text x="368" y="435" fill="#fbbf24" font-size="8" text-anchor="middle">Amp</text>
  <rect x="395" y="406" width="48" height="48" rx="3" fill="rgba(120,53,15,0.2)" stroke="#fbbf24" stroke-width="0.8"/>
  <text x="419" y="435" fill="#fbbf24" font-size="8" text-anchor="middle">Amp</text>
  <rect x="446" y="406" width="48" height="48" rx="3" fill="#1e293b" stroke="#334155" stroke-width="0.5"/>
  <text x="470" y="435" fill="#475569" font-size="9" text-anchor="middle">·</text>
  <rect x="140" y="457" width="48" height="48" rx="3" fill="rgba(120,53,15,0.2)" stroke="#fbbf24" stroke-width="0.8"/>
  <text x="164" y="486" fill="#fbbf24" font-size="8" text-anchor="middle">Amp</text>
  <rect x="191" y="457" width="48" height="48" rx="3" fill="rgba(8,51,68,0.3)" stroke="#22d3ee" stroke-width="0.8"/>
  <text x="215" y="486" fill="#22d3ee" font-size="8" text-anchor="middle">Chr</text>
  <rect x="242" y="457" width="48" height="48" rx="3" fill="rgba(8,51,68,0.5)" stroke="#22d3ee" stroke-width="1.5"/>
  <text x="266" y="486" fill="#22d3ee" font-size="8" font-weight="600" text-anchor="middle">Chr★</text>
  <rect x="293" y="457" width="48" height="48" rx="3" fill="rgba(120,53,15,0.25)" stroke="#fbbf24" stroke-width="0.8"/>
  <text x="317" y="486" fill="#fbbf24" font-size="8" text-anchor="middle">Amp</text>
  <rect x="344" y="457" width="48" height="48" rx="3" fill="rgba(8,51,68,0.3)" stroke="#22d3ee" stroke-width="0.8"/>
  <text x="368" y="486" fill="#22d3ee" font-size="8" text-anchor="middle">Chr</text>
  <rect x="395" y="457" width="48" height="48" rx="3" fill="rgba(8,51,68,0.3)" stroke="#22d3ee" stroke-width="0.8"/>
  <text x="419" y="486" fill="#22d3ee" font-size="8" text-anchor="middle">Chr</text>
  <rect x="446" y="457" width="48" height="48" rx="3" fill="rgba(120,53,15,0.2)" stroke="#fbbf24" stroke-width="0.8"/>
  <text x="470" y="486" fill="#fbbf24" font-size="8" text-anchor="middle">Amp</text>
  <rect x="497" y="457" width="48" height="48" rx="3" fill="#1e293b" stroke="#334155" stroke-width="0.5"/>
  <text x="521" y="486" fill="#475569" font-size="9" text-anchor="middle">·</text>
  <rect x="140" y="508" width="48" height="48" rx="3" fill="rgba(120,53,15,0.2)" stroke="#fbbf24" stroke-width="0.8"/>
  <text x="164" y="537" fill="#fbbf24" font-size="8" text-anchor="middle">Amp</text>
  <rect x="191" y="508" width="48" height="48" rx="3" fill="rgba(8,51,68,0.5)" stroke="#22d3ee" stroke-width="1.5"/>
  <text x="215" y="537" fill="#22d3ee" font-size="8" font-weight="600" text-anchor="middle">Chr★</text>
  <rect x="242" y="508" width="48" height="48" rx="3" fill="rgba(8,51,68,0.3)" stroke="#22d3ee" stroke-width="0.8"/>
  <text x="266" y="537" fill="#22d3ee" font-size="8" text-anchor="middle">Chr</text>
  <rect x="293" y="508" width="48" height="48" rx="3" fill="rgba(120,53,15,0.2)" stroke="#fbbf24" stroke-width="0.8"/>
  <text x="317" y="537" fill="#fbbf24" font-size="8" text-anchor="middle">Amp</text>
  <rect x="344" y="508" width="48" height="48" rx="3" fill="rgba(8,51,68,0.3)" stroke="#22d3ee" stroke-width="0.8"/>
  <text x="368" y="537" fill="#22d3ee" font-size="8" text-anchor="middle">Chr</text>
  <rect x="395" y="508" width="48" height="48" rx="3" fill="rgba(8,51,68,0.3)" stroke="#22d3ee" stroke-width="0.8"/>
  <text x="419" y="537" fill="#22d3ee" font-size="8" text-anchor="middle">Chr</text>
  <rect x="446" y="508" width="48" height="48" rx="3" fill="rgba(120,53,15,0.2)" stroke="#fbbf24" stroke-width="0.8"/>
  <text x="470" y="537" fill="#fbbf24" font-size="8" text-anchor="middle">Amp</text>
  <rect x="497" y="508" width="48" height="48" rx="3" fill="rgba(8,51,68,0.3)" stroke="#22d3ee" stroke-width="0.8"/>
  <text x="521" y="537" fill="#22d3ee" font-size="8" text-anchor="middle">Chr</text>
  <rect x="548" y="508" width="48" height="48" rx="3" fill="#1e293b" stroke="#334155" stroke-width="0.5"/>
  <text x="572" y="537" fill="#475569" font-size="9" text-anchor="middle">·</text>
  <rect x="140" y="559" width="48" height="48" rx="3" fill="rgba(76,29,149,0.5)" stroke="#e879f9" stroke-width="1.5"/>
  <text x="164" y="588" fill="#e879f9" font-size="8" font-weight="600" text-anchor="middle">Xen★</text>
  <rect x="191" y="559" width="48" height="48" rx="3" fill="rgba(120,53,15,0.25)" stroke="#fbbf24" stroke-width="0.8"/>
  <text x="215" y="588" fill="#fbbf24" font-size="8" text-anchor="middle">Amp</text>
  <rect x="242" y="559" width="48" height="48" rx="3" fill="rgba(120,53,15,0.2)" stroke="#fbbf24" stroke-width="0.8"/>
  <text x="266" y="588" fill="#fbbf24" font-size="8" text-anchor="middle">Amp</text>
  <rect x="293" y="559" width="48" height="48" rx="3" fill="rgba(76,29,149,0.3)" stroke="#e879f9" stroke-width="0.8"/>
  <text x="317" y="588" fill="#e879f9" font-size="8" text-anchor="middle">Xen</text>
  <rect x="344" y="559" width="48" height="48" rx="3" fill="rgba(120,53,15,0.2)" stroke="#fbbf24" stroke-width="0.8"/>
  <text x="368" y="588" fill="#fbbf24" font-size="8" text-anchor="middle">Amp</text>
  <rect x="395" y="559" width="48" height="48" rx="3" fill="rgba(120,53,15,0.2)" stroke="#fbbf24" stroke-width="0.8"/>
  <text x="419" y="588" fill="#fbbf24" font-size="8" text-anchor="middle">Amp</text>
  <rect x="446" y="559" width="48" height="48" rx="3" fill="rgba(76,29,149,0.3)" stroke="#e879f9" stroke-width="0.8"/>
  <text x="470" y="588" fill="#e879f9" font-size="8" text-anchor="middle">Xen</text>
  <rect x="497" y="559" width="48" height="48" rx="3" fill="rgba(120,53,15,0.2)" stroke="#fbbf24" stroke-width="0.8"/>
  <text x="521" y="588" fill="#fbbf24" font-size="8" text-anchor="middle">Amp</text>
  <rect x="548" y="559" width="48" height="48" rx="3" fill="rgba(120,53,15,0.2)" stroke="#fbbf24" stroke-width="0.8"/>
  <text x="572" y="588" fill="#fbbf24" font-size="8" text-anchor="middle">Amp</text>
  <rect x="599" y="559" width="48" height="48" rx="3" fill="#1e293b" stroke="#334155" stroke-width="0.5"/>
  <text x="623" y="588" fill="#475569" font-size="9" text-anchor="middle">·</text>

  <!-- LEGEND -->
  <rect x="670" y="100" width="170" height="210" rx="6" fill="rgba(15,23,42,0.95)" stroke="#1e293b" stroke-width="1"/>
  <text x="685" y="120" fill="#94a3b8" font-size="9" font-weight="600">LEGEND</text>

  <rect x="685" y="132" width="16" height="16" rx="2" fill="rgba(8,51,68,0.3)" stroke="#22d3ee" stroke-width="0.8"/>
  <text x="710" y="144" fill="#22d3ee" font-size="8">Chronodemon (15)</text>
  <text x="685" y="158" fill="#64748b" font-size="7">Time Circuit internal</text>

  <rect x="685" y="170" width="16" height="16" rx="2" fill="rgba(120,53,15,0.2)" stroke="#fbbf24" stroke-width="0.8"/>
  <text x="710" y="182" fill="#fbbf24" font-size="8">Amphidemon (24)</text>
  <text x="685" y="196" fill="#64748b" font-size="7">Circuit ↔ Outer bridges</text>

  <rect x="685" y="208" width="16" height="16" rx="2" fill="rgba(76,29,149,0.3)" stroke="#e879f9" stroke-width="0.8"/>
  <text x="710" y="220" fill="#e879f9" font-size="8">Xenodemon (6)</text>
  <text x="685" y="234" fill="#64748b" font-size="7">Outer ↔ Outer</text>

  <rect x="685" y="246" width="16" height="16" rx="2" fill="rgba(8,51,68,0.5)" stroke="#22d3ee" stroke-width="1.5"/>
  <text x="710" y="258" fill="#22d3ee" font-size="8">★ Syzygetic (5)</text>
  <text x="685" y="272" fill="#64748b" font-size="7">Sum=9, null pitch</text>

  <rect x="685" y="284" width="16" height="16" rx="2" fill="rgba(120,53,15,0.15)" stroke="#fbbf24" stroke-width="0.8" stroke-dasharray="3,2"/>
  <text x="710" y="296" fill="#fbbf24" font-size="8">Decadence (5)</text>
  <text x="685" y="310" fill="#64748b" font-size="7">Sum=10 incl. self</text>

  <text x="685" y="330" fill="#64748b" font-size="7">TC = {1,2,4,5,7,8}</text>
  <text x="685" y="342" fill="#64748b" font-size="7">Outer = {0,3,6,9}</text>
  <text x="685" y="358" fill="#475569" font-size="7">★ carriers:</text>
  <text x="685" y="370" fill="#64748b" font-size="7">Uttunul · Murrumur · Oddubb</text>
  <text x="685" y="382" fill="#64748b" font-size="7">Djynxx · Katak</text>

</svg>