<svg xmlns="http://www.w3.org/2000/svg" viewBox="0 0 780 720">
  <style>
    @import url('https://fonts.googleapis.com/css2?family=JetBrains+Mono:wght@400;500;600;700&amp;display=swap');
    text { font-family: 'JetBrains Mono', monospace; }
  </style>
  <defs>
    <pattern id="grid" width="40" height="40" patternUnits="userSpaceOnUse">
      <path d="M 40 0 L 0 0 0 40" fill="none" stroke="#1e293b" stroke-width="0.5"/>
    </pattern>
    <marker id="arrow" markerWidth="8" markerHeight="6" refX="7" refY="3" orient="auto"><polygon points="0 0, 8 3, 0 6" fill="#22d3ee"/></marker>
    <marker id="arrow-5" markerWidth="8" markerHeight="6" refX="7" refY="3" orient="auto"><polygon points="0 0, 8 3, 0 6" fill="#fbbf24"/></marker>
  </defs>
  <rect width="100%" height="100%" fill="#0f172a"/>
  <rect width="100%" height="100%" fill="url(#grid)"/>
  <text x="30" y="30" fill="#94a3b8" font-size="10" font-weight="400">POWERS OF 2 CIRCULAR DIAGRAM · HEXAGRAM KERNEL</text>
  <text x="30" y="50" fill="white" font-size="16" font-weight="700">THE 6-CYCLE</text>
  <text x="30" y="67" fill="#64748b" font-size="9">Powers of 2 (cyan, forward): 1→2→4→8→7→5→1. Powers of 5 (amber, backward): 5→7→8→4→2→1→5. Two interlocking triangles.</text>
  <polygon points="380.0,120.0 553.2,220.0 553.2,420.0 380.0,520.0 206.8,420.0 206.8,220.0" fill="none" stroke="#22d3ee" stroke-width="1" stroke-dasharray="8,4" stroke-opacity="0.3"/>
  <line x1="380.0" y1="120.0" x2="553.2" y2="220.0" stroke="#22d3ee" stroke-width="2.5" stroke-opacity="0.8" marker-end="url(#arrow)"/>
  <line x1="553.2" y1="220.0" x2="553.2" y2="420.0" stroke="#22d3ee" stroke-width="2.5" stroke-opacity="0.8" marker-end="url(#arrow)"/>
  <line x1="553.2" y1="420.0" x2="380.0" y2="520.0" stroke="#22d3ee" stroke-width="2.5" stroke-opacity="0.8" marker-end="url(#arrow)"/>
  <line x1="380.0" y1="520.0" x2="206.8" y2="420.0" stroke="#22d3ee" stroke-width="2.5" stroke-opacity="0.8" marker-end="url(#arrow)"/>
  <line x1="206.8" y1="420.0" x2="206.8" y2="220.0" stroke="#22d3ee" stroke-width="2.5" stroke-opacity="0.8" marker-end="url(#arrow)"/>
  <line x1="206.8" y1="220.0" x2="380.0" y2="120.0" stroke="#22d3ee" stroke-width="2.5" stroke-opacity="0.8" marker-end="url(#arrow)"/>
  <line x1="539.3" y1="212.0" x2="366.1" y2="112.0" stroke="#fbbf24" stroke-width="1.5" stroke-opacity="0.5" marker-end="url(#arrow-5)"/>
  <line x1="553.2" y1="404.0" x2="553.2" y2="204.0" stroke="#fbbf24" stroke-width="1.5" stroke-opacity="0.5" marker-end="url(#arrow-5)"/>
  <line x1="393.9" y1="512.0" x2="567.1" y2="412.0" stroke="#fbbf24" stroke-width="1.5" stroke-opacity="0.5" marker-end="url(#arrow-5)"/>
  <line x1="220.7" y1="428.0" x2="393.9" y2="528.0" stroke="#fbbf24" stroke-width="1.5" stroke-opacity="0.5" marker-end="url(#arrow-5)"/>
  <line x1="206.8" y1="236.0" x2="206.8" y2="436.0" stroke="#fbbf24" stroke-width="1.5" stroke-opacity="0.5" marker-end="url(#arrow-5)"/>
  <line x1="366.1" y1="128.0" x2="192.9" y2="228.0" stroke="#fbbf24" stroke-width="1.5" stroke-opacity="0.5" marker-end="url(#arrow-5)"/>
  <polygon points="380.0,120.0 553.2,420.0 206.8,220.0" fill="rgba(8,51,68,0.15)" stroke="#22d3ee" stroke-width="1.5" stroke-opacity="0.6"/>
  <text x="350" y="300" fill="#22d3ee" font-size="8" font-weight="600">△ 1-2-4</text>
  <polygon points="553.2,220.0 380.0,520.0 206.8,420.0" fill="rgba(76,29,149,0.15)" stroke="#a855f7" stroke-width="1.5" stroke-opacity="0.6"/>
  <text x="390" y="340" fill="#a855f7" font-size="8" font-weight="600">▽ 8-7-5</text>
  <line x1="380.0" y1="40.0" x2="380.0" y2="80.0" stroke="#a855f7" stroke-width="2" stroke-opacity="0.6"/>
  <line x1="380.0" y1="120.0" x2="380.0" y2="80.0" stroke="#a855f7" stroke-width="1" stroke-dasharray="4,3" stroke-opacity="0.3"/>
  <line x1="330.0" y1="600.0" x2="430.0" y2="600.0" stroke="#e879f9" stroke-width="2" stroke-opacity="0.6"/>
  <circle cx="380.0" cy="120.0" r="28" fill="#0f172a" stroke="#fbbf24" stroke-width="2"/>
  <circle cx="380.0" cy="120.0" r="25" fill="rgba(15,23,42,0.6)"/>
  <text x="380.0" y="125.0" fill="#fbbf24" font-size="16" font-weight="700" text-anchor="middle">1</text>
  <circle cx="553.2" cy="220.0" r="28" fill="#0f172a" stroke="#c084fc" stroke-width="2"/>
  <circle cx="553.2" cy="220.0" r="25" fill="rgba(15,23,42,0.6)"/>
  <text x="553.2" y="225.0" fill="#c084fc" font-size="16" font-weight="700" text-anchor="middle">8</text>
  <circle cx="553.2" cy="420.0" r="28" fill="#0f172a" stroke="#34d399" stroke-width="2"/>
  <circle cx="553.2" cy="420.0" r="25" fill="rgba(15,23,42,0.6)"/>
  <text x="553.2" y="425.0" fill="#34d399" font-size="16" font-weight="700" text-anchor="middle">2</text>
  <circle cx="380.0" cy="520.0" r="28" fill="#0f172a" stroke="#fb7185" stroke-width="2"/>
  <circle cx="380.0" cy="520.0" r="25" fill="rgba(15,23,42,0.6)"/>
  <text x="380.0" y="525.0" fill="#fb7185" font-size="16" font-weight="700" text-anchor="middle">7</text>
  <circle cx="206.8" cy="420.0" r="28" fill="#0f172a" stroke="#34d399" stroke-width="2"/>
  <circle cx="206.8" cy="420.0" r="25" fill="rgba(15,23,42,0.6)"/>
  <text x="206.8" y="425.0" fill="#34d399" font-size="16" font-weight="700" text-anchor="middle">5</text>
  <circle cx="206.8" cy="220.0" r="28" fill="#0f172a" stroke="#00ffff" stroke-width="2"/>
  <circle cx="206.8" cy="220.0" r="25" fill="rgba(15,23,42,0.6)"/>
  <text x="206.8" y="225.0" fill="#00ffff" font-size="16" font-weight="700" text-anchor="middle">4</text>
  <circle cx="330.0" cy="600.0" r="22" fill="#0f172a" stroke="#e879f9" stroke-width="2"/>
  <circle cx="330.0" cy="600.0" r="19" fill="rgba(15,23,42,0.6)"/>
  <text x="330.0" y="605.0" fill="#e879f9" font-size="16" font-weight="700" text-anchor="middle">3</text>
  <circle cx="430.0" cy="600.0" r="22" fill="#0f172a" stroke="#60a5fa" stroke-width="2"/>
  <circle cx="430.0" cy="600.0" r="19" fill="rgba(15,23,42,0.6)"/>
  <text x="430.0" y="605.0" fill="#60a5fa" font-size="16" font-weight="700" text-anchor="middle">6</text>
  <circle cx="380.0" cy="40.0" r="22" fill="#0f172a" stroke="#94a3b8" stroke-width="2"/>
  <circle cx="380.0" cy="40.0" r="19" fill="rgba(15,23,42,0.6)"/>
  <text x="380.0" y="45.0" fill="#94a3b8" font-size="16" font-weight="700" text-anchor="middle">0</text>
  <circle cx="380.0" cy="80.0" r="22" fill="#0f172a" stroke="#a855f7" stroke-width="2"/>
  <circle cx="380.0" cy="80.0" r="19" fill="rgba(15,23,42,0.6)"/>
  <text x="380.0" y="85.0" fill="#a855f7" font-size="16" font-weight="700" text-anchor="middle">9</text>
  <text x="466.6" y="258.0" fill="#64748b" font-size="7" text-anchor="middle">2^1</text>
  <text x="466.6" y="358.0" fill="#64748b" font-size="7" text-anchor="middle">2^2</text>
  <text x="380.0" y="308.0" fill="#64748b" font-size="7" text-anchor="middle">2^3</text>
  <text x="293.4" y="458.0" fill="#64748b" font-size="7" text-anchor="middle">2^4</text>
  <text x="293.4" y="258.0" fill="#64748b" font-size="7" text-anchor="middle">2^5</text>
  <text x="380.0" y="208.0" fill="#64748b" font-size="7" text-anchor="middle">2^6</text>
  <text x="206.8" y="338.0" fill="#64748b" font-size="8" font-weight="500" text-anchor="middle">Water</text>
  <text x="466.6" y="188.0" fill="#64748b" font-size="8" font-weight="500" text-anchor="middle">Wood</text>
  <text x="466.6" y="488.0" fill="#64748b" font-size="8" font-weight="500" text-anchor="middle">Fire</text>
  <text x="380.0" y="618.0" fill="#64748b" font-size="8" font-weight="500" text-anchor="middle">Metal</text>
  <text x="380.0" y="78.0" fill="#64748b" font-size="8" font-weight="500" text-anchor="middle">Earth</text>

  <rect x="30" y="640" width="720" height="65" rx="6" fill="rgba(15,23,42,0.95)" stroke="#1e293b" stroke-width="1"/>
  <text x="45" y="660" fill="#94a3b8" font-size="9" font-weight="600">THE TWIN SERPENTS</text>
  <text x="45" y="678" fill="#64748b" font-size="8">Powers of 2 (cyan): 1,2,4,8,7,5 forward. Powers of 5 (amber): 5,7,8,4,2,1 backward. Same 6-cycle, opposite directions.</text>
  <text x="45" y="694" fill="#64748b" font-size="8">Two prime factors of 10 run time forever in opposed directions, neither obviously favored. — Nick Land</text>
</svg>