<svg xmlns="http://www.w3.org/2000/svg" viewBox="0 0 780 620">
  <style>
    @import url('https://fonts.googleapis.com/css2?family=JetBrains+Mono:wght@400;500;600;700&amp;display=swap');
    text { font-family: 'JetBrains Mono', monospace; }
  </style>
  <defs>
    <pattern id="grid" width="40" height="40" patternUnits="userSpaceOnUse">
      <path d="M 40 0 L 0 0 0 40" fill="none" stroke="#1e293b" stroke-width="0.5"/>
    </pattern>
  </defs>
  <rect width="100%" height="100%" fill="#0f172a"/>
  <rect width="100%" height="100%" fill="url(#grid)"/>
  <text x="30" y="30" fill="#94a3b8" font-size="10" font-weight="400">8 TRIGRAMS · C(8,2) = 28</text>
  <text x="30" y="50" fill="white" font-size="16" font-weight="700">THE TRIGRAM NUMOGRAM</text>
  <text x="30" y="67" fill="#64748b" font-size="9">4 syzygy pairs (sum to 7, cyan). 4 decadence pairs (sum to 8, amber). Self-decadence at Trigram 4 (Mountain).</text>
  <line x1="380.0" y1="110.0" x2="521.4" y2="168.6" stroke="#475569" stroke-width="0.4" stroke-opacity="0.08"/>
  <line x1="380.0" y1="110.0" x2="580.0" y2="310.0" stroke="#475569" stroke-width="0.4" stroke-opacity="0.08"/>
  <line x1="380.0" y1="110.0" x2="521.4" y2="451.4" stroke="#475569" stroke-width="0.4" stroke-opacity="0.08"/>
  <line x1="380.0" y1="110.0" x2="380.0" y2="510.0" stroke="#475569" stroke-width="0.4" stroke-opacity="0.08"/>
  <line x1="380.0" y1="110.0" x2="238.6" y2="451.4" stroke="#475569" stroke-width="0.4" stroke-opacity="0.08"/>
  <line x1="380.0" y1="110.0" x2="180.0" y2="310.0" stroke="#475569" stroke-width="0.4" stroke-opacity="0.08"/>
  <line x1="521.4" y1="168.6" x2="580.0" y2="310.0" stroke="#475569" stroke-width="0.4" stroke-opacity="0.08"/>
  <line x1="521.4" y1="168.6" x2="521.4" y2="451.4" stroke="#475569" stroke-width="0.4" stroke-opacity="0.08"/>
  <line x1="521.4" y1="168.6" x2="380.0" y2="510.0" stroke="#475569" stroke-width="0.4" stroke-opacity="0.08"/>
  <line x1="521.4" y1="168.6" x2="238.6" y2="451.4" stroke="#475569" stroke-width="0.4" stroke-opacity="0.08"/>
  <line x1="580.0" y1="310.0" x2="521.4" y2="451.4" stroke="#475569" stroke-width="0.4" stroke-opacity="0.08"/>
  <line x1="580.0" y1="310.0" x2="380.0" y2="510.0" stroke="#475569" stroke-width="0.4" stroke-opacity="0.08"/>
  <line x1="580.0" y1="310.0" x2="238.6" y2="168.6" stroke="#475569" stroke-width="0.4" stroke-opacity="0.08"/>
  <line x1="521.4" y1="451.4" x2="180.0" y2="310.0" stroke="#475569" stroke-width="0.4" stroke-opacity="0.08"/>
  <line x1="521.4" y1="451.4" x2="238.6" y2="168.6" stroke="#475569" stroke-width="0.4" stroke-opacity="0.08"/>
  <line x1="380.0" y1="510.0" x2="238.6" y2="451.4" stroke="#475569" stroke-width="0.4" stroke-opacity="0.08"/>
  <line x1="380.0" y1="510.0" x2="180.0" y2="310.0" stroke="#475569" stroke-width="0.4" stroke-opacity="0.08"/>
  <line x1="380.0" y1="510.0" x2="238.6" y2="168.6" stroke="#475569" stroke-width="0.4" stroke-opacity="0.08"/>
  <line x1="238.6" y1="451.4" x2="180.0" y2="310.0" stroke="#475569" stroke-width="0.4" stroke-opacity="0.08"/>
  <line x1="238.6" y1="451.4" x2="238.6" y2="168.6" stroke="#475569" stroke-width="0.4" stroke-opacity="0.08"/>
  <line x1="180.0" y1="310.0" x2="238.6" y2="168.6" stroke="#475569" stroke-width="0.4" stroke-opacity="0.08"/>
  <line x1="521.4" y1="168.6" x2="238.6" y2="168.6" stroke="#fbbf24" stroke-width="2" stroke-opacity="0.5"/>
  <text x="380.0" y="156.6" fill="#fbbf24" font-size="7" text-anchor="middle">1↔7</text>
  <line x1="580.0" y1="310.0" x2="180.0" y2="310.0" stroke="#fbbf24" stroke-width="2" stroke-opacity="0.5"/>
  <text x="380.0" y="298.0" fill="#fbbf24" font-size="7" text-anchor="middle">2↔6</text>
  <line x1="521.4" y1="451.4" x2="238.6" y2="451.4" stroke="#fbbf24" stroke-width="2" stroke-opacity="0.5"/>
  <text x="380.0" y="439.4" fill="#fbbf24" font-size="7" text-anchor="middle">3↔5</text>
  <line x1="380.0" y1="510.0" x2="380.0" y2="510.0" stroke="#fbbf24" stroke-width="2" stroke-opacity="0.5"/>
  <line x1="380.0" y1="110.0" x2="238.6" y2="168.6" stroke="#22d3ee" stroke-width="3" stroke-opacity="0.9"/>
  <text x="309.3" y="127.3" fill="#22d3ee" font-size="8" font-weight="600" text-anchor="middle">0::7</text>
  <line x1="521.4" y1="168.6" x2="180.0" y2="310.0" stroke="#22d3ee" stroke-width="3" stroke-opacity="0.9"/>
  <text x="350.7" y="227.3" fill="#22d3ee" font-size="8" font-weight="600" text-anchor="middle">1::6</text>
  <line x1="580.0" y1="310.0" x2="238.6" y2="451.4" stroke="#22d3ee" stroke-width="3" stroke-opacity="0.9"/>
  <text x="409.3" y="368.7" fill="#22d3ee" font-size="8" font-weight="600" text-anchor="middle">2::5</text>
  <line x1="521.4" y1="451.4" x2="380.0" y2="510.0" stroke="#22d3ee" stroke-width="3" stroke-opacity="0.9"/>
  <text x="450.7" y="468.7" fill="#22d3ee" font-size="8" font-weight="600" text-anchor="middle">3::4</text>
  <rect x="372.0" y="104.0" width="6" height="2" fill="#94a3b8" rx="1"/>
  <rect x="382.0" y="104.0" width="6" height="2" fill="#94a3b8" rx="1"/>
  <rect x="372.0" y="110.0" width="6" height="2" fill="#94a3b8" rx="1"/>
  <rect x="382.0" y="110.0" width="6" height="2" fill="#94a3b8" rx="1"/>
  <rect x="372.0" y="116.0" width="6" height="2" fill="#94a3b8" rx="1"/>
  <rect x="382.0" y="116.0" width="6" height="2" fill="#94a3b8" rx="1"/>
  <text x="380.0" y="128.0" fill="#94a3b8" font-size="8" font-weight="600" text-anchor="middle">☷ Kun</text>
  <text x="380.0" y="140.0" fill="#64748b" font-size="7" text-anchor="middle">Earth</text>
  <text x="380.0" y="152.0" fill="#475569" font-size="7" text-anchor="middle">000</text>
  <rect x="513.4" y="162.6" width="6" height="2" fill="#fbbf24" rx="1"/>
  <rect x="523.4" y="162.6" width="6" height="2" fill="#fbbf24" rx="1"/>
  <rect x="513.4" y="168.6" width="6" height="2" fill="#fbbf24" rx="1"/>
  <rect x="523.4" y="168.6" width="6" height="2" fill="#fbbf24" rx="1"/>
  <rect x="513.4" y="174.6" width="16" height="2" fill="#fbbf24" rx="1"/>
  <text x="521.4" y="186.6" fill="#fbbf24" font-size="8" font-weight="600" text-anchor="middle">☳ Zhen</text>
  <text x="521.4" y="198.6" fill="#64748b" font-size="7" text-anchor="middle">Thunder</text>
  <text x="521.4" y="210.6" fill="#475569" font-size="7" text-anchor="middle">001</text>
  <rect x="572.0" y="304.0" width="6" height="2" fill="#34d399" rx="1"/>
  <rect x="582.0" y="304.0" width="6" height="2" fill="#34d399" rx="1"/>
  <rect x="572.0" y="310.0" width="16" height="2" fill="#34d399" rx="1"/>
  <rect x="572.0" y="316.0" width="6" height="2" fill="#34d399" rx="1"/>
  <rect x="582.0" y="316.0" width="6" height="2" fill="#34d399" rx="1"/>
  <text x="580.0" y="328.0" fill="#34d399" font-size="8" font-weight="600" text-anchor="middle">☵ Kan</text>
  <text x="580.0" y="340.0" fill="#64748b" font-size="7" text-anchor="middle">Water</text>
  <text x="580.0" y="352.0" fill="#475569" font-size="7" text-anchor="middle">010</text>
  <rect x="513.4" y="445.4" width="6" height="2" fill="#e879f9" rx="1"/>
  <rect x="523.4" y="445.4" width="6" height="2" fill="#e879f9" rx="1"/>
  <rect x="513.4" y="451.4" width="16" height="2" fill="#e879f9" rx="1"/>
  <rect x="513.4" y="457.4" width="16" height="2" fill="#e879f9" rx="1"/>
  <text x="521.4" y="469.4" fill="#e879f9" font-size="8" font-weight="600" text-anchor="middle">☱ Dui</text>
  <text x="521.4" y="481.4" fill="#64748b" font-size="7" text-anchor="middle">Lake</text>
  <text x="521.4" y="493.4" fill="#475569" font-size="7" text-anchor="middle">011</text>
  <rect x="372.0" y="504.0" width="16" height="2" fill="#00ffff" rx="1"/>
  <rect x="372.0" y="510.0" width="6" height="2" fill="#00ffff" rx="1"/>
  <rect x="382.0" y="510.0" width="6" height="2" fill="#00ffff" rx="1"/>
  <rect x="372.0" y="516.0" width="6" height="2" fill="#00ffff" rx="1"/>
  <rect x="382.0" y="516.0" width="6" height="2" fill="#00ffff" rx="1"/>
  <text x="380.0" y="528.0" fill="#00ffff" font-size="8" font-weight="600" text-anchor="middle">☶ Gen</text>
  <text x="380.0" y="540.0" fill="#64748b" font-size="7" text-anchor="middle">Mountain</text>
  <text x="380.0" y="552.0" fill="#475569" font-size="7" text-anchor="middle">100</text>
  <rect x="230.6" y="445.4" width="16" height="2" fill="#34d399" rx="1"/>
  <rect x="230.6" y="451.4" width="6" height="2" fill="#34d399" rx="1"/>
  <rect x="240.6" y="451.4" width="6" height="2" fill="#34d399" rx="1"/>
  <rect x="230.6" y="457.4" width="16" height="2" fill="#34d399" rx="1"/>
  <text x="238.6" y="469.4" fill="#34d399" font-size="8" font-weight="600" text-anchor="middle">☲ Li</text>
  <text x="238.6" y="481.4" fill="#64748b" font-size="7" text-anchor="middle">Flame</text>
  <text x="238.6" y="493.4" fill="#475569" font-size="7" text-anchor="middle">101</text>
  <rect x="172.0" y="304.0" width="16" height="2" fill="#60a5fa" rx="1"/>
  <rect x="172.0" y="310.0" width="16" height="2" fill="#60a5fa" rx="1"/>
  <rect x="172.0" y="316.0" width="6" height="2" fill="#60a5fa" rx="1"/>
  <rect x="182.0" y="316.0" width="6" height="2" fill="#60a5fa" rx="1"/>
  <text x="180.0" y="328.0" fill="#60a5fa" font-size="8" font-weight="600" text-anchor="middle">☴ Xun</text>
  <text x="180.0" y="340.0" fill="#64748b" font-size="7" text-anchor="middle">Wind</text>
  <text x="180.0" y="352.0" fill="#475569" font-size="7" text-anchor="middle">110</text>
  <rect x="230.6" y="162.6" width="16" height="2" fill="#fb7185" rx="1"/>
  <rect x="230.6" y="168.6" width="16" height="2" fill="#fb7185" rx="1"/>
  <rect x="230.6" y="174.6" width="16" height="2" fill="#fb7185" rx="1"/>
  <text x="238.6" y="186.6" fill="#fb7185" font-size="8" font-weight="600" text-anchor="middle">☰ Qian</text>
  <text x="238.6" y="198.6" fill="#64748b" font-size="7" text-anchor="middle">Heaven</text>
  <text x="238.6" y="210.6" fill="#475569" font-size="7" text-anchor="middle">111</text>
  <circle cx="380.0" cy="510.0" r="30" fill="none" stroke="#fbbf24" stroke-width="1" stroke-dasharray="3,2" stroke-opacity="0.5"/>
  <text x="380.0" y="565.0" fill="#fbbf24" font-size="7" text-anchor="middle">self-decadence</text>

  <rect x="30" y="550" width="720" height="55" rx="6" fill="rgba(15,23,42,0.95)" stroke="#1e293b" stroke-width="1"/>
  <text x="45" y="570" fill="#94a3b8" font-size="9" font-weight="600">BASE-8 NUMOGRAM</text>
  <text x="45" y="588" fill="#64748b" font-size="8">Syzygy = sum to 7 = bitwise complement (each line opposite). Decadence = sum to 8. Trigram 4 (Mountain, 100) = self-decadence.</text>
  <text x="45" y="600" fill="#475569" font-size="7">C(8,2)=28 pairs. 4 syzygy (cyan). 4 decadence (amber). 20 other (dim). Same structure as base-10 numogram, one dimension smaller.</text>
</svg>